G04 #@! TF.GenerationSoftware,KiCad,Pcbnew,5.1.2-f72e74a~84~ubuntu18.04.1*
G04 #@! TF.CreationDate,2019-07-30T17:12:06-04:00*
G04 #@! TF.ProjectId,fe310-dev,66653331-302d-4646-9576-2e6b69636164,rev?*
G04 #@! TF.SameCoordinates,Original*
G04 #@! TF.FileFunction,Copper,L2,Bot*
G04 #@! TF.FilePolarity,Positive*
%FSLAX46Y46*%
G04 Gerber Fmt 4.6, Leading zero omitted, Abs format (unit mm)*
G04 Created by KiCad (PCBNEW 5.1.2-f72e74a~84~ubuntu18.04.1) date 2019-07-30 17:12:06*
%MOMM*%
%LPD*%
G04 APERTURE LIST*
%ADD10C,0.700000*%
%ADD11C,4.400000*%
%ADD12O,1.700000X1.700000*%
%ADD13R,1.700000X1.700000*%
%ADD14C,0.600000*%
%ADD15R,5.400000X5.400000*%
%ADD16C,0.150000*%
%ADD17C,0.254000*%
G04 APERTURE END LIST*
D10*
X25166726Y-48833274D03*
X24000000Y-48350000D03*
X22833274Y-48833274D03*
X22350000Y-50000000D03*
X22833274Y-51166726D03*
X24000000Y-51650000D03*
X25166726Y-51166726D03*
X25650000Y-50000000D03*
D11*
X24000000Y-50000000D03*
X63000000Y-50000000D03*
D10*
X64650000Y-50000000D03*
X64166726Y-51166726D03*
X63000000Y-51650000D03*
X61833274Y-51166726D03*
X61350000Y-50000000D03*
X61833274Y-48833274D03*
X63000000Y-48350000D03*
X64166726Y-48833274D03*
X33166726Y-18833274D03*
X32000000Y-18350000D03*
X30833274Y-18833274D03*
X30350000Y-20000000D03*
X30833274Y-21166726D03*
X32000000Y-21650000D03*
X33166726Y-21166726D03*
X33650000Y-20000000D03*
D11*
X32000000Y-20000000D03*
D12*
X62150000Y-42250000D03*
X59610000Y-42250000D03*
X57070000Y-42250000D03*
X54530000Y-42250000D03*
X51990000Y-42250000D03*
D13*
X49450000Y-42250000D03*
X68000000Y-45000000D03*
D12*
X68000000Y-42460000D03*
X68000000Y-39920000D03*
X68000000Y-37380000D03*
X68000000Y-34840000D03*
X68000000Y-32300000D03*
X68000000Y-29760000D03*
X68000000Y-27220000D03*
X68000000Y-24680000D03*
X68000000Y-22140000D03*
X68000000Y-19600000D03*
X68000000Y-17060000D03*
X22000000Y-44940000D03*
X22000000Y-42400000D03*
X22000000Y-39860000D03*
X22000000Y-37320000D03*
X22000000Y-34780000D03*
X22000000Y-32240000D03*
X22000000Y-29700000D03*
X22000000Y-27160000D03*
X22000000Y-24620000D03*
X22000000Y-22080000D03*
X22000000Y-19540000D03*
D13*
X22000000Y-17000000D03*
D12*
X62180000Y-38500000D03*
X59640000Y-38500000D03*
X57100000Y-38500000D03*
X54560000Y-38500000D03*
X52020000Y-38500000D03*
X49480000Y-38500000D03*
X46940000Y-38500000D03*
D13*
X44400000Y-38500000D03*
D14*
X43233333Y-23783333D03*
X41766667Y-23783333D03*
X43966667Y-24516667D03*
X43233333Y-24516667D03*
X42500000Y-24516667D03*
X41766667Y-24516667D03*
X41033333Y-24516667D03*
X43233333Y-25250000D03*
X41766667Y-25250000D03*
X43966667Y-25983333D03*
X43233333Y-25983333D03*
X42500000Y-25983333D03*
X41766667Y-25983333D03*
X41033333Y-25983333D03*
X43233333Y-26716667D03*
X41766667Y-26716667D03*
D15*
X42500000Y-25250000D03*
D14*
X35900000Y-33375000D03*
X34300000Y-35200000D03*
X42250000Y-16925030D03*
X44450000Y-18250000D03*
X33100000Y-27250000D03*
X44250000Y-29400000D03*
X49196000Y-22275000D03*
X27940000Y-44069000D03*
X40550000Y-20250000D03*
X37150000Y-29700000D03*
X32450000Y-38700000D03*
X31649998Y-29700000D03*
X48900000Y-27749999D03*
X45496000Y-19644000D03*
X40850000Y-32250000D03*
X41450000Y-35200000D03*
X33050000Y-28900000D03*
X45640000Y-18120000D03*
X38020000Y-19390000D03*
X43989000Y-19263000D03*
X52750000Y-32250000D03*
X47500000Y-27750000D03*
X46500000Y-27750000D03*
X45750000Y-28000000D03*
X41950000Y-58100000D03*
X42800000Y-62650000D03*
X53250000Y-27750000D03*
X53250000Y-28750000D03*
X52020000Y-34000000D03*
X46625895Y-25861459D03*
X51495000Y-36500000D03*
X31300000Y-34900000D03*
X40000000Y-33500000D03*
X39000000Y-39900000D03*
X35100000Y-37400000D03*
X47500000Y-22275000D03*
X48942000Y-25175000D03*
X46021000Y-19009000D03*
D16*
X43233333Y-25983333D02*
X42500000Y-25250000D01*
X43233333Y-26041667D02*
X43233333Y-25983333D01*
X43125030Y-16925030D02*
X44450000Y-18250000D01*
X42250000Y-16925030D02*
X43125030Y-16925030D01*
X42674264Y-16925030D02*
X42250000Y-16925030D01*
X44202032Y-16925030D02*
X42674264Y-16925030D01*
X67865030Y-16925030D02*
X68000000Y-17060000D01*
X67150001Y-17909999D02*
X68000000Y-17060000D01*
X63029999Y-22030001D02*
X67150001Y-17909999D01*
X63029999Y-37650001D02*
X63029999Y-22030001D01*
X62180000Y-38500000D02*
X63029999Y-37650001D01*
X34300000Y-35200000D02*
X35400000Y-36300000D01*
X35400000Y-36300000D02*
X41950000Y-36300000D01*
X42500000Y-35750000D02*
X42500000Y-34600000D01*
X41950000Y-36300000D02*
X42500000Y-35750000D01*
X42500000Y-25250000D02*
X42500000Y-34600000D01*
X34300000Y-38255000D02*
X34300000Y-35200000D01*
X27615000Y-44940000D02*
X34300000Y-38255000D01*
X35900000Y-30050000D02*
X33100000Y-27250000D01*
X35900000Y-33375000D02*
X35900000Y-30950000D01*
X35900000Y-30950000D02*
X36700000Y-30950000D01*
X35900000Y-30950000D02*
X35900000Y-30050000D01*
X36700000Y-30950000D02*
X38350000Y-29300000D01*
X38350000Y-26550000D02*
X39650000Y-25250000D01*
X39650000Y-25250000D02*
X42500000Y-25250000D01*
X38350000Y-29300000D02*
X38350000Y-26550000D01*
X42500000Y-25983334D02*
X42500000Y-25250000D01*
X44250000Y-27733334D02*
X42500000Y-25983334D01*
X44250000Y-29400000D02*
X44250000Y-27733334D01*
X42250000Y-16925030D02*
X52319030Y-16925030D01*
X52319030Y-16925030D02*
X67865030Y-16925030D01*
X49450000Y-43250000D02*
X49450000Y-42250000D01*
X51200000Y-45000000D02*
X49450000Y-43250000D01*
X68000000Y-45000000D02*
X51200000Y-45000000D01*
X37150000Y-23650000D02*
X37150000Y-29700000D01*
X40550000Y-20250000D02*
X37150000Y-23650000D01*
X30774999Y-37024999D02*
X30774999Y-30574999D01*
X30774999Y-30574999D02*
X31649998Y-29700000D01*
X32450000Y-38700000D02*
X30774999Y-37024999D01*
X67000000Y-45000000D02*
X68000000Y-45000000D01*
X61104999Y-39104999D02*
X67000000Y-45000000D01*
X61104999Y-34827997D02*
X61104999Y-39104999D01*
X53152001Y-26874999D02*
X61104999Y-34827997D01*
X49350736Y-26874999D02*
X53152001Y-26874999D01*
X48900000Y-27325735D02*
X49350736Y-26874999D01*
X48900000Y-27749999D02*
X48900000Y-27325735D01*
X40550000Y-20250000D02*
X43960000Y-20250000D01*
X43960000Y-20250000D02*
X44526000Y-20250000D01*
X44526000Y-20250000D02*
X44890000Y-20250000D01*
X44890000Y-20250000D02*
X45496000Y-19644000D01*
X40850000Y-34600000D02*
X41450000Y-35200000D01*
X40850000Y-32250000D02*
X40850000Y-34600000D01*
X40425736Y-32250000D02*
X40850000Y-32250000D01*
X38775735Y-33900001D02*
X40425736Y-32250000D01*
X35647999Y-33900001D02*
X38775735Y-33900001D01*
X33050000Y-31302002D02*
X35647999Y-33900001D01*
X33050000Y-28900000D02*
X33050000Y-31302002D01*
X31360000Y-28900000D02*
X22000000Y-19540000D01*
X33050000Y-28900000D02*
X31360000Y-28900000D01*
X44497000Y-19263000D02*
X44941500Y-18818500D01*
X44941500Y-18818500D02*
X45640000Y-18120000D01*
X38444264Y-19390000D02*
X38571264Y-19263000D01*
X38020000Y-19390000D02*
X38444264Y-19390000D01*
X38571264Y-19263000D02*
X43989000Y-19263000D01*
X43989000Y-19263000D02*
X44497000Y-19263000D01*
X58760001Y-41400001D02*
X59610000Y-42250000D01*
X57934979Y-40574979D02*
X58760001Y-41400001D01*
X55043977Y-40574979D02*
X57934979Y-40574979D01*
X53095001Y-38626003D02*
X55043977Y-40574979D01*
X53095001Y-32595001D02*
X53095001Y-38626003D01*
X52750000Y-32250000D02*
X53095001Y-32595001D01*
X47450000Y-32350000D02*
X47500000Y-32300000D01*
X47450000Y-34420721D02*
X47450000Y-32350000D01*
X47500000Y-28200000D02*
X47500000Y-27750000D01*
X50944999Y-39016001D02*
X50944999Y-37915720D01*
X52803987Y-40874989D02*
X50944999Y-39016001D01*
X47500000Y-32300000D02*
X47500000Y-28200000D01*
X57070000Y-42250000D02*
X55694989Y-40874989D01*
X50944999Y-37915720D02*
X47450000Y-34420721D01*
X55694989Y-40874989D02*
X52803987Y-40874989D01*
X53454999Y-41174999D02*
X52424999Y-41174999D01*
X54530000Y-42250000D02*
X53454999Y-41174999D01*
X52424999Y-41174999D02*
X50555001Y-39305001D01*
X48505001Y-35900000D02*
X50555001Y-37950000D01*
X50555001Y-39305001D02*
X50555001Y-37950000D01*
X48450000Y-35900000D02*
X46500000Y-33950000D01*
X48505001Y-35900000D02*
X48450000Y-35900000D01*
X46500000Y-27750000D02*
X46500000Y-33950000D01*
X51140001Y-41400001D02*
X51990000Y-42250000D01*
X50914999Y-41174999D02*
X51140001Y-41400001D01*
X45750000Y-38901002D02*
X48023997Y-41174999D01*
X48023997Y-41174999D02*
X50914999Y-41174999D01*
X45750000Y-28000000D02*
X45750000Y-38901002D01*
X26549990Y-31709990D02*
X26549990Y-49449990D01*
X22000000Y-27160000D02*
X26549990Y-31709990D01*
X35200000Y-58100000D02*
X41950000Y-58100000D01*
X26549990Y-49449990D02*
X35200000Y-58100000D01*
X42800000Y-62650000D02*
X42800000Y-59600000D01*
X42800000Y-59600000D02*
X43600000Y-58800000D01*
X43600000Y-58800000D02*
X43600000Y-54750000D01*
X34315001Y-45465001D02*
X27362999Y-45465001D01*
X27362999Y-45465001D02*
X26850000Y-44952002D01*
X43600000Y-54750000D02*
X34315001Y-45465001D01*
X26850000Y-44952002D02*
X26850000Y-29470000D01*
X26850000Y-29470000D02*
X22000000Y-24620000D01*
X59640000Y-34140000D02*
X59640000Y-38500000D01*
X53250000Y-27750000D02*
X59640000Y-34140000D01*
X57100000Y-32600000D02*
X57100000Y-38500000D01*
X53250000Y-28750000D02*
X57100000Y-32600000D01*
X52020000Y-34424264D02*
X52020000Y-38500000D01*
X52020000Y-34000000D02*
X52020000Y-34424264D01*
X51495000Y-36075736D02*
X48114436Y-32695172D01*
X51495000Y-36500000D02*
X51495000Y-36075736D01*
X48114436Y-32695172D02*
X48114436Y-27350000D01*
X46625895Y-25861459D02*
X48114436Y-27350000D01*
X31800000Y-34400000D02*
X31673652Y-34526348D01*
X32730165Y-34370290D02*
X32666756Y-34392478D01*
X32834549Y-34287046D02*
X32787046Y-34334549D01*
X31673652Y-34526348D02*
X31300000Y-34900000D01*
X32870290Y-34230165D02*
X32834549Y-34287046D01*
X32892478Y-34166756D02*
X32870290Y-34230165D01*
X32900000Y-34100000D02*
X32892478Y-34166756D01*
X32900000Y-33997471D02*
X32900000Y-34100000D01*
X32929709Y-33867305D02*
X32907521Y-33930714D01*
X33492478Y-33930714D02*
X33470290Y-33867305D01*
X32965450Y-33810424D02*
X32929709Y-33867305D01*
X33012953Y-33762921D02*
X32965450Y-33810424D01*
X33069834Y-33727180D02*
X33012953Y-33762921D01*
X33133243Y-33704992D02*
X33069834Y-33727180D01*
X33200000Y-33697471D02*
X33133243Y-33704992D01*
X33266756Y-33704992D02*
X33200000Y-33697471D01*
X33330165Y-33727180D02*
X33266756Y-33704992D01*
X33434549Y-33810424D02*
X33387046Y-33762921D01*
X32907521Y-33930714D02*
X32900000Y-33997471D01*
X33470290Y-33867305D02*
X33434549Y-33810424D01*
X33500000Y-34100000D02*
X33500000Y-33997471D01*
X33565450Y-34287046D02*
X33529709Y-34230165D01*
X32787046Y-34334549D02*
X32730165Y-34370290D01*
X33612953Y-34334549D02*
X33565450Y-34287046D01*
X32666756Y-34392478D02*
X32600000Y-34400000D01*
X33500000Y-33997471D02*
X33492478Y-33930714D01*
X33387046Y-33762921D02*
X33330165Y-33727180D01*
X33800000Y-34400000D02*
X33733243Y-34392478D01*
X33669834Y-34370290D02*
X33612953Y-34334549D01*
X40000000Y-33500000D02*
X39100000Y-34400000D01*
X33507521Y-34166756D02*
X33500000Y-34100000D01*
X32600000Y-34400000D02*
X31800000Y-34400000D01*
X39100000Y-34400000D02*
X33800000Y-34400000D01*
X33733243Y-34392478D02*
X33669834Y-34370290D01*
X33529709Y-34230165D02*
X33507521Y-34166756D01*
X37600000Y-39900000D02*
X35100000Y-37400000D01*
X39000000Y-39900000D02*
X37600000Y-39900000D01*
X47500000Y-22275000D02*
X47500000Y-21504000D01*
X48942000Y-23717000D02*
X48942000Y-25175000D01*
X47500000Y-22275000D02*
X48942000Y-23717000D01*
X46021000Y-19009000D02*
X46021000Y-20025000D01*
X47500000Y-21504000D02*
X46021000Y-20025000D01*
D17*
G36*
X67118645Y-15864822D02*
G01*
X66902412Y-16059731D01*
X66728359Y-16293080D01*
X66603175Y-16555901D01*
X66558524Y-16703110D01*
X66679845Y-16933000D01*
X67873000Y-16933000D01*
X67873000Y-16913000D01*
X68127000Y-16913000D01*
X68127000Y-16933000D01*
X68147000Y-16933000D01*
X68147000Y-17187000D01*
X68127000Y-17187000D01*
X68127000Y-17207000D01*
X67873000Y-17207000D01*
X67873000Y-17187000D01*
X66679845Y-17187000D01*
X66558524Y-17416890D01*
X66603175Y-17564099D01*
X66728359Y-17826920D01*
X66902412Y-18060269D01*
X67118645Y-18255178D01*
X67235523Y-18324799D01*
X67170986Y-18359294D01*
X66944866Y-18544866D01*
X66759294Y-18770986D01*
X66621401Y-19028966D01*
X66536487Y-19308889D01*
X66507815Y-19600000D01*
X66536487Y-19891111D01*
X66621401Y-20171034D01*
X66759294Y-20429014D01*
X66944866Y-20655134D01*
X67170986Y-20840706D01*
X67225791Y-20870000D01*
X67170986Y-20899294D01*
X66944866Y-21084866D01*
X66759294Y-21310986D01*
X66621401Y-21568966D01*
X66536487Y-21848889D01*
X66507815Y-22140000D01*
X66536487Y-22431111D01*
X66621401Y-22711034D01*
X66759294Y-22969014D01*
X66944866Y-23195134D01*
X67170986Y-23380706D01*
X67225791Y-23410000D01*
X67170986Y-23439294D01*
X66944866Y-23624866D01*
X66759294Y-23850986D01*
X66621401Y-24108966D01*
X66536487Y-24388889D01*
X66507815Y-24680000D01*
X66536487Y-24971111D01*
X66621401Y-25251034D01*
X66759294Y-25509014D01*
X66944866Y-25735134D01*
X67170986Y-25920706D01*
X67225791Y-25950000D01*
X67170986Y-25979294D01*
X66944866Y-26164866D01*
X66759294Y-26390986D01*
X66621401Y-26648966D01*
X66536487Y-26928889D01*
X66507815Y-27220000D01*
X66536487Y-27511111D01*
X66621401Y-27791034D01*
X66759294Y-28049014D01*
X66944866Y-28275134D01*
X67170986Y-28460706D01*
X67225791Y-28490000D01*
X67170986Y-28519294D01*
X66944866Y-28704866D01*
X66759294Y-28930986D01*
X66621401Y-29188966D01*
X66536487Y-29468889D01*
X66507815Y-29760000D01*
X66536487Y-30051111D01*
X66621401Y-30331034D01*
X66759294Y-30589014D01*
X66944866Y-30815134D01*
X67170986Y-31000706D01*
X67225791Y-31030000D01*
X67170986Y-31059294D01*
X66944866Y-31244866D01*
X66759294Y-31470986D01*
X66621401Y-31728966D01*
X66536487Y-32008889D01*
X66507815Y-32300000D01*
X66536487Y-32591111D01*
X66621401Y-32871034D01*
X66759294Y-33129014D01*
X66944866Y-33355134D01*
X67170986Y-33540706D01*
X67225791Y-33570000D01*
X67170986Y-33599294D01*
X66944866Y-33784866D01*
X66759294Y-34010986D01*
X66621401Y-34268966D01*
X66536487Y-34548889D01*
X66507815Y-34840000D01*
X66536487Y-35131111D01*
X66621401Y-35411034D01*
X66759294Y-35669014D01*
X66944866Y-35895134D01*
X67170986Y-36080706D01*
X67225791Y-36110000D01*
X67170986Y-36139294D01*
X66944866Y-36324866D01*
X66759294Y-36550986D01*
X66621401Y-36808966D01*
X66536487Y-37088889D01*
X66507815Y-37380000D01*
X66536487Y-37671111D01*
X66621401Y-37951034D01*
X66759294Y-38209014D01*
X66944866Y-38435134D01*
X67170986Y-38620706D01*
X67225791Y-38650000D01*
X67170986Y-38679294D01*
X66944866Y-38864866D01*
X66759294Y-39090986D01*
X66621401Y-39348966D01*
X66536487Y-39628889D01*
X66507815Y-39920000D01*
X66536487Y-40211111D01*
X66621401Y-40491034D01*
X66759294Y-40749014D01*
X66944866Y-40975134D01*
X67170986Y-41160706D01*
X67225791Y-41190000D01*
X67170986Y-41219294D01*
X66944866Y-41404866D01*
X66759294Y-41630986D01*
X66621401Y-41888966D01*
X66536487Y-42168889D01*
X66507815Y-42460000D01*
X66536487Y-42751111D01*
X66621401Y-43031034D01*
X66759294Y-43289014D01*
X66944866Y-43515134D01*
X66974687Y-43539607D01*
X66905820Y-43560498D01*
X66795506Y-43619463D01*
X66701062Y-43696971D01*
X62830963Y-39826872D01*
X62946920Y-39771641D01*
X63180269Y-39597588D01*
X63375178Y-39381355D01*
X63524157Y-39131252D01*
X63621481Y-38856891D01*
X63500814Y-38627000D01*
X62307000Y-38627000D01*
X62307000Y-38647000D01*
X62053000Y-38647000D01*
X62053000Y-38627000D01*
X62033000Y-38627000D01*
X62033000Y-38373000D01*
X62053000Y-38373000D01*
X62053000Y-37179845D01*
X62307000Y-37179845D01*
X62307000Y-38373000D01*
X63500814Y-38373000D01*
X63621481Y-38143109D01*
X63524157Y-37868748D01*
X63375178Y-37618645D01*
X63180269Y-37402412D01*
X62946920Y-37228359D01*
X62684099Y-37103175D01*
X62536890Y-37058524D01*
X62307000Y-37179845D01*
X62053000Y-37179845D01*
X61823110Y-37058524D01*
X61814999Y-37060984D01*
X61814999Y-34862872D01*
X61818434Y-34827997D01*
X61813707Y-34780000D01*
X61804726Y-34688813D01*
X61764127Y-34554977D01*
X61698199Y-34431634D01*
X61609473Y-34323522D01*
X61582382Y-34301289D01*
X53678713Y-26397620D01*
X53656476Y-26370524D01*
X53548364Y-26281799D01*
X53425021Y-26215871D01*
X53291185Y-26175272D01*
X53186878Y-26164999D01*
X53186876Y-26164999D01*
X53152001Y-26161564D01*
X53117126Y-26164999D01*
X49385611Y-26164999D01*
X49350736Y-26161564D01*
X49315861Y-26164999D01*
X49315859Y-26164999D01*
X49211552Y-26175272D01*
X49077716Y-26215871D01*
X48954373Y-26281799D01*
X48846261Y-26370524D01*
X48824024Y-26397620D01*
X48495086Y-26726559D01*
X47560895Y-25792368D01*
X47560895Y-25769370D01*
X47524963Y-25588730D01*
X47454481Y-25418570D01*
X47352157Y-25265431D01*
X47221923Y-25135197D01*
X47068784Y-25032873D01*
X46898624Y-24962391D01*
X46717984Y-24926459D01*
X46533806Y-24926459D01*
X46353166Y-24962391D01*
X46183006Y-25032873D01*
X46029867Y-25135197D01*
X45899633Y-25265431D01*
X45797309Y-25418570D01*
X45774027Y-25474777D01*
X45676250Y-25377000D01*
X44393395Y-25377000D01*
X44421603Y-25348792D01*
X44416229Y-25250000D01*
X44421603Y-25151208D01*
X44393395Y-25123000D01*
X45676250Y-25123000D01*
X45835000Y-24964250D01*
X45838072Y-22550000D01*
X45825812Y-22425518D01*
X45789502Y-22305820D01*
X45730537Y-22195506D01*
X45651185Y-22098815D01*
X45554494Y-22019463D01*
X45444180Y-21960498D01*
X45324482Y-21924188D01*
X45200000Y-21911928D01*
X42785750Y-21915000D01*
X42627000Y-22073750D01*
X42627000Y-23356605D01*
X42598792Y-23328397D01*
X42500000Y-23333771D01*
X42401208Y-23328397D01*
X42373000Y-23356605D01*
X42373000Y-22073750D01*
X42214250Y-21915000D01*
X39892047Y-21912045D01*
X40619092Y-21185000D01*
X40642089Y-21185000D01*
X40822729Y-21149068D01*
X40992889Y-21078586D01*
X41146028Y-20976262D01*
X41162290Y-20960000D01*
X44855125Y-20960000D01*
X44890000Y-20963435D01*
X44924875Y-20960000D01*
X44924877Y-20960000D01*
X45029184Y-20949727D01*
X45163020Y-20909128D01*
X45286363Y-20843200D01*
X45394475Y-20754475D01*
X45416712Y-20727379D01*
X45565091Y-20579000D01*
X45570909Y-20579000D01*
X46732539Y-21740630D01*
X46671414Y-21832111D01*
X46600932Y-22002271D01*
X46565000Y-22182911D01*
X46565000Y-22367089D01*
X46600932Y-22547729D01*
X46671414Y-22717889D01*
X46773738Y-22871028D01*
X46903972Y-23001262D01*
X47057111Y-23103586D01*
X47227271Y-23174068D01*
X47407911Y-23210000D01*
X47430909Y-23210000D01*
X48232000Y-24011092D01*
X48232001Y-24562709D01*
X48215738Y-24578972D01*
X48113414Y-24732111D01*
X48042932Y-24902271D01*
X48007000Y-25082911D01*
X48007000Y-25267089D01*
X48042932Y-25447729D01*
X48113414Y-25617889D01*
X48215738Y-25771028D01*
X48345972Y-25901262D01*
X48499111Y-26003586D01*
X48669271Y-26074068D01*
X48849911Y-26110000D01*
X49034089Y-26110000D01*
X49214729Y-26074068D01*
X49384889Y-26003586D01*
X49538028Y-25901262D01*
X49668262Y-25771028D01*
X49770586Y-25617889D01*
X49841068Y-25447729D01*
X49877000Y-25267089D01*
X49877000Y-25082911D01*
X49841068Y-24902271D01*
X49770586Y-24732111D01*
X49668262Y-24578972D01*
X49652000Y-24562710D01*
X49652000Y-23751875D01*
X49655435Y-23717000D01*
X49648836Y-23650000D01*
X49641727Y-23577816D01*
X49601128Y-23443980D01*
X49535200Y-23320637D01*
X49480215Y-23253638D01*
X49468707Y-23239615D01*
X49468704Y-23239612D01*
X49446474Y-23212525D01*
X49419389Y-23190297D01*
X48435000Y-22205909D01*
X48435000Y-22182911D01*
X48399068Y-22002271D01*
X48328586Y-21832111D01*
X48226262Y-21678972D01*
X48210000Y-21662710D01*
X48210000Y-21538875D01*
X48213435Y-21504000D01*
X48207763Y-21446414D01*
X48199727Y-21364816D01*
X48159128Y-21230980D01*
X48093200Y-21107637D01*
X48004475Y-20999525D01*
X47977379Y-20977288D01*
X46731000Y-19730909D01*
X46731000Y-19621290D01*
X46747262Y-19605028D01*
X46849586Y-19451889D01*
X46920068Y-19281729D01*
X46956000Y-19101089D01*
X46956000Y-18916911D01*
X46920068Y-18736271D01*
X46849586Y-18566111D01*
X46747262Y-18412972D01*
X46617028Y-18282738D01*
X46567526Y-18249662D01*
X46575000Y-18212089D01*
X46575000Y-18027911D01*
X46539068Y-17847271D01*
X46468586Y-17677111D01*
X46366262Y-17523972D01*
X46236028Y-17393738D01*
X46082889Y-17291414D01*
X45912729Y-17220932D01*
X45732089Y-17185000D01*
X45547911Y-17185000D01*
X45367271Y-17220932D01*
X45197111Y-17291414D01*
X45043972Y-17393738D01*
X44913738Y-17523972D01*
X44811414Y-17677111D01*
X44740932Y-17847271D01*
X44705000Y-18027911D01*
X44705000Y-18050909D01*
X44353828Y-18402081D01*
X44261729Y-18363932D01*
X44081089Y-18328000D01*
X43896911Y-18328000D01*
X43716271Y-18363932D01*
X43546111Y-18434414D01*
X43392972Y-18536738D01*
X43376710Y-18553000D01*
X38606138Y-18553000D01*
X38571263Y-18549565D01*
X38536389Y-18553000D01*
X38536387Y-18553000D01*
X38460597Y-18560464D01*
X38292729Y-18490932D01*
X38112089Y-18455000D01*
X37927911Y-18455000D01*
X37747271Y-18490932D01*
X37577111Y-18561414D01*
X37423972Y-18663738D01*
X37293738Y-18793972D01*
X37191414Y-18947111D01*
X37120932Y-19117271D01*
X37085000Y-19297911D01*
X37085000Y-19482089D01*
X37120932Y-19662729D01*
X37191414Y-19832889D01*
X37293738Y-19986028D01*
X37423972Y-20116262D01*
X37577111Y-20218586D01*
X37747271Y-20289068D01*
X37927911Y-20325000D01*
X38112089Y-20325000D01*
X38292729Y-20289068D01*
X38462889Y-20218586D01*
X38616028Y-20116262D01*
X38668304Y-20063986D01*
X38717284Y-20049128D01*
X38840627Y-19983200D01*
X38853056Y-19973000D01*
X39652701Y-19973000D01*
X39650932Y-19977271D01*
X39615000Y-20157911D01*
X39615000Y-20180908D01*
X36672617Y-23123292D01*
X36645525Y-23145526D01*
X36556800Y-23253638D01*
X36490872Y-23376981D01*
X36450273Y-23510817D01*
X36440000Y-23615123D01*
X36436565Y-23650000D01*
X36440000Y-23684875D01*
X36440001Y-29087709D01*
X36423738Y-29103972D01*
X36321414Y-29257111D01*
X36250932Y-29427271D01*
X36215000Y-29607911D01*
X36215000Y-29792089D01*
X36250932Y-29972729D01*
X36321414Y-30142889D01*
X36423738Y-30296028D01*
X36553972Y-30426262D01*
X36707111Y-30528586D01*
X36877271Y-30599068D01*
X37057911Y-30635000D01*
X37242089Y-30635000D01*
X37422729Y-30599068D01*
X37592889Y-30528586D01*
X37746028Y-30426262D01*
X37876262Y-30296028D01*
X37978586Y-30142889D01*
X38049068Y-29972729D01*
X38085000Y-29792089D01*
X38085000Y-29607911D01*
X38049068Y-29427271D01*
X37978586Y-29257111D01*
X37876262Y-29103972D01*
X37860000Y-29087710D01*
X37860000Y-23944091D01*
X39162045Y-22642046D01*
X39165000Y-24964250D01*
X39323750Y-25123000D01*
X40606605Y-25123000D01*
X40578397Y-25151208D01*
X40583771Y-25250000D01*
X40578397Y-25348792D01*
X40606605Y-25377000D01*
X39323750Y-25377000D01*
X39165000Y-25535750D01*
X39161928Y-27950000D01*
X39174188Y-28074482D01*
X39210498Y-28194180D01*
X39269463Y-28304494D01*
X39348815Y-28401185D01*
X39445506Y-28480537D01*
X39555820Y-28539502D01*
X39675518Y-28575812D01*
X39800000Y-28588072D01*
X42214250Y-28585000D01*
X42373000Y-28426250D01*
X42373000Y-27143395D01*
X42401208Y-27171603D01*
X42500000Y-27166229D01*
X42598792Y-27171603D01*
X42627000Y-27143395D01*
X42627000Y-28426250D01*
X42785750Y-28585000D01*
X45018267Y-28587841D01*
X45023738Y-28596028D01*
X45040000Y-28612290D01*
X45040001Y-37011928D01*
X43550000Y-37011928D01*
X43425518Y-37024188D01*
X43305820Y-37060498D01*
X43195506Y-37119463D01*
X43098815Y-37198815D01*
X43019463Y-37295506D01*
X42960498Y-37405820D01*
X42924188Y-37525518D01*
X42911928Y-37650000D01*
X42911928Y-39350000D01*
X42924188Y-39474482D01*
X42960498Y-39594180D01*
X43019463Y-39704494D01*
X43098815Y-39801185D01*
X43195506Y-39880537D01*
X43305820Y-39939502D01*
X43425518Y-39975812D01*
X43550000Y-39988072D01*
X45250000Y-39988072D01*
X45374482Y-39975812D01*
X45494180Y-39939502D01*
X45604494Y-39880537D01*
X45670925Y-39826018D01*
X47497289Y-41652383D01*
X47519522Y-41679474D01*
X47546612Y-41701706D01*
X47627632Y-41768198D01*
X47627634Y-41768199D01*
X47750977Y-41834127D01*
X47884813Y-41874726D01*
X47961928Y-41882321D01*
X47961928Y-43100000D01*
X47974188Y-43224482D01*
X48010498Y-43344180D01*
X48069463Y-43454494D01*
X48148815Y-43551185D01*
X48245506Y-43630537D01*
X48355820Y-43689502D01*
X48475518Y-43725812D01*
X48600000Y-43738072D01*
X48932064Y-43738072D01*
X48945525Y-43754474D01*
X48972617Y-43776708D01*
X50673288Y-45477379D01*
X50695525Y-45504475D01*
X50803637Y-45593200D01*
X50926980Y-45659128D01*
X51060816Y-45699727D01*
X51165123Y-45710000D01*
X51165125Y-45710000D01*
X51200000Y-45713435D01*
X51234875Y-45710000D01*
X66511928Y-45710000D01*
X66511928Y-45850000D01*
X66524188Y-45974482D01*
X66560498Y-46094180D01*
X66619463Y-46204494D01*
X66698815Y-46301185D01*
X66795506Y-46380537D01*
X66905820Y-46439502D01*
X67025518Y-46475812D01*
X67150000Y-46488072D01*
X68850000Y-46488072D01*
X68974482Y-46475812D01*
X69094180Y-46439502D01*
X69204494Y-46380537D01*
X69265000Y-46330881D01*
X69265000Y-64265000D01*
X20735000Y-64265000D01*
X20735000Y-60593137D01*
X23615000Y-60593137D01*
X23615000Y-60806863D01*
X23656696Y-61016483D01*
X23738485Y-61213940D01*
X23857225Y-61391647D01*
X24008353Y-61542775D01*
X24186060Y-61661515D01*
X24383517Y-61743304D01*
X24593137Y-61785000D01*
X24806863Y-61785000D01*
X25016483Y-61743304D01*
X25213940Y-61661515D01*
X25391647Y-61542775D01*
X25542775Y-61391647D01*
X25661515Y-61213940D01*
X25743304Y-61016483D01*
X25785000Y-60806863D01*
X25785000Y-60593137D01*
X25743304Y-60383517D01*
X25661515Y-60186060D01*
X25542775Y-60008353D01*
X25391647Y-59857225D01*
X25213940Y-59738485D01*
X25016483Y-59656696D01*
X24806863Y-59615000D01*
X24593137Y-59615000D01*
X24383517Y-59656696D01*
X24186060Y-59738485D01*
X24008353Y-59857225D01*
X23857225Y-60008353D01*
X23738485Y-60186060D01*
X23656696Y-60383517D01*
X23615000Y-60593137D01*
X20735000Y-60593137D01*
X20735000Y-56193137D01*
X23615000Y-56193137D01*
X23615000Y-56406863D01*
X23656696Y-56616483D01*
X23738485Y-56813940D01*
X23857225Y-56991647D01*
X24008353Y-57142775D01*
X24186060Y-57261515D01*
X24383517Y-57343304D01*
X24593137Y-57385000D01*
X24806863Y-57385000D01*
X25016483Y-57343304D01*
X25213940Y-57261515D01*
X25391647Y-57142775D01*
X25542775Y-56991647D01*
X25661515Y-56813940D01*
X25743304Y-56616483D01*
X25785000Y-56406863D01*
X25785000Y-56193137D01*
X25743304Y-55983517D01*
X25661515Y-55786060D01*
X25542775Y-55608353D01*
X25391647Y-55457225D01*
X25213940Y-55338485D01*
X25016483Y-55256696D01*
X24806863Y-55215000D01*
X24593137Y-55215000D01*
X24383517Y-55256696D01*
X24186060Y-55338485D01*
X24008353Y-55457225D01*
X23857225Y-55608353D01*
X23738485Y-55786060D01*
X23656696Y-55983517D01*
X23615000Y-56193137D01*
X20735000Y-56193137D01*
X20735000Y-51989775D01*
X22189830Y-51989775D01*
X22429976Y-52377018D01*
X22923877Y-52637641D01*
X23459133Y-52796901D01*
X24015174Y-52848678D01*
X24570632Y-52790981D01*
X25104161Y-52626028D01*
X25570024Y-52377018D01*
X25810170Y-51989775D01*
X24000000Y-50179605D01*
X22189830Y-51989775D01*
X20735000Y-51989775D01*
X20735000Y-50015174D01*
X21151322Y-50015174D01*
X21209019Y-50570632D01*
X21373972Y-51104161D01*
X21622982Y-51570024D01*
X22010225Y-51810170D01*
X23820395Y-50000000D01*
X22010225Y-48189830D01*
X21622982Y-48429976D01*
X21362359Y-48923877D01*
X21203099Y-49459133D01*
X21151322Y-50015174D01*
X20735000Y-50015174D01*
X20735000Y-45715823D01*
X20902412Y-45940269D01*
X21118645Y-46135178D01*
X21368748Y-46284157D01*
X21643109Y-46381481D01*
X21873000Y-46260814D01*
X21873000Y-45067000D01*
X22127000Y-45067000D01*
X22127000Y-46260814D01*
X22356891Y-46381481D01*
X22631252Y-46284157D01*
X22881355Y-46135178D01*
X23097588Y-45940269D01*
X23271641Y-45706920D01*
X23396825Y-45444099D01*
X23441476Y-45296890D01*
X23320155Y-45067000D01*
X22127000Y-45067000D01*
X21873000Y-45067000D01*
X21853000Y-45067000D01*
X21853000Y-44813000D01*
X21873000Y-44813000D01*
X21873000Y-44793000D01*
X22127000Y-44793000D01*
X22127000Y-44813000D01*
X23320155Y-44813000D01*
X23441476Y-44583110D01*
X23396825Y-44435901D01*
X23271641Y-44173080D01*
X23097588Y-43939731D01*
X22881355Y-43744822D01*
X22764477Y-43675201D01*
X22829014Y-43640706D01*
X23055134Y-43455134D01*
X23240706Y-43229014D01*
X23378599Y-42971034D01*
X23463513Y-42691111D01*
X23492185Y-42400000D01*
X23463513Y-42108889D01*
X23378599Y-41828966D01*
X23240706Y-41570986D01*
X23055134Y-41344866D01*
X22829014Y-41159294D01*
X22774209Y-41130000D01*
X22829014Y-41100706D01*
X23055134Y-40915134D01*
X23240706Y-40689014D01*
X23378599Y-40431034D01*
X23463513Y-40151111D01*
X23492185Y-39860000D01*
X23463513Y-39568889D01*
X23378599Y-39288966D01*
X23240706Y-39030986D01*
X23055134Y-38804866D01*
X22829014Y-38619294D01*
X22774209Y-38590000D01*
X22829014Y-38560706D01*
X23055134Y-38375134D01*
X23240706Y-38149014D01*
X23378599Y-37891034D01*
X23463513Y-37611111D01*
X23492185Y-37320000D01*
X23463513Y-37028889D01*
X23378599Y-36748966D01*
X23240706Y-36490986D01*
X23055134Y-36264866D01*
X22829014Y-36079294D01*
X22774209Y-36050000D01*
X22829014Y-36020706D01*
X23055134Y-35835134D01*
X23240706Y-35609014D01*
X23378599Y-35351034D01*
X23463513Y-35071111D01*
X23492185Y-34780000D01*
X23463513Y-34488889D01*
X23378599Y-34208966D01*
X23240706Y-33950986D01*
X23055134Y-33724866D01*
X22829014Y-33539294D01*
X22774209Y-33510000D01*
X22829014Y-33480706D01*
X23055134Y-33295134D01*
X23240706Y-33069014D01*
X23378599Y-32811034D01*
X23463513Y-32531111D01*
X23492185Y-32240000D01*
X23463513Y-31948889D01*
X23378599Y-31668966D01*
X23240706Y-31410986D01*
X23055134Y-31184866D01*
X22829014Y-30999294D01*
X22774209Y-30970000D01*
X22829014Y-30940706D01*
X23055134Y-30755134D01*
X23240706Y-30529014D01*
X23378599Y-30271034D01*
X23463513Y-29991111D01*
X23492185Y-29700000D01*
X23487408Y-29651499D01*
X25839990Y-32004081D01*
X25839991Y-47980401D01*
X25810169Y-48010223D01*
X25570024Y-47622982D01*
X25076123Y-47362359D01*
X24540867Y-47203099D01*
X23984826Y-47151322D01*
X23429368Y-47209019D01*
X22895839Y-47373972D01*
X22429976Y-47622982D01*
X22189830Y-48010225D01*
X24000000Y-49820395D01*
X24014143Y-49806253D01*
X24193748Y-49985858D01*
X24179605Y-50000000D01*
X25989775Y-51810170D01*
X26377018Y-51570024D01*
X26637641Y-51076123D01*
X26760183Y-50664274D01*
X34673292Y-58577384D01*
X34695525Y-58604475D01*
X34722615Y-58626707D01*
X34803635Y-58693199D01*
X34803637Y-58693200D01*
X34926980Y-58759128D01*
X35060816Y-58799727D01*
X35165123Y-58810000D01*
X35165124Y-58810000D01*
X35199999Y-58813435D01*
X35234874Y-58810000D01*
X41337710Y-58810000D01*
X41353972Y-58826262D01*
X41507111Y-58928586D01*
X41677271Y-58999068D01*
X41857911Y-59035000D01*
X42042089Y-59035000D01*
X42222729Y-58999068D01*
X42392889Y-58928586D01*
X42546028Y-58826262D01*
X42676262Y-58696028D01*
X42778586Y-58542889D01*
X42849068Y-58372729D01*
X42885000Y-58192089D01*
X42885000Y-58007911D01*
X42849068Y-57827271D01*
X42778586Y-57657111D01*
X42676262Y-57503972D01*
X42546028Y-57373738D01*
X42392889Y-57271414D01*
X42222729Y-57200932D01*
X42042089Y-57165000D01*
X41857911Y-57165000D01*
X41677271Y-57200932D01*
X41507111Y-57271414D01*
X41353972Y-57373738D01*
X41337710Y-57390000D01*
X35494092Y-57390000D01*
X27259990Y-49155899D01*
X27259990Y-46168291D01*
X27328122Y-46175001D01*
X27328123Y-46175001D01*
X27362998Y-46178436D01*
X27397873Y-46175001D01*
X34020910Y-46175001D01*
X42890001Y-55044092D01*
X42890000Y-58505909D01*
X42322617Y-59073292D01*
X42295526Y-59095525D01*
X42273293Y-59122616D01*
X42206801Y-59203637D01*
X42140872Y-59326981D01*
X42100274Y-59460816D01*
X42086565Y-59600000D01*
X42090001Y-59634885D01*
X42090000Y-62037710D01*
X42073738Y-62053972D01*
X41971414Y-62207111D01*
X41900932Y-62377271D01*
X41865000Y-62557911D01*
X41865000Y-62742089D01*
X41900932Y-62922729D01*
X41971414Y-63092889D01*
X42073738Y-63246028D01*
X42203972Y-63376262D01*
X42357111Y-63478586D01*
X42527271Y-63549068D01*
X42707911Y-63585000D01*
X42892089Y-63585000D01*
X43072729Y-63549068D01*
X43242889Y-63478586D01*
X43396028Y-63376262D01*
X43526262Y-63246028D01*
X43628586Y-63092889D01*
X43699068Y-62922729D01*
X43735000Y-62742089D01*
X43735000Y-62557911D01*
X43699068Y-62377271D01*
X43628586Y-62207111D01*
X43526262Y-62053972D01*
X43510000Y-62037710D01*
X43510000Y-59894091D01*
X44077383Y-59326708D01*
X44104474Y-59304475D01*
X44193200Y-59196363D01*
X44259128Y-59073020D01*
X44299727Y-58939184D01*
X44310000Y-58834877D01*
X44310000Y-58834875D01*
X44313435Y-58800000D01*
X44310000Y-58765125D01*
X44310000Y-54784877D01*
X44313435Y-54750000D01*
X44299727Y-54610815D01*
X44259128Y-54476980D01*
X44193200Y-54353636D01*
X44162427Y-54316140D01*
X44104475Y-54245525D01*
X44077379Y-54223288D01*
X41843866Y-51989775D01*
X61189830Y-51989775D01*
X61429976Y-52377018D01*
X61923877Y-52637641D01*
X62459133Y-52796901D01*
X63015174Y-52848678D01*
X63570632Y-52790981D01*
X64104161Y-52626028D01*
X64570024Y-52377018D01*
X64810170Y-51989775D01*
X63000000Y-50179605D01*
X61189830Y-51989775D01*
X41843866Y-51989775D01*
X39869265Y-50015174D01*
X60151322Y-50015174D01*
X60209019Y-50570632D01*
X60373972Y-51104161D01*
X60622982Y-51570024D01*
X61010225Y-51810170D01*
X62820395Y-50000000D01*
X63179605Y-50000000D01*
X64989775Y-51810170D01*
X65377018Y-51570024D01*
X65637641Y-51076123D01*
X65796901Y-50540867D01*
X65848678Y-49984826D01*
X65790981Y-49429368D01*
X65626028Y-48895839D01*
X65377018Y-48429976D01*
X64989775Y-48189830D01*
X63179605Y-50000000D01*
X62820395Y-50000000D01*
X61010225Y-48189830D01*
X60622982Y-48429976D01*
X60362359Y-48923877D01*
X60203099Y-49459133D01*
X60151322Y-50015174D01*
X39869265Y-50015174D01*
X37864316Y-48010225D01*
X61189830Y-48010225D01*
X63000000Y-49820395D01*
X64810170Y-48010225D01*
X64570024Y-47622982D01*
X64076123Y-47362359D01*
X63540867Y-47203099D01*
X62984826Y-47151322D01*
X62429368Y-47209019D01*
X61895839Y-47373972D01*
X61429976Y-47622982D01*
X61189830Y-48010225D01*
X37864316Y-48010225D01*
X34841713Y-44987622D01*
X34819476Y-44960526D01*
X34711364Y-44871801D01*
X34588021Y-44805873D01*
X34454185Y-44765274D01*
X34349878Y-44755001D01*
X34349876Y-44755001D01*
X34315001Y-44751566D01*
X34280126Y-44755001D01*
X27657091Y-44755001D01*
X27560000Y-44657911D01*
X27560000Y-29504875D01*
X27563435Y-29470000D01*
X27560000Y-29435123D01*
X27549727Y-29330816D01*
X27509128Y-29196980D01*
X27443200Y-29073637D01*
X27354475Y-28965525D01*
X27327379Y-28943288D01*
X23424339Y-25040248D01*
X23463513Y-24911111D01*
X23492185Y-24620000D01*
X23463513Y-24328889D01*
X23378599Y-24048966D01*
X23240706Y-23790986D01*
X23055134Y-23564866D01*
X22829014Y-23379294D01*
X22774209Y-23350000D01*
X22829014Y-23320706D01*
X23055134Y-23135134D01*
X23240706Y-22909014D01*
X23378599Y-22651034D01*
X23463513Y-22371111D01*
X23492185Y-22080000D01*
X23487408Y-22031499D01*
X30789665Y-29333757D01*
X30750930Y-29427271D01*
X30714998Y-29607911D01*
X30714998Y-29630908D01*
X30297615Y-30048292D01*
X30270525Y-30070524D01*
X30248292Y-30097615D01*
X30181800Y-30178636D01*
X30115871Y-30301980D01*
X30075273Y-30435815D01*
X30061564Y-30574999D01*
X30065000Y-30609884D01*
X30064999Y-36990124D01*
X30061564Y-37024999D01*
X30064999Y-37059874D01*
X30064999Y-37059875D01*
X30075272Y-37164182D01*
X30115871Y-37298018D01*
X30181799Y-37421361D01*
X30270524Y-37529473D01*
X30297616Y-37551707D01*
X31515000Y-38769092D01*
X31515000Y-38792089D01*
X31550932Y-38972729D01*
X31621414Y-39142889D01*
X31723738Y-39296028D01*
X31853972Y-39426262D01*
X32007111Y-39528586D01*
X32177271Y-39599068D01*
X32357911Y-39635000D01*
X32542089Y-39635000D01*
X32722729Y-39599068D01*
X32892889Y-39528586D01*
X33046028Y-39426262D01*
X33176262Y-39296028D01*
X33278586Y-39142889D01*
X33349068Y-38972729D01*
X33385000Y-38792089D01*
X33385000Y-38607911D01*
X33349068Y-38427271D01*
X33278586Y-38257111D01*
X33176262Y-38103972D01*
X33046028Y-37973738D01*
X32892889Y-37871414D01*
X32722729Y-37800932D01*
X32542089Y-37765000D01*
X32519092Y-37765000D01*
X32062003Y-37307911D01*
X34165000Y-37307911D01*
X34165000Y-37492089D01*
X34200932Y-37672729D01*
X34271414Y-37842889D01*
X34373738Y-37996028D01*
X34503972Y-38126262D01*
X34657111Y-38228586D01*
X34827271Y-38299068D01*
X35007911Y-38335000D01*
X35030909Y-38335000D01*
X37073288Y-40377379D01*
X37095525Y-40404475D01*
X37203637Y-40493200D01*
X37326980Y-40559128D01*
X37460816Y-40599727D01*
X37565123Y-40610000D01*
X37565125Y-40610000D01*
X37600000Y-40613435D01*
X37634875Y-40610000D01*
X38387710Y-40610000D01*
X38403972Y-40626262D01*
X38557111Y-40728586D01*
X38727271Y-40799068D01*
X38907911Y-40835000D01*
X39092089Y-40835000D01*
X39272729Y-40799068D01*
X39442889Y-40728586D01*
X39596028Y-40626262D01*
X39726262Y-40496028D01*
X39828586Y-40342889D01*
X39899068Y-40172729D01*
X39935000Y-39992089D01*
X39935000Y-39807911D01*
X39899068Y-39627271D01*
X39828586Y-39457111D01*
X39726262Y-39303972D01*
X39596028Y-39173738D01*
X39442889Y-39071414D01*
X39272729Y-39000932D01*
X39092089Y-38965000D01*
X38907911Y-38965000D01*
X38727271Y-39000932D01*
X38557111Y-39071414D01*
X38403972Y-39173738D01*
X38387710Y-39190000D01*
X37894091Y-39190000D01*
X36035000Y-37330909D01*
X36035000Y-37307911D01*
X35999068Y-37127271D01*
X35928586Y-36957111D01*
X35826262Y-36803972D01*
X35696028Y-36673738D01*
X35542889Y-36571414D01*
X35372729Y-36500932D01*
X35192089Y-36465000D01*
X35007911Y-36465000D01*
X34827271Y-36500932D01*
X34657111Y-36571414D01*
X34503972Y-36673738D01*
X34373738Y-36803972D01*
X34271414Y-36957111D01*
X34200932Y-37127271D01*
X34165000Y-37307911D01*
X32062003Y-37307911D01*
X31484999Y-36730908D01*
X31484999Y-35816519D01*
X31572729Y-35799068D01*
X31742889Y-35728586D01*
X31896028Y-35626262D01*
X32026262Y-35496028D01*
X32128586Y-35342889D01*
X32199068Y-35172729D01*
X32211546Y-35110000D01*
X32535099Y-35110000D01*
X32540040Y-35110911D01*
X32604944Y-35110000D01*
X32634877Y-35110000D01*
X32639852Y-35109510D01*
X32644841Y-35109440D01*
X32674537Y-35106094D01*
X32733338Y-35100303D01*
X32766490Y-35098907D01*
X32824745Y-35084748D01*
X32883413Y-35072220D01*
X32924760Y-35054410D01*
X32941159Y-35048671D01*
X32984594Y-35036815D01*
X33038253Y-35010040D01*
X33092645Y-34984779D01*
X33128993Y-34958214D01*
X33143702Y-34948972D01*
X33183409Y-34927748D01*
X33199999Y-34914133D01*
X33216589Y-34927748D01*
X33256298Y-34948972D01*
X33271006Y-34958214D01*
X33307354Y-34984779D01*
X33361746Y-35010040D01*
X33415405Y-35036815D01*
X33458840Y-35048671D01*
X33475241Y-35054410D01*
X33516587Y-35072220D01*
X33575250Y-35084747D01*
X33633510Y-35098907D01*
X33666662Y-35100303D01*
X33725463Y-35106094D01*
X33755159Y-35109440D01*
X33760148Y-35109510D01*
X33765123Y-35110000D01*
X33795056Y-35110000D01*
X33859960Y-35110911D01*
X33864901Y-35110000D01*
X39065125Y-35110000D01*
X39100000Y-35113435D01*
X39134875Y-35110000D01*
X39134877Y-35110000D01*
X39239184Y-35099727D01*
X39373020Y-35059128D01*
X39496363Y-34993200D01*
X39604475Y-34904475D01*
X39626712Y-34877379D01*
X40069092Y-34435000D01*
X40092089Y-34435000D01*
X40140001Y-34425470D01*
X40140001Y-34565115D01*
X40136565Y-34600000D01*
X40150274Y-34739184D01*
X40190872Y-34873019D01*
X40256801Y-34996363D01*
X40313818Y-35065838D01*
X40345526Y-35104475D01*
X40372616Y-35126707D01*
X40515000Y-35269091D01*
X40515000Y-35292089D01*
X40550932Y-35472729D01*
X40621414Y-35642889D01*
X40723738Y-35796028D01*
X40853972Y-35926262D01*
X41007111Y-36028586D01*
X41177271Y-36099068D01*
X41357911Y-36135000D01*
X41542089Y-36135000D01*
X41722729Y-36099068D01*
X41892889Y-36028586D01*
X42046028Y-35926262D01*
X42176262Y-35796028D01*
X42278586Y-35642889D01*
X42349068Y-35472729D01*
X42385000Y-35292089D01*
X42385000Y-35107911D01*
X42349068Y-34927271D01*
X42278586Y-34757111D01*
X42176262Y-34603972D01*
X42046028Y-34473738D01*
X41892889Y-34371414D01*
X41722729Y-34300932D01*
X41560000Y-34268563D01*
X41560000Y-32862290D01*
X41576262Y-32846028D01*
X41678586Y-32692889D01*
X41749068Y-32522729D01*
X41785000Y-32342089D01*
X41785000Y-32157911D01*
X41749068Y-31977271D01*
X41678586Y-31807111D01*
X41576262Y-31653972D01*
X41446028Y-31523738D01*
X41292889Y-31421414D01*
X41122729Y-31350932D01*
X40942089Y-31315000D01*
X40757911Y-31315000D01*
X40577271Y-31350932D01*
X40407111Y-31421414D01*
X40253972Y-31523738D01*
X40201696Y-31576014D01*
X40152716Y-31590872D01*
X40029373Y-31656800D01*
X39921261Y-31745525D01*
X39899024Y-31772621D01*
X38481644Y-33190001D01*
X35942091Y-33190001D01*
X33760000Y-31007911D01*
X33760000Y-29512290D01*
X33776262Y-29496028D01*
X33878586Y-29342889D01*
X33949068Y-29172729D01*
X33985000Y-28992089D01*
X33985000Y-28807911D01*
X33949068Y-28627271D01*
X33878586Y-28457111D01*
X33776262Y-28303972D01*
X33646028Y-28173738D01*
X33492889Y-28071414D01*
X33322729Y-28000932D01*
X33142089Y-27965000D01*
X32957911Y-27965000D01*
X32777271Y-28000932D01*
X32607111Y-28071414D01*
X32453972Y-28173738D01*
X32437710Y-28190000D01*
X31654092Y-28190000D01*
X25453867Y-21989775D01*
X30189830Y-21989775D01*
X30429976Y-22377018D01*
X30923877Y-22637641D01*
X31459133Y-22796901D01*
X32015174Y-22848678D01*
X32570632Y-22790981D01*
X33104161Y-22626028D01*
X33570024Y-22377018D01*
X33810170Y-21989775D01*
X32000000Y-20179605D01*
X30189830Y-21989775D01*
X25453867Y-21989775D01*
X23479266Y-20015174D01*
X29151322Y-20015174D01*
X29209019Y-20570632D01*
X29373972Y-21104161D01*
X29622982Y-21570024D01*
X30010225Y-21810170D01*
X31820395Y-20000000D01*
X32179605Y-20000000D01*
X33989775Y-21810170D01*
X34377018Y-21570024D01*
X34637641Y-21076123D01*
X34796901Y-20540867D01*
X34848678Y-19984826D01*
X34790981Y-19429368D01*
X34626028Y-18895839D01*
X34377018Y-18429976D01*
X33989775Y-18189830D01*
X32179605Y-20000000D01*
X31820395Y-20000000D01*
X30010225Y-18189830D01*
X29622982Y-18429976D01*
X29362359Y-18923877D01*
X29203099Y-19459133D01*
X29151322Y-20015174D01*
X23479266Y-20015174D01*
X23424339Y-19960248D01*
X23463513Y-19831111D01*
X23492185Y-19540000D01*
X23463513Y-19248889D01*
X23378599Y-18968966D01*
X23240706Y-18710986D01*
X23055134Y-18484866D01*
X23025313Y-18460393D01*
X23094180Y-18439502D01*
X23204494Y-18380537D01*
X23301185Y-18301185D01*
X23380537Y-18204494D01*
X23439502Y-18094180D01*
X23464969Y-18010225D01*
X30189830Y-18010225D01*
X32000000Y-19820395D01*
X33810170Y-18010225D01*
X33570024Y-17622982D01*
X33076123Y-17362359D01*
X32540867Y-17203099D01*
X31984826Y-17151322D01*
X31429368Y-17209019D01*
X30895839Y-17373972D01*
X30429976Y-17622982D01*
X30189830Y-18010225D01*
X23464969Y-18010225D01*
X23475812Y-17974482D01*
X23488072Y-17850000D01*
X23488072Y-16150000D01*
X23475812Y-16025518D01*
X23439502Y-15905820D01*
X23380537Y-15795506D01*
X23330881Y-15735000D01*
X67336588Y-15735000D01*
X67118645Y-15864822D01*
X67118645Y-15864822D01*
G37*
X67118645Y-15864822D02*
X66902412Y-16059731D01*
X66728359Y-16293080D01*
X66603175Y-16555901D01*
X66558524Y-16703110D01*
X66679845Y-16933000D01*
X67873000Y-16933000D01*
X67873000Y-16913000D01*
X68127000Y-16913000D01*
X68127000Y-16933000D01*
X68147000Y-16933000D01*
X68147000Y-17187000D01*
X68127000Y-17187000D01*
X68127000Y-17207000D01*
X67873000Y-17207000D01*
X67873000Y-17187000D01*
X66679845Y-17187000D01*
X66558524Y-17416890D01*
X66603175Y-17564099D01*
X66728359Y-17826920D01*
X66902412Y-18060269D01*
X67118645Y-18255178D01*
X67235523Y-18324799D01*
X67170986Y-18359294D01*
X66944866Y-18544866D01*
X66759294Y-18770986D01*
X66621401Y-19028966D01*
X66536487Y-19308889D01*
X66507815Y-19600000D01*
X66536487Y-19891111D01*
X66621401Y-20171034D01*
X66759294Y-20429014D01*
X66944866Y-20655134D01*
X67170986Y-20840706D01*
X67225791Y-20870000D01*
X67170986Y-20899294D01*
X66944866Y-21084866D01*
X66759294Y-21310986D01*
X66621401Y-21568966D01*
X66536487Y-21848889D01*
X66507815Y-22140000D01*
X66536487Y-22431111D01*
X66621401Y-22711034D01*
X66759294Y-22969014D01*
X66944866Y-23195134D01*
X67170986Y-23380706D01*
X67225791Y-23410000D01*
X67170986Y-23439294D01*
X66944866Y-23624866D01*
X66759294Y-23850986D01*
X66621401Y-24108966D01*
X66536487Y-24388889D01*
X66507815Y-24680000D01*
X66536487Y-24971111D01*
X66621401Y-25251034D01*
X66759294Y-25509014D01*
X66944866Y-25735134D01*
X67170986Y-25920706D01*
X67225791Y-25950000D01*
X67170986Y-25979294D01*
X66944866Y-26164866D01*
X66759294Y-26390986D01*
X66621401Y-26648966D01*
X66536487Y-26928889D01*
X66507815Y-27220000D01*
X66536487Y-27511111D01*
X66621401Y-27791034D01*
X66759294Y-28049014D01*
X66944866Y-28275134D01*
X67170986Y-28460706D01*
X67225791Y-28490000D01*
X67170986Y-28519294D01*
X66944866Y-28704866D01*
X66759294Y-28930986D01*
X66621401Y-29188966D01*
X66536487Y-29468889D01*
X66507815Y-29760000D01*
X66536487Y-30051111D01*
X66621401Y-30331034D01*
X66759294Y-30589014D01*
X66944866Y-30815134D01*
X67170986Y-31000706D01*
X67225791Y-31030000D01*
X67170986Y-31059294D01*
X66944866Y-31244866D01*
X66759294Y-31470986D01*
X66621401Y-31728966D01*
X66536487Y-32008889D01*
X66507815Y-32300000D01*
X66536487Y-32591111D01*
X66621401Y-32871034D01*
X66759294Y-33129014D01*
X66944866Y-33355134D01*
X67170986Y-33540706D01*
X67225791Y-33570000D01*
X67170986Y-33599294D01*
X66944866Y-33784866D01*
X66759294Y-34010986D01*
X66621401Y-34268966D01*
X66536487Y-34548889D01*
X66507815Y-34840000D01*
X66536487Y-35131111D01*
X66621401Y-35411034D01*
X66759294Y-35669014D01*
X66944866Y-35895134D01*
X67170986Y-36080706D01*
X67225791Y-36110000D01*
X67170986Y-36139294D01*
X66944866Y-36324866D01*
X66759294Y-36550986D01*
X66621401Y-36808966D01*
X66536487Y-37088889D01*
X66507815Y-37380000D01*
X66536487Y-37671111D01*
X66621401Y-37951034D01*
X66759294Y-38209014D01*
X66944866Y-38435134D01*
X67170986Y-38620706D01*
X67225791Y-38650000D01*
X67170986Y-38679294D01*
X66944866Y-38864866D01*
X66759294Y-39090986D01*
X66621401Y-39348966D01*
X66536487Y-39628889D01*
X66507815Y-39920000D01*
X66536487Y-40211111D01*
X66621401Y-40491034D01*
X66759294Y-40749014D01*
X66944866Y-40975134D01*
X67170986Y-41160706D01*
X67225791Y-41190000D01*
X67170986Y-41219294D01*
X66944866Y-41404866D01*
X66759294Y-41630986D01*
X66621401Y-41888966D01*
X66536487Y-42168889D01*
X66507815Y-42460000D01*
X66536487Y-42751111D01*
X66621401Y-43031034D01*
X66759294Y-43289014D01*
X66944866Y-43515134D01*
X66974687Y-43539607D01*
X66905820Y-43560498D01*
X66795506Y-43619463D01*
X66701062Y-43696971D01*
X62830963Y-39826872D01*
X62946920Y-39771641D01*
X63180269Y-39597588D01*
X63375178Y-39381355D01*
X63524157Y-39131252D01*
X63621481Y-38856891D01*
X63500814Y-38627000D01*
X62307000Y-38627000D01*
X62307000Y-38647000D01*
X62053000Y-38647000D01*
X62053000Y-38627000D01*
X62033000Y-38627000D01*
X62033000Y-38373000D01*
X62053000Y-38373000D01*
X62053000Y-37179845D01*
X62307000Y-37179845D01*
X62307000Y-38373000D01*
X63500814Y-38373000D01*
X63621481Y-38143109D01*
X63524157Y-37868748D01*
X63375178Y-37618645D01*
X63180269Y-37402412D01*
X62946920Y-37228359D01*
X62684099Y-37103175D01*
X62536890Y-37058524D01*
X62307000Y-37179845D01*
X62053000Y-37179845D01*
X61823110Y-37058524D01*
X61814999Y-37060984D01*
X61814999Y-34862872D01*
X61818434Y-34827997D01*
X61813707Y-34780000D01*
X61804726Y-34688813D01*
X61764127Y-34554977D01*
X61698199Y-34431634D01*
X61609473Y-34323522D01*
X61582382Y-34301289D01*
X53678713Y-26397620D01*
X53656476Y-26370524D01*
X53548364Y-26281799D01*
X53425021Y-26215871D01*
X53291185Y-26175272D01*
X53186878Y-26164999D01*
X53186876Y-26164999D01*
X53152001Y-26161564D01*
X53117126Y-26164999D01*
X49385611Y-26164999D01*
X49350736Y-26161564D01*
X49315861Y-26164999D01*
X49315859Y-26164999D01*
X49211552Y-26175272D01*
X49077716Y-26215871D01*
X48954373Y-26281799D01*
X48846261Y-26370524D01*
X48824024Y-26397620D01*
X48495086Y-26726559D01*
X47560895Y-25792368D01*
X47560895Y-25769370D01*
X47524963Y-25588730D01*
X47454481Y-25418570D01*
X47352157Y-25265431D01*
X47221923Y-25135197D01*
X47068784Y-25032873D01*
X46898624Y-24962391D01*
X46717984Y-24926459D01*
X46533806Y-24926459D01*
X46353166Y-24962391D01*
X46183006Y-25032873D01*
X46029867Y-25135197D01*
X45899633Y-25265431D01*
X45797309Y-25418570D01*
X45774027Y-25474777D01*
X45676250Y-25377000D01*
X44393395Y-25377000D01*
X44421603Y-25348792D01*
X44416229Y-25250000D01*
X44421603Y-25151208D01*
X44393395Y-25123000D01*
X45676250Y-25123000D01*
X45835000Y-24964250D01*
X45838072Y-22550000D01*
X45825812Y-22425518D01*
X45789502Y-22305820D01*
X45730537Y-22195506D01*
X45651185Y-22098815D01*
X45554494Y-22019463D01*
X45444180Y-21960498D01*
X45324482Y-21924188D01*
X45200000Y-21911928D01*
X42785750Y-21915000D01*
X42627000Y-22073750D01*
X42627000Y-23356605D01*
X42598792Y-23328397D01*
X42500000Y-23333771D01*
X42401208Y-23328397D01*
X42373000Y-23356605D01*
X42373000Y-22073750D01*
X42214250Y-21915000D01*
X39892047Y-21912045D01*
X40619092Y-21185000D01*
X40642089Y-21185000D01*
X40822729Y-21149068D01*
X40992889Y-21078586D01*
X41146028Y-20976262D01*
X41162290Y-20960000D01*
X44855125Y-20960000D01*
X44890000Y-20963435D01*
X44924875Y-20960000D01*
X44924877Y-20960000D01*
X45029184Y-20949727D01*
X45163020Y-20909128D01*
X45286363Y-20843200D01*
X45394475Y-20754475D01*
X45416712Y-20727379D01*
X45565091Y-20579000D01*
X45570909Y-20579000D01*
X46732539Y-21740630D01*
X46671414Y-21832111D01*
X46600932Y-22002271D01*
X46565000Y-22182911D01*
X46565000Y-22367089D01*
X46600932Y-22547729D01*
X46671414Y-22717889D01*
X46773738Y-22871028D01*
X46903972Y-23001262D01*
X47057111Y-23103586D01*
X47227271Y-23174068D01*
X47407911Y-23210000D01*
X47430909Y-23210000D01*
X48232000Y-24011092D01*
X48232001Y-24562709D01*
X48215738Y-24578972D01*
X48113414Y-24732111D01*
X48042932Y-24902271D01*
X48007000Y-25082911D01*
X48007000Y-25267089D01*
X48042932Y-25447729D01*
X48113414Y-25617889D01*
X48215738Y-25771028D01*
X48345972Y-25901262D01*
X48499111Y-26003586D01*
X48669271Y-26074068D01*
X48849911Y-26110000D01*
X49034089Y-26110000D01*
X49214729Y-26074068D01*
X49384889Y-26003586D01*
X49538028Y-25901262D01*
X49668262Y-25771028D01*
X49770586Y-25617889D01*
X49841068Y-25447729D01*
X49877000Y-25267089D01*
X49877000Y-25082911D01*
X49841068Y-24902271D01*
X49770586Y-24732111D01*
X49668262Y-24578972D01*
X49652000Y-24562710D01*
X49652000Y-23751875D01*
X49655435Y-23717000D01*
X49648836Y-23650000D01*
X49641727Y-23577816D01*
X49601128Y-23443980D01*
X49535200Y-23320637D01*
X49480215Y-23253638D01*
X49468707Y-23239615D01*
X49468704Y-23239612D01*
X49446474Y-23212525D01*
X49419389Y-23190297D01*
X48435000Y-22205909D01*
X48435000Y-22182911D01*
X48399068Y-22002271D01*
X48328586Y-21832111D01*
X48226262Y-21678972D01*
X48210000Y-21662710D01*
X48210000Y-21538875D01*
X48213435Y-21504000D01*
X48207763Y-21446414D01*
X48199727Y-21364816D01*
X48159128Y-21230980D01*
X48093200Y-21107637D01*
X48004475Y-20999525D01*
X47977379Y-20977288D01*
X46731000Y-19730909D01*
X46731000Y-19621290D01*
X46747262Y-19605028D01*
X46849586Y-19451889D01*
X46920068Y-19281729D01*
X46956000Y-19101089D01*
X46956000Y-18916911D01*
X46920068Y-18736271D01*
X46849586Y-18566111D01*
X46747262Y-18412972D01*
X46617028Y-18282738D01*
X46567526Y-18249662D01*
X46575000Y-18212089D01*
X46575000Y-18027911D01*
X46539068Y-17847271D01*
X46468586Y-17677111D01*
X46366262Y-17523972D01*
X46236028Y-17393738D01*
X46082889Y-17291414D01*
X45912729Y-17220932D01*
X45732089Y-17185000D01*
X45547911Y-17185000D01*
X45367271Y-17220932D01*
X45197111Y-17291414D01*
X45043972Y-17393738D01*
X44913738Y-17523972D01*
X44811414Y-17677111D01*
X44740932Y-17847271D01*
X44705000Y-18027911D01*
X44705000Y-18050909D01*
X44353828Y-18402081D01*
X44261729Y-18363932D01*
X44081089Y-18328000D01*
X43896911Y-18328000D01*
X43716271Y-18363932D01*
X43546111Y-18434414D01*
X43392972Y-18536738D01*
X43376710Y-18553000D01*
X38606138Y-18553000D01*
X38571263Y-18549565D01*
X38536389Y-18553000D01*
X38536387Y-18553000D01*
X38460597Y-18560464D01*
X38292729Y-18490932D01*
X38112089Y-18455000D01*
X37927911Y-18455000D01*
X37747271Y-18490932D01*
X37577111Y-18561414D01*
X37423972Y-18663738D01*
X37293738Y-18793972D01*
X37191414Y-18947111D01*
X37120932Y-19117271D01*
X37085000Y-19297911D01*
X37085000Y-19482089D01*
X37120932Y-19662729D01*
X37191414Y-19832889D01*
X37293738Y-19986028D01*
X37423972Y-20116262D01*
X37577111Y-20218586D01*
X37747271Y-20289068D01*
X37927911Y-20325000D01*
X38112089Y-20325000D01*
X38292729Y-20289068D01*
X38462889Y-20218586D01*
X38616028Y-20116262D01*
X38668304Y-20063986D01*
X38717284Y-20049128D01*
X38840627Y-19983200D01*
X38853056Y-19973000D01*
X39652701Y-19973000D01*
X39650932Y-19977271D01*
X39615000Y-20157911D01*
X39615000Y-20180908D01*
X36672617Y-23123292D01*
X36645525Y-23145526D01*
X36556800Y-23253638D01*
X36490872Y-23376981D01*
X36450273Y-23510817D01*
X36440000Y-23615123D01*
X36436565Y-23650000D01*
X36440000Y-23684875D01*
X36440001Y-29087709D01*
X36423738Y-29103972D01*
X36321414Y-29257111D01*
X36250932Y-29427271D01*
X36215000Y-29607911D01*
X36215000Y-29792089D01*
X36250932Y-29972729D01*
X36321414Y-30142889D01*
X36423738Y-30296028D01*
X36553972Y-30426262D01*
X36707111Y-30528586D01*
X36877271Y-30599068D01*
X37057911Y-30635000D01*
X37242089Y-30635000D01*
X37422729Y-30599068D01*
X37592889Y-30528586D01*
X37746028Y-30426262D01*
X37876262Y-30296028D01*
X37978586Y-30142889D01*
X38049068Y-29972729D01*
X38085000Y-29792089D01*
X38085000Y-29607911D01*
X38049068Y-29427271D01*
X37978586Y-29257111D01*
X37876262Y-29103972D01*
X37860000Y-29087710D01*
X37860000Y-23944091D01*
X39162045Y-22642046D01*
X39165000Y-24964250D01*
X39323750Y-25123000D01*
X40606605Y-25123000D01*
X40578397Y-25151208D01*
X40583771Y-25250000D01*
X40578397Y-25348792D01*
X40606605Y-25377000D01*
X39323750Y-25377000D01*
X39165000Y-25535750D01*
X39161928Y-27950000D01*
X39174188Y-28074482D01*
X39210498Y-28194180D01*
X39269463Y-28304494D01*
X39348815Y-28401185D01*
X39445506Y-28480537D01*
X39555820Y-28539502D01*
X39675518Y-28575812D01*
X39800000Y-28588072D01*
X42214250Y-28585000D01*
X42373000Y-28426250D01*
X42373000Y-27143395D01*
X42401208Y-27171603D01*
X42500000Y-27166229D01*
X42598792Y-27171603D01*
X42627000Y-27143395D01*
X42627000Y-28426250D01*
X42785750Y-28585000D01*
X45018267Y-28587841D01*
X45023738Y-28596028D01*
X45040000Y-28612290D01*
X45040001Y-37011928D01*
X43550000Y-37011928D01*
X43425518Y-37024188D01*
X43305820Y-37060498D01*
X43195506Y-37119463D01*
X43098815Y-37198815D01*
X43019463Y-37295506D01*
X42960498Y-37405820D01*
X42924188Y-37525518D01*
X42911928Y-37650000D01*
X42911928Y-39350000D01*
X42924188Y-39474482D01*
X42960498Y-39594180D01*
X43019463Y-39704494D01*
X43098815Y-39801185D01*
X43195506Y-39880537D01*
X43305820Y-39939502D01*
X43425518Y-39975812D01*
X43550000Y-39988072D01*
X45250000Y-39988072D01*
X45374482Y-39975812D01*
X45494180Y-39939502D01*
X45604494Y-39880537D01*
X45670925Y-39826018D01*
X47497289Y-41652383D01*
X47519522Y-41679474D01*
X47546612Y-41701706D01*
X47627632Y-41768198D01*
X47627634Y-41768199D01*
X47750977Y-41834127D01*
X47884813Y-41874726D01*
X47961928Y-41882321D01*
X47961928Y-43100000D01*
X47974188Y-43224482D01*
X48010498Y-43344180D01*
X48069463Y-43454494D01*
X48148815Y-43551185D01*
X48245506Y-43630537D01*
X48355820Y-43689502D01*
X48475518Y-43725812D01*
X48600000Y-43738072D01*
X48932064Y-43738072D01*
X48945525Y-43754474D01*
X48972617Y-43776708D01*
X50673288Y-45477379D01*
X50695525Y-45504475D01*
X50803637Y-45593200D01*
X50926980Y-45659128D01*
X51060816Y-45699727D01*
X51165123Y-45710000D01*
X51165125Y-45710000D01*
X51200000Y-45713435D01*
X51234875Y-45710000D01*
X66511928Y-45710000D01*
X66511928Y-45850000D01*
X66524188Y-45974482D01*
X66560498Y-46094180D01*
X66619463Y-46204494D01*
X66698815Y-46301185D01*
X66795506Y-46380537D01*
X66905820Y-46439502D01*
X67025518Y-46475812D01*
X67150000Y-46488072D01*
X68850000Y-46488072D01*
X68974482Y-46475812D01*
X69094180Y-46439502D01*
X69204494Y-46380537D01*
X69265000Y-46330881D01*
X69265000Y-64265000D01*
X20735000Y-64265000D01*
X20735000Y-60593137D01*
X23615000Y-60593137D01*
X23615000Y-60806863D01*
X23656696Y-61016483D01*
X23738485Y-61213940D01*
X23857225Y-61391647D01*
X24008353Y-61542775D01*
X24186060Y-61661515D01*
X24383517Y-61743304D01*
X24593137Y-61785000D01*
X24806863Y-61785000D01*
X25016483Y-61743304D01*
X25213940Y-61661515D01*
X25391647Y-61542775D01*
X25542775Y-61391647D01*
X25661515Y-61213940D01*
X25743304Y-61016483D01*
X25785000Y-60806863D01*
X25785000Y-60593137D01*
X25743304Y-60383517D01*
X25661515Y-60186060D01*
X25542775Y-60008353D01*
X25391647Y-59857225D01*
X25213940Y-59738485D01*
X25016483Y-59656696D01*
X24806863Y-59615000D01*
X24593137Y-59615000D01*
X24383517Y-59656696D01*
X24186060Y-59738485D01*
X24008353Y-59857225D01*
X23857225Y-60008353D01*
X23738485Y-60186060D01*
X23656696Y-60383517D01*
X23615000Y-60593137D01*
X20735000Y-60593137D01*
X20735000Y-56193137D01*
X23615000Y-56193137D01*
X23615000Y-56406863D01*
X23656696Y-56616483D01*
X23738485Y-56813940D01*
X23857225Y-56991647D01*
X24008353Y-57142775D01*
X24186060Y-57261515D01*
X24383517Y-57343304D01*
X24593137Y-57385000D01*
X24806863Y-57385000D01*
X25016483Y-57343304D01*
X25213940Y-57261515D01*
X25391647Y-57142775D01*
X25542775Y-56991647D01*
X25661515Y-56813940D01*
X25743304Y-56616483D01*
X25785000Y-56406863D01*
X25785000Y-56193137D01*
X25743304Y-55983517D01*
X25661515Y-55786060D01*
X25542775Y-55608353D01*
X25391647Y-55457225D01*
X25213940Y-55338485D01*
X25016483Y-55256696D01*
X24806863Y-55215000D01*
X24593137Y-55215000D01*
X24383517Y-55256696D01*
X24186060Y-55338485D01*
X24008353Y-55457225D01*
X23857225Y-55608353D01*
X23738485Y-55786060D01*
X23656696Y-55983517D01*
X23615000Y-56193137D01*
X20735000Y-56193137D01*
X20735000Y-51989775D01*
X22189830Y-51989775D01*
X22429976Y-52377018D01*
X22923877Y-52637641D01*
X23459133Y-52796901D01*
X24015174Y-52848678D01*
X24570632Y-52790981D01*
X25104161Y-52626028D01*
X25570024Y-52377018D01*
X25810170Y-51989775D01*
X24000000Y-50179605D01*
X22189830Y-51989775D01*
X20735000Y-51989775D01*
X20735000Y-50015174D01*
X21151322Y-50015174D01*
X21209019Y-50570632D01*
X21373972Y-51104161D01*
X21622982Y-51570024D01*
X22010225Y-51810170D01*
X23820395Y-50000000D01*
X22010225Y-48189830D01*
X21622982Y-48429976D01*
X21362359Y-48923877D01*
X21203099Y-49459133D01*
X21151322Y-50015174D01*
X20735000Y-50015174D01*
X20735000Y-45715823D01*
X20902412Y-45940269D01*
X21118645Y-46135178D01*
X21368748Y-46284157D01*
X21643109Y-46381481D01*
X21873000Y-46260814D01*
X21873000Y-45067000D01*
X22127000Y-45067000D01*
X22127000Y-46260814D01*
X22356891Y-46381481D01*
X22631252Y-46284157D01*
X22881355Y-46135178D01*
X23097588Y-45940269D01*
X23271641Y-45706920D01*
X23396825Y-45444099D01*
X23441476Y-45296890D01*
X23320155Y-45067000D01*
X22127000Y-45067000D01*
X21873000Y-45067000D01*
X21853000Y-45067000D01*
X21853000Y-44813000D01*
X21873000Y-44813000D01*
X21873000Y-44793000D01*
X22127000Y-44793000D01*
X22127000Y-44813000D01*
X23320155Y-44813000D01*
X23441476Y-44583110D01*
X23396825Y-44435901D01*
X23271641Y-44173080D01*
X23097588Y-43939731D01*
X22881355Y-43744822D01*
X22764477Y-43675201D01*
X22829014Y-43640706D01*
X23055134Y-43455134D01*
X23240706Y-43229014D01*
X23378599Y-42971034D01*
X23463513Y-42691111D01*
X23492185Y-42400000D01*
X23463513Y-42108889D01*
X23378599Y-41828966D01*
X23240706Y-41570986D01*
X23055134Y-41344866D01*
X22829014Y-41159294D01*
X22774209Y-41130000D01*
X22829014Y-41100706D01*
X23055134Y-40915134D01*
X23240706Y-40689014D01*
X23378599Y-40431034D01*
X23463513Y-40151111D01*
X23492185Y-39860000D01*
X23463513Y-39568889D01*
X23378599Y-39288966D01*
X23240706Y-39030986D01*
X23055134Y-38804866D01*
X22829014Y-38619294D01*
X22774209Y-38590000D01*
X22829014Y-38560706D01*
X23055134Y-38375134D01*
X23240706Y-38149014D01*
X23378599Y-37891034D01*
X23463513Y-37611111D01*
X23492185Y-37320000D01*
X23463513Y-37028889D01*
X23378599Y-36748966D01*
X23240706Y-36490986D01*
X23055134Y-36264866D01*
X22829014Y-36079294D01*
X22774209Y-36050000D01*
X22829014Y-36020706D01*
X23055134Y-35835134D01*
X23240706Y-35609014D01*
X23378599Y-35351034D01*
X23463513Y-35071111D01*
X23492185Y-34780000D01*
X23463513Y-34488889D01*
X23378599Y-34208966D01*
X23240706Y-33950986D01*
X23055134Y-33724866D01*
X22829014Y-33539294D01*
X22774209Y-33510000D01*
X22829014Y-33480706D01*
X23055134Y-33295134D01*
X23240706Y-33069014D01*
X23378599Y-32811034D01*
X23463513Y-32531111D01*
X23492185Y-32240000D01*
X23463513Y-31948889D01*
X23378599Y-31668966D01*
X23240706Y-31410986D01*
X23055134Y-31184866D01*
X22829014Y-30999294D01*
X22774209Y-30970000D01*
X22829014Y-30940706D01*
X23055134Y-30755134D01*
X23240706Y-30529014D01*
X23378599Y-30271034D01*
X23463513Y-29991111D01*
X23492185Y-29700000D01*
X23487408Y-29651499D01*
X25839990Y-32004081D01*
X25839991Y-47980401D01*
X25810169Y-48010223D01*
X25570024Y-47622982D01*
X25076123Y-47362359D01*
X24540867Y-47203099D01*
X23984826Y-47151322D01*
X23429368Y-47209019D01*
X22895839Y-47373972D01*
X22429976Y-47622982D01*
X22189830Y-48010225D01*
X24000000Y-49820395D01*
X24014143Y-49806253D01*
X24193748Y-49985858D01*
X24179605Y-50000000D01*
X25989775Y-51810170D01*
X26377018Y-51570024D01*
X26637641Y-51076123D01*
X26760183Y-50664274D01*
X34673292Y-58577384D01*
X34695525Y-58604475D01*
X34722615Y-58626707D01*
X34803635Y-58693199D01*
X34803637Y-58693200D01*
X34926980Y-58759128D01*
X35060816Y-58799727D01*
X35165123Y-58810000D01*
X35165124Y-58810000D01*
X35199999Y-58813435D01*
X35234874Y-58810000D01*
X41337710Y-58810000D01*
X41353972Y-58826262D01*
X41507111Y-58928586D01*
X41677271Y-58999068D01*
X41857911Y-59035000D01*
X42042089Y-59035000D01*
X42222729Y-58999068D01*
X42392889Y-58928586D01*
X42546028Y-58826262D01*
X42676262Y-58696028D01*
X42778586Y-58542889D01*
X42849068Y-58372729D01*
X42885000Y-58192089D01*
X42885000Y-58007911D01*
X42849068Y-57827271D01*
X42778586Y-57657111D01*
X42676262Y-57503972D01*
X42546028Y-57373738D01*
X42392889Y-57271414D01*
X42222729Y-57200932D01*
X42042089Y-57165000D01*
X41857911Y-57165000D01*
X41677271Y-57200932D01*
X41507111Y-57271414D01*
X41353972Y-57373738D01*
X41337710Y-57390000D01*
X35494092Y-57390000D01*
X27259990Y-49155899D01*
X27259990Y-46168291D01*
X27328122Y-46175001D01*
X27328123Y-46175001D01*
X27362998Y-46178436D01*
X27397873Y-46175001D01*
X34020910Y-46175001D01*
X42890001Y-55044092D01*
X42890000Y-58505909D01*
X42322617Y-59073292D01*
X42295526Y-59095525D01*
X42273293Y-59122616D01*
X42206801Y-59203637D01*
X42140872Y-59326981D01*
X42100274Y-59460816D01*
X42086565Y-59600000D01*
X42090001Y-59634885D01*
X42090000Y-62037710D01*
X42073738Y-62053972D01*
X41971414Y-62207111D01*
X41900932Y-62377271D01*
X41865000Y-62557911D01*
X41865000Y-62742089D01*
X41900932Y-62922729D01*
X41971414Y-63092889D01*
X42073738Y-63246028D01*
X42203972Y-63376262D01*
X42357111Y-63478586D01*
X42527271Y-63549068D01*
X42707911Y-63585000D01*
X42892089Y-63585000D01*
X43072729Y-63549068D01*
X43242889Y-63478586D01*
X43396028Y-63376262D01*
X43526262Y-63246028D01*
X43628586Y-63092889D01*
X43699068Y-62922729D01*
X43735000Y-62742089D01*
X43735000Y-62557911D01*
X43699068Y-62377271D01*
X43628586Y-62207111D01*
X43526262Y-62053972D01*
X43510000Y-62037710D01*
X43510000Y-59894091D01*
X44077383Y-59326708D01*
X44104474Y-59304475D01*
X44193200Y-59196363D01*
X44259128Y-59073020D01*
X44299727Y-58939184D01*
X44310000Y-58834877D01*
X44310000Y-58834875D01*
X44313435Y-58800000D01*
X44310000Y-58765125D01*
X44310000Y-54784877D01*
X44313435Y-54750000D01*
X44299727Y-54610815D01*
X44259128Y-54476980D01*
X44193200Y-54353636D01*
X44162427Y-54316140D01*
X44104475Y-54245525D01*
X44077379Y-54223288D01*
X41843866Y-51989775D01*
X61189830Y-51989775D01*
X61429976Y-52377018D01*
X61923877Y-52637641D01*
X62459133Y-52796901D01*
X63015174Y-52848678D01*
X63570632Y-52790981D01*
X64104161Y-52626028D01*
X64570024Y-52377018D01*
X64810170Y-51989775D01*
X63000000Y-50179605D01*
X61189830Y-51989775D01*
X41843866Y-51989775D01*
X39869265Y-50015174D01*
X60151322Y-50015174D01*
X60209019Y-50570632D01*
X60373972Y-51104161D01*
X60622982Y-51570024D01*
X61010225Y-51810170D01*
X62820395Y-50000000D01*
X63179605Y-50000000D01*
X64989775Y-51810170D01*
X65377018Y-51570024D01*
X65637641Y-51076123D01*
X65796901Y-50540867D01*
X65848678Y-49984826D01*
X65790981Y-49429368D01*
X65626028Y-48895839D01*
X65377018Y-48429976D01*
X64989775Y-48189830D01*
X63179605Y-50000000D01*
X62820395Y-50000000D01*
X61010225Y-48189830D01*
X60622982Y-48429976D01*
X60362359Y-48923877D01*
X60203099Y-49459133D01*
X60151322Y-50015174D01*
X39869265Y-50015174D01*
X37864316Y-48010225D01*
X61189830Y-48010225D01*
X63000000Y-49820395D01*
X64810170Y-48010225D01*
X64570024Y-47622982D01*
X64076123Y-47362359D01*
X63540867Y-47203099D01*
X62984826Y-47151322D01*
X62429368Y-47209019D01*
X61895839Y-47373972D01*
X61429976Y-47622982D01*
X61189830Y-48010225D01*
X37864316Y-48010225D01*
X34841713Y-44987622D01*
X34819476Y-44960526D01*
X34711364Y-44871801D01*
X34588021Y-44805873D01*
X34454185Y-44765274D01*
X34349878Y-44755001D01*
X34349876Y-44755001D01*
X34315001Y-44751566D01*
X34280126Y-44755001D01*
X27657091Y-44755001D01*
X27560000Y-44657911D01*
X27560000Y-29504875D01*
X27563435Y-29470000D01*
X27560000Y-29435123D01*
X27549727Y-29330816D01*
X27509128Y-29196980D01*
X27443200Y-29073637D01*
X27354475Y-28965525D01*
X27327379Y-28943288D01*
X23424339Y-25040248D01*
X23463513Y-24911111D01*
X23492185Y-24620000D01*
X23463513Y-24328889D01*
X23378599Y-24048966D01*
X23240706Y-23790986D01*
X23055134Y-23564866D01*
X22829014Y-23379294D01*
X22774209Y-23350000D01*
X22829014Y-23320706D01*
X23055134Y-23135134D01*
X23240706Y-22909014D01*
X23378599Y-22651034D01*
X23463513Y-22371111D01*
X23492185Y-22080000D01*
X23487408Y-22031499D01*
X30789665Y-29333757D01*
X30750930Y-29427271D01*
X30714998Y-29607911D01*
X30714998Y-29630908D01*
X30297615Y-30048292D01*
X30270525Y-30070524D01*
X30248292Y-30097615D01*
X30181800Y-30178636D01*
X30115871Y-30301980D01*
X30075273Y-30435815D01*
X30061564Y-30574999D01*
X30065000Y-30609884D01*
X30064999Y-36990124D01*
X30061564Y-37024999D01*
X30064999Y-37059874D01*
X30064999Y-37059875D01*
X30075272Y-37164182D01*
X30115871Y-37298018D01*
X30181799Y-37421361D01*
X30270524Y-37529473D01*
X30297616Y-37551707D01*
X31515000Y-38769092D01*
X31515000Y-38792089D01*
X31550932Y-38972729D01*
X31621414Y-39142889D01*
X31723738Y-39296028D01*
X31853972Y-39426262D01*
X32007111Y-39528586D01*
X32177271Y-39599068D01*
X32357911Y-39635000D01*
X32542089Y-39635000D01*
X32722729Y-39599068D01*
X32892889Y-39528586D01*
X33046028Y-39426262D01*
X33176262Y-39296028D01*
X33278586Y-39142889D01*
X33349068Y-38972729D01*
X33385000Y-38792089D01*
X33385000Y-38607911D01*
X33349068Y-38427271D01*
X33278586Y-38257111D01*
X33176262Y-38103972D01*
X33046028Y-37973738D01*
X32892889Y-37871414D01*
X32722729Y-37800932D01*
X32542089Y-37765000D01*
X32519092Y-37765000D01*
X32062003Y-37307911D01*
X34165000Y-37307911D01*
X34165000Y-37492089D01*
X34200932Y-37672729D01*
X34271414Y-37842889D01*
X34373738Y-37996028D01*
X34503972Y-38126262D01*
X34657111Y-38228586D01*
X34827271Y-38299068D01*
X35007911Y-38335000D01*
X35030909Y-38335000D01*
X37073288Y-40377379D01*
X37095525Y-40404475D01*
X37203637Y-40493200D01*
X37326980Y-40559128D01*
X37460816Y-40599727D01*
X37565123Y-40610000D01*
X37565125Y-40610000D01*
X37600000Y-40613435D01*
X37634875Y-40610000D01*
X38387710Y-40610000D01*
X38403972Y-40626262D01*
X38557111Y-40728586D01*
X38727271Y-40799068D01*
X38907911Y-40835000D01*
X39092089Y-40835000D01*
X39272729Y-40799068D01*
X39442889Y-40728586D01*
X39596028Y-40626262D01*
X39726262Y-40496028D01*
X39828586Y-40342889D01*
X39899068Y-40172729D01*
X39935000Y-39992089D01*
X39935000Y-39807911D01*
X39899068Y-39627271D01*
X39828586Y-39457111D01*
X39726262Y-39303972D01*
X39596028Y-39173738D01*
X39442889Y-39071414D01*
X39272729Y-39000932D01*
X39092089Y-38965000D01*
X38907911Y-38965000D01*
X38727271Y-39000932D01*
X38557111Y-39071414D01*
X38403972Y-39173738D01*
X38387710Y-39190000D01*
X37894091Y-39190000D01*
X36035000Y-37330909D01*
X36035000Y-37307911D01*
X35999068Y-37127271D01*
X35928586Y-36957111D01*
X35826262Y-36803972D01*
X35696028Y-36673738D01*
X35542889Y-36571414D01*
X35372729Y-36500932D01*
X35192089Y-36465000D01*
X35007911Y-36465000D01*
X34827271Y-36500932D01*
X34657111Y-36571414D01*
X34503972Y-36673738D01*
X34373738Y-36803972D01*
X34271414Y-36957111D01*
X34200932Y-37127271D01*
X34165000Y-37307911D01*
X32062003Y-37307911D01*
X31484999Y-36730908D01*
X31484999Y-35816519D01*
X31572729Y-35799068D01*
X31742889Y-35728586D01*
X31896028Y-35626262D01*
X32026262Y-35496028D01*
X32128586Y-35342889D01*
X32199068Y-35172729D01*
X32211546Y-35110000D01*
X32535099Y-35110000D01*
X32540040Y-35110911D01*
X32604944Y-35110000D01*
X32634877Y-35110000D01*
X32639852Y-35109510D01*
X32644841Y-35109440D01*
X32674537Y-35106094D01*
X32733338Y-35100303D01*
X32766490Y-35098907D01*
X32824745Y-35084748D01*
X32883413Y-35072220D01*
X32924760Y-35054410D01*
X32941159Y-35048671D01*
X32984594Y-35036815D01*
X33038253Y-35010040D01*
X33092645Y-34984779D01*
X33128993Y-34958214D01*
X33143702Y-34948972D01*
X33183409Y-34927748D01*
X33199999Y-34914133D01*
X33216589Y-34927748D01*
X33256298Y-34948972D01*
X33271006Y-34958214D01*
X33307354Y-34984779D01*
X33361746Y-35010040D01*
X33415405Y-35036815D01*
X33458840Y-35048671D01*
X33475241Y-35054410D01*
X33516587Y-35072220D01*
X33575250Y-35084747D01*
X33633510Y-35098907D01*
X33666662Y-35100303D01*
X33725463Y-35106094D01*
X33755159Y-35109440D01*
X33760148Y-35109510D01*
X33765123Y-35110000D01*
X33795056Y-35110000D01*
X33859960Y-35110911D01*
X33864901Y-35110000D01*
X39065125Y-35110000D01*
X39100000Y-35113435D01*
X39134875Y-35110000D01*
X39134877Y-35110000D01*
X39239184Y-35099727D01*
X39373020Y-35059128D01*
X39496363Y-34993200D01*
X39604475Y-34904475D01*
X39626712Y-34877379D01*
X40069092Y-34435000D01*
X40092089Y-34435000D01*
X40140001Y-34425470D01*
X40140001Y-34565115D01*
X40136565Y-34600000D01*
X40150274Y-34739184D01*
X40190872Y-34873019D01*
X40256801Y-34996363D01*
X40313818Y-35065838D01*
X40345526Y-35104475D01*
X40372616Y-35126707D01*
X40515000Y-35269091D01*
X40515000Y-35292089D01*
X40550932Y-35472729D01*
X40621414Y-35642889D01*
X40723738Y-35796028D01*
X40853972Y-35926262D01*
X41007111Y-36028586D01*
X41177271Y-36099068D01*
X41357911Y-36135000D01*
X41542089Y-36135000D01*
X41722729Y-36099068D01*
X41892889Y-36028586D01*
X42046028Y-35926262D01*
X42176262Y-35796028D01*
X42278586Y-35642889D01*
X42349068Y-35472729D01*
X42385000Y-35292089D01*
X42385000Y-35107911D01*
X42349068Y-34927271D01*
X42278586Y-34757111D01*
X42176262Y-34603972D01*
X42046028Y-34473738D01*
X41892889Y-34371414D01*
X41722729Y-34300932D01*
X41560000Y-34268563D01*
X41560000Y-32862290D01*
X41576262Y-32846028D01*
X41678586Y-32692889D01*
X41749068Y-32522729D01*
X41785000Y-32342089D01*
X41785000Y-32157911D01*
X41749068Y-31977271D01*
X41678586Y-31807111D01*
X41576262Y-31653972D01*
X41446028Y-31523738D01*
X41292889Y-31421414D01*
X41122729Y-31350932D01*
X40942089Y-31315000D01*
X40757911Y-31315000D01*
X40577271Y-31350932D01*
X40407111Y-31421414D01*
X40253972Y-31523738D01*
X40201696Y-31576014D01*
X40152716Y-31590872D01*
X40029373Y-31656800D01*
X39921261Y-31745525D01*
X39899024Y-31772621D01*
X38481644Y-33190001D01*
X35942091Y-33190001D01*
X33760000Y-31007911D01*
X33760000Y-29512290D01*
X33776262Y-29496028D01*
X33878586Y-29342889D01*
X33949068Y-29172729D01*
X33985000Y-28992089D01*
X33985000Y-28807911D01*
X33949068Y-28627271D01*
X33878586Y-28457111D01*
X33776262Y-28303972D01*
X33646028Y-28173738D01*
X33492889Y-28071414D01*
X33322729Y-28000932D01*
X33142089Y-27965000D01*
X32957911Y-27965000D01*
X32777271Y-28000932D01*
X32607111Y-28071414D01*
X32453972Y-28173738D01*
X32437710Y-28190000D01*
X31654092Y-28190000D01*
X25453867Y-21989775D01*
X30189830Y-21989775D01*
X30429976Y-22377018D01*
X30923877Y-22637641D01*
X31459133Y-22796901D01*
X32015174Y-22848678D01*
X32570632Y-22790981D01*
X33104161Y-22626028D01*
X33570024Y-22377018D01*
X33810170Y-21989775D01*
X32000000Y-20179605D01*
X30189830Y-21989775D01*
X25453867Y-21989775D01*
X23479266Y-20015174D01*
X29151322Y-20015174D01*
X29209019Y-20570632D01*
X29373972Y-21104161D01*
X29622982Y-21570024D01*
X30010225Y-21810170D01*
X31820395Y-20000000D01*
X32179605Y-20000000D01*
X33989775Y-21810170D01*
X34377018Y-21570024D01*
X34637641Y-21076123D01*
X34796901Y-20540867D01*
X34848678Y-19984826D01*
X34790981Y-19429368D01*
X34626028Y-18895839D01*
X34377018Y-18429976D01*
X33989775Y-18189830D01*
X32179605Y-20000000D01*
X31820395Y-20000000D01*
X30010225Y-18189830D01*
X29622982Y-18429976D01*
X29362359Y-18923877D01*
X29203099Y-19459133D01*
X29151322Y-20015174D01*
X23479266Y-20015174D01*
X23424339Y-19960248D01*
X23463513Y-19831111D01*
X23492185Y-19540000D01*
X23463513Y-19248889D01*
X23378599Y-18968966D01*
X23240706Y-18710986D01*
X23055134Y-18484866D01*
X23025313Y-18460393D01*
X23094180Y-18439502D01*
X23204494Y-18380537D01*
X23301185Y-18301185D01*
X23380537Y-18204494D01*
X23439502Y-18094180D01*
X23464969Y-18010225D01*
X30189830Y-18010225D01*
X32000000Y-19820395D01*
X33810170Y-18010225D01*
X33570024Y-17622982D01*
X33076123Y-17362359D01*
X32540867Y-17203099D01*
X31984826Y-17151322D01*
X31429368Y-17209019D01*
X30895839Y-17373972D01*
X30429976Y-17622982D01*
X30189830Y-18010225D01*
X23464969Y-18010225D01*
X23475812Y-17974482D01*
X23488072Y-17850000D01*
X23488072Y-16150000D01*
X23475812Y-16025518D01*
X23439502Y-15905820D01*
X23380537Y-15795506D01*
X23330881Y-15735000D01*
X67336588Y-15735000D01*
X67118645Y-15864822D01*
G36*
X62277000Y-42123000D02*
G01*
X62297000Y-42123000D01*
X62297000Y-42377000D01*
X62277000Y-42377000D01*
X62277000Y-43570155D01*
X62506890Y-43691476D01*
X62654099Y-43646825D01*
X62916920Y-43521641D01*
X63150269Y-43347588D01*
X63345178Y-43131355D01*
X63494157Y-42881252D01*
X63591481Y-42606891D01*
X63578977Y-42583068D01*
X65285908Y-44290000D01*
X51494091Y-44290000D01*
X50753029Y-43548938D01*
X50830537Y-43454494D01*
X50889502Y-43344180D01*
X50910393Y-43275313D01*
X50934866Y-43305134D01*
X51160986Y-43490706D01*
X51418966Y-43628599D01*
X51698889Y-43713513D01*
X51917050Y-43735000D01*
X52062950Y-43735000D01*
X52281111Y-43713513D01*
X52561034Y-43628599D01*
X52819014Y-43490706D01*
X53045134Y-43305134D01*
X53230706Y-43079014D01*
X53260000Y-43024209D01*
X53289294Y-43079014D01*
X53474866Y-43305134D01*
X53700986Y-43490706D01*
X53958966Y-43628599D01*
X54238889Y-43713513D01*
X54457050Y-43735000D01*
X54602950Y-43735000D01*
X54821111Y-43713513D01*
X55101034Y-43628599D01*
X55359014Y-43490706D01*
X55585134Y-43305134D01*
X55770706Y-43079014D01*
X55800000Y-43024209D01*
X55829294Y-43079014D01*
X56014866Y-43305134D01*
X56240986Y-43490706D01*
X56498966Y-43628599D01*
X56778889Y-43713513D01*
X56997050Y-43735000D01*
X57142950Y-43735000D01*
X57361111Y-43713513D01*
X57641034Y-43628599D01*
X57899014Y-43490706D01*
X58125134Y-43305134D01*
X58310706Y-43079014D01*
X58340000Y-43024209D01*
X58369294Y-43079014D01*
X58554866Y-43305134D01*
X58780986Y-43490706D01*
X59038966Y-43628599D01*
X59318889Y-43713513D01*
X59537050Y-43735000D01*
X59682950Y-43735000D01*
X59901111Y-43713513D01*
X60181034Y-43628599D01*
X60439014Y-43490706D01*
X60665134Y-43305134D01*
X60850706Y-43079014D01*
X60885201Y-43014477D01*
X60954822Y-43131355D01*
X61149731Y-43347588D01*
X61383080Y-43521641D01*
X61645901Y-43646825D01*
X61793110Y-43691476D01*
X62023000Y-43570155D01*
X62023000Y-42377000D01*
X62003000Y-42377000D01*
X62003000Y-42123000D01*
X62023000Y-42123000D01*
X62023000Y-42103000D01*
X62277000Y-42103000D01*
X62277000Y-42123000D01*
X62277000Y-42123000D01*
G37*
X62277000Y-42123000D02*
X62297000Y-42123000D01*
X62297000Y-42377000D01*
X62277000Y-42377000D01*
X62277000Y-43570155D01*
X62506890Y-43691476D01*
X62654099Y-43646825D01*
X62916920Y-43521641D01*
X63150269Y-43347588D01*
X63345178Y-43131355D01*
X63494157Y-42881252D01*
X63591481Y-42606891D01*
X63578977Y-42583068D01*
X65285908Y-44290000D01*
X51494091Y-44290000D01*
X50753029Y-43548938D01*
X50830537Y-43454494D01*
X50889502Y-43344180D01*
X50910393Y-43275313D01*
X50934866Y-43305134D01*
X51160986Y-43490706D01*
X51418966Y-43628599D01*
X51698889Y-43713513D01*
X51917050Y-43735000D01*
X52062950Y-43735000D01*
X52281111Y-43713513D01*
X52561034Y-43628599D01*
X52819014Y-43490706D01*
X53045134Y-43305134D01*
X53230706Y-43079014D01*
X53260000Y-43024209D01*
X53289294Y-43079014D01*
X53474866Y-43305134D01*
X53700986Y-43490706D01*
X53958966Y-43628599D01*
X54238889Y-43713513D01*
X54457050Y-43735000D01*
X54602950Y-43735000D01*
X54821111Y-43713513D01*
X55101034Y-43628599D01*
X55359014Y-43490706D01*
X55585134Y-43305134D01*
X55770706Y-43079014D01*
X55800000Y-43024209D01*
X55829294Y-43079014D01*
X56014866Y-43305134D01*
X56240986Y-43490706D01*
X56498966Y-43628599D01*
X56778889Y-43713513D01*
X56997050Y-43735000D01*
X57142950Y-43735000D01*
X57361111Y-43713513D01*
X57641034Y-43628599D01*
X57899014Y-43490706D01*
X58125134Y-43305134D01*
X58310706Y-43079014D01*
X58340000Y-43024209D01*
X58369294Y-43079014D01*
X58554866Y-43305134D01*
X58780986Y-43490706D01*
X59038966Y-43628599D01*
X59318889Y-43713513D01*
X59537050Y-43735000D01*
X59682950Y-43735000D01*
X59901111Y-43713513D01*
X60181034Y-43628599D01*
X60439014Y-43490706D01*
X60665134Y-43305134D01*
X60850706Y-43079014D01*
X60885201Y-43014477D01*
X60954822Y-43131355D01*
X61149731Y-43347588D01*
X61383080Y-43521641D01*
X61645901Y-43646825D01*
X61793110Y-43691476D01*
X62023000Y-43570155D01*
X62023000Y-42377000D01*
X62003000Y-42377000D01*
X62003000Y-42123000D01*
X62023000Y-42123000D01*
X62023000Y-42103000D01*
X62277000Y-42103000D01*
X62277000Y-42123000D01*
M02*
