G04 #@! TF.GenerationSoftware,KiCad,Pcbnew,5.1.2-f72e74a~84~ubuntu18.04.1*
G04 #@! TF.CreationDate,2019-07-30T17:12:07-04:00*
G04 #@! TF.ProjectId,fe310-dev,66653331-302d-4646-9576-2e6b69636164,rev?*
G04 #@! TF.SameCoordinates,Original*
G04 #@! TF.FileFunction,Soldermask,Bot*
G04 #@! TF.FilePolarity,Negative*
%FSLAX46Y46*%
G04 Gerber Fmt 4.6, Leading zero omitted, Abs format (unit mm)*
G04 Created by KiCad (PCBNEW 5.1.2-f72e74a~84~ubuntu18.04.1) date 2019-07-30 17:12:07*
%MOMM*%
%LPD*%
G04 APERTURE LIST*
%ADD10C,0.100000*%
G04 APERTURE END LIST*
D10*
G36*
X24797740Y-60208626D02*
G01*
X24846136Y-60218253D01*
X24883902Y-60233896D01*
X24937311Y-60256019D01*
X24937312Y-60256020D01*
X25019369Y-60310848D01*
X25089152Y-60380631D01*
X25089153Y-60380633D01*
X25143981Y-60462689D01*
X25181747Y-60553865D01*
X25201000Y-60650655D01*
X25201000Y-60749345D01*
X25181747Y-60846135D01*
X25143981Y-60937311D01*
X25143980Y-60937312D01*
X25089152Y-61019369D01*
X25019369Y-61089152D01*
X24978062Y-61116752D01*
X24937311Y-61143981D01*
X24883902Y-61166104D01*
X24846136Y-61181747D01*
X24797740Y-61191374D01*
X24749345Y-61201000D01*
X24650655Y-61201000D01*
X24602260Y-61191374D01*
X24553864Y-61181747D01*
X24516098Y-61166104D01*
X24462689Y-61143981D01*
X24421938Y-61116752D01*
X24380631Y-61089152D01*
X24310848Y-61019369D01*
X24256020Y-60937312D01*
X24256019Y-60937311D01*
X24218253Y-60846135D01*
X24199000Y-60749345D01*
X24199000Y-60650655D01*
X24218253Y-60553865D01*
X24256019Y-60462689D01*
X24310847Y-60380633D01*
X24310848Y-60380631D01*
X24380631Y-60310848D01*
X24462688Y-60256020D01*
X24462689Y-60256019D01*
X24516098Y-60233896D01*
X24553864Y-60218253D01*
X24602260Y-60208626D01*
X24650655Y-60199000D01*
X24749345Y-60199000D01*
X24797740Y-60208626D01*
X24797740Y-60208626D01*
G37*
G36*
X24797740Y-55808627D02*
G01*
X24846136Y-55818253D01*
X24883902Y-55833896D01*
X24937311Y-55856019D01*
X24937312Y-55856020D01*
X25019369Y-55910848D01*
X25089152Y-55980631D01*
X25089153Y-55980633D01*
X25143981Y-56062689D01*
X25181747Y-56153865D01*
X25201000Y-56250655D01*
X25201000Y-56349345D01*
X25181747Y-56446135D01*
X25143981Y-56537311D01*
X25143980Y-56537312D01*
X25089152Y-56619369D01*
X25019369Y-56689152D01*
X24978062Y-56716752D01*
X24937311Y-56743981D01*
X24883902Y-56766104D01*
X24846136Y-56781747D01*
X24797740Y-56791373D01*
X24749345Y-56801000D01*
X24650655Y-56801000D01*
X24602260Y-56791373D01*
X24553864Y-56781747D01*
X24516098Y-56766104D01*
X24462689Y-56743981D01*
X24421938Y-56716752D01*
X24380631Y-56689152D01*
X24310848Y-56619369D01*
X24256020Y-56537312D01*
X24256019Y-56537311D01*
X24218253Y-56446135D01*
X24199000Y-56349345D01*
X24199000Y-56250655D01*
X24218253Y-56153865D01*
X24256019Y-56062689D01*
X24310847Y-55980633D01*
X24310848Y-55980631D01*
X24380631Y-55910848D01*
X24462688Y-55856020D01*
X24462689Y-55856019D01*
X24516098Y-55833896D01*
X24553864Y-55818253D01*
X24602260Y-55808627D01*
X24650655Y-55799000D01*
X24749345Y-55799000D01*
X24797740Y-55808627D01*
X24797740Y-55808627D01*
G37*
G36*
X63275880Y-47759776D02*
G01*
X63656593Y-47835504D01*
X64066249Y-48005189D01*
X64434929Y-48251534D01*
X64748466Y-48565071D01*
X64994811Y-48933751D01*
X65164496Y-49343407D01*
X65251000Y-49778296D01*
X65251000Y-50221704D01*
X65164496Y-50656593D01*
X64994811Y-51066249D01*
X64748466Y-51434929D01*
X64434929Y-51748466D01*
X64066249Y-51994811D01*
X63656593Y-52164496D01*
X63275880Y-52240224D01*
X63221705Y-52251000D01*
X62778295Y-52251000D01*
X62724120Y-52240224D01*
X62343407Y-52164496D01*
X61933751Y-51994811D01*
X61565071Y-51748466D01*
X61251534Y-51434929D01*
X61005189Y-51066249D01*
X60835504Y-50656593D01*
X60749000Y-50221704D01*
X60749000Y-49778296D01*
X60835504Y-49343407D01*
X61005189Y-48933751D01*
X61251534Y-48565071D01*
X61565071Y-48251534D01*
X61933751Y-48005189D01*
X62343407Y-47835504D01*
X62724120Y-47759776D01*
X62778295Y-47749000D01*
X63221705Y-47749000D01*
X63275880Y-47759776D01*
X63275880Y-47759776D01*
G37*
G36*
X24275880Y-47759776D02*
G01*
X24656593Y-47835504D01*
X25066249Y-48005189D01*
X25434929Y-48251534D01*
X25748466Y-48565071D01*
X25994811Y-48933751D01*
X26164496Y-49343407D01*
X26251000Y-49778296D01*
X26251000Y-50221704D01*
X26164496Y-50656593D01*
X25994811Y-51066249D01*
X25748466Y-51434929D01*
X25434929Y-51748466D01*
X25066249Y-51994811D01*
X24656593Y-52164496D01*
X24275880Y-52240224D01*
X24221705Y-52251000D01*
X23778295Y-52251000D01*
X23724120Y-52240224D01*
X23343407Y-52164496D01*
X22933751Y-51994811D01*
X22565071Y-51748466D01*
X22251534Y-51434929D01*
X22005189Y-51066249D01*
X21835504Y-50656593D01*
X21749000Y-50221704D01*
X21749000Y-49778296D01*
X21835504Y-49343407D01*
X22005189Y-48933751D01*
X22251534Y-48565071D01*
X22565071Y-48251534D01*
X22933751Y-48005189D01*
X23343407Y-47835504D01*
X23724120Y-47759776D01*
X23778295Y-47749000D01*
X24221705Y-47749000D01*
X24275880Y-47759776D01*
X24275880Y-47759776D01*
G37*
G36*
X68901000Y-45901000D02*
G01*
X67099000Y-45901000D01*
X67099000Y-44099000D01*
X68901000Y-44099000D01*
X68901000Y-45901000D01*
X68901000Y-45901000D01*
G37*
G36*
X22110443Y-44045519D02*
G01*
X22176627Y-44052037D01*
X22346466Y-44103557D01*
X22502991Y-44187222D01*
X22538729Y-44216552D01*
X22640186Y-44299814D01*
X22723448Y-44401271D01*
X22752778Y-44437009D01*
X22836443Y-44593534D01*
X22887963Y-44763373D01*
X22905359Y-44940000D01*
X22887963Y-45116627D01*
X22836443Y-45286466D01*
X22752778Y-45442991D01*
X22723448Y-45478729D01*
X22640186Y-45580186D01*
X22538729Y-45663448D01*
X22502991Y-45692778D01*
X22346466Y-45776443D01*
X22176627Y-45827963D01*
X22110442Y-45834482D01*
X22044260Y-45841000D01*
X21955740Y-45841000D01*
X21889558Y-45834482D01*
X21823373Y-45827963D01*
X21653534Y-45776443D01*
X21497009Y-45692778D01*
X21461271Y-45663448D01*
X21359814Y-45580186D01*
X21276552Y-45478729D01*
X21247222Y-45442991D01*
X21163557Y-45286466D01*
X21112037Y-45116627D01*
X21094641Y-44940000D01*
X21112037Y-44763373D01*
X21163557Y-44593534D01*
X21247222Y-44437009D01*
X21276552Y-44401271D01*
X21359814Y-44299814D01*
X21461271Y-44216552D01*
X21497009Y-44187222D01*
X21653534Y-44103557D01*
X21823373Y-44052037D01*
X21889557Y-44045519D01*
X21955740Y-44039000D01*
X22044260Y-44039000D01*
X22110443Y-44045519D01*
X22110443Y-44045519D01*
G37*
G36*
X68090527Y-41563557D02*
G01*
X68176627Y-41572037D01*
X68346466Y-41623557D01*
X68502991Y-41707222D01*
X68538729Y-41736552D01*
X68640186Y-41819814D01*
X68708892Y-41903534D01*
X68752778Y-41957009D01*
X68836443Y-42113534D01*
X68887963Y-42283373D01*
X68905359Y-42460000D01*
X68887963Y-42636627D01*
X68836443Y-42806466D01*
X68752778Y-42962991D01*
X68723448Y-42998729D01*
X68640186Y-43100186D01*
X68538729Y-43183448D01*
X68502991Y-43212778D01*
X68346466Y-43296443D01*
X68176627Y-43347963D01*
X68110443Y-43354481D01*
X68044260Y-43361000D01*
X67955740Y-43361000D01*
X67889557Y-43354481D01*
X67823373Y-43347963D01*
X67653534Y-43296443D01*
X67497009Y-43212778D01*
X67461271Y-43183448D01*
X67359814Y-43100186D01*
X67276552Y-42998729D01*
X67247222Y-42962991D01*
X67163557Y-42806466D01*
X67112037Y-42636627D01*
X67094641Y-42460000D01*
X67112037Y-42283373D01*
X67163557Y-42113534D01*
X67247222Y-41957009D01*
X67291108Y-41903534D01*
X67359814Y-41819814D01*
X67461271Y-41736552D01*
X67497009Y-41707222D01*
X67653534Y-41623557D01*
X67823373Y-41572037D01*
X67909473Y-41563557D01*
X67955740Y-41559000D01*
X68044260Y-41559000D01*
X68090527Y-41563557D01*
X68090527Y-41563557D01*
G37*
G36*
X22110443Y-41505519D02*
G01*
X22176627Y-41512037D01*
X22346466Y-41563557D01*
X22502991Y-41647222D01*
X22538729Y-41676552D01*
X22640186Y-41759814D01*
X22723448Y-41861271D01*
X22752778Y-41897009D01*
X22836443Y-42053534D01*
X22887963Y-42223373D01*
X22905359Y-42400000D01*
X22887963Y-42576627D01*
X22836443Y-42746466D01*
X22752778Y-42902991D01*
X22723448Y-42938729D01*
X22640186Y-43040186D01*
X22538729Y-43123448D01*
X22502991Y-43152778D01*
X22346466Y-43236443D01*
X22176627Y-43287963D01*
X22110443Y-43294481D01*
X22044260Y-43301000D01*
X21955740Y-43301000D01*
X21889557Y-43294481D01*
X21823373Y-43287963D01*
X21653534Y-43236443D01*
X21497009Y-43152778D01*
X21461271Y-43123448D01*
X21359814Y-43040186D01*
X21276552Y-42938729D01*
X21247222Y-42902991D01*
X21163557Y-42746466D01*
X21112037Y-42576627D01*
X21094641Y-42400000D01*
X21112037Y-42223373D01*
X21163557Y-42053534D01*
X21247222Y-41897009D01*
X21276552Y-41861271D01*
X21359814Y-41759814D01*
X21461271Y-41676552D01*
X21497009Y-41647222D01*
X21653534Y-41563557D01*
X21823373Y-41512037D01*
X21889557Y-41505519D01*
X21955740Y-41499000D01*
X22044260Y-41499000D01*
X22110443Y-41505519D01*
X22110443Y-41505519D01*
G37*
G36*
X50351000Y-43151000D02*
G01*
X48549000Y-43151000D01*
X48549000Y-41349000D01*
X50351000Y-41349000D01*
X50351000Y-43151000D01*
X50351000Y-43151000D01*
G37*
G36*
X57180442Y-41355518D02*
G01*
X57246627Y-41362037D01*
X57416466Y-41413557D01*
X57572991Y-41497222D01*
X57575157Y-41499000D01*
X57710186Y-41609814D01*
X57790125Y-41707221D01*
X57822778Y-41747009D01*
X57906443Y-41903534D01*
X57957963Y-42073373D01*
X57975359Y-42250000D01*
X57957963Y-42426627D01*
X57906443Y-42596466D01*
X57822778Y-42752991D01*
X57793448Y-42788729D01*
X57710186Y-42890186D01*
X57608729Y-42973448D01*
X57572991Y-43002778D01*
X57416466Y-43086443D01*
X57246627Y-43137963D01*
X57180442Y-43144482D01*
X57114260Y-43151000D01*
X57025740Y-43151000D01*
X56959558Y-43144482D01*
X56893373Y-43137963D01*
X56723534Y-43086443D01*
X56567009Y-43002778D01*
X56531271Y-42973448D01*
X56429814Y-42890186D01*
X56346552Y-42788729D01*
X56317222Y-42752991D01*
X56233557Y-42596466D01*
X56182037Y-42426627D01*
X56164641Y-42250000D01*
X56182037Y-42073373D01*
X56233557Y-41903534D01*
X56317222Y-41747009D01*
X56349875Y-41707221D01*
X56429814Y-41609814D01*
X56564843Y-41499000D01*
X56567009Y-41497222D01*
X56723534Y-41413557D01*
X56893373Y-41362037D01*
X56959558Y-41355518D01*
X57025740Y-41349000D01*
X57114260Y-41349000D01*
X57180442Y-41355518D01*
X57180442Y-41355518D01*
G37*
G36*
X54640442Y-41355518D02*
G01*
X54706627Y-41362037D01*
X54876466Y-41413557D01*
X55032991Y-41497222D01*
X55035157Y-41499000D01*
X55170186Y-41609814D01*
X55250125Y-41707221D01*
X55282778Y-41747009D01*
X55366443Y-41903534D01*
X55417963Y-42073373D01*
X55435359Y-42250000D01*
X55417963Y-42426627D01*
X55366443Y-42596466D01*
X55282778Y-42752991D01*
X55253448Y-42788729D01*
X55170186Y-42890186D01*
X55068729Y-42973448D01*
X55032991Y-43002778D01*
X54876466Y-43086443D01*
X54706627Y-43137963D01*
X54640442Y-43144482D01*
X54574260Y-43151000D01*
X54485740Y-43151000D01*
X54419558Y-43144482D01*
X54353373Y-43137963D01*
X54183534Y-43086443D01*
X54027009Y-43002778D01*
X53991271Y-42973448D01*
X53889814Y-42890186D01*
X53806552Y-42788729D01*
X53777222Y-42752991D01*
X53693557Y-42596466D01*
X53642037Y-42426627D01*
X53624641Y-42250000D01*
X53642037Y-42073373D01*
X53693557Y-41903534D01*
X53777222Y-41747009D01*
X53809875Y-41707221D01*
X53889814Y-41609814D01*
X54024843Y-41499000D01*
X54027009Y-41497222D01*
X54183534Y-41413557D01*
X54353373Y-41362037D01*
X54419558Y-41355518D01*
X54485740Y-41349000D01*
X54574260Y-41349000D01*
X54640442Y-41355518D01*
X54640442Y-41355518D01*
G37*
G36*
X59720442Y-41355518D02*
G01*
X59786627Y-41362037D01*
X59956466Y-41413557D01*
X60112991Y-41497222D01*
X60115157Y-41499000D01*
X60250186Y-41609814D01*
X60330125Y-41707221D01*
X60362778Y-41747009D01*
X60446443Y-41903534D01*
X60497963Y-42073373D01*
X60515359Y-42250000D01*
X60497963Y-42426627D01*
X60446443Y-42596466D01*
X60362778Y-42752991D01*
X60333448Y-42788729D01*
X60250186Y-42890186D01*
X60148729Y-42973448D01*
X60112991Y-43002778D01*
X59956466Y-43086443D01*
X59786627Y-43137963D01*
X59720442Y-43144482D01*
X59654260Y-43151000D01*
X59565740Y-43151000D01*
X59499558Y-43144482D01*
X59433373Y-43137963D01*
X59263534Y-43086443D01*
X59107009Y-43002778D01*
X59071271Y-42973448D01*
X58969814Y-42890186D01*
X58886552Y-42788729D01*
X58857222Y-42752991D01*
X58773557Y-42596466D01*
X58722037Y-42426627D01*
X58704641Y-42250000D01*
X58722037Y-42073373D01*
X58773557Y-41903534D01*
X58857222Y-41747009D01*
X58889875Y-41707221D01*
X58969814Y-41609814D01*
X59104843Y-41499000D01*
X59107009Y-41497222D01*
X59263534Y-41413557D01*
X59433373Y-41362037D01*
X59499558Y-41355518D01*
X59565740Y-41349000D01*
X59654260Y-41349000D01*
X59720442Y-41355518D01*
X59720442Y-41355518D01*
G37*
G36*
X52100442Y-41355518D02*
G01*
X52166627Y-41362037D01*
X52336466Y-41413557D01*
X52492991Y-41497222D01*
X52495157Y-41499000D01*
X52630186Y-41609814D01*
X52710125Y-41707221D01*
X52742778Y-41747009D01*
X52826443Y-41903534D01*
X52877963Y-42073373D01*
X52895359Y-42250000D01*
X52877963Y-42426627D01*
X52826443Y-42596466D01*
X52742778Y-42752991D01*
X52713448Y-42788729D01*
X52630186Y-42890186D01*
X52528729Y-42973448D01*
X52492991Y-43002778D01*
X52336466Y-43086443D01*
X52166627Y-43137963D01*
X52100442Y-43144482D01*
X52034260Y-43151000D01*
X51945740Y-43151000D01*
X51879558Y-43144482D01*
X51813373Y-43137963D01*
X51643534Y-43086443D01*
X51487009Y-43002778D01*
X51451271Y-42973448D01*
X51349814Y-42890186D01*
X51266552Y-42788729D01*
X51237222Y-42752991D01*
X51153557Y-42596466D01*
X51102037Y-42426627D01*
X51084641Y-42250000D01*
X51102037Y-42073373D01*
X51153557Y-41903534D01*
X51237222Y-41747009D01*
X51269875Y-41707221D01*
X51349814Y-41609814D01*
X51484843Y-41499000D01*
X51487009Y-41497222D01*
X51643534Y-41413557D01*
X51813373Y-41362037D01*
X51879558Y-41355518D01*
X51945740Y-41349000D01*
X52034260Y-41349000D01*
X52100442Y-41355518D01*
X52100442Y-41355518D01*
G37*
G36*
X62260442Y-41355518D02*
G01*
X62326627Y-41362037D01*
X62496466Y-41413557D01*
X62652991Y-41497222D01*
X62655157Y-41499000D01*
X62790186Y-41609814D01*
X62870125Y-41707221D01*
X62902778Y-41747009D01*
X62986443Y-41903534D01*
X63037963Y-42073373D01*
X63055359Y-42250000D01*
X63037963Y-42426627D01*
X62986443Y-42596466D01*
X62902778Y-42752991D01*
X62873448Y-42788729D01*
X62790186Y-42890186D01*
X62688729Y-42973448D01*
X62652991Y-43002778D01*
X62496466Y-43086443D01*
X62326627Y-43137963D01*
X62260442Y-43144482D01*
X62194260Y-43151000D01*
X62105740Y-43151000D01*
X62039558Y-43144482D01*
X61973373Y-43137963D01*
X61803534Y-43086443D01*
X61647009Y-43002778D01*
X61611271Y-42973448D01*
X61509814Y-42890186D01*
X61426552Y-42788729D01*
X61397222Y-42752991D01*
X61313557Y-42596466D01*
X61262037Y-42426627D01*
X61244641Y-42250000D01*
X61262037Y-42073373D01*
X61313557Y-41903534D01*
X61397222Y-41747009D01*
X61429875Y-41707221D01*
X61509814Y-41609814D01*
X61644843Y-41499000D01*
X61647009Y-41497222D01*
X61803534Y-41413557D01*
X61973373Y-41362037D01*
X62039558Y-41355518D01*
X62105740Y-41349000D01*
X62194260Y-41349000D01*
X62260442Y-41355518D01*
X62260442Y-41355518D01*
G37*
G36*
X68090527Y-39023557D02*
G01*
X68176627Y-39032037D01*
X68346466Y-39083557D01*
X68502991Y-39167222D01*
X68538729Y-39196552D01*
X68640186Y-39279814D01*
X68703537Y-39357009D01*
X68752778Y-39417009D01*
X68836443Y-39573534D01*
X68887963Y-39743373D01*
X68905359Y-39920000D01*
X68887963Y-40096627D01*
X68836443Y-40266466D01*
X68752778Y-40422991D01*
X68723448Y-40458729D01*
X68640186Y-40560186D01*
X68538729Y-40643448D01*
X68502991Y-40672778D01*
X68346466Y-40756443D01*
X68176627Y-40807963D01*
X68110443Y-40814481D01*
X68044260Y-40821000D01*
X67955740Y-40821000D01*
X67889557Y-40814481D01*
X67823373Y-40807963D01*
X67653534Y-40756443D01*
X67497009Y-40672778D01*
X67461271Y-40643448D01*
X67359814Y-40560186D01*
X67276552Y-40458729D01*
X67247222Y-40422991D01*
X67163557Y-40266466D01*
X67112037Y-40096627D01*
X67094641Y-39920000D01*
X67112037Y-39743373D01*
X67163557Y-39573534D01*
X67247222Y-39417009D01*
X67296463Y-39357009D01*
X67359814Y-39279814D01*
X67461271Y-39196552D01*
X67497009Y-39167222D01*
X67653534Y-39083557D01*
X67823373Y-39032037D01*
X67909473Y-39023557D01*
X67955740Y-39019000D01*
X68044260Y-39019000D01*
X68090527Y-39023557D01*
X68090527Y-39023557D01*
G37*
G36*
X22110443Y-38965519D02*
G01*
X22176627Y-38972037D01*
X22346466Y-39023557D01*
X22502991Y-39107222D01*
X22538729Y-39136552D01*
X22640186Y-39219814D01*
X22723448Y-39321271D01*
X22752778Y-39357009D01*
X22836443Y-39513534D01*
X22887963Y-39683373D01*
X22905359Y-39860000D01*
X22887963Y-40036627D01*
X22836443Y-40206466D01*
X22752778Y-40362991D01*
X22723448Y-40398729D01*
X22640186Y-40500186D01*
X22538729Y-40583448D01*
X22502991Y-40612778D01*
X22346466Y-40696443D01*
X22176627Y-40747963D01*
X22110443Y-40754481D01*
X22044260Y-40761000D01*
X21955740Y-40761000D01*
X21889557Y-40754481D01*
X21823373Y-40747963D01*
X21653534Y-40696443D01*
X21497009Y-40612778D01*
X21461271Y-40583448D01*
X21359814Y-40500186D01*
X21276552Y-40398729D01*
X21247222Y-40362991D01*
X21163557Y-40206466D01*
X21112037Y-40036627D01*
X21094641Y-39860000D01*
X21112037Y-39683373D01*
X21163557Y-39513534D01*
X21247222Y-39357009D01*
X21276552Y-39321271D01*
X21359814Y-39219814D01*
X21461271Y-39136552D01*
X21497009Y-39107222D01*
X21653534Y-39023557D01*
X21823373Y-38972037D01*
X21889557Y-38965519D01*
X21955740Y-38959000D01*
X22044260Y-38959000D01*
X22110443Y-38965519D01*
X22110443Y-38965519D01*
G37*
G36*
X57210443Y-37605519D02*
G01*
X57276627Y-37612037D01*
X57446466Y-37663557D01*
X57602991Y-37747222D01*
X57638729Y-37776552D01*
X57740186Y-37859814D01*
X57822557Y-37960185D01*
X57852778Y-37997009D01*
X57936443Y-38153534D01*
X57987963Y-38323373D01*
X58005359Y-38500000D01*
X57987963Y-38676627D01*
X57936443Y-38846466D01*
X57852778Y-39002991D01*
X57835900Y-39023557D01*
X57740186Y-39140186D01*
X57643156Y-39219815D01*
X57602991Y-39252778D01*
X57446466Y-39336443D01*
X57276627Y-39387963D01*
X57210443Y-39394481D01*
X57144260Y-39401000D01*
X57055740Y-39401000D01*
X56989557Y-39394481D01*
X56923373Y-39387963D01*
X56753534Y-39336443D01*
X56597009Y-39252778D01*
X56556844Y-39219815D01*
X56459814Y-39140186D01*
X56364100Y-39023557D01*
X56347222Y-39002991D01*
X56263557Y-38846466D01*
X56212037Y-38676627D01*
X56194641Y-38500000D01*
X56212037Y-38323373D01*
X56263557Y-38153534D01*
X56347222Y-37997009D01*
X56377443Y-37960185D01*
X56459814Y-37859814D01*
X56561271Y-37776552D01*
X56597009Y-37747222D01*
X56753534Y-37663557D01*
X56923373Y-37612037D01*
X56989557Y-37605519D01*
X57055740Y-37599000D01*
X57144260Y-37599000D01*
X57210443Y-37605519D01*
X57210443Y-37605519D01*
G37*
G36*
X45301000Y-39401000D02*
G01*
X43499000Y-39401000D01*
X43499000Y-37599000D01*
X45301000Y-37599000D01*
X45301000Y-39401000D01*
X45301000Y-39401000D01*
G37*
G36*
X62290443Y-37605519D02*
G01*
X62356627Y-37612037D01*
X62526466Y-37663557D01*
X62682991Y-37747222D01*
X62718729Y-37776552D01*
X62820186Y-37859814D01*
X62902557Y-37960185D01*
X62932778Y-37997009D01*
X63016443Y-38153534D01*
X63067963Y-38323373D01*
X63085359Y-38500000D01*
X63067963Y-38676627D01*
X63016443Y-38846466D01*
X62932778Y-39002991D01*
X62915900Y-39023557D01*
X62820186Y-39140186D01*
X62723156Y-39219815D01*
X62682991Y-39252778D01*
X62526466Y-39336443D01*
X62356627Y-39387963D01*
X62290443Y-39394481D01*
X62224260Y-39401000D01*
X62135740Y-39401000D01*
X62069557Y-39394481D01*
X62003373Y-39387963D01*
X61833534Y-39336443D01*
X61677009Y-39252778D01*
X61636844Y-39219815D01*
X61539814Y-39140186D01*
X61444100Y-39023557D01*
X61427222Y-39002991D01*
X61343557Y-38846466D01*
X61292037Y-38676627D01*
X61274641Y-38500000D01*
X61292037Y-38323373D01*
X61343557Y-38153534D01*
X61427222Y-37997009D01*
X61457443Y-37960185D01*
X61539814Y-37859814D01*
X61641271Y-37776552D01*
X61677009Y-37747222D01*
X61833534Y-37663557D01*
X62003373Y-37612037D01*
X62069557Y-37605519D01*
X62135740Y-37599000D01*
X62224260Y-37599000D01*
X62290443Y-37605519D01*
X62290443Y-37605519D01*
G37*
G36*
X54670443Y-37605519D02*
G01*
X54736627Y-37612037D01*
X54906466Y-37663557D01*
X55062991Y-37747222D01*
X55098729Y-37776552D01*
X55200186Y-37859814D01*
X55282557Y-37960185D01*
X55312778Y-37997009D01*
X55396443Y-38153534D01*
X55447963Y-38323373D01*
X55465359Y-38500000D01*
X55447963Y-38676627D01*
X55396443Y-38846466D01*
X55312778Y-39002991D01*
X55295900Y-39023557D01*
X55200186Y-39140186D01*
X55103156Y-39219815D01*
X55062991Y-39252778D01*
X54906466Y-39336443D01*
X54736627Y-39387963D01*
X54670443Y-39394481D01*
X54604260Y-39401000D01*
X54515740Y-39401000D01*
X54449557Y-39394481D01*
X54383373Y-39387963D01*
X54213534Y-39336443D01*
X54057009Y-39252778D01*
X54016844Y-39219815D01*
X53919814Y-39140186D01*
X53824100Y-39023557D01*
X53807222Y-39002991D01*
X53723557Y-38846466D01*
X53672037Y-38676627D01*
X53654641Y-38500000D01*
X53672037Y-38323373D01*
X53723557Y-38153534D01*
X53807222Y-37997009D01*
X53837443Y-37960185D01*
X53919814Y-37859814D01*
X54021271Y-37776552D01*
X54057009Y-37747222D01*
X54213534Y-37663557D01*
X54383373Y-37612037D01*
X54449557Y-37605519D01*
X54515740Y-37599000D01*
X54604260Y-37599000D01*
X54670443Y-37605519D01*
X54670443Y-37605519D01*
G37*
G36*
X49590443Y-37605519D02*
G01*
X49656627Y-37612037D01*
X49826466Y-37663557D01*
X49982991Y-37747222D01*
X50018729Y-37776552D01*
X50120186Y-37859814D01*
X50202557Y-37960185D01*
X50232778Y-37997009D01*
X50316443Y-38153534D01*
X50367963Y-38323373D01*
X50385359Y-38500000D01*
X50367963Y-38676627D01*
X50316443Y-38846466D01*
X50232778Y-39002991D01*
X50215900Y-39023557D01*
X50120186Y-39140186D01*
X50023156Y-39219815D01*
X49982991Y-39252778D01*
X49826466Y-39336443D01*
X49656627Y-39387963D01*
X49590443Y-39394481D01*
X49524260Y-39401000D01*
X49435740Y-39401000D01*
X49369557Y-39394481D01*
X49303373Y-39387963D01*
X49133534Y-39336443D01*
X48977009Y-39252778D01*
X48936844Y-39219815D01*
X48839814Y-39140186D01*
X48744100Y-39023557D01*
X48727222Y-39002991D01*
X48643557Y-38846466D01*
X48592037Y-38676627D01*
X48574641Y-38500000D01*
X48592037Y-38323373D01*
X48643557Y-38153534D01*
X48727222Y-37997009D01*
X48757443Y-37960185D01*
X48839814Y-37859814D01*
X48941271Y-37776552D01*
X48977009Y-37747222D01*
X49133534Y-37663557D01*
X49303373Y-37612037D01*
X49369557Y-37605519D01*
X49435740Y-37599000D01*
X49524260Y-37599000D01*
X49590443Y-37605519D01*
X49590443Y-37605519D01*
G37*
G36*
X59750443Y-37605519D02*
G01*
X59816627Y-37612037D01*
X59986466Y-37663557D01*
X60142991Y-37747222D01*
X60178729Y-37776552D01*
X60280186Y-37859814D01*
X60362557Y-37960185D01*
X60392778Y-37997009D01*
X60476443Y-38153534D01*
X60527963Y-38323373D01*
X60545359Y-38500000D01*
X60527963Y-38676627D01*
X60476443Y-38846466D01*
X60392778Y-39002991D01*
X60375900Y-39023557D01*
X60280186Y-39140186D01*
X60183156Y-39219815D01*
X60142991Y-39252778D01*
X59986466Y-39336443D01*
X59816627Y-39387963D01*
X59750443Y-39394481D01*
X59684260Y-39401000D01*
X59595740Y-39401000D01*
X59529557Y-39394481D01*
X59463373Y-39387963D01*
X59293534Y-39336443D01*
X59137009Y-39252778D01*
X59096844Y-39219815D01*
X58999814Y-39140186D01*
X58904100Y-39023557D01*
X58887222Y-39002991D01*
X58803557Y-38846466D01*
X58752037Y-38676627D01*
X58734641Y-38500000D01*
X58752037Y-38323373D01*
X58803557Y-38153534D01*
X58887222Y-37997009D01*
X58917443Y-37960185D01*
X58999814Y-37859814D01*
X59101271Y-37776552D01*
X59137009Y-37747222D01*
X59293534Y-37663557D01*
X59463373Y-37612037D01*
X59529557Y-37605519D01*
X59595740Y-37599000D01*
X59684260Y-37599000D01*
X59750443Y-37605519D01*
X59750443Y-37605519D01*
G37*
G36*
X47050443Y-37605519D02*
G01*
X47116627Y-37612037D01*
X47286466Y-37663557D01*
X47442991Y-37747222D01*
X47478729Y-37776552D01*
X47580186Y-37859814D01*
X47662557Y-37960185D01*
X47692778Y-37997009D01*
X47776443Y-38153534D01*
X47827963Y-38323373D01*
X47845359Y-38500000D01*
X47827963Y-38676627D01*
X47776443Y-38846466D01*
X47692778Y-39002991D01*
X47675900Y-39023557D01*
X47580186Y-39140186D01*
X47483156Y-39219815D01*
X47442991Y-39252778D01*
X47286466Y-39336443D01*
X47116627Y-39387963D01*
X47050443Y-39394481D01*
X46984260Y-39401000D01*
X46895740Y-39401000D01*
X46829557Y-39394481D01*
X46763373Y-39387963D01*
X46593534Y-39336443D01*
X46437009Y-39252778D01*
X46396844Y-39219815D01*
X46299814Y-39140186D01*
X46204100Y-39023557D01*
X46187222Y-39002991D01*
X46103557Y-38846466D01*
X46052037Y-38676627D01*
X46034641Y-38500000D01*
X46052037Y-38323373D01*
X46103557Y-38153534D01*
X46187222Y-37997009D01*
X46217443Y-37960185D01*
X46299814Y-37859814D01*
X46401271Y-37776552D01*
X46437009Y-37747222D01*
X46593534Y-37663557D01*
X46763373Y-37612037D01*
X46829557Y-37605519D01*
X46895740Y-37599000D01*
X46984260Y-37599000D01*
X47050443Y-37605519D01*
X47050443Y-37605519D01*
G37*
G36*
X52130443Y-37605519D02*
G01*
X52196627Y-37612037D01*
X52366466Y-37663557D01*
X52522991Y-37747222D01*
X52558729Y-37776552D01*
X52660186Y-37859814D01*
X52742557Y-37960185D01*
X52772778Y-37997009D01*
X52856443Y-38153534D01*
X52907963Y-38323373D01*
X52925359Y-38500000D01*
X52907963Y-38676627D01*
X52856443Y-38846466D01*
X52772778Y-39002991D01*
X52755900Y-39023557D01*
X52660186Y-39140186D01*
X52563156Y-39219815D01*
X52522991Y-39252778D01*
X52366466Y-39336443D01*
X52196627Y-39387963D01*
X52130443Y-39394481D01*
X52064260Y-39401000D01*
X51975740Y-39401000D01*
X51909557Y-39394481D01*
X51843373Y-39387963D01*
X51673534Y-39336443D01*
X51517009Y-39252778D01*
X51476844Y-39219815D01*
X51379814Y-39140186D01*
X51284100Y-39023557D01*
X51267222Y-39002991D01*
X51183557Y-38846466D01*
X51132037Y-38676627D01*
X51114641Y-38500000D01*
X51132037Y-38323373D01*
X51183557Y-38153534D01*
X51267222Y-37997009D01*
X51297443Y-37960185D01*
X51379814Y-37859814D01*
X51481271Y-37776552D01*
X51517009Y-37747222D01*
X51673534Y-37663557D01*
X51843373Y-37612037D01*
X51909557Y-37605519D01*
X51975740Y-37599000D01*
X52064260Y-37599000D01*
X52130443Y-37605519D01*
X52130443Y-37605519D01*
G37*
G36*
X68090527Y-36483557D02*
G01*
X68176627Y-36492037D01*
X68346466Y-36543557D01*
X68502991Y-36627222D01*
X68538729Y-36656552D01*
X68640186Y-36739814D01*
X68703537Y-36817009D01*
X68752778Y-36877009D01*
X68836443Y-37033534D01*
X68887963Y-37203373D01*
X68905359Y-37380000D01*
X68887963Y-37556627D01*
X68836443Y-37726466D01*
X68752778Y-37882991D01*
X68723448Y-37918729D01*
X68640186Y-38020186D01*
X68538729Y-38103448D01*
X68502991Y-38132778D01*
X68346466Y-38216443D01*
X68176627Y-38267963D01*
X68110443Y-38274481D01*
X68044260Y-38281000D01*
X67955740Y-38281000D01*
X67889557Y-38274481D01*
X67823373Y-38267963D01*
X67653534Y-38216443D01*
X67497009Y-38132778D01*
X67461271Y-38103448D01*
X67359814Y-38020186D01*
X67276552Y-37918729D01*
X67247222Y-37882991D01*
X67163557Y-37726466D01*
X67112037Y-37556627D01*
X67094641Y-37380000D01*
X67112037Y-37203373D01*
X67163557Y-37033534D01*
X67247222Y-36877009D01*
X67296463Y-36817009D01*
X67359814Y-36739814D01*
X67461271Y-36656552D01*
X67497009Y-36627222D01*
X67653534Y-36543557D01*
X67823373Y-36492037D01*
X67909473Y-36483557D01*
X67955740Y-36479000D01*
X68044260Y-36479000D01*
X68090527Y-36483557D01*
X68090527Y-36483557D01*
G37*
G36*
X22110443Y-36425519D02*
G01*
X22176627Y-36432037D01*
X22346466Y-36483557D01*
X22502991Y-36567222D01*
X22538729Y-36596552D01*
X22640186Y-36679814D01*
X22723448Y-36781271D01*
X22752778Y-36817009D01*
X22836443Y-36973534D01*
X22887963Y-37143373D01*
X22905359Y-37320000D01*
X22887963Y-37496627D01*
X22836443Y-37666466D01*
X22752778Y-37822991D01*
X22723448Y-37858729D01*
X22640186Y-37960186D01*
X22538729Y-38043448D01*
X22502991Y-38072778D01*
X22346466Y-38156443D01*
X22176627Y-38207963D01*
X22110443Y-38214481D01*
X22044260Y-38221000D01*
X21955740Y-38221000D01*
X21889557Y-38214481D01*
X21823373Y-38207963D01*
X21653534Y-38156443D01*
X21497009Y-38072778D01*
X21461271Y-38043448D01*
X21359814Y-37960186D01*
X21276552Y-37858729D01*
X21247222Y-37822991D01*
X21163557Y-37666466D01*
X21112037Y-37496627D01*
X21094641Y-37320000D01*
X21112037Y-37143373D01*
X21163557Y-36973534D01*
X21247222Y-36817009D01*
X21276552Y-36781271D01*
X21359814Y-36679814D01*
X21461271Y-36596552D01*
X21497009Y-36567222D01*
X21653534Y-36483557D01*
X21823373Y-36432037D01*
X21889557Y-36425519D01*
X21955740Y-36419000D01*
X22044260Y-36419000D01*
X22110443Y-36425519D01*
X22110443Y-36425519D01*
G37*
G36*
X68090527Y-33943557D02*
G01*
X68176627Y-33952037D01*
X68346466Y-34003557D01*
X68502991Y-34087222D01*
X68538729Y-34116552D01*
X68640186Y-34199814D01*
X68703537Y-34277009D01*
X68752778Y-34337009D01*
X68836443Y-34493534D01*
X68887963Y-34663373D01*
X68905359Y-34840000D01*
X68887963Y-35016627D01*
X68836443Y-35186466D01*
X68752778Y-35342991D01*
X68723448Y-35378729D01*
X68640186Y-35480186D01*
X68538729Y-35563448D01*
X68502991Y-35592778D01*
X68346466Y-35676443D01*
X68176627Y-35727963D01*
X68110443Y-35734481D01*
X68044260Y-35741000D01*
X67955740Y-35741000D01*
X67889557Y-35734481D01*
X67823373Y-35727963D01*
X67653534Y-35676443D01*
X67497009Y-35592778D01*
X67461271Y-35563448D01*
X67359814Y-35480186D01*
X67276552Y-35378729D01*
X67247222Y-35342991D01*
X67163557Y-35186466D01*
X67112037Y-35016627D01*
X67094641Y-34840000D01*
X67112037Y-34663373D01*
X67163557Y-34493534D01*
X67247222Y-34337009D01*
X67296463Y-34277009D01*
X67359814Y-34199814D01*
X67461271Y-34116552D01*
X67497009Y-34087222D01*
X67653534Y-34003557D01*
X67823373Y-33952037D01*
X67909473Y-33943557D01*
X67955740Y-33939000D01*
X68044260Y-33939000D01*
X68090527Y-33943557D01*
X68090527Y-33943557D01*
G37*
G36*
X22110442Y-33885518D02*
G01*
X22176627Y-33892037D01*
X22346466Y-33943557D01*
X22502991Y-34027222D01*
X22538729Y-34056552D01*
X22640186Y-34139814D01*
X22723448Y-34241271D01*
X22752778Y-34277009D01*
X22836443Y-34433534D01*
X22887963Y-34603373D01*
X22905359Y-34780000D01*
X22887963Y-34956627D01*
X22836443Y-35126466D01*
X22752778Y-35282991D01*
X22723448Y-35318729D01*
X22640186Y-35420186D01*
X22538729Y-35503448D01*
X22502991Y-35532778D01*
X22346466Y-35616443D01*
X22176627Y-35667963D01*
X22110443Y-35674481D01*
X22044260Y-35681000D01*
X21955740Y-35681000D01*
X21889557Y-35674481D01*
X21823373Y-35667963D01*
X21653534Y-35616443D01*
X21497009Y-35532778D01*
X21461271Y-35503448D01*
X21359814Y-35420186D01*
X21276552Y-35318729D01*
X21247222Y-35282991D01*
X21163557Y-35126466D01*
X21112037Y-34956627D01*
X21094641Y-34780000D01*
X21112037Y-34603373D01*
X21163557Y-34433534D01*
X21247222Y-34277009D01*
X21276552Y-34241271D01*
X21359814Y-34139814D01*
X21461271Y-34056552D01*
X21497009Y-34027222D01*
X21653534Y-33943557D01*
X21823373Y-33892037D01*
X21889558Y-33885518D01*
X21955740Y-33879000D01*
X22044260Y-33879000D01*
X22110442Y-33885518D01*
X22110442Y-33885518D01*
G37*
G36*
X68090527Y-31403557D02*
G01*
X68176627Y-31412037D01*
X68346466Y-31463557D01*
X68502991Y-31547222D01*
X68538729Y-31576552D01*
X68640186Y-31659814D01*
X68703537Y-31737009D01*
X68752778Y-31797009D01*
X68836443Y-31953534D01*
X68887963Y-32123373D01*
X68905359Y-32300000D01*
X68887963Y-32476627D01*
X68836443Y-32646466D01*
X68752778Y-32802991D01*
X68723448Y-32838729D01*
X68640186Y-32940186D01*
X68538729Y-33023448D01*
X68502991Y-33052778D01*
X68346466Y-33136443D01*
X68176627Y-33187963D01*
X68110443Y-33194481D01*
X68044260Y-33201000D01*
X67955740Y-33201000D01*
X67889557Y-33194481D01*
X67823373Y-33187963D01*
X67653534Y-33136443D01*
X67497009Y-33052778D01*
X67461271Y-33023448D01*
X67359814Y-32940186D01*
X67276552Y-32838729D01*
X67247222Y-32802991D01*
X67163557Y-32646466D01*
X67112037Y-32476627D01*
X67094641Y-32300000D01*
X67112037Y-32123373D01*
X67163557Y-31953534D01*
X67247222Y-31797009D01*
X67296463Y-31737009D01*
X67359814Y-31659814D01*
X67461271Y-31576552D01*
X67497009Y-31547222D01*
X67653534Y-31463557D01*
X67823373Y-31412037D01*
X67909473Y-31403557D01*
X67955740Y-31399000D01*
X68044260Y-31399000D01*
X68090527Y-31403557D01*
X68090527Y-31403557D01*
G37*
G36*
X22110443Y-31345519D02*
G01*
X22176627Y-31352037D01*
X22346466Y-31403557D01*
X22502991Y-31487222D01*
X22538729Y-31516552D01*
X22640186Y-31599814D01*
X22723448Y-31701271D01*
X22752778Y-31737009D01*
X22836443Y-31893534D01*
X22887963Y-32063373D01*
X22905359Y-32240000D01*
X22887963Y-32416627D01*
X22836443Y-32586466D01*
X22752778Y-32742991D01*
X22723448Y-32778729D01*
X22640186Y-32880186D01*
X22538729Y-32963448D01*
X22502991Y-32992778D01*
X22346466Y-33076443D01*
X22176627Y-33127963D01*
X22110443Y-33134481D01*
X22044260Y-33141000D01*
X21955740Y-33141000D01*
X21889557Y-33134481D01*
X21823373Y-33127963D01*
X21653534Y-33076443D01*
X21497009Y-32992778D01*
X21461271Y-32963448D01*
X21359814Y-32880186D01*
X21276552Y-32778729D01*
X21247222Y-32742991D01*
X21163557Y-32586466D01*
X21112037Y-32416627D01*
X21094641Y-32240000D01*
X21112037Y-32063373D01*
X21163557Y-31893534D01*
X21247222Y-31737009D01*
X21276552Y-31701271D01*
X21359814Y-31599814D01*
X21461271Y-31516552D01*
X21497009Y-31487222D01*
X21653534Y-31403557D01*
X21823373Y-31352037D01*
X21889557Y-31345519D01*
X21955740Y-31339000D01*
X22044260Y-31339000D01*
X22110443Y-31345519D01*
X22110443Y-31345519D01*
G37*
G36*
X68090527Y-28863557D02*
G01*
X68176627Y-28872037D01*
X68346466Y-28923557D01*
X68502991Y-29007222D01*
X68538729Y-29036552D01*
X68640186Y-29119814D01*
X68703537Y-29197009D01*
X68752778Y-29257009D01*
X68836443Y-29413534D01*
X68887963Y-29583373D01*
X68905359Y-29760000D01*
X68887963Y-29936627D01*
X68836443Y-30106466D01*
X68752778Y-30262991D01*
X68723448Y-30298729D01*
X68640186Y-30400186D01*
X68538729Y-30483448D01*
X68502991Y-30512778D01*
X68346466Y-30596443D01*
X68176627Y-30647963D01*
X68110442Y-30654482D01*
X68044260Y-30661000D01*
X67955740Y-30661000D01*
X67889558Y-30654482D01*
X67823373Y-30647963D01*
X67653534Y-30596443D01*
X67497009Y-30512778D01*
X67461271Y-30483448D01*
X67359814Y-30400186D01*
X67276552Y-30298729D01*
X67247222Y-30262991D01*
X67163557Y-30106466D01*
X67112037Y-29936627D01*
X67094641Y-29760000D01*
X67112037Y-29583373D01*
X67163557Y-29413534D01*
X67247222Y-29257009D01*
X67296463Y-29197009D01*
X67359814Y-29119814D01*
X67461271Y-29036552D01*
X67497009Y-29007222D01*
X67653534Y-28923557D01*
X67823373Y-28872037D01*
X67909473Y-28863557D01*
X67955740Y-28859000D01*
X68044260Y-28859000D01*
X68090527Y-28863557D01*
X68090527Y-28863557D01*
G37*
G36*
X22110442Y-28805518D02*
G01*
X22176627Y-28812037D01*
X22346466Y-28863557D01*
X22502991Y-28947222D01*
X22538729Y-28976552D01*
X22640186Y-29059814D01*
X22723448Y-29161271D01*
X22752778Y-29197009D01*
X22836443Y-29353534D01*
X22887963Y-29523373D01*
X22905359Y-29700000D01*
X22887963Y-29876627D01*
X22836443Y-30046466D01*
X22752778Y-30202991D01*
X22723448Y-30238729D01*
X22640186Y-30340186D01*
X22538729Y-30423448D01*
X22502991Y-30452778D01*
X22346466Y-30536443D01*
X22176627Y-30587963D01*
X22110443Y-30594481D01*
X22044260Y-30601000D01*
X21955740Y-30601000D01*
X21889557Y-30594481D01*
X21823373Y-30587963D01*
X21653534Y-30536443D01*
X21497009Y-30452778D01*
X21461271Y-30423448D01*
X21359814Y-30340186D01*
X21276552Y-30238729D01*
X21247222Y-30202991D01*
X21163557Y-30046466D01*
X21112037Y-29876627D01*
X21094641Y-29700000D01*
X21112037Y-29523373D01*
X21163557Y-29353534D01*
X21247222Y-29197009D01*
X21276552Y-29161271D01*
X21359814Y-29059814D01*
X21461271Y-28976552D01*
X21497009Y-28947222D01*
X21653534Y-28863557D01*
X21823373Y-28812037D01*
X21889558Y-28805518D01*
X21955740Y-28799000D01*
X22044260Y-28799000D01*
X22110442Y-28805518D01*
X22110442Y-28805518D01*
G37*
G36*
X68090527Y-26323557D02*
G01*
X68176627Y-26332037D01*
X68346466Y-26383557D01*
X68502991Y-26467222D01*
X68538729Y-26496552D01*
X68640186Y-26579814D01*
X68703537Y-26657009D01*
X68752778Y-26717009D01*
X68836443Y-26873534D01*
X68887963Y-27043373D01*
X68905359Y-27220000D01*
X68887963Y-27396627D01*
X68836443Y-27566466D01*
X68752778Y-27722991D01*
X68723448Y-27758729D01*
X68640186Y-27860186D01*
X68538729Y-27943448D01*
X68502991Y-27972778D01*
X68346466Y-28056443D01*
X68176627Y-28107963D01*
X68110443Y-28114481D01*
X68044260Y-28121000D01*
X67955740Y-28121000D01*
X67889557Y-28114481D01*
X67823373Y-28107963D01*
X67653534Y-28056443D01*
X67497009Y-27972778D01*
X67461271Y-27943448D01*
X67359814Y-27860186D01*
X67276552Y-27758729D01*
X67247222Y-27722991D01*
X67163557Y-27566466D01*
X67112037Y-27396627D01*
X67094641Y-27220000D01*
X67112037Y-27043373D01*
X67163557Y-26873534D01*
X67247222Y-26717009D01*
X67296463Y-26657009D01*
X67359814Y-26579814D01*
X67461271Y-26496552D01*
X67497009Y-26467222D01*
X67653534Y-26383557D01*
X67823373Y-26332037D01*
X67909473Y-26323557D01*
X67955740Y-26319000D01*
X68044260Y-26319000D01*
X68090527Y-26323557D01*
X68090527Y-26323557D01*
G37*
G36*
X22110443Y-26265519D02*
G01*
X22176627Y-26272037D01*
X22346466Y-26323557D01*
X22502991Y-26407222D01*
X22538729Y-26436552D01*
X22640186Y-26519814D01*
X22723448Y-26621271D01*
X22752778Y-26657009D01*
X22836443Y-26813534D01*
X22887963Y-26983373D01*
X22905359Y-27160000D01*
X22887963Y-27336627D01*
X22836443Y-27506466D01*
X22752778Y-27662991D01*
X22723448Y-27698729D01*
X22640186Y-27800186D01*
X22538729Y-27883448D01*
X22502991Y-27912778D01*
X22346466Y-27996443D01*
X22176627Y-28047963D01*
X22110442Y-28054482D01*
X22044260Y-28061000D01*
X21955740Y-28061000D01*
X21889558Y-28054482D01*
X21823373Y-28047963D01*
X21653534Y-27996443D01*
X21497009Y-27912778D01*
X21461271Y-27883448D01*
X21359814Y-27800186D01*
X21276552Y-27698729D01*
X21247222Y-27662991D01*
X21163557Y-27506466D01*
X21112037Y-27336627D01*
X21094641Y-27160000D01*
X21112037Y-26983373D01*
X21163557Y-26813534D01*
X21247222Y-26657009D01*
X21276552Y-26621271D01*
X21359814Y-26519814D01*
X21461271Y-26436552D01*
X21497009Y-26407222D01*
X21653534Y-26323557D01*
X21823373Y-26272037D01*
X21889557Y-26265519D01*
X21955740Y-26259000D01*
X22044260Y-26259000D01*
X22110443Y-26265519D01*
X22110443Y-26265519D01*
G37*
G36*
X68090527Y-23783557D02*
G01*
X68176627Y-23792037D01*
X68346466Y-23843557D01*
X68502991Y-23927222D01*
X68538729Y-23956552D01*
X68640186Y-24039814D01*
X68703537Y-24117009D01*
X68752778Y-24177009D01*
X68836443Y-24333534D01*
X68887963Y-24503373D01*
X68905359Y-24680000D01*
X68887963Y-24856627D01*
X68836443Y-25026466D01*
X68752778Y-25182991D01*
X68723448Y-25218729D01*
X68640186Y-25320186D01*
X68538729Y-25403448D01*
X68502991Y-25432778D01*
X68346466Y-25516443D01*
X68176627Y-25567963D01*
X68110443Y-25574481D01*
X68044260Y-25581000D01*
X67955740Y-25581000D01*
X67889557Y-25574481D01*
X67823373Y-25567963D01*
X67653534Y-25516443D01*
X67497009Y-25432778D01*
X67461271Y-25403448D01*
X67359814Y-25320186D01*
X67276552Y-25218729D01*
X67247222Y-25182991D01*
X67163557Y-25026466D01*
X67112037Y-24856627D01*
X67094641Y-24680000D01*
X67112037Y-24503373D01*
X67163557Y-24333534D01*
X67247222Y-24177009D01*
X67296463Y-24117009D01*
X67359814Y-24039814D01*
X67461271Y-23956552D01*
X67497009Y-23927222D01*
X67653534Y-23843557D01*
X67823373Y-23792037D01*
X67909473Y-23783557D01*
X67955740Y-23779000D01*
X68044260Y-23779000D01*
X68090527Y-23783557D01*
X68090527Y-23783557D01*
G37*
G36*
X22110443Y-23725519D02*
G01*
X22176627Y-23732037D01*
X22346466Y-23783557D01*
X22502991Y-23867222D01*
X22538729Y-23896552D01*
X22640186Y-23979814D01*
X22723448Y-24081271D01*
X22752778Y-24117009D01*
X22836443Y-24273534D01*
X22887963Y-24443373D01*
X22905359Y-24620000D01*
X22887963Y-24796627D01*
X22836443Y-24966466D01*
X22752778Y-25122991D01*
X22723448Y-25158729D01*
X22640186Y-25260186D01*
X22538729Y-25343448D01*
X22502991Y-25372778D01*
X22346466Y-25456443D01*
X22176627Y-25507963D01*
X22110442Y-25514482D01*
X22044260Y-25521000D01*
X21955740Y-25521000D01*
X21889557Y-25514481D01*
X21823373Y-25507963D01*
X21653534Y-25456443D01*
X21497009Y-25372778D01*
X21461271Y-25343448D01*
X21359814Y-25260186D01*
X21276552Y-25158729D01*
X21247222Y-25122991D01*
X21163557Y-24966466D01*
X21112037Y-24796627D01*
X21094641Y-24620000D01*
X21112037Y-24443373D01*
X21163557Y-24273534D01*
X21247222Y-24117009D01*
X21276552Y-24081271D01*
X21359814Y-23979814D01*
X21461271Y-23896552D01*
X21497009Y-23867222D01*
X21653534Y-23783557D01*
X21823373Y-23732037D01*
X21889557Y-23725519D01*
X21955740Y-23719000D01*
X22044260Y-23719000D01*
X22110443Y-23725519D01*
X22110443Y-23725519D01*
G37*
G36*
X68090527Y-21243557D02*
G01*
X68176627Y-21252037D01*
X68346466Y-21303557D01*
X68502991Y-21387222D01*
X68538729Y-21416552D01*
X68640186Y-21499814D01*
X68695919Y-21567726D01*
X68752778Y-21637009D01*
X68836443Y-21793534D01*
X68887963Y-21963373D01*
X68905359Y-22140000D01*
X68887963Y-22316627D01*
X68836443Y-22486466D01*
X68752778Y-22642991D01*
X68723448Y-22678729D01*
X68640186Y-22780186D01*
X68538729Y-22863448D01*
X68502991Y-22892778D01*
X68346466Y-22976443D01*
X68176627Y-23027963D01*
X68110443Y-23034481D01*
X68044260Y-23041000D01*
X67955740Y-23041000D01*
X67889557Y-23034481D01*
X67823373Y-23027963D01*
X67653534Y-22976443D01*
X67497009Y-22892778D01*
X67461271Y-22863448D01*
X67359814Y-22780186D01*
X67276552Y-22678729D01*
X67247222Y-22642991D01*
X67163557Y-22486466D01*
X67112037Y-22316627D01*
X67094641Y-22140000D01*
X67112037Y-21963373D01*
X67163557Y-21793534D01*
X67247222Y-21637009D01*
X67304081Y-21567726D01*
X67359814Y-21499814D01*
X67461271Y-21416552D01*
X67497009Y-21387222D01*
X67653534Y-21303557D01*
X67823373Y-21252037D01*
X67909473Y-21243557D01*
X67955740Y-21239000D01*
X68044260Y-21239000D01*
X68090527Y-21243557D01*
X68090527Y-21243557D01*
G37*
G36*
X22110442Y-21185518D02*
G01*
X22176627Y-21192037D01*
X22346466Y-21243557D01*
X22502991Y-21327222D01*
X22516761Y-21338523D01*
X22640186Y-21439814D01*
X22716688Y-21533033D01*
X22752778Y-21577009D01*
X22752779Y-21577011D01*
X22812904Y-21689495D01*
X22836443Y-21733534D01*
X22887963Y-21903373D01*
X22905359Y-22080000D01*
X22887963Y-22256627D01*
X22836443Y-22426466D01*
X22752778Y-22582991D01*
X22723448Y-22618729D01*
X22640186Y-22720186D01*
X22538729Y-22803448D01*
X22502991Y-22832778D01*
X22346466Y-22916443D01*
X22176627Y-22967963D01*
X22110443Y-22974481D01*
X22044260Y-22981000D01*
X21955740Y-22981000D01*
X21889557Y-22974481D01*
X21823373Y-22967963D01*
X21653534Y-22916443D01*
X21497009Y-22832778D01*
X21461271Y-22803448D01*
X21359814Y-22720186D01*
X21276552Y-22618729D01*
X21247222Y-22582991D01*
X21163557Y-22426466D01*
X21112037Y-22256627D01*
X21094641Y-22080000D01*
X21112037Y-21903373D01*
X21163557Y-21733534D01*
X21187097Y-21689495D01*
X21247221Y-21577011D01*
X21247222Y-21577009D01*
X21283312Y-21533033D01*
X21359814Y-21439814D01*
X21483239Y-21338523D01*
X21497009Y-21327222D01*
X21653534Y-21243557D01*
X21823373Y-21192037D01*
X21889558Y-21185518D01*
X21955740Y-21179000D01*
X22044260Y-21179000D01*
X22110442Y-21185518D01*
X22110442Y-21185518D01*
G37*
G36*
X32275880Y-17759776D02*
G01*
X32656593Y-17835504D01*
X33066249Y-18005189D01*
X33434929Y-18251534D01*
X33748466Y-18565071D01*
X33994811Y-18933751D01*
X34164496Y-19343407D01*
X34251000Y-19778296D01*
X34251000Y-20221704D01*
X34164496Y-20656593D01*
X33994811Y-21066249D01*
X33748466Y-21434929D01*
X33434929Y-21748466D01*
X33066249Y-21994811D01*
X32656593Y-22164496D01*
X32275880Y-22240224D01*
X32221705Y-22251000D01*
X31778295Y-22251000D01*
X31724120Y-22240224D01*
X31343407Y-22164496D01*
X30933751Y-21994811D01*
X30565071Y-21748466D01*
X30251534Y-21434929D01*
X30005189Y-21066249D01*
X29835504Y-20656593D01*
X29749000Y-20221704D01*
X29749000Y-19778296D01*
X29835504Y-19343407D01*
X30005189Y-18933751D01*
X30251534Y-18565071D01*
X30565071Y-18251534D01*
X30933751Y-18005189D01*
X31343407Y-17835504D01*
X31724120Y-17759776D01*
X31778295Y-17749000D01*
X32221705Y-17749000D01*
X32275880Y-17759776D01*
X32275880Y-17759776D01*
G37*
G36*
X68090527Y-18703557D02*
G01*
X68176627Y-18712037D01*
X68346466Y-18763557D01*
X68502991Y-18847222D01*
X68534120Y-18872769D01*
X68640186Y-18959814D01*
X68692220Y-19023219D01*
X68752778Y-19097009D01*
X68752779Y-19097011D01*
X68801754Y-19188635D01*
X68836443Y-19253534D01*
X68887963Y-19423373D01*
X68905359Y-19600000D01*
X68887963Y-19776627D01*
X68836443Y-19946466D01*
X68752778Y-20102991D01*
X68741308Y-20116967D01*
X68640186Y-20240186D01*
X68553316Y-20311477D01*
X68502991Y-20352778D01*
X68346466Y-20436443D01*
X68176627Y-20487963D01*
X68110442Y-20494482D01*
X68044260Y-20501000D01*
X67955740Y-20501000D01*
X67889558Y-20494482D01*
X67823373Y-20487963D01*
X67653534Y-20436443D01*
X67497009Y-20352778D01*
X67446684Y-20311477D01*
X67359814Y-20240186D01*
X67258692Y-20116967D01*
X67247222Y-20102991D01*
X67163557Y-19946466D01*
X67112037Y-19776627D01*
X67094641Y-19600000D01*
X67112037Y-19423373D01*
X67163557Y-19253534D01*
X67198247Y-19188635D01*
X67247221Y-19097011D01*
X67247222Y-19097009D01*
X67307780Y-19023219D01*
X67359814Y-18959814D01*
X67465880Y-18872769D01*
X67497009Y-18847222D01*
X67653534Y-18763557D01*
X67823373Y-18712037D01*
X67909473Y-18703557D01*
X67955740Y-18699000D01*
X68044260Y-18699000D01*
X68090527Y-18703557D01*
X68090527Y-18703557D01*
G37*
G36*
X22088212Y-18643329D02*
G01*
X22176627Y-18652037D01*
X22346466Y-18703557D01*
X22502991Y-18787222D01*
X22538729Y-18816552D01*
X22640186Y-18899814D01*
X22723448Y-19001271D01*
X22752778Y-19037009D01*
X22836443Y-19193534D01*
X22887963Y-19363373D01*
X22905359Y-19540000D01*
X22887963Y-19716627D01*
X22836443Y-19886466D01*
X22752778Y-20042991D01*
X22723448Y-20078729D01*
X22640186Y-20180186D01*
X22538729Y-20263448D01*
X22502991Y-20292778D01*
X22346466Y-20376443D01*
X22176627Y-20427963D01*
X22110443Y-20434481D01*
X22044260Y-20441000D01*
X21955740Y-20441000D01*
X21889557Y-20434481D01*
X21823373Y-20427963D01*
X21653534Y-20376443D01*
X21497009Y-20292778D01*
X21461271Y-20263448D01*
X21359814Y-20180186D01*
X21276552Y-20078729D01*
X21247222Y-20042991D01*
X21163557Y-19886466D01*
X21112037Y-19716627D01*
X21094641Y-19540000D01*
X21112037Y-19363373D01*
X21163557Y-19193534D01*
X21247222Y-19037009D01*
X21276552Y-19001271D01*
X21359814Y-18899814D01*
X21461271Y-18816552D01*
X21497009Y-18787222D01*
X21653534Y-18703557D01*
X21823373Y-18652037D01*
X21911788Y-18643329D01*
X21955740Y-18639000D01*
X22044260Y-18639000D01*
X22088212Y-18643329D01*
X22088212Y-18643329D01*
G37*
G36*
X68110443Y-16165519D02*
G01*
X68176627Y-16172037D01*
X68346466Y-16223557D01*
X68502991Y-16307222D01*
X68538729Y-16336552D01*
X68640186Y-16419814D01*
X68723448Y-16521271D01*
X68752778Y-16557009D01*
X68836443Y-16713534D01*
X68887963Y-16883373D01*
X68905359Y-17060000D01*
X68887963Y-17236627D01*
X68836443Y-17406466D01*
X68752778Y-17562991D01*
X68723448Y-17598729D01*
X68640186Y-17700186D01*
X68538729Y-17783448D01*
X68502991Y-17812778D01*
X68346466Y-17896443D01*
X68176627Y-17947963D01*
X68110442Y-17954482D01*
X68044260Y-17961000D01*
X67955740Y-17961000D01*
X67889558Y-17954482D01*
X67823373Y-17947963D01*
X67653534Y-17896443D01*
X67497009Y-17812778D01*
X67461271Y-17783448D01*
X67359814Y-17700186D01*
X67276552Y-17598729D01*
X67247222Y-17562991D01*
X67163557Y-17406466D01*
X67112037Y-17236627D01*
X67094641Y-17060000D01*
X67112037Y-16883373D01*
X67163557Y-16713534D01*
X67247222Y-16557009D01*
X67276552Y-16521271D01*
X67359814Y-16419814D01*
X67461271Y-16336552D01*
X67497009Y-16307222D01*
X67653534Y-16223557D01*
X67823373Y-16172037D01*
X67889557Y-16165519D01*
X67955740Y-16159000D01*
X68044260Y-16159000D01*
X68110443Y-16165519D01*
X68110443Y-16165519D01*
G37*
G36*
X22901000Y-17901000D02*
G01*
X21099000Y-17901000D01*
X21099000Y-16099000D01*
X22901000Y-16099000D01*
X22901000Y-17901000D01*
X22901000Y-17901000D01*
G37*
M02*
