G04 #@! TF.GenerationSoftware,KiCad,Pcbnew,5.1.2-f72e74a~84~ubuntu18.04.1*
G04 #@! TF.CreationDate,2019-07-30T17:12:06-04:00*
G04 #@! TF.ProjectId,fe310-dev,66653331-302d-4646-9576-2e6b69636164,rev?*
G04 #@! TF.SameCoordinates,Original*
G04 #@! TF.FileFunction,Copper,L1,Top*
G04 #@! TF.FilePolarity,Positive*
%FSLAX46Y46*%
G04 Gerber Fmt 4.6, Leading zero omitted, Abs format (unit mm)*
G04 Created by KiCad (PCBNEW 5.1.2-f72e74a~84~ubuntu18.04.1) date 2019-07-30 17:12:06*
%MOMM*%
%LPD*%
G04 APERTURE LIST*
%ADD10C,0.700000*%
%ADD11C,4.400000*%
%ADD12R,0.600000X1.500000*%
%ADD13R,1.200000X0.750000*%
%ADD14R,0.750000X1.200000*%
%ADD15R,1.200000X0.900000*%
%ADD16R,2.500000X2.000000*%
%ADD17R,2.300000X0.500000*%
%ADD18O,1.700000X1.700000*%
%ADD19R,1.700000X1.700000*%
%ADD20R,1.550000X1.300000*%
%ADD21R,2.000000X3.800000*%
%ADD22R,2.000000X1.500000*%
%ADD23C,0.600000*%
%ADD24R,4.400000X4.400000*%
%ADD25R,0.650000X0.200000*%
%ADD26R,0.200000X0.650000*%
%ADD27R,1.750000X0.550000*%
%ADD28R,2.100000X1.800000*%
%ADD29C,0.500000*%
%ADD30C,0.100000*%
%ADD31R,1.000000X1.500000*%
%ADD32C,0.150000*%
%ADD33C,0.200000*%
G04 APERTURE END LIST*
D10*
X25166726Y-48833274D03*
X24000000Y-48350000D03*
X22833274Y-48833274D03*
X22350000Y-50000000D03*
X22833274Y-51166726D03*
X24000000Y-51650000D03*
X25166726Y-51166726D03*
X25650000Y-50000000D03*
D11*
X24000000Y-50000000D03*
X63000000Y-50000000D03*
D10*
X64650000Y-50000000D03*
X64166726Y-51166726D03*
X63000000Y-51650000D03*
X61833274Y-51166726D03*
X61350000Y-50000000D03*
X61833274Y-48833274D03*
X63000000Y-48350000D03*
X64166726Y-48833274D03*
X33166726Y-18833274D03*
X32000000Y-18350000D03*
X30833274Y-18833274D03*
X30350000Y-20000000D03*
X30833274Y-21166726D03*
X32000000Y-21650000D03*
X33166726Y-21166726D03*
X33650000Y-20000000D03*
D11*
X32000000Y-20000000D03*
D12*
X28909297Y-32159920D03*
X30179297Y-32159920D03*
X31449297Y-32159920D03*
X32719297Y-32159920D03*
X33989297Y-32159920D03*
X35259297Y-32159920D03*
X36529297Y-32159920D03*
X37799297Y-32159920D03*
X37799297Y-41459920D03*
X36529297Y-41459920D03*
X35259297Y-41459920D03*
X33989297Y-41459920D03*
X32719297Y-41459920D03*
X31449297Y-41459920D03*
X30179297Y-41459920D03*
X28909297Y-41459920D03*
D13*
X37950000Y-54000000D03*
X36050000Y-54000000D03*
X41550000Y-54000000D03*
X43450000Y-54000000D03*
D14*
X32750000Y-53800000D03*
X32750000Y-55700000D03*
X28500000Y-46050000D03*
X28500000Y-47950000D03*
D13*
X36550000Y-63000000D03*
X38450000Y-63000000D03*
D14*
X32750000Y-60800000D03*
X32750000Y-62700000D03*
X40500000Y-46050000D03*
X40500000Y-47950000D03*
X34400000Y-27200000D03*
X34400000Y-29100000D03*
X43000000Y-20200000D03*
X43000000Y-18300000D03*
D13*
X47050000Y-28750000D03*
X48950000Y-28750000D03*
X37950000Y-27000000D03*
X36050000Y-27000000D03*
D14*
X41500000Y-18300000D03*
X41500000Y-20200000D03*
D13*
X42050000Y-32250000D03*
X43950000Y-32250000D03*
X48950000Y-23250000D03*
X47050000Y-23250000D03*
X37950000Y-28500000D03*
X36050000Y-28500000D03*
X43950000Y-30750000D03*
X42050000Y-30750000D03*
X30050000Y-43200000D03*
X31950000Y-43200000D03*
X51450000Y-30750000D03*
X49550000Y-30750000D03*
X45800000Y-30750000D03*
X47700000Y-30750000D03*
D15*
X49200000Y-62500000D03*
X51400000Y-62500000D03*
D16*
X21700000Y-62950000D03*
X27200000Y-62950000D03*
X21700000Y-54050000D03*
X27200000Y-54050000D03*
D17*
X27300000Y-60100000D03*
X27300000Y-59300000D03*
X27300000Y-58500000D03*
X27300000Y-57700000D03*
X27300000Y-56900000D03*
D18*
X62150000Y-42250000D03*
X59610000Y-42250000D03*
X57070000Y-42250000D03*
X54530000Y-42250000D03*
X51990000Y-42250000D03*
D19*
X49450000Y-42250000D03*
X68000000Y-45000000D03*
D18*
X68000000Y-42460000D03*
X68000000Y-39920000D03*
X68000000Y-37380000D03*
X68000000Y-34840000D03*
X68000000Y-32300000D03*
X68000000Y-29760000D03*
X68000000Y-27220000D03*
X68000000Y-24680000D03*
X68000000Y-22140000D03*
X68000000Y-19600000D03*
X68000000Y-17060000D03*
X22000000Y-44940000D03*
X22000000Y-42400000D03*
X22000000Y-39860000D03*
X22000000Y-37320000D03*
X22000000Y-34780000D03*
X22000000Y-32240000D03*
X22000000Y-29700000D03*
X22000000Y-27160000D03*
X22000000Y-24620000D03*
X22000000Y-22080000D03*
X22000000Y-19540000D03*
D19*
X22000000Y-17000000D03*
D18*
X62180000Y-38500000D03*
X59640000Y-38500000D03*
X57100000Y-38500000D03*
X54560000Y-38500000D03*
X52020000Y-38500000D03*
X49480000Y-38500000D03*
X46940000Y-38500000D03*
D19*
X44400000Y-38500000D03*
D15*
X30400000Y-59000000D03*
X32600000Y-59000000D03*
X32600000Y-57500000D03*
X30400000Y-57500000D03*
X55400000Y-62500000D03*
X53200000Y-62500000D03*
X43850000Y-33750000D03*
X41650000Y-33750000D03*
X60100000Y-55500000D03*
X57900000Y-55500000D03*
X50100000Y-26000000D03*
X47900000Y-26000000D03*
D20*
X60270000Y-57750000D03*
X60270000Y-62250000D03*
X68230000Y-62250000D03*
X68230000Y-57750000D03*
D21*
X37150000Y-48500000D03*
D22*
X30850000Y-48500000D03*
X30850000Y-50800000D03*
X30850000Y-46200000D03*
X42850000Y-46200000D03*
X42850000Y-50800000D03*
X42850000Y-48500000D03*
D21*
X49150000Y-48500000D03*
D12*
X36055000Y-55800000D03*
X37325000Y-55800000D03*
X38595000Y-55800000D03*
X39865000Y-55800000D03*
X41135000Y-55800000D03*
X42405000Y-55800000D03*
X43675000Y-55800000D03*
X44945000Y-55800000D03*
X44945000Y-61200000D03*
X43675000Y-61200000D03*
X42405000Y-61200000D03*
X41135000Y-61200000D03*
X39865000Y-61200000D03*
X38595000Y-61200000D03*
X37325000Y-61200000D03*
X36055000Y-61200000D03*
D23*
X43233333Y-23783333D03*
X41766667Y-23783333D03*
X43966667Y-24516667D03*
X43233333Y-24516667D03*
X42500000Y-24516667D03*
X41766667Y-24516667D03*
X41033333Y-24516667D03*
X43233333Y-25250000D03*
X41766667Y-25250000D03*
X43966667Y-25983333D03*
X43233333Y-25983333D03*
X42500000Y-25983333D03*
X41766667Y-25983333D03*
X41033333Y-25983333D03*
X43233333Y-26716667D03*
X41766667Y-26716667D03*
D24*
X42500000Y-25250000D03*
D25*
X39575000Y-27450000D03*
X39575000Y-27050000D03*
X39575000Y-26650000D03*
X39575000Y-26250000D03*
X39575000Y-25850000D03*
X39575000Y-25450000D03*
X39575000Y-25050000D03*
X39575000Y-24650000D03*
X39575000Y-24250000D03*
X39575000Y-23850000D03*
X39575000Y-23450000D03*
X39575000Y-23050000D03*
D26*
X40300000Y-22325000D03*
X40700000Y-22325000D03*
X41100000Y-22325000D03*
X41500000Y-22325000D03*
X41900000Y-22325000D03*
X42300000Y-22325000D03*
X42700000Y-22325000D03*
X43100000Y-22325000D03*
X43500000Y-22325000D03*
X43900000Y-22325000D03*
X44300000Y-22325000D03*
X44700000Y-22325000D03*
D25*
X45425000Y-23050000D03*
X45425000Y-23450000D03*
X45425000Y-23850000D03*
X45425000Y-24250000D03*
X45425000Y-24650000D03*
X45425000Y-25050000D03*
X45425000Y-25450000D03*
X45425000Y-25850000D03*
X45425000Y-26250000D03*
X45425000Y-26650000D03*
X45425000Y-27050000D03*
X45425000Y-27450000D03*
D26*
X44700000Y-28175000D03*
X44300000Y-28175000D03*
X43900000Y-28175000D03*
X43500000Y-28175000D03*
X43100000Y-28175000D03*
X42700000Y-28175000D03*
X42300000Y-28175000D03*
X41900000Y-28175000D03*
X41500000Y-28175000D03*
X41100000Y-28175000D03*
X40700000Y-28175000D03*
X40300000Y-28175000D03*
D27*
X29654297Y-38714920D03*
X29654297Y-37444920D03*
X29654297Y-36174920D03*
X29654297Y-34904920D03*
X37054297Y-34904920D03*
X37054297Y-36174920D03*
X37054297Y-37444920D03*
X37054297Y-38714920D03*
D28*
X47050000Y-32600000D03*
X49950000Y-32600000D03*
X49950000Y-34900000D03*
X47050000Y-34900000D03*
D15*
X49200000Y-61000000D03*
X51400000Y-61000000D03*
X55400000Y-61000000D03*
X53200000Y-61000000D03*
D29*
X47134000Y-18882000D03*
D30*
G36*
X47684000Y-19632000D02*
G01*
X47134000Y-19632000D01*
X47134000Y-19631398D01*
X47109466Y-19631398D01*
X47060635Y-19626588D01*
X47012510Y-19617016D01*
X46965555Y-19602772D01*
X46920222Y-19583995D01*
X46876949Y-19560864D01*
X46836150Y-19533604D01*
X46798221Y-19502476D01*
X46763524Y-19467779D01*
X46732396Y-19429850D01*
X46705136Y-19389051D01*
X46682005Y-19345778D01*
X46663228Y-19300445D01*
X46648984Y-19253490D01*
X46639412Y-19205365D01*
X46634602Y-19156534D01*
X46634602Y-19132000D01*
X46634000Y-19132000D01*
X46634000Y-18632000D01*
X46634602Y-18632000D01*
X46634602Y-18607466D01*
X46639412Y-18558635D01*
X46648984Y-18510510D01*
X46663228Y-18463555D01*
X46682005Y-18418222D01*
X46705136Y-18374949D01*
X46732396Y-18334150D01*
X46763524Y-18296221D01*
X46798221Y-18261524D01*
X46836150Y-18230396D01*
X46876949Y-18203136D01*
X46920222Y-18180005D01*
X46965555Y-18161228D01*
X47012510Y-18146984D01*
X47060635Y-18137412D01*
X47109466Y-18132602D01*
X47134000Y-18132602D01*
X47134000Y-18132000D01*
X47684000Y-18132000D01*
X47684000Y-19632000D01*
X47684000Y-19632000D01*
G37*
D29*
X49734000Y-18882000D03*
D30*
G36*
X49734000Y-18132602D02*
G01*
X49758534Y-18132602D01*
X49807365Y-18137412D01*
X49855490Y-18146984D01*
X49902445Y-18161228D01*
X49947778Y-18180005D01*
X49991051Y-18203136D01*
X50031850Y-18230396D01*
X50069779Y-18261524D01*
X50104476Y-18296221D01*
X50135604Y-18334150D01*
X50162864Y-18374949D01*
X50185995Y-18418222D01*
X50204772Y-18463555D01*
X50219016Y-18510510D01*
X50228588Y-18558635D01*
X50233398Y-18607466D01*
X50233398Y-18632000D01*
X50234000Y-18632000D01*
X50234000Y-19132000D01*
X50233398Y-19132000D01*
X50233398Y-19156534D01*
X50228588Y-19205365D01*
X50219016Y-19253490D01*
X50204772Y-19300445D01*
X50185995Y-19345778D01*
X50162864Y-19389051D01*
X50135604Y-19429850D01*
X50104476Y-19467779D01*
X50069779Y-19502476D01*
X50031850Y-19533604D01*
X49991051Y-19560864D01*
X49947778Y-19583995D01*
X49902445Y-19602772D01*
X49855490Y-19617016D01*
X49807365Y-19626588D01*
X49758534Y-19631398D01*
X49734000Y-19631398D01*
X49734000Y-19632000D01*
X49184000Y-19632000D01*
X49184000Y-18132000D01*
X49734000Y-18132000D01*
X49734000Y-18132602D01*
X49734000Y-18132602D01*
G37*
D31*
X48434000Y-18882000D03*
D23*
X35900000Y-33375000D03*
X34300000Y-35200000D03*
X42250000Y-16925030D03*
X44450000Y-18250000D03*
X33100000Y-27250000D03*
X44250000Y-29400000D03*
X49196000Y-22275000D03*
X27940000Y-44069000D03*
X40550000Y-20250000D03*
X37150000Y-29700000D03*
X32450000Y-38700000D03*
X31649998Y-29700000D03*
X48900000Y-27749999D03*
X45496000Y-19644000D03*
X40850000Y-32250000D03*
X41450000Y-35200000D03*
X33050000Y-28900000D03*
X45640000Y-18120000D03*
X38020000Y-19390000D03*
X43989000Y-19263000D03*
X52750000Y-32250000D03*
X47500000Y-27750000D03*
X46500000Y-27750000D03*
X45750000Y-28000000D03*
X41950000Y-58100000D03*
X42800000Y-62650000D03*
X53250000Y-27750000D03*
X53250000Y-28750000D03*
X52020000Y-34000000D03*
X46625895Y-25861459D03*
X51495000Y-36500000D03*
X31300000Y-34900000D03*
X40000000Y-33500000D03*
X39000000Y-39900000D03*
X35100000Y-37400000D03*
X47500000Y-22275000D03*
X48942000Y-25175000D03*
X46021000Y-19009000D03*
D32*
X33050000Y-63000000D02*
X32750000Y-62700000D01*
X36550000Y-63000000D02*
X33050000Y-63000000D01*
X27450000Y-62700000D02*
X27200000Y-62950000D01*
X32750000Y-62700000D02*
X27450000Y-62700000D01*
X27200000Y-62950000D02*
X21700000Y-62950000D01*
X27200000Y-60200000D02*
X27300000Y-60100000D01*
X27200000Y-62950000D02*
X27200000Y-60200000D01*
X21700000Y-54050000D02*
X27200000Y-54050000D01*
X39865000Y-62965002D02*
X39865000Y-61200000D01*
X39230001Y-63600001D02*
X39865000Y-62965002D01*
X36775000Y-63000000D02*
X37375001Y-63600001D01*
X36550000Y-63000000D02*
X36775000Y-63000000D01*
X34595080Y-34904920D02*
X34300000Y-35200000D01*
X37054297Y-34904920D02*
X34595080Y-34904920D01*
X28650000Y-46200000D02*
X28500000Y-46050000D01*
X30850000Y-46200000D02*
X28650000Y-46200000D01*
X28500000Y-45825000D02*
X28500000Y-46050000D01*
X42700000Y-46050000D02*
X42850000Y-46200000D01*
X40500000Y-46050000D02*
X42700000Y-46050000D01*
X33275000Y-53800000D02*
X32750000Y-53800000D01*
X33675001Y-53399999D02*
X33275000Y-53800000D01*
X37124999Y-53399999D02*
X33675001Y-53399999D01*
X37725000Y-54000000D02*
X37124999Y-53399999D01*
X37950000Y-54000000D02*
X37725000Y-54000000D01*
X41550000Y-54000000D02*
X37950000Y-54000000D01*
X31000000Y-46050000D02*
X30850000Y-46200000D01*
X40500000Y-46050000D02*
X31000000Y-46050000D01*
X49700000Y-28750000D02*
X48950000Y-28750000D01*
X49975000Y-28750000D02*
X49700000Y-28750000D01*
X51450000Y-30225000D02*
X49975000Y-28750000D01*
X51450000Y-30750000D02*
X51450000Y-30225000D01*
X30850000Y-45300000D02*
X30850000Y-46200000D01*
X30850000Y-44075000D02*
X30850000Y-45300000D01*
X31725000Y-43200000D02*
X30850000Y-44075000D01*
X31950000Y-43200000D02*
X31725000Y-43200000D01*
X59820000Y-61000000D02*
X60270000Y-61450000D01*
X60270000Y-61450000D02*
X60270000Y-62250000D01*
X56600000Y-61000000D02*
X59820000Y-61000000D01*
X60270000Y-62250000D02*
X68230000Y-62250000D01*
X56955001Y-63600001D02*
X38750000Y-63600001D01*
X57425001Y-63130001D02*
X56955001Y-63600001D01*
X55400000Y-61000000D02*
X55550000Y-61000000D01*
X38750000Y-63600001D02*
X39230001Y-63600001D01*
X37375001Y-63600001D02*
X38750000Y-63600001D01*
X58305002Y-62250000D02*
X60270000Y-62250000D01*
X56955001Y-63600001D02*
X58305002Y-62250000D01*
X62150000Y-38530000D02*
X62180000Y-38500000D01*
X62150000Y-42250000D02*
X62150000Y-38530000D01*
X42124970Y-16925030D02*
X42250000Y-16925030D01*
X41500000Y-17550000D02*
X42124970Y-16925030D01*
X41500000Y-18300000D02*
X41500000Y-17550000D01*
X43050000Y-18250000D02*
X43000000Y-18300000D01*
X44450000Y-18250000D02*
X43050000Y-18250000D01*
X36050000Y-27975000D02*
X36050000Y-27000000D01*
X36050000Y-28500000D02*
X36050000Y-27975000D01*
X35850000Y-27200000D02*
X36050000Y-27000000D01*
X34400000Y-27200000D02*
X35850000Y-27200000D01*
X21700000Y-45240000D02*
X22000000Y-44940000D01*
X21700000Y-62950000D02*
X21700000Y-54050000D01*
X36079297Y-32159920D02*
X36529297Y-32159920D01*
X35900000Y-32339217D02*
X36079297Y-32159920D01*
X35900000Y-33375000D02*
X35900000Y-32339217D01*
X34350000Y-27250000D02*
X34400000Y-27200000D01*
X33100000Y-27250000D02*
X34350000Y-27250000D01*
X51450000Y-31275000D02*
X51450000Y-30750000D01*
X51450000Y-33455002D02*
X51450000Y-31275000D01*
X51180001Y-33725001D02*
X51450000Y-33455002D01*
X48719999Y-33725001D02*
X51180001Y-33725001D01*
X48450000Y-33455002D02*
X48719999Y-33725001D01*
X48450000Y-31275000D02*
X48450000Y-33455002D01*
X47925000Y-30750000D02*
X48450000Y-31275000D01*
X47700000Y-30750000D02*
X47925000Y-30750000D01*
X44649278Y-29400000D02*
X44250000Y-29400000D01*
X45399277Y-30149999D02*
X44649278Y-29400000D01*
X46874999Y-30149999D02*
X45399277Y-30149999D01*
X47475000Y-30750000D02*
X46874999Y-30149999D01*
X47700000Y-30750000D02*
X47475000Y-30750000D01*
X56600000Y-61000000D02*
X55400000Y-61000000D01*
X49196000Y-23004000D02*
X48950000Y-23250000D01*
X49196000Y-22275000D02*
X49196000Y-23004000D01*
X28500000Y-46050000D02*
X28500000Y-44629000D01*
X28500000Y-44629000D02*
X27940000Y-44069000D01*
X27940000Y-44069000D02*
X25908000Y-44069000D01*
X25908000Y-44069000D02*
X25037000Y-44940000D01*
X22000000Y-44940000D02*
X25037000Y-44940000D01*
X27305000Y-44704000D02*
X27940000Y-44069000D01*
X27305000Y-49276000D02*
X27305000Y-44704000D01*
X27686000Y-49657000D02*
X27305000Y-49276000D01*
X32131000Y-49657000D02*
X27686000Y-49657000D01*
X32750000Y-53800000D02*
X32750000Y-50276000D01*
X32750000Y-50276000D02*
X32131000Y-49657000D01*
X21700000Y-52300000D02*
X24000000Y-50000000D01*
X21700000Y-54050000D02*
X21700000Y-52300000D01*
X30850000Y-54650000D02*
X30850000Y-51700000D01*
X28600000Y-56900000D02*
X30850000Y-54650000D01*
X27300000Y-56900000D02*
X28600000Y-56900000D01*
X36055000Y-54005000D02*
X36050000Y-54000000D01*
X36055000Y-55800000D02*
X36055000Y-54005000D01*
X30850000Y-51700000D02*
X30850000Y-50800000D01*
X30850000Y-53280002D02*
X30850000Y-51700000D01*
X32194999Y-54625001D02*
X30850000Y-53280002D01*
X34430001Y-54625001D02*
X32194999Y-54625001D01*
X35605000Y-55800000D02*
X34430001Y-54625001D01*
X36055000Y-55800000D02*
X35605000Y-55800000D01*
X20701000Y-46101000D02*
X20701000Y-17299000D01*
X21209000Y-46609000D02*
X20701000Y-46101000D01*
X30850000Y-50800000D02*
X30650000Y-51000000D01*
X30650000Y-51000000D02*
X27232000Y-51000000D01*
X26797000Y-47879000D02*
X25527000Y-46609000D01*
X21000000Y-17000000D02*
X22000000Y-17000000D01*
X27232000Y-51000000D02*
X26797000Y-50565000D01*
X20701000Y-17299000D02*
X21000000Y-17000000D01*
X26797000Y-50565000D02*
X26797000Y-47879000D01*
X25527000Y-46609000D02*
X21209000Y-46609000D01*
X31449297Y-41459920D02*
X30179297Y-41459920D01*
X30254297Y-38714920D02*
X29654297Y-38714920D01*
X31449297Y-39909920D02*
X30254297Y-38714920D01*
X31449297Y-41459920D02*
X31449297Y-39909920D01*
X30300000Y-47950000D02*
X30850000Y-48500000D01*
X28500000Y-47950000D02*
X30300000Y-47950000D01*
X30850000Y-48500000D02*
X37150000Y-48500000D01*
X41700000Y-50800000D02*
X42850000Y-50800000D01*
X40600000Y-50800000D02*
X41700000Y-50800000D01*
X38300000Y-48500000D02*
X40600000Y-50800000D01*
X43675000Y-54225000D02*
X43450000Y-54000000D01*
X43675000Y-55800000D02*
X43675000Y-54225000D01*
X43450000Y-51400000D02*
X42850000Y-50800000D01*
X43450000Y-54000000D02*
X43450000Y-51400000D01*
X44700000Y-28400000D02*
X44700000Y-28175000D01*
X45050000Y-28750000D02*
X44700000Y-28400000D01*
X47050000Y-28750000D02*
X45050000Y-28750000D01*
X44700000Y-28175000D02*
X44300000Y-28175000D01*
X30050000Y-41589217D02*
X30179297Y-41459920D01*
X30050000Y-43200000D02*
X30050000Y-41589217D01*
X41900000Y-20600000D02*
X41500000Y-20200000D01*
X41900000Y-22325000D02*
X41900000Y-20600000D01*
X38300000Y-48500000D02*
X37150000Y-48500000D01*
X39675001Y-47124999D02*
X38300000Y-48500000D01*
X41055001Y-47124999D02*
X39675001Y-47124999D01*
X41180002Y-47250000D02*
X41055001Y-47124999D01*
X45450000Y-47250000D02*
X41180002Y-47250000D01*
X49450000Y-43250000D02*
X45450000Y-47250000D01*
X49450000Y-42250000D02*
X49450000Y-43250000D01*
X40600000Y-20200000D02*
X40550000Y-20250000D01*
X41500000Y-20200000D02*
X40600000Y-20200000D01*
X37950000Y-28900000D02*
X37950000Y-28500000D01*
X37150000Y-29700000D02*
X37950000Y-28900000D01*
X38175000Y-28500000D02*
X37950000Y-28500000D01*
X38775001Y-27899999D02*
X38175000Y-28500000D01*
X38775001Y-27374999D02*
X38775001Y-27899999D01*
X39100000Y-27050000D02*
X38775001Y-27374999D01*
X39575000Y-27050000D02*
X39100000Y-27050000D01*
X31449297Y-41909920D02*
X31449297Y-41459920D01*
X31974298Y-42434921D02*
X31449297Y-41909920D01*
X48450000Y-42250000D02*
X48265079Y-42434921D01*
X48265079Y-42434921D02*
X31974298Y-42434921D01*
X49450000Y-42250000D02*
X48450000Y-42250000D01*
X29669217Y-38700000D02*
X29654297Y-38714920D01*
X32450000Y-38700000D02*
X29669217Y-38700000D01*
X31949997Y-29999999D02*
X31649998Y-29700000D01*
X36850001Y-29999999D02*
X31949997Y-29999999D01*
X37150000Y-29700000D02*
X36850001Y-29999999D01*
X48275001Y-27749999D02*
X48900000Y-27749999D01*
X47275000Y-28750000D02*
X48275001Y-27749999D01*
X47050000Y-28750000D02*
X47275000Y-28750000D01*
X43675000Y-56250000D02*
X43675000Y-55800000D01*
X48425000Y-61000000D02*
X43675000Y-56250000D01*
X49200000Y-61000000D02*
X48425000Y-61000000D01*
X54650000Y-62500000D02*
X55400000Y-62500000D01*
X53974999Y-61824999D02*
X54650000Y-62500000D01*
X50174999Y-61824999D02*
X53974999Y-61824999D01*
X49350000Y-61000000D02*
X50174999Y-61824999D01*
X49200000Y-61000000D02*
X49350000Y-61000000D01*
X49734000Y-19729592D02*
X49734000Y-18882000D01*
X49265593Y-20197999D02*
X49734000Y-19729592D01*
X45625735Y-20197999D02*
X49265593Y-20197999D01*
X45496000Y-20068264D02*
X45625735Y-20197999D01*
X45496000Y-19644000D02*
X45496000Y-20068264D01*
X38450000Y-61345000D02*
X38595000Y-61200000D01*
X38450000Y-63000000D02*
X38450000Y-61345000D01*
X41050000Y-48500000D02*
X40500000Y-47950000D01*
X42850000Y-48500000D02*
X41050000Y-48500000D01*
X42850000Y-48500000D02*
X49150000Y-48500000D01*
X42700000Y-20500000D02*
X43000000Y-20200000D01*
X42700000Y-22325000D02*
X42700000Y-20500000D01*
X49150000Y-49400000D02*
X49150000Y-48500000D01*
X44400000Y-34300000D02*
X43850000Y-33750000D01*
X44400000Y-38500000D02*
X44400000Y-34300000D01*
X38300000Y-26650000D02*
X37950000Y-27000000D01*
X39575000Y-26650000D02*
X38300000Y-26650000D01*
X37725000Y-27000000D02*
X37950000Y-27000000D01*
X37124999Y-27600001D02*
X37725000Y-27000000D01*
X37124999Y-28805003D02*
X37124999Y-27600001D01*
X36830002Y-29100000D02*
X37124999Y-28805003D01*
X34400000Y-29100000D02*
X36830002Y-29100000D01*
X42300000Y-29119998D02*
X40850000Y-30569998D01*
X40850000Y-30569998D02*
X40850000Y-32250000D01*
X42300000Y-28175000D02*
X42300000Y-29119998D01*
X43850000Y-34350000D02*
X43850000Y-33750000D01*
X43000000Y-35200000D02*
X43850000Y-34350000D01*
X41450000Y-35200000D02*
X43000000Y-35200000D01*
X45400000Y-38500000D02*
X44400000Y-38500000D01*
X46475001Y-39575001D02*
X45400000Y-38500000D01*
X48880003Y-39575001D02*
X46475001Y-39575001D01*
X50525001Y-41219999D02*
X48880003Y-39575001D01*
X50525001Y-43280001D02*
X50525001Y-41219999D01*
X45305002Y-48500000D02*
X50525001Y-43280001D01*
X42850000Y-48500000D02*
X45305002Y-48500000D01*
X33250000Y-29100000D02*
X33050000Y-28900000D01*
X34400000Y-29100000D02*
X33250000Y-29100000D01*
X49150000Y-48350000D02*
X49150000Y-48500000D01*
X46372000Y-18120000D02*
X45640000Y-18120000D01*
X47134000Y-18882000D02*
X46372000Y-18120000D01*
X43712000Y-19263000D02*
X43989000Y-19263000D01*
X43000000Y-19975000D02*
X43712000Y-19263000D01*
X43000000Y-20200000D02*
X43000000Y-19975000D01*
X35610000Y-19390000D02*
X38020000Y-19390000D01*
X35610000Y-19390000D02*
X35610000Y-19360000D01*
X35610000Y-19360000D02*
X33500000Y-17250000D01*
X30580000Y-17250000D02*
X28290000Y-19540000D01*
X33500000Y-17250000D02*
X30580000Y-17250000D01*
X22000000Y-19540000D02*
X28290000Y-19540000D01*
X42050000Y-32250000D02*
X42050000Y-30750000D01*
X42050000Y-33350000D02*
X41650000Y-33750000D01*
X42050000Y-32250000D02*
X42050000Y-33350000D01*
X42700000Y-28650000D02*
X42700000Y-28175000D01*
X42700000Y-30325000D02*
X42700000Y-28650000D01*
X42275000Y-30750000D02*
X42700000Y-30325000D01*
X42050000Y-30750000D02*
X42275000Y-30750000D01*
X43950000Y-32250000D02*
X43950000Y-30750000D01*
X43100000Y-28650000D02*
X43100000Y-28175000D01*
X43100000Y-30650000D02*
X43100000Y-28650000D01*
X43200000Y-30750000D02*
X43100000Y-30650000D01*
X43950000Y-30750000D02*
X43200000Y-30750000D01*
X49950000Y-31150000D02*
X49550000Y-30750000D01*
X49950000Y-32600000D02*
X49950000Y-31150000D01*
X48175000Y-29600000D02*
X49325000Y-30750000D01*
X45475722Y-29600000D02*
X48175000Y-29600000D01*
X44600723Y-28725001D02*
X45475722Y-29600000D01*
X49325000Y-30750000D02*
X49550000Y-30750000D01*
X43975001Y-28725001D02*
X44600723Y-28725001D01*
X43900000Y-28650000D02*
X43975001Y-28725001D01*
X43900000Y-28175000D02*
X43900000Y-28650000D01*
X43500000Y-28175000D02*
X43500000Y-29700000D01*
X43500000Y-29700000D02*
X43800000Y-30000000D01*
X45575000Y-30750000D02*
X45800000Y-30750000D01*
X44825000Y-30000000D02*
X45575000Y-30750000D01*
X43800000Y-30000000D02*
X44825000Y-30000000D01*
X46900000Y-34900000D02*
X47050000Y-34900000D01*
X45774999Y-33774999D02*
X46900000Y-34900000D01*
X45800000Y-31275000D02*
X45774999Y-31300001D01*
X45774999Y-31300001D02*
X45774999Y-33774999D01*
X45800000Y-30750000D02*
X45800000Y-31275000D01*
X51400000Y-62500000D02*
X53200000Y-62500000D01*
X44945000Y-61650000D02*
X44945000Y-61200000D01*
X45795000Y-62500000D02*
X44945000Y-61650000D01*
X45795000Y-62500000D02*
X49200000Y-62500000D01*
X29900000Y-58500000D02*
X30400000Y-59000000D01*
X27300000Y-58500000D02*
X29900000Y-58500000D01*
X30200000Y-57700000D02*
X30400000Y-57500000D01*
X27300000Y-57700000D02*
X30200000Y-57700000D01*
X52750000Y-30669998D02*
X52750000Y-32250000D01*
X47247819Y-27224999D02*
X49305001Y-27224999D01*
X46272820Y-26250000D02*
X47247819Y-27224999D01*
X49305001Y-27224999D02*
X52750000Y-30669998D01*
X45425000Y-26250000D02*
X46272820Y-26250000D01*
X47348542Y-27750000D02*
X47500000Y-27750000D01*
X46248542Y-26650000D02*
X47348542Y-27750000D01*
X45425000Y-26650000D02*
X46248542Y-26650000D01*
X45900000Y-27050000D02*
X45425000Y-27050000D01*
X46224264Y-27050000D02*
X45900000Y-27050000D01*
X46500000Y-27325736D02*
X46224264Y-27050000D01*
X46500000Y-27750000D02*
X46500000Y-27325736D01*
X45425000Y-27675000D02*
X45750000Y-28000000D01*
X45425000Y-27450000D02*
X45425000Y-27675000D01*
X66250000Y-40710000D02*
X68000000Y-42460000D01*
X54860010Y-27355730D02*
X54860010Y-27360010D01*
X54860010Y-27360010D02*
X66250000Y-38750000D01*
X66250000Y-38750000D02*
X66250000Y-40710000D01*
X44700000Y-22100000D02*
X45399970Y-21400030D01*
X44700000Y-22325000D02*
X44700000Y-22100000D01*
X45399970Y-21400030D02*
X48904310Y-21400030D01*
X49682030Y-21400030D02*
X51969990Y-23687990D01*
X48904310Y-21400030D02*
X49682030Y-21400030D01*
X51969990Y-24465710D02*
X52236140Y-24731860D01*
X51969990Y-23687990D02*
X51969990Y-24465710D01*
X52236140Y-24731860D02*
X54860010Y-27355730D01*
X52270000Y-23480000D02*
X52270000Y-24190000D01*
X49890020Y-21100020D02*
X52270000Y-23480000D01*
X45049980Y-21100020D02*
X49890020Y-21100020D01*
X52270000Y-24190000D02*
X68000000Y-39920000D01*
X44300000Y-21850000D02*
X45049980Y-21100020D01*
X44300000Y-22325000D02*
X44300000Y-21850000D01*
X43900000Y-22325000D02*
X43900000Y-21825722D01*
X51870000Y-21250000D02*
X68000000Y-37380000D01*
X43900000Y-21825722D02*
X44925712Y-20800010D01*
X51420010Y-20800010D02*
X51870000Y-21250000D01*
X44925712Y-20800010D02*
X51420010Y-20800010D01*
X67150001Y-33990001D02*
X68000000Y-34840000D01*
X53660000Y-20500000D02*
X67150001Y-33990001D01*
X44750000Y-20500000D02*
X53660000Y-20500000D01*
X43500000Y-21754280D02*
X44304290Y-20949990D01*
X44304290Y-20945710D02*
X44750000Y-20500000D01*
X44304290Y-20949990D02*
X44304290Y-20945710D01*
X43500000Y-22325000D02*
X43500000Y-21754280D01*
X43100000Y-21676000D02*
X43100000Y-22325000D01*
X44895001Y-19372999D02*
X44895001Y-19880999D01*
X45114999Y-19153001D02*
X44895001Y-19372999D01*
X55800010Y-20100010D02*
X55800000Y-20100010D01*
X45114999Y-17867999D02*
X45114999Y-19153001D01*
X55800000Y-20100010D02*
X53294989Y-17594999D01*
X44895001Y-19880999D02*
X43100000Y-21676000D01*
X68000000Y-32300000D02*
X55800010Y-20100010D01*
X45387999Y-17594999D02*
X45114999Y-17867999D01*
X53294989Y-17594999D02*
X45387999Y-17594999D01*
X56000000Y-17760000D02*
X68000000Y-29760000D01*
X55990000Y-17750000D02*
X56000000Y-17760000D01*
X42300000Y-22325000D02*
X42300000Y-17619998D01*
X55826000Y-17586000D02*
X56000000Y-17760000D01*
X42300000Y-17619998D02*
X42469998Y-17450000D01*
X43100000Y-16850000D02*
X55090000Y-16850000D01*
X42469998Y-17450000D02*
X42500000Y-17450000D01*
X55090000Y-16850000D02*
X55826000Y-17586000D01*
X42500000Y-17450000D02*
X43100000Y-16850000D01*
X67150001Y-26370001D02*
X68000000Y-27220000D01*
X58280000Y-17500000D02*
X67150001Y-26370001D01*
X58229990Y-17449990D02*
X58280000Y-17500000D01*
X57180030Y-16400030D02*
X58280000Y-17500000D01*
X41948526Y-16400030D02*
X57180030Y-16400030D01*
X41500000Y-21825722D02*
X40824268Y-21149990D01*
X39950030Y-20875752D02*
X39950030Y-18398526D01*
X39950030Y-18398526D02*
X41948526Y-16400030D01*
X40224268Y-21149990D02*
X39950030Y-20875752D01*
X40824268Y-21149990D02*
X40224268Y-21149990D01*
X41500000Y-22325000D02*
X41500000Y-21825722D01*
X41100000Y-22325000D02*
X41100000Y-22100000D01*
X59870000Y-16550000D02*
X68000000Y-24680000D01*
X59420020Y-16100020D02*
X59870000Y-16550000D01*
X41824258Y-16100020D02*
X59420020Y-16100020D01*
X39650020Y-21000020D02*
X39650020Y-18274258D01*
X40100000Y-21450000D02*
X39650020Y-21000020D01*
X40700000Y-21450000D02*
X40100000Y-21450000D01*
X41100000Y-21850000D02*
X40700000Y-21450000D01*
X39650020Y-18274258D02*
X41824258Y-16100020D01*
X41100000Y-22325000D02*
X41100000Y-21850000D01*
X61660010Y-15800010D02*
X68000000Y-22140000D01*
X41699990Y-15800010D02*
X61660010Y-15800010D01*
X40580001Y-21774999D02*
X39924999Y-21774999D01*
X40700000Y-21894998D02*
X40580001Y-21774999D01*
X40700000Y-22325000D02*
X40700000Y-21894998D01*
X39924999Y-21724999D02*
X39350010Y-21150010D01*
X39924999Y-21774999D02*
X39924999Y-21724999D01*
X39350010Y-18149990D02*
X41699990Y-15800010D01*
X39350010Y-21150010D02*
X39350010Y-18149990D01*
X63900000Y-15500000D02*
X68000000Y-19600000D01*
X40050000Y-22325000D02*
X39050000Y-21325000D01*
X39050000Y-17950000D02*
X41500000Y-15500000D01*
X39050000Y-21325000D02*
X39050000Y-17950000D01*
X41500000Y-15500000D02*
X63900000Y-15500000D01*
X40300000Y-22325000D02*
X40050000Y-22325000D01*
X24850000Y-42400000D02*
X22000000Y-42400000D01*
X25350000Y-42400000D02*
X24850000Y-42400000D01*
X27750000Y-31525722D02*
X27750000Y-40000000D01*
X27750000Y-40000000D02*
X25350000Y-42400000D01*
X33025722Y-26250000D02*
X32800000Y-26475722D01*
X39575000Y-26250000D02*
X33025722Y-26250000D01*
X32800000Y-26475722D02*
X27750000Y-31525722D01*
X32905724Y-26369998D02*
X32800000Y-26475722D01*
X27450000Y-31401444D02*
X27450000Y-38500000D01*
X33001444Y-25850000D02*
X27450000Y-31401444D01*
X26090000Y-39860000D02*
X22000000Y-39860000D01*
X27450000Y-38500000D02*
X26090000Y-39860000D01*
X39575000Y-25850000D02*
X33001444Y-25850000D01*
X26880000Y-37320000D02*
X22000000Y-37320000D01*
X27150000Y-37050000D02*
X26880000Y-37320000D01*
X27150000Y-31277166D02*
X27150000Y-37050000D01*
X32977166Y-25450000D02*
X27150000Y-31277166D01*
X39575000Y-25450000D02*
X32977166Y-25450000D01*
X32952888Y-25050000D02*
X26850000Y-31152888D01*
X39575000Y-25050000D02*
X32952888Y-25050000D01*
X26850000Y-31152888D02*
X26850000Y-34300000D01*
X26370000Y-34780000D02*
X22000000Y-34780000D01*
X26850000Y-34300000D02*
X26370000Y-34780000D01*
X25338610Y-32240000D02*
X22000000Y-32240000D01*
X32928610Y-24650000D02*
X25338610Y-32240000D01*
X39575000Y-24650000D02*
X32928610Y-24650000D01*
X27454332Y-29700000D02*
X22000000Y-29700000D01*
X32904332Y-24250000D02*
X27454332Y-29700000D01*
X39575000Y-24250000D02*
X32904332Y-24250000D01*
X32850000Y-23850000D02*
X39575000Y-23850000D01*
X29540000Y-27160000D02*
X32850000Y-23850000D01*
X22000000Y-27160000D02*
X29540000Y-27160000D01*
X42405000Y-57645000D02*
X41950000Y-58100000D01*
X42405000Y-55800000D02*
X42405000Y-57645000D01*
X23170000Y-23450000D02*
X22000000Y-24620000D01*
X39575000Y-23450000D02*
X23170000Y-23450000D01*
X42405000Y-62255000D02*
X42800000Y-62650000D01*
X42405000Y-61200000D02*
X42405000Y-62255000D01*
X22970000Y-23050000D02*
X22000000Y-22080000D01*
X39575000Y-23050000D02*
X22970000Y-23050000D01*
X53250000Y-27250000D02*
X53250000Y-27750000D01*
X50250000Y-24250000D02*
X53250000Y-27250000D01*
X45425000Y-24250000D02*
X50250000Y-24250000D01*
X52950001Y-28450001D02*
X53250000Y-28750000D01*
X52724999Y-28224999D02*
X52950001Y-28450001D01*
X52724999Y-27224999D02*
X52724999Y-28224999D01*
X50150000Y-24650000D02*
X52724999Y-27224999D01*
X45425000Y-24650000D02*
X50150000Y-24650000D01*
X60270000Y-55670000D02*
X60100000Y-55500000D01*
X60270000Y-57750000D02*
X60270000Y-55670000D01*
X68230000Y-57750000D02*
X60270000Y-57750000D01*
X60100000Y-54900000D02*
X60100000Y-55500000D01*
X55605001Y-50405001D02*
X60100000Y-54900000D01*
X55605001Y-39545001D02*
X55605001Y-50405001D01*
X54560000Y-38500000D02*
X55605001Y-39545001D01*
X54560000Y-27479998D02*
X54560000Y-38500000D01*
X45425000Y-22325000D02*
X46000000Y-21750000D01*
X45425000Y-23050000D02*
X45425000Y-22325000D01*
X51669980Y-24589978D02*
X54560000Y-27479998D01*
X46000000Y-21750000D02*
X49524000Y-21750000D01*
X49524000Y-21750000D02*
X51669980Y-23895980D01*
X51669980Y-23895980D02*
X51669980Y-24589978D01*
X47750000Y-26000000D02*
X47900000Y-26000000D01*
X47086458Y-25336458D02*
X47750000Y-26000000D01*
X46373894Y-25336458D02*
X47086458Y-25336458D01*
X46260352Y-25450000D02*
X46373894Y-25336458D01*
X45425000Y-25450000D02*
X46260352Y-25450000D01*
X53275001Y-30625001D02*
X53275001Y-32744999D01*
X53275001Y-32744999D02*
X52020000Y-34000000D01*
X48650000Y-26000000D02*
X53275001Y-30625001D01*
X47900000Y-26000000D02*
X48650000Y-26000000D01*
X46614436Y-25850000D02*
X46625895Y-25861459D01*
X45425000Y-25850000D02*
X46614436Y-25850000D01*
X49495000Y-38500000D02*
X49480000Y-38500000D01*
X51495000Y-36500000D02*
X49495000Y-38500000D01*
X48015001Y-37424999D02*
X47789999Y-37650001D01*
X47789999Y-37650001D02*
X46940000Y-38500000D01*
X49780003Y-37424999D02*
X48015001Y-37424999D01*
X54000000Y-33205002D02*
X49780003Y-37424999D01*
X54000000Y-27500000D02*
X54000000Y-33205002D01*
X50350000Y-23850000D02*
X54000000Y-27500000D01*
X45425000Y-23850000D02*
X50350000Y-23850000D01*
X38699999Y-29100001D02*
X39575000Y-28225000D01*
X29054297Y-36174920D02*
X28300000Y-35420623D01*
X39575000Y-28225000D02*
X39575000Y-27450000D01*
X28700000Y-31000000D02*
X28900000Y-30800000D01*
X29654297Y-36174920D02*
X29054297Y-36174920D01*
X29054297Y-36174920D02*
X28200000Y-35320623D01*
X28200000Y-31900623D02*
X28200000Y-31500000D01*
X38100000Y-29700000D02*
X39575000Y-28225000D01*
X37300000Y-30500000D02*
X38100000Y-29700000D01*
X28450000Y-31250000D02*
X28900000Y-30800000D01*
X28200000Y-31500000D02*
X28450000Y-31250000D01*
X28450000Y-31250000D02*
X29200000Y-30500000D01*
X29200000Y-30500000D02*
X37300000Y-30500000D01*
X28459297Y-32159920D02*
X28200000Y-32419217D01*
X28200000Y-32419217D02*
X28200000Y-33400000D01*
X28909297Y-32159920D02*
X28459297Y-32159920D01*
X28200000Y-33400000D02*
X28200000Y-31500000D01*
X28200000Y-35320623D02*
X28200000Y-33400000D01*
X36529297Y-39239920D02*
X37054297Y-38714920D01*
X36529297Y-41459920D02*
X36529297Y-39239920D01*
X40525001Y-37450000D02*
X40525001Y-38174999D01*
X40518732Y-37394369D02*
X40525001Y-37450000D01*
X40430873Y-37254542D02*
X40470458Y-37294127D01*
X40330631Y-37206268D02*
X40383471Y-37224757D01*
X39788934Y-37200000D02*
X40275001Y-37200000D01*
X39733303Y-36706268D02*
X39680463Y-36724757D01*
X39563691Y-37058470D02*
X39593476Y-37105872D01*
X39593476Y-36794127D02*
X39563691Y-36841529D01*
X39985080Y-38714920D02*
X37054297Y-38714920D01*
X40579544Y-36105872D02*
X40619129Y-36145457D01*
X39680463Y-36724757D02*
X39633061Y-36754542D01*
X39545202Y-36894369D02*
X39538934Y-36950000D01*
X41316699Y-36693731D02*
X41261068Y-36700000D01*
X40383471Y-37224757D02*
X40430873Y-37254542D01*
X41416941Y-36645457D02*
X41369539Y-36675242D01*
X41511068Y-36450000D02*
X41504800Y-36505630D01*
X41504800Y-36394369D02*
X41511068Y-36450000D01*
X40719371Y-36193731D02*
X40775001Y-36200000D01*
X41456526Y-36294127D02*
X41486311Y-36341529D01*
X40300000Y-33022998D02*
X40525001Y-33247999D01*
X41261068Y-36200000D02*
X41316699Y-36206268D01*
X41486311Y-36341529D02*
X41504800Y-36394369D01*
X39733303Y-37193731D02*
X39788934Y-37200000D01*
X41900000Y-28175000D02*
X41900000Y-28924278D01*
X41369539Y-36224757D02*
X41416941Y-36254542D01*
X40619129Y-36145457D02*
X40666531Y-36175242D01*
X40775001Y-36200000D02*
X41261068Y-36200000D01*
X39680463Y-37175242D02*
X39733303Y-37193731D01*
X41261068Y-36700000D02*
X39788934Y-36700000D01*
X41369539Y-36675242D02*
X41316699Y-36693731D01*
X40666531Y-36175242D02*
X40719371Y-36193731D01*
X40525001Y-38174999D02*
X39985080Y-38714920D01*
X41504800Y-36505630D02*
X41486311Y-36558470D01*
X40500243Y-37341529D02*
X40518732Y-37394369D01*
X40531270Y-36005630D02*
X40549759Y-36058470D01*
X39593476Y-37105872D02*
X39633061Y-37145457D01*
X41316699Y-36206268D02*
X41369539Y-36224757D01*
X40525001Y-35950000D02*
X40531270Y-36005630D01*
X39633061Y-36754542D02*
X39593476Y-36794127D01*
X41486311Y-36558470D02*
X41456526Y-36605872D01*
X41456526Y-36605872D02*
X41416941Y-36645457D01*
X40300000Y-30500000D02*
X40300000Y-33022998D01*
X39563691Y-36841529D02*
X39545202Y-36894369D01*
X39788934Y-36700000D02*
X39733303Y-36706268D01*
X41416941Y-36254542D02*
X41456526Y-36294127D01*
X39538934Y-36950000D02*
X39545202Y-37005630D01*
X40600000Y-30224278D02*
X40575722Y-30224278D01*
X40525001Y-33247999D02*
X40525001Y-35950000D01*
X40470458Y-37294127D02*
X40500243Y-37341529D01*
X40275001Y-37200000D02*
X40330631Y-37206268D01*
X40549759Y-36058470D02*
X40579544Y-36105872D01*
X40575722Y-30224278D02*
X40300000Y-30500000D01*
X39633061Y-37145457D02*
X39680463Y-37175242D01*
X39545202Y-37005630D02*
X39563691Y-37058470D01*
X41900000Y-28924278D02*
X40600000Y-30224278D01*
X29559217Y-35000000D02*
X29654297Y-34904920D01*
X30295080Y-34904920D02*
X29654297Y-34904920D01*
X29659217Y-34900000D02*
X29654297Y-34904920D01*
X31300000Y-34900000D02*
X29659217Y-34900000D01*
X41500000Y-28900000D02*
X41500000Y-28175000D01*
X41500000Y-28872834D02*
X41500000Y-28650000D01*
X40000000Y-30372834D02*
X41500000Y-28872834D01*
X41500000Y-28650000D02*
X41500000Y-28175000D01*
X40000000Y-33500000D02*
X40000000Y-30372834D01*
X30179297Y-34379920D02*
X29654297Y-34904920D01*
X30179297Y-32159920D02*
X30179297Y-34379920D01*
X39300000Y-30648556D02*
X41100000Y-28848556D01*
X39300000Y-33600000D02*
X39300000Y-30648556D01*
X39292479Y-33666756D02*
X39300000Y-33600000D01*
X39270291Y-33730165D02*
X39292479Y-33666756D01*
X39234550Y-33787046D02*
X39270291Y-33730165D01*
X39187047Y-33834549D02*
X39234550Y-33787046D01*
X39130166Y-33870290D02*
X39187047Y-33834549D01*
X39066757Y-33892478D02*
X39130166Y-33870290D01*
X39000000Y-33900000D02*
X39066757Y-33892478D01*
X41100000Y-28848556D02*
X41100000Y-28175000D01*
X38688590Y-33900000D02*
X39000000Y-33900000D01*
X38621834Y-33907521D02*
X38688590Y-33900000D01*
X38558425Y-33929709D02*
X38621834Y-33907521D01*
X38396112Y-34133243D02*
X38418300Y-34069834D01*
X38396112Y-34266756D02*
X38388590Y-34200000D01*
X38418300Y-34330165D02*
X38396112Y-34266756D01*
X38454041Y-34387046D02*
X38418300Y-34330165D01*
X38688590Y-34500000D02*
X38621834Y-34492478D01*
X39911410Y-34500000D02*
X38688590Y-34500000D01*
X39978166Y-34507521D02*
X39911410Y-34500000D01*
X40041575Y-34529709D02*
X39978166Y-34507521D01*
X40145959Y-34612953D02*
X40098456Y-34565450D01*
X40181700Y-34669834D02*
X40145959Y-34612953D01*
X37054297Y-37444920D02*
X38455080Y-37444920D01*
X38418300Y-35269834D02*
X38454041Y-35212953D01*
X40181700Y-34930165D02*
X40203888Y-34866756D01*
X39978166Y-35092478D02*
X40041575Y-35070290D01*
X38454041Y-34012953D02*
X38501544Y-33965450D01*
X39533243Y-36307521D02*
X39600000Y-36300000D01*
X40145959Y-36187046D02*
X40181700Y-36130165D01*
X40041575Y-35070290D02*
X40098456Y-35034549D01*
X38688590Y-35100000D02*
X39911410Y-35100000D01*
X38558425Y-34470290D02*
X38501544Y-34434549D01*
X39911410Y-36300000D02*
X39978166Y-36292478D01*
X38388590Y-35400000D02*
X38396112Y-35333243D01*
X39911410Y-35100000D02*
X39978166Y-35092478D01*
X38558425Y-35129709D02*
X38621834Y-35107521D01*
X40203888Y-34866756D02*
X40211410Y-34800000D01*
X38396112Y-35333243D02*
X38418300Y-35269834D01*
X40181700Y-36130165D02*
X40203888Y-36066756D01*
X38396112Y-35466756D02*
X38388590Y-35400000D01*
X38454041Y-35212953D02*
X38501544Y-35165450D01*
X38418300Y-35530165D02*
X38396112Y-35466756D01*
X38388590Y-34200000D02*
X38396112Y-34133243D01*
X40098456Y-34565450D02*
X40041575Y-34529709D01*
X38454041Y-35587046D02*
X38418300Y-35530165D01*
X38621834Y-35107521D02*
X38688590Y-35100000D01*
X38621834Y-35692478D02*
X38558425Y-35670290D01*
X38501544Y-34434549D02*
X38454041Y-34387046D01*
X39911410Y-35700000D02*
X38688590Y-35700000D01*
X38418300Y-34069834D02*
X38454041Y-34012953D01*
X38688590Y-35700000D02*
X38621834Y-35692478D01*
X39978166Y-35707521D02*
X39911410Y-35700000D01*
X38501544Y-35634549D02*
X38454041Y-35587046D01*
X40098456Y-35765450D02*
X40041575Y-35729709D01*
X40211410Y-36000000D02*
X40203888Y-35933243D01*
X40203888Y-36066756D02*
X40211410Y-36000000D01*
X39307521Y-36533243D02*
X39329709Y-36469834D01*
X40203888Y-35933243D02*
X40181700Y-35869834D01*
X39365450Y-36412953D02*
X39412953Y-36365450D01*
X40145959Y-34987046D02*
X40181700Y-34930165D01*
X39600000Y-36300000D02*
X39911410Y-36300000D01*
X40181700Y-35869834D02*
X40145959Y-35812953D01*
X40145959Y-35812953D02*
X40098456Y-35765450D01*
X40098456Y-35034549D02*
X40145959Y-34987046D01*
X38621834Y-34492478D02*
X38558425Y-34470290D01*
X40211410Y-34800000D02*
X40203888Y-34733243D01*
X38558425Y-35670290D02*
X38501544Y-35634549D01*
X40098456Y-36234549D02*
X40145959Y-36187046D01*
X39978166Y-36292478D02*
X40041575Y-36270290D01*
X38501544Y-35165450D02*
X38558425Y-35129709D01*
X39412953Y-36365450D02*
X39469834Y-36329709D01*
X39469834Y-36329709D02*
X39533243Y-36307521D01*
X40041575Y-35729709D02*
X39978166Y-35707521D01*
X38501544Y-33965450D02*
X38558425Y-33929709D01*
X40203888Y-34733243D02*
X40181700Y-34669834D01*
X39300000Y-36600000D02*
X39307521Y-36533243D01*
X40041575Y-36270290D02*
X40098456Y-36234549D01*
X39329709Y-36469834D02*
X39365450Y-36412953D01*
X38455080Y-37444920D02*
X39300000Y-36600000D01*
X38909217Y-39900000D02*
X39000000Y-39900000D01*
X37799297Y-41009920D02*
X38909217Y-39900000D01*
X37799297Y-41459920D02*
X37799297Y-41009920D01*
X37009377Y-37400000D02*
X37054297Y-37444920D01*
X35100000Y-37400000D02*
X37009377Y-37400000D01*
X38112139Y-33700000D02*
X38612139Y-33200000D01*
X37900000Y-33900000D02*
X38100000Y-33700000D01*
X33600000Y-36000000D02*
X33600000Y-34200000D01*
X33774920Y-36174920D02*
X33600000Y-36000000D01*
X34600000Y-36174920D02*
X33774920Y-36174920D01*
X38612139Y-30912139D02*
X40700000Y-28824278D01*
X34655630Y-36168651D02*
X34600000Y-36174920D01*
X34825242Y-36033390D02*
X34795457Y-36080792D01*
X34850000Y-35924920D02*
X34843731Y-35980550D01*
X34850000Y-35650124D02*
X34850000Y-35924920D01*
X35044369Y-35406392D02*
X34991529Y-35424881D01*
X40700000Y-28824278D02*
X40700000Y-28175000D01*
X33600000Y-34200000D02*
X33900000Y-33900000D01*
X35255872Y-35454666D02*
X35208470Y-35424881D01*
X34991529Y-35424881D02*
X34944127Y-35454666D01*
X35208470Y-35424881D02*
X35155630Y-35406392D01*
X35343731Y-35594493D02*
X35325242Y-35541653D01*
X35295457Y-35494251D02*
X35255872Y-35454666D01*
X38100000Y-33700000D02*
X38112139Y-33700000D01*
X34795457Y-36080792D02*
X34755872Y-36120377D01*
X35325242Y-35541653D02*
X35295457Y-35494251D01*
X34708470Y-36150162D02*
X34655630Y-36168651D01*
X35350000Y-35650124D02*
X35343731Y-35594493D01*
X35100000Y-35400124D02*
X35044369Y-35406392D01*
X35350000Y-35924920D02*
X35350000Y-35650124D01*
X38612139Y-33200000D02*
X38612139Y-30912139D01*
X35356268Y-35980550D02*
X35350000Y-35924920D01*
X34856268Y-35594493D02*
X34850000Y-35650124D01*
X35155630Y-35406392D02*
X35100000Y-35400124D01*
X37054297Y-36174920D02*
X35600000Y-36174920D01*
X35444127Y-36120377D02*
X35404542Y-36080792D01*
X34904542Y-35494251D02*
X34874757Y-35541653D01*
X35404542Y-36080792D02*
X35374757Y-36033390D01*
X35600000Y-36174920D02*
X35544369Y-36168651D01*
X35544369Y-36168651D02*
X35491529Y-36150162D01*
X34755872Y-36120377D02*
X34708470Y-36150162D01*
X34874757Y-35541653D02*
X34856268Y-35594493D01*
X34944127Y-35454666D02*
X34904542Y-35494251D01*
X34843731Y-35980550D02*
X34825242Y-36033390D01*
X35374757Y-36033390D02*
X35356268Y-35980550D01*
X35491529Y-36150162D02*
X35444127Y-36120377D01*
X37799297Y-33500703D02*
X37400000Y-33900000D01*
X37799297Y-32159920D02*
X37799297Y-33500703D01*
X37400000Y-33900000D02*
X37900000Y-33900000D01*
X33900000Y-33900000D02*
X37400000Y-33900000D01*
X40300000Y-28175000D02*
X40300000Y-28400000D01*
X40300000Y-28800000D02*
X40300000Y-28175000D01*
X37915081Y-31184919D02*
X40300000Y-28800000D01*
X33244298Y-31455702D02*
X33515081Y-31184919D01*
X33244298Y-35755702D02*
X33244298Y-31455702D01*
X32507106Y-36492893D02*
X33244298Y-35755702D01*
X32444199Y-36555797D02*
X32507106Y-36492893D01*
X32385296Y-36678110D02*
X32395537Y-36633242D01*
X32385296Y-36724132D02*
X32385296Y-36678110D01*
X32415505Y-36810464D02*
X32395537Y-36769000D01*
X32415505Y-36591778D02*
X32444199Y-36555797D01*
X32503103Y-36968759D02*
X32492862Y-36923891D01*
X32503103Y-37014781D02*
X32503103Y-36968759D01*
X32492862Y-36923891D02*
X32472894Y-36882427D01*
X32472894Y-37101113D02*
X32492862Y-37059649D01*
X32381295Y-37200000D02*
X32444200Y-37137094D01*
X32444200Y-37137094D02*
X32472894Y-37101113D01*
X32258982Y-37258903D02*
X32303850Y-37248662D01*
X32345314Y-37228694D02*
X32381295Y-37200000D01*
X31835981Y-37171305D02*
X31877445Y-37151337D01*
X32168092Y-37248662D02*
X32212960Y-37258903D01*
X32395537Y-36633242D02*
X32415505Y-36591778D01*
X32395537Y-36769000D02*
X32385296Y-36724132D01*
X32492862Y-37059649D02*
X32503103Y-37014781D01*
X32126628Y-37228694D02*
X32168092Y-37248662D01*
X32472894Y-36882427D02*
X32415505Y-36810464D01*
X32054666Y-37171305D02*
X32126628Y-37228694D01*
X32013202Y-37151337D02*
X32054666Y-37171305D01*
X31555080Y-37444920D02*
X31800000Y-37200000D01*
X33515081Y-31184919D02*
X37915081Y-31184919D01*
X31968334Y-37141097D02*
X32013202Y-37151337D01*
X31922313Y-37141097D02*
X31968334Y-37141097D01*
X31877445Y-37151337D02*
X31922313Y-37141097D01*
X31800000Y-37200000D02*
X31835981Y-37171305D01*
X32303850Y-37248662D02*
X32345314Y-37228694D01*
X32212960Y-37258903D02*
X32258982Y-37258903D01*
X29654297Y-37444920D02*
X31555080Y-37444920D01*
X29054297Y-37444920D02*
X29654297Y-37444920D01*
X28554296Y-37944921D02*
X29054297Y-37444920D01*
X28554296Y-40654919D02*
X28554296Y-37944921D01*
X28909297Y-41009920D02*
X28554296Y-40654919D01*
X28909297Y-41459920D02*
X28909297Y-41009920D01*
X51400000Y-61000000D02*
X53200000Y-61000000D01*
D33*
X36915000Y-59664999D02*
X36915000Y-58796800D01*
X37325000Y-60074999D02*
X36915000Y-59664999D01*
X37325000Y-61200000D02*
X37325000Y-60074999D01*
X33500001Y-57500000D02*
X32600000Y-57500000D01*
X34025001Y-58025000D02*
X33500001Y-57500000D01*
X36915000Y-58796800D02*
X36143200Y-58025000D01*
D32*
X32600000Y-55850000D02*
X32750000Y-55700000D01*
X32600000Y-57500000D02*
X32600000Y-55850000D01*
D33*
X36143200Y-58025000D02*
X34025001Y-58025000D01*
D32*
X37325000Y-60750000D02*
X37325000Y-61200000D01*
X37850001Y-60224999D02*
X37325000Y-60750000D01*
X43149999Y-60224999D02*
X37850001Y-60224999D01*
X43675000Y-60750000D02*
X43149999Y-60224999D01*
X43675000Y-61200000D02*
X43675000Y-60750000D01*
D33*
X36465000Y-59664999D02*
X36465000Y-58983200D01*
X36055000Y-61200000D02*
X36055000Y-60074999D01*
X36055000Y-60074999D02*
X36465000Y-59664999D01*
X34025001Y-58475000D02*
X33500001Y-59000000D01*
X33500001Y-59000000D02*
X32600000Y-59000000D01*
X35956800Y-58475000D02*
X34025001Y-58475000D01*
X36465000Y-58983200D02*
X35956800Y-58475000D01*
D32*
X32750000Y-59150000D02*
X32600000Y-59000000D01*
X32750000Y-60800000D02*
X32750000Y-59150000D01*
X46850000Y-23450000D02*
X47050000Y-23250000D01*
X45425000Y-23450000D02*
X46850000Y-23450000D01*
X47050000Y-22725000D02*
X47500000Y-22275000D01*
X47050000Y-23250000D02*
X47050000Y-22725000D01*
X50100000Y-26000000D02*
X50250000Y-26000000D01*
X48434000Y-19782000D02*
X48434000Y-18882000D01*
X48358990Y-19857010D02*
X46615010Y-19857010D01*
X48434000Y-19782000D02*
X48358990Y-19857010D01*
X46615010Y-19857010D02*
X46402000Y-19644000D01*
X48803448Y-25036448D02*
X48942000Y-25175000D01*
X45913552Y-25036448D02*
X48803448Y-25036448D01*
X45425000Y-25050000D02*
X45900000Y-25050000D01*
X45900000Y-25050000D02*
X45913552Y-25036448D01*
X46402000Y-19644000D02*
X46402000Y-19390000D01*
X46402000Y-19390000D02*
X46021000Y-19009000D01*
X57900000Y-56100000D02*
X57900000Y-55500000D01*
X57900000Y-57210002D02*
X57900000Y-56100000D01*
X59314999Y-58625001D02*
X57900000Y-57210002D01*
X69185001Y-58625001D02*
X59314999Y-58625001D01*
X69230001Y-58580001D02*
X69185001Y-58625001D01*
X69230001Y-34478999D02*
X69230001Y-58580001D01*
X67349277Y-33764999D02*
X68516001Y-33764999D01*
X68516001Y-33764999D02*
X69230001Y-34478999D01*
X51479287Y-17895009D02*
X67349277Y-33764999D01*
X48520991Y-17895009D02*
X51479287Y-17895009D01*
X48434000Y-17982000D02*
X48520991Y-17895009D01*
X48434000Y-18882000D02*
X48434000Y-17982000D01*
X49275000Y-25175000D02*
X50100000Y-26000000D01*
X48942000Y-25175000D02*
X49275000Y-25175000D01*
M02*
