G04 #@! TF.GenerationSoftware,KiCad,Pcbnew,(5.0.1-3-g963ef8bb5)*
G04 #@! TF.CreationDate,2019-01-20T14:07:20-05:00*
G04 #@! TF.ProjectId,fe310-dev,66653331302D6465762E6B696361645F,rev?*
G04 #@! TF.SameCoordinates,Original*
G04 #@! TF.FileFunction,Paste,Top*
G04 #@! TF.FilePolarity,Positive*
%FSLAX46Y46*%
G04 Gerber Fmt 4.6, Leading zero omitted, Abs format (unit mm)*
G04 Created by KiCad (PCBNEW (5.0.1-3-g963ef8bb5)) date Sunday, January 20, 2019 at 02:07:20 PM*
%MOMM*%
%LPD*%
G01*
G04 APERTURE LIST*
%ADD10R,0.600000X1.500000*%
%ADD11R,1.200000X0.750000*%
%ADD12R,0.750000X1.200000*%
%ADD13R,1.200000X0.900000*%
%ADD14R,2.500000X2.000000*%
%ADD15R,2.300000X0.500000*%
%ADD16R,1.550000X1.300000*%
%ADD17R,2.000000X3.800000*%
%ADD18R,2.000000X1.500000*%
%ADD19R,0.880000X0.880000*%
%ADD20R,0.650000X0.200000*%
%ADD21R,0.200000X0.650000*%
%ADD22R,1.750000X0.550000*%
%ADD23R,2.100000X1.800000*%
G04 APERTURE END LIST*
D10*
G04 #@! TO.C,U6*
X28909297Y-32159920D03*
X30179297Y-32159920D03*
X31449297Y-32159920D03*
X32719297Y-32159920D03*
X33989297Y-32159920D03*
X35259297Y-32159920D03*
X36529297Y-32159920D03*
X37799297Y-32159920D03*
X37799297Y-41459920D03*
X36529297Y-41459920D03*
X35259297Y-41459920D03*
X33989297Y-41459920D03*
X32719297Y-41459920D03*
X31449297Y-41459920D03*
X30179297Y-41459920D03*
X28909297Y-41459920D03*
G04 #@! TD*
D11*
G04 #@! TO.C,C1*
X37950000Y-54000000D03*
X36050000Y-54000000D03*
G04 #@! TD*
G04 #@! TO.C,C2*
X41550000Y-54000000D03*
X43450000Y-54000000D03*
G04 #@! TD*
D12*
G04 #@! TO.C,C3*
X32750000Y-53800000D03*
X32750000Y-55700000D03*
G04 #@! TD*
G04 #@! TO.C,C4*
X28500000Y-46050000D03*
X28500000Y-47950000D03*
G04 #@! TD*
D11*
G04 #@! TO.C,C5*
X36550000Y-63000000D03*
X38450000Y-63000000D03*
G04 #@! TD*
D12*
G04 #@! TO.C,C6*
X32750000Y-60800000D03*
X32750000Y-62700000D03*
G04 #@! TD*
G04 #@! TO.C,C7*
X40500000Y-46050000D03*
X40500000Y-47950000D03*
G04 #@! TD*
G04 #@! TO.C,C8*
X34400000Y-27200000D03*
X34400000Y-29100000D03*
G04 #@! TD*
G04 #@! TO.C,C9*
X43000000Y-20200000D03*
X43000000Y-18300000D03*
G04 #@! TD*
D11*
G04 #@! TO.C,C10*
X47050000Y-28750000D03*
X48950000Y-28750000D03*
G04 #@! TD*
G04 #@! TO.C,C11*
X37950000Y-27000000D03*
X36050000Y-27000000D03*
G04 #@! TD*
D12*
G04 #@! TO.C,C12*
X41500000Y-18300000D03*
X41500000Y-20200000D03*
G04 #@! TD*
D11*
G04 #@! TO.C,C13*
X42050000Y-32250000D03*
X43950000Y-32250000D03*
G04 #@! TD*
G04 #@! TO.C,C14*
X48950000Y-23250000D03*
X47050000Y-23250000D03*
G04 #@! TD*
G04 #@! TO.C,C15*
X37950000Y-28500000D03*
X36050000Y-28500000D03*
G04 #@! TD*
G04 #@! TO.C,C16*
X43950000Y-30750000D03*
X42050000Y-30750000D03*
G04 #@! TD*
G04 #@! TO.C,C17*
X30050000Y-43200000D03*
X31950000Y-43200000D03*
G04 #@! TD*
G04 #@! TO.C,C18*
X51450000Y-30750000D03*
X49550000Y-30750000D03*
G04 #@! TD*
G04 #@! TO.C,C19*
X45800000Y-30750000D03*
X47700000Y-30750000D03*
G04 #@! TD*
D13*
G04 #@! TO.C,D1*
X51400000Y-62500000D03*
X49200000Y-62500000D03*
G04 #@! TD*
D14*
G04 #@! TO.C,J1*
X21700000Y-62950000D03*
X27200000Y-62950000D03*
X21700000Y-54050000D03*
X27200000Y-54050000D03*
D15*
X27300000Y-60100000D03*
X27300000Y-59300000D03*
X27300000Y-58500000D03*
X27300000Y-57700000D03*
X27300000Y-56900000D03*
G04 #@! TD*
D13*
G04 #@! TO.C,R1*
X30400000Y-59000000D03*
X32600000Y-59000000D03*
G04 #@! TD*
G04 #@! TO.C,R2*
X32600000Y-57500000D03*
X30400000Y-57500000D03*
G04 #@! TD*
G04 #@! TO.C,R3*
X55400000Y-62500000D03*
X53200000Y-62500000D03*
G04 #@! TD*
G04 #@! TO.C,R4*
X43850000Y-33750000D03*
X41650000Y-33750000D03*
G04 #@! TD*
G04 #@! TO.C,R5*
X60100000Y-55500000D03*
X57900000Y-55500000D03*
G04 #@! TD*
G04 #@! TO.C,R6*
X50100000Y-26000000D03*
X47900000Y-26000000D03*
G04 #@! TD*
D16*
G04 #@! TO.C,SW1*
X60270000Y-57750000D03*
X60270000Y-62250000D03*
X68230000Y-62250000D03*
X68230000Y-57750000D03*
G04 #@! TD*
D17*
G04 #@! TO.C,U1*
X37150000Y-48500000D03*
D18*
X30850000Y-48500000D03*
X30850000Y-50800000D03*
X30850000Y-46200000D03*
G04 #@! TD*
G04 #@! TO.C,U2*
X42850000Y-46200000D03*
X42850000Y-50800000D03*
X42850000Y-48500000D03*
D17*
X49150000Y-48500000D03*
G04 #@! TD*
D10*
G04 #@! TO.C,U3*
X36055000Y-55800000D03*
X37325000Y-55800000D03*
X38595000Y-55800000D03*
X39865000Y-55800000D03*
X41135000Y-55800000D03*
X42405000Y-55800000D03*
X43675000Y-55800000D03*
X44945000Y-55800000D03*
X44945000Y-61200000D03*
X43675000Y-61200000D03*
X42405000Y-61200000D03*
X41135000Y-61200000D03*
X39865000Y-61200000D03*
X38595000Y-61200000D03*
X37325000Y-61200000D03*
X36055000Y-61200000D03*
G04 #@! TD*
D19*
G04 #@! TO.C,U4*
X43966667Y-23783333D03*
X42500000Y-23783333D03*
X41033333Y-23783333D03*
X43966667Y-25250000D03*
X42500000Y-25250000D03*
X41033333Y-25250000D03*
X43966667Y-26716667D03*
X42500000Y-26716667D03*
X41033333Y-26716667D03*
D20*
X39575000Y-27450000D03*
X39575000Y-27050000D03*
X39575000Y-26650000D03*
X39575000Y-26250000D03*
X39575000Y-25850000D03*
X39575000Y-25450000D03*
X39575000Y-25050000D03*
X39575000Y-24650000D03*
X39575000Y-24250000D03*
X39575000Y-23850000D03*
X39575000Y-23450000D03*
X39575000Y-23050000D03*
D21*
X40300000Y-22325000D03*
X40700000Y-22325000D03*
X41100000Y-22325000D03*
X41500000Y-22325000D03*
X41900000Y-22325000D03*
X42300000Y-22325000D03*
X42700000Y-22325000D03*
X43100000Y-22325000D03*
X43500000Y-22325000D03*
X43900000Y-22325000D03*
X44300000Y-22325000D03*
X44700000Y-22325000D03*
D20*
X45425000Y-23050000D03*
X45425000Y-23450000D03*
X45425000Y-23850000D03*
X45425000Y-24250000D03*
X45425000Y-24650000D03*
X45425000Y-25050000D03*
X45425000Y-25450000D03*
X45425000Y-25850000D03*
X45425000Y-26250000D03*
X45425000Y-26650000D03*
X45425000Y-27050000D03*
X45425000Y-27450000D03*
D21*
X44700000Y-28175000D03*
X44300000Y-28175000D03*
X43900000Y-28175000D03*
X43500000Y-28175000D03*
X43100000Y-28175000D03*
X42700000Y-28175000D03*
X42300000Y-28175000D03*
X41900000Y-28175000D03*
X41500000Y-28175000D03*
X41100000Y-28175000D03*
X40700000Y-28175000D03*
X40300000Y-28175000D03*
G04 #@! TD*
D22*
G04 #@! TO.C,U5*
X29654297Y-38714920D03*
X29654297Y-37444920D03*
X29654297Y-36174920D03*
X29654297Y-34904920D03*
X37054297Y-34904920D03*
X37054297Y-36174920D03*
X37054297Y-37444920D03*
X37054297Y-38714920D03*
G04 #@! TD*
D23*
G04 #@! TO.C,Y1*
X47050000Y-32600000D03*
X49950000Y-32600000D03*
X49950000Y-34900000D03*
X47050000Y-34900000D03*
G04 #@! TD*
D13*
G04 #@! TO.C,D2*
X49200000Y-61000000D03*
X51400000Y-61000000D03*
G04 #@! TD*
G04 #@! TO.C,R7*
X55400000Y-61000000D03*
X53200000Y-61000000D03*
G04 #@! TD*
M02*
