M48
;DRILL file {KiCad (5.0.1-3-g963ef8bb5)} date Sunday, November 25, 2018 at 03:30:36 PM
;FORMAT={-:-/ absolute / inch / decimal}
FMAT,2
INCH,TZ
T1C0.0118
T2C0.0394
%
G90
G05
M72
T1
X1.0591Y-2.0079
X1.0872Y-1.7693
X1.2323Y-1.374
X1.2461Y-1.1693
X1.2776Y-1.5236
X1.3012Y-1.1378
X1.3031Y-1.0728
X1.3504Y-1.3858
X1.3819Y-1.4724
X1.4134Y-1.314
X1.4626Y-1.1693
X1.5354Y-1.5709
X1.5748Y-1.3189
X1.5965Y-0.7972
X1.6083Y-1.2697
X1.6319Y-1.3858
X1.6516Y-2.2874
X1.6634Y-0.6663
X1.685Y-2.4665
X1.7421Y-1.1575
X1.7441Y-0.7598
X1.75Y-0.7185
X1.8012Y-1.1024
X1.8307Y-1.0925
X1.8357Y-1.0182
X1.8701Y-0.877
X1.8701Y-1.0925
X1.9016Y-0.877
X1.9252Y-1.0925
X2.0236Y-1.0787
X2.0274Y-1.437
X2.048Y-1.3386
X2.0768Y-1.2697
X2.0945Y-1.7441
X2.0965Y-1.0925
X2.0965Y-1.1319
X1.6155Y-0.9652
X1.6155Y-1.023
X1.6444Y-0.9364
X1.6444Y-0.9652
X1.6444Y-0.9941
X1.6444Y-1.023
X1.6444Y-1.0518
X1.6732Y-0.9652
X1.6732Y-1.023
X1.7021Y-0.9364
X1.7021Y-0.9652
X1.7021Y-0.9941
X1.7021Y-1.023
X1.7021Y-1.0518
X1.731Y-0.9652
X1.731Y-1.023
T2
X1.9469Y-1.6634
X2.0469Y-1.6634
X2.1469Y-1.6634
X2.2469Y-1.6634
X2.3469Y-1.6634
X2.4469Y-1.6634
X1.748Y-1.5157
X1.848Y-1.5157
X1.948Y-1.5157
X2.048Y-1.5157
X2.148Y-1.5157
X2.248Y-1.5157
X2.348Y-1.5157
X2.448Y-1.5157
X2.6772Y-0.6717
X2.6772Y-0.7717
X2.6772Y-0.8717
X2.6772Y-0.9717
X2.6772Y-1.0717
X2.6772Y-1.1717
X2.6772Y-1.2717
X2.6772Y-1.3717
X2.6772Y-1.4717
X2.6772Y-1.5717
X2.6772Y-1.6717
X2.6772Y-1.7717
X0.8661Y-0.6693
X0.8661Y-0.7693
X0.8661Y-0.8693
X0.8661Y-0.9693
X0.8661Y-1.0693
X0.8661Y-1.1693
X0.8661Y-1.2693
X0.8661Y-1.3693
X0.8661Y-1.4693
X0.8661Y-1.5693
X0.8661Y-1.6693
X0.8661Y-1.7693
T0
M30
