G04 #@! TF.GenerationSoftware,KiCad,Pcbnew,(5.0.1-3-g963ef8bb5)*
G04 #@! TF.CreationDate,2018-11-25T15:30:40-05:00*
G04 #@! TF.ProjectId,fe310-dev,66653331302D6465762E6B696361645F,rev?*
G04 #@! TF.SameCoordinates,Original*
G04 #@! TF.FileFunction,Copper,L1,Top,Signal*
G04 #@! TF.FilePolarity,Positive*
%FSLAX46Y46*%
G04 Gerber Fmt 4.6, Leading zero omitted, Abs format (unit mm)*
G04 Created by KiCad (PCBNEW (5.0.1-3-g963ef8bb5)) date Sunday, November 25, 2018 at 03:30:40 PM*
%MOMM*%
%LPD*%
G01*
G04 APERTURE LIST*
G04 #@! TA.AperFunction,SMDPad,CuDef*
%ADD10R,0.600000X1.500000*%
G04 #@! TD*
G04 #@! TA.AperFunction,SMDPad,CuDef*
%ADD11R,1.200000X0.750000*%
G04 #@! TD*
G04 #@! TA.AperFunction,SMDPad,CuDef*
%ADD12R,0.750000X1.200000*%
G04 #@! TD*
G04 #@! TA.AperFunction,SMDPad,CuDef*
%ADD13R,1.200000X0.900000*%
G04 #@! TD*
G04 #@! TA.AperFunction,SMDPad,CuDef*
%ADD14R,2.500000X2.000000*%
G04 #@! TD*
G04 #@! TA.AperFunction,SMDPad,CuDef*
%ADD15R,2.300000X0.500000*%
G04 #@! TD*
G04 #@! TA.AperFunction,ComponentPad*
%ADD16O,1.700000X1.700000*%
G04 #@! TD*
G04 #@! TA.AperFunction,ComponentPad*
%ADD17R,1.700000X1.700000*%
G04 #@! TD*
G04 #@! TA.AperFunction,SMDPad,CuDef*
%ADD18R,1.550000X1.300000*%
G04 #@! TD*
G04 #@! TA.AperFunction,SMDPad,CuDef*
%ADD19R,2.000000X3.800000*%
G04 #@! TD*
G04 #@! TA.AperFunction,SMDPad,CuDef*
%ADD20R,2.000000X1.500000*%
G04 #@! TD*
G04 #@! TA.AperFunction,ViaPad*
%ADD21C,0.600000*%
G04 #@! TD*
G04 #@! TA.AperFunction,SMDPad,CuDef*
%ADD22R,4.400000X4.400000*%
G04 #@! TD*
G04 #@! TA.AperFunction,SMDPad,CuDef*
%ADD23R,0.650000X0.200000*%
G04 #@! TD*
G04 #@! TA.AperFunction,SMDPad,CuDef*
%ADD24R,0.200000X0.650000*%
G04 #@! TD*
G04 #@! TA.AperFunction,SMDPad,CuDef*
%ADD25R,1.750000X0.550000*%
G04 #@! TD*
G04 #@! TA.AperFunction,SMDPad,CuDef*
%ADD26R,2.100000X1.800000*%
G04 #@! TD*
G04 #@! TA.AperFunction,Conductor*
%ADD27C,0.150000*%
G04 #@! TD*
G04 #@! TA.AperFunction,Conductor*
%ADD28C,0.200000*%
G04 #@! TD*
G04 APERTURE END LIST*
D10*
G04 #@! TO.P,U6,16*
G04 #@! TO.N,QSPI_SCK*
X28909297Y-32159920D03*
G04 #@! TO.P,U6,15*
G04 #@! TO.N,QSPI_IO0*
X30179297Y-32159920D03*
G04 #@! TO.P,U6,14*
G04 #@! TO.N,N/C*
X31449297Y-32159920D03*
G04 #@! TO.P,U6,13*
X32719297Y-32159920D03*
G04 #@! TO.P,U6,12*
X33989297Y-32159920D03*
G04 #@! TO.P,U6,11*
X35259297Y-32159920D03*
G04 #@! TO.P,U6,10*
G04 #@! TO.N,GND*
X36529297Y-32159920D03*
G04 #@! TO.P,U6,9*
G04 #@! TO.N,QSPI_IO2*
X37799297Y-32159920D03*
G04 #@! TO.P,U6,8*
G04 #@! TO.N,QSPI_IO1*
X37799297Y-41459920D03*
G04 #@! TO.P,U6,7*
G04 #@! TO.N,QSPI_CS*
X36529297Y-41459920D03*
G04 #@! TO.P,U6,6*
G04 #@! TO.N,N/C*
X35259297Y-41459920D03*
G04 #@! TO.P,U6,5*
X33989297Y-41459920D03*
G04 #@! TO.P,U6,4*
X32719297Y-41459920D03*
G04 #@! TO.P,U6,3*
G04 #@! TO.N,+3V3*
X31449297Y-41459920D03*
G04 #@! TO.P,U6,2*
X30179297Y-41459920D03*
G04 #@! TO.P,U6,1*
G04 #@! TO.N,QSPI_IO3*
X28909297Y-41459920D03*
G04 #@! TD*
D11*
G04 #@! TO.P,C1,2*
G04 #@! TO.N,GND*
X37950000Y-54000000D03*
G04 #@! TO.P,C1,1*
G04 #@! TO.N,+5V*
X36050000Y-54000000D03*
G04 #@! TD*
G04 #@! TO.P,C2,2*
G04 #@! TO.N,GND*
X41550000Y-54000000D03*
G04 #@! TO.P,C2,1*
G04 #@! TO.N,+3V3*
X43450000Y-54000000D03*
G04 #@! TD*
D12*
G04 #@! TO.P,C3,2*
G04 #@! TO.N,GND*
X32750000Y-53800000D03*
G04 #@! TO.P,C3,1*
G04 #@! TO.N,/D-*
X32750000Y-55700000D03*
G04 #@! TD*
G04 #@! TO.P,C4,2*
G04 #@! TO.N,GND*
X28500000Y-46050000D03*
G04 #@! TO.P,C4,1*
G04 #@! TO.N,+3V3*
X28500000Y-47950000D03*
G04 #@! TD*
D11*
G04 #@! TO.P,C5,1*
G04 #@! TO.N,GND*
X36550000Y-63000000D03*
G04 #@! TO.P,C5,2*
G04 #@! TO.N,Net-(C5-Pad2)*
X38450000Y-63000000D03*
G04 #@! TD*
D12*
G04 #@! TO.P,C6,1*
G04 #@! TO.N,/D+*
X32750000Y-60800000D03*
G04 #@! TO.P,C6,2*
G04 #@! TO.N,GND*
X32750000Y-62700000D03*
G04 #@! TD*
G04 #@! TO.P,C7,2*
G04 #@! TO.N,GND*
X40500000Y-46050000D03*
G04 #@! TO.P,C7,1*
G04 #@! TO.N,+1V8*
X40500000Y-47950000D03*
G04 #@! TD*
G04 #@! TO.P,C8,2*
G04 #@! TO.N,GND*
X34400000Y-27200000D03*
G04 #@! TO.P,C8,1*
G04 #@! TO.N,+1V8*
X34400000Y-29100000D03*
G04 #@! TD*
G04 #@! TO.P,C9,1*
G04 #@! TO.N,+1V8*
X43000000Y-20200000D03*
G04 #@! TO.P,C9,2*
G04 #@! TO.N,GND*
X43000000Y-18300000D03*
G04 #@! TD*
D11*
G04 #@! TO.P,C10,1*
G04 #@! TO.N,+3V3*
X47050000Y-28750000D03*
G04 #@! TO.P,C10,2*
G04 #@! TO.N,GND*
X48950000Y-28750000D03*
G04 #@! TD*
G04 #@! TO.P,C11,1*
G04 #@! TO.N,+1V8*
X37950000Y-27000000D03*
G04 #@! TO.P,C11,2*
G04 #@! TO.N,GND*
X36050000Y-27000000D03*
G04 #@! TD*
D12*
G04 #@! TO.P,C12,2*
G04 #@! TO.N,GND*
X41500000Y-18300000D03*
G04 #@! TO.P,C12,1*
G04 #@! TO.N,+3V3*
X41500000Y-20200000D03*
G04 #@! TD*
D11*
G04 #@! TO.P,C13,1*
G04 #@! TO.N,Net-(C13-Pad1)*
X42050000Y-32250000D03*
G04 #@! TO.P,C13,2*
G04 #@! TO.N,Net-(C13-Pad2)*
X43950000Y-32250000D03*
G04 #@! TD*
G04 #@! TO.P,C14,2*
G04 #@! TO.N,GND*
X48950000Y-23250000D03*
G04 #@! TO.P,C14,1*
G04 #@! TO.N,+1V8*
X47050000Y-23250000D03*
G04 #@! TD*
G04 #@! TO.P,C15,1*
G04 #@! TO.N,+3V3*
X37950000Y-28500000D03*
G04 #@! TO.P,C15,2*
G04 #@! TO.N,GND*
X36050000Y-28500000D03*
G04 #@! TD*
G04 #@! TO.P,C16,2*
G04 #@! TO.N,Net-(C13-Pad2)*
X43950000Y-30750000D03*
G04 #@! TO.P,C16,1*
G04 #@! TO.N,Net-(C13-Pad1)*
X42050000Y-30750000D03*
G04 #@! TD*
G04 #@! TO.P,C17,1*
G04 #@! TO.N,+3V3*
X30050000Y-43200000D03*
G04 #@! TO.P,C17,2*
G04 #@! TO.N,GND*
X31950000Y-43200000D03*
G04 #@! TD*
G04 #@! TO.P,C18,2*
G04 #@! TO.N,GND*
X51450000Y-30750000D03*
G04 #@! TO.P,C18,1*
G04 #@! TO.N,Net-(C18-Pad1)*
X49550000Y-30750000D03*
G04 #@! TD*
G04 #@! TO.P,C19,1*
G04 #@! TO.N,Net-(C19-Pad1)*
X45800000Y-30750000D03*
G04 #@! TO.P,C19,2*
G04 #@! TO.N,GND*
X47700000Y-30750000D03*
G04 #@! TD*
D13*
G04 #@! TO.P,D1,2*
G04 #@! TO.N,Net-(D1-Pad2)*
X51400000Y-62500000D03*
G04 #@! TO.P,D1,1*
G04 #@! TO.N,Net-(D1-Pad1)*
X49200000Y-62500000D03*
G04 #@! TD*
D14*
G04 #@! TO.P,J1,6*
G04 #@! TO.N,GND*
X21700000Y-62950000D03*
X27200000Y-62950000D03*
X21700000Y-54050000D03*
X27200000Y-54050000D03*
D15*
G04 #@! TO.P,J1,5*
X27300000Y-60100000D03*
G04 #@! TO.P,J1,4*
G04 #@! TO.N,N/C*
X27300000Y-59300000D03*
G04 #@! TO.P,J1,3*
G04 #@! TO.N,Net-(J1-Pad3)*
X27300000Y-58500000D03*
G04 #@! TO.P,J1,2*
G04 #@! TO.N,Net-(J1-Pad2)*
X27300000Y-57700000D03*
G04 #@! TO.P,J1,1*
G04 #@! TO.N,+5V*
X27300000Y-56900000D03*
G04 #@! TD*
D16*
G04 #@! TO.P,J2,6*
G04 #@! TO.N,GND*
X62150000Y-42250000D03*
G04 #@! TO.P,J2,5*
G04 #@! TO.N,JTAG_TDI*
X59610000Y-42250000D03*
G04 #@! TO.P,J2,4*
G04 #@! TO.N,JTAG_TMS*
X57070000Y-42250000D03*
G04 #@! TO.P,J2,3*
G04 #@! TO.N,JTAG_TDO*
X54530000Y-42250000D03*
G04 #@! TO.P,J2,2*
G04 #@! TO.N,JTAG_TCK*
X51990000Y-42250000D03*
D17*
G04 #@! TO.P,J2,1*
G04 #@! TO.N,+3V3*
X49450000Y-42250000D03*
G04 #@! TD*
G04 #@! TO.P,J3,1*
G04 #@! TO.N,+3V3*
X68000000Y-45000000D03*
D16*
G04 #@! TO.P,J3,2*
G04 #@! TO.N,GPIO_0/PWM0_0*
X68000000Y-42460000D03*
G04 #@! TO.P,J3,3*
G04 #@! TO.N,GPIO_1/PWM0_1*
X68000000Y-39920000D03*
G04 #@! TO.P,J3,4*
G04 #@! TO.N,GPIO_2/SPI1_SS0/PWM0_2*
X68000000Y-37380000D03*
G04 #@! TO.P,J3,5*
G04 #@! TO.N,GPIO_3/SPI1_MOSI/PWM0_3*
X68000000Y-34840000D03*
G04 #@! TO.P,J3,6*
G04 #@! TO.N,GPIO_4/SPI1_MISO*
X68000000Y-32300000D03*
G04 #@! TO.P,J3,7*
G04 #@! TO.N,GPIO_5/SPI1_SCK*
X68000000Y-29760000D03*
G04 #@! TO.P,J3,8*
G04 #@! TO.N,GPIO_9/SPI1_SS2*
X68000000Y-27220000D03*
G04 #@! TO.P,J3,9*
G04 #@! TO.N,GPIO_10/SPI1_SS3/PWM2_0*
X68000000Y-24680000D03*
G04 #@! TO.P,J3,10*
G04 #@! TO.N,GPIO_11/PWM2_1*
X68000000Y-22140000D03*
G04 #@! TO.P,J3,11*
G04 #@! TO.N,GPIO_12/PWM2_2*
X68000000Y-19600000D03*
G04 #@! TO.P,J3,12*
G04 #@! TO.N,GND*
X68000000Y-17060000D03*
G04 #@! TD*
G04 #@! TO.P,J4,12*
G04 #@! TO.N,GND*
X22000000Y-44940000D03*
G04 #@! TO.P,J4,11*
G04 #@! TO.N,GPIO_23*
X22000000Y-42400000D03*
G04 #@! TO.P,J4,10*
G04 #@! TO.N,GPIO_22/PWM1_3*
X22000000Y-39860000D03*
G04 #@! TO.P,J4,9*
G04 #@! TO.N,GPIO_21/PWM1_2*
X22000000Y-37320000D03*
G04 #@! TO.P,J4,8*
G04 #@! TO.N,GPIO_20/PWM1_0*
X22000000Y-34780000D03*
G04 #@! TO.P,J4,7*
G04 #@! TO.N,GPIO_19/PWM1_1*
X22000000Y-32240000D03*
G04 #@! TO.P,J4,6*
G04 #@! TO.N,GPIO_18*
X22000000Y-29700000D03*
G04 #@! TO.P,J4,5*
G04 #@! TO.N,UART_TX*
X22000000Y-27160000D03*
G04 #@! TO.P,J4,4*
G04 #@! TO.N,UART_RX*
X22000000Y-24620000D03*
G04 #@! TO.P,J4,3*
G04 #@! TO.N,GPIO_13/PWM2_3*
X22000000Y-22080000D03*
G04 #@! TO.P,J4,2*
G04 #@! TO.N,+1V8*
X22000000Y-19540000D03*
D17*
G04 #@! TO.P,J4,1*
G04 #@! TO.N,+5V*
X22000000Y-17000000D03*
G04 #@! TD*
D16*
G04 #@! TO.P,J5,8*
G04 #@! TO.N,GND*
X62180000Y-38500000D03*
G04 #@! TO.P,J5,7*
G04 #@! TO.N,AON_PSD_LFCLKSEL*
X59640000Y-38500000D03*
G04 #@! TO.P,J5,6*
G04 #@! TO.N,AON_PSD_LFALTCLK*
X57100000Y-38500000D03*
G04 #@! TO.P,J5,5*
G04 #@! TO.N,AON_ERST_N*
X54560000Y-38500000D03*
G04 #@! TO.P,J5,4*
G04 #@! TO.N,AON_PMU_DWAKEUP_N*
X52020000Y-38500000D03*
G04 #@! TO.P,J5,3*
G04 #@! TO.N,AON_PMU_OUT_1*
X49480000Y-38500000D03*
G04 #@! TO.P,J5,2*
G04 #@! TO.N,AON_PMU_OUT_0*
X46940000Y-38500000D03*
D17*
G04 #@! TO.P,J5,1*
G04 #@! TO.N,+1V8*
X44400000Y-38500000D03*
G04 #@! TD*
D13*
G04 #@! TO.P,R1,1*
G04 #@! TO.N,Net-(J1-Pad3)*
X30400000Y-59000000D03*
G04 #@! TO.P,R1,2*
G04 #@! TO.N,/D+*
X32600000Y-59000000D03*
G04 #@! TD*
G04 #@! TO.P,R2,2*
G04 #@! TO.N,/D-*
X32600000Y-57500000D03*
G04 #@! TO.P,R2,1*
G04 #@! TO.N,Net-(J1-Pad2)*
X30400000Y-57500000D03*
G04 #@! TD*
G04 #@! TO.P,R3,1*
G04 #@! TO.N,+3V3*
X55400000Y-62500000D03*
G04 #@! TO.P,R3,2*
G04 #@! TO.N,Net-(D1-Pad2)*
X53200000Y-62500000D03*
G04 #@! TD*
G04 #@! TO.P,R4,2*
G04 #@! TO.N,+1V8*
X43850000Y-33750000D03*
G04 #@! TO.P,R4,1*
G04 #@! TO.N,Net-(C13-Pad1)*
X41650000Y-33750000D03*
G04 #@! TD*
G04 #@! TO.P,R5,2*
G04 #@! TO.N,AON_ERST_N*
X60100000Y-55500000D03*
G04 #@! TO.P,R5,1*
G04 #@! TO.N,+1V8*
X57900000Y-55500000D03*
G04 #@! TD*
G04 #@! TO.P,R6,1*
G04 #@! TO.N,+1V8*
X50100000Y-26000000D03*
G04 #@! TO.P,R6,2*
G04 #@! TO.N,AON_PMU_DWAKEUP_N*
X47900000Y-26000000D03*
G04 #@! TD*
D18*
G04 #@! TO.P,SW1,2*
G04 #@! TO.N,AON_ERST_N*
X60270000Y-57750000D03*
G04 #@! TO.P,SW1,1*
G04 #@! TO.N,GND*
X60270000Y-62250000D03*
X68230000Y-62250000D03*
G04 #@! TO.P,SW1,2*
G04 #@! TO.N,AON_ERST_N*
X68230000Y-57750000D03*
G04 #@! TD*
D19*
G04 #@! TO.P,U1,2*
G04 #@! TO.N,+3V3*
X37150000Y-48500000D03*
D20*
X30850000Y-48500000D03*
G04 #@! TO.P,U1,3*
G04 #@! TO.N,+5V*
X30850000Y-50800000D03*
G04 #@! TO.P,U1,1*
G04 #@! TO.N,GND*
X30850000Y-46200000D03*
G04 #@! TD*
G04 #@! TO.P,U2,1*
G04 #@! TO.N,GND*
X42850000Y-46200000D03*
G04 #@! TO.P,U2,3*
G04 #@! TO.N,+3V3*
X42850000Y-50800000D03*
G04 #@! TO.P,U2,2*
G04 #@! TO.N,+1V8*
X42850000Y-48500000D03*
D19*
X49150000Y-48500000D03*
G04 #@! TD*
D10*
G04 #@! TO.P,U3,16*
G04 #@! TO.N,+5V*
X36055000Y-55800000D03*
G04 #@! TO.P,U3,15*
G04 #@! TO.N,N/C*
X37325000Y-55800000D03*
G04 #@! TO.P,U3,14*
X38595000Y-55800000D03*
G04 #@! TO.P,U3,13*
X39865000Y-55800000D03*
G04 #@! TO.P,U3,12*
X41135000Y-55800000D03*
G04 #@! TO.P,U3,11*
G04 #@! TO.N,UART_TX*
X42405000Y-55800000D03*
G04 #@! TO.P,U3,10*
G04 #@! TO.N,+3V3*
X43675000Y-55800000D03*
G04 #@! TO.P,U3,9*
G04 #@! TO.N,N/C*
X44945000Y-55800000D03*
G04 #@! TO.P,U3,8*
G04 #@! TO.N,Net-(D1-Pad1)*
X44945000Y-61200000D03*
G04 #@! TO.P,U3,7*
G04 #@! TO.N,/D-*
X43675000Y-61200000D03*
G04 #@! TO.P,U3,6*
G04 #@! TO.N,UART_RX*
X42405000Y-61200000D03*
G04 #@! TO.P,U3,5*
G04 #@! TO.N,N/C*
X41135000Y-61200000D03*
G04 #@! TO.P,U3,4*
G04 #@! TO.N,GND*
X39865000Y-61200000D03*
G04 #@! TO.P,U3,3*
G04 #@! TO.N,Net-(C5-Pad2)*
X38595000Y-61200000D03*
G04 #@! TO.P,U3,2*
G04 #@! TO.N,/D-*
X37325000Y-61200000D03*
G04 #@! TO.P,U3,1*
G04 #@! TO.N,/D+*
X36055000Y-61200000D03*
G04 #@! TD*
D21*
G04 #@! TO.N,GND*
G04 #@! TO.C,U4*
X43233333Y-23783333D03*
X41766667Y-23783333D03*
X43966667Y-24516667D03*
X43233333Y-24516667D03*
X42500000Y-24516667D03*
X41766667Y-24516667D03*
X41033333Y-24516667D03*
X43233333Y-25250000D03*
X41766667Y-25250000D03*
X43966667Y-25983333D03*
X43233333Y-25983333D03*
X42500000Y-25983333D03*
X41766667Y-25983333D03*
X41033333Y-25983333D03*
X43233333Y-26716667D03*
X41766667Y-26716667D03*
D22*
G04 #@! TD*
G04 #@! TO.P,U4,49*
G04 #@! TO.N,GND*
X42500000Y-25250000D03*
D23*
G04 #@! TO.P,U4,48*
G04 #@! TO.N,QSPI_SCK*
X39575000Y-27450000D03*
G04 #@! TO.P,U4,47*
G04 #@! TO.N,+3V3*
X39575000Y-27050000D03*
G04 #@! TO.P,U4,46*
G04 #@! TO.N,+1V8*
X39575000Y-26650000D03*
G04 #@! TO.P,U4,45*
G04 #@! TO.N,GPIO_23*
X39575000Y-26250000D03*
G04 #@! TO.P,U4,44*
G04 #@! TO.N,GPIO_22/PWM1_3*
X39575000Y-25850000D03*
G04 #@! TO.P,U4,43*
G04 #@! TO.N,GPIO_21/PWM1_2*
X39575000Y-25450000D03*
G04 #@! TO.P,U4,42*
G04 #@! TO.N,GPIO_20/PWM1_0*
X39575000Y-25050000D03*
G04 #@! TO.P,U4,41*
G04 #@! TO.N,GPIO_19/PWM1_1*
X39575000Y-24650000D03*
G04 #@! TO.P,U4,40*
G04 #@! TO.N,GPIO_18*
X39575000Y-24250000D03*
G04 #@! TO.P,U4,39*
G04 #@! TO.N,UART_TX*
X39575000Y-23850000D03*
G04 #@! TO.P,U4,38*
G04 #@! TO.N,UART_RX*
X39575000Y-23450000D03*
G04 #@! TO.P,U4,37*
G04 #@! TO.N,GPIO_13/PWM2_3*
X39575000Y-23050000D03*
D24*
G04 #@! TO.P,U4,36*
G04 #@! TO.N,GPIO_12/PWM2_2*
X40300000Y-22325000D03*
G04 #@! TO.P,U4,35*
G04 #@! TO.N,GPIO_11/PWM2_1*
X40700000Y-22325000D03*
G04 #@! TO.P,U4,34*
G04 #@! TO.N,GPIO_10/SPI1_SS3/PWM2_0*
X41100000Y-22325000D03*
G04 #@! TO.P,U4,33*
G04 #@! TO.N,GPIO_9/SPI1_SS2*
X41500000Y-22325000D03*
G04 #@! TO.P,U4,32*
G04 #@! TO.N,+3V3*
X41900000Y-22325000D03*
G04 #@! TO.P,U4,31*
G04 #@! TO.N,GPIO_5/SPI1_SCK*
X42300000Y-22325000D03*
G04 #@! TO.P,U4,30*
G04 #@! TO.N,+1V8*
X42700000Y-22325000D03*
G04 #@! TO.P,U4,29*
G04 #@! TO.N,GPIO_4/SPI1_MISO*
X43100000Y-22325000D03*
G04 #@! TO.P,U4,28*
G04 #@! TO.N,GPIO_3/SPI1_MOSI/PWM0_3*
X43500000Y-22325000D03*
G04 #@! TO.P,U4,27*
G04 #@! TO.N,GPIO_2/SPI1_SS0/PWM0_2*
X43900000Y-22325000D03*
G04 #@! TO.P,U4,26*
G04 #@! TO.N,GPIO_1/PWM0_1*
X44300000Y-22325000D03*
G04 #@! TO.P,U4,25*
G04 #@! TO.N,GPIO_0/PWM0_0*
X44700000Y-22325000D03*
D23*
G04 #@! TO.P,U4,24*
G04 #@! TO.N,AON_ERST_N*
X45425000Y-23050000D03*
G04 #@! TO.P,U4,23*
G04 #@! TO.N,+1V8*
X45425000Y-23450000D03*
G04 #@! TO.P,U4,22*
G04 #@! TO.N,AON_PMU_OUT_0*
X45425000Y-23850000D03*
G04 #@! TO.P,U4,21*
G04 #@! TO.N,AON_PSD_LFCLKSEL*
X45425000Y-24250000D03*
G04 #@! TO.P,U4,20*
G04 #@! TO.N,AON_PSD_LFALTCLK*
X45425000Y-24650000D03*
G04 #@! TO.P,U4,19*
G04 #@! TO.N,+1V8*
X45425000Y-25050000D03*
G04 #@! TO.P,U4,18*
G04 #@! TO.N,AON_PMU_DWAKEUP_N*
X45425000Y-25450000D03*
G04 #@! TO.P,U4,17*
G04 #@! TO.N,AON_PMU_OUT_1*
X45425000Y-25850000D03*
G04 #@! TO.P,U4,16*
G04 #@! TO.N,JTAG_TDI*
X45425000Y-26250000D03*
G04 #@! TO.P,U4,15*
G04 #@! TO.N,JTAG_TMS*
X45425000Y-26650000D03*
G04 #@! TO.P,U4,14*
G04 #@! TO.N,JTAG_TDO*
X45425000Y-27050000D03*
G04 #@! TO.P,U4,13*
G04 #@! TO.N,JTAG_TCK*
X45425000Y-27450000D03*
D24*
G04 #@! TO.P,U4,12*
G04 #@! TO.N,+3V3*
X44700000Y-28175000D03*
G04 #@! TO.P,U4,11*
X44300000Y-28175000D03*
G04 #@! TO.P,U4,10*
G04 #@! TO.N,Net-(C18-Pad1)*
X43900000Y-28175000D03*
G04 #@! TO.P,U4,9*
G04 #@! TO.N,Net-(C19-Pad1)*
X43500000Y-28175000D03*
G04 #@! TO.P,U4,8*
G04 #@! TO.N,Net-(C13-Pad2)*
X43100000Y-28175000D03*
G04 #@! TO.P,U4,7*
G04 #@! TO.N,Net-(C13-Pad1)*
X42700000Y-28175000D03*
G04 #@! TO.P,U4,6*
G04 #@! TO.N,+1V8*
X42300000Y-28175000D03*
G04 #@! TO.P,U4,5*
G04 #@! TO.N,QSPI_CS*
X41900000Y-28175000D03*
G04 #@! TO.P,U4,4*
G04 #@! TO.N,QSPI_IO0*
X41500000Y-28175000D03*
G04 #@! TO.P,U4,3*
G04 #@! TO.N,QSPI_IO1*
X41100000Y-28175000D03*
G04 #@! TO.P,U4,2*
G04 #@! TO.N,QSPI_IO2*
X40700000Y-28175000D03*
G04 #@! TO.P,U4,1*
G04 #@! TO.N,QSPI_IO3*
X40300000Y-28175000D03*
G04 #@! TD*
D25*
G04 #@! TO.P,U5,8*
G04 #@! TO.N,+3V3*
X29654297Y-38714920D03*
G04 #@! TO.P,U5,7*
G04 #@! TO.N,QSPI_IO3*
X29654297Y-37444920D03*
G04 #@! TO.P,U5,6*
G04 #@! TO.N,QSPI_SCK*
X29654297Y-36174920D03*
G04 #@! TO.P,U5,5*
G04 #@! TO.N,QSPI_IO0*
X29654297Y-34904920D03*
G04 #@! TO.P,U5,4*
G04 #@! TO.N,GND*
X37054297Y-34904920D03*
G04 #@! TO.P,U5,3*
G04 #@! TO.N,QSPI_IO2*
X37054297Y-36174920D03*
G04 #@! TO.P,U5,2*
G04 #@! TO.N,QSPI_IO1*
X37054297Y-37444920D03*
G04 #@! TO.P,U5,1*
G04 #@! TO.N,QSPI_CS*
X37054297Y-38714920D03*
G04 #@! TD*
D26*
G04 #@! TO.P,Y1,4*
G04 #@! TO.N,N/C*
X47050000Y-32600000D03*
G04 #@! TO.P,Y1,3*
G04 #@! TO.N,Net-(C18-Pad1)*
X49950000Y-32600000D03*
G04 #@! TO.P,Y1,2*
G04 #@! TO.N,N/C*
X49950000Y-34900000D03*
G04 #@! TO.P,Y1,1*
G04 #@! TO.N,Net-(C19-Pad1)*
X47050000Y-34900000D03*
G04 #@! TD*
D13*
G04 #@! TO.P,D2,2*
G04 #@! TO.N,+3V3*
X49200000Y-61000000D03*
G04 #@! TO.P,D2,1*
G04 #@! TO.N,Net-(D2-Pad1)*
X51400000Y-61000000D03*
G04 #@! TD*
G04 #@! TO.P,R7,2*
G04 #@! TO.N,GND*
X55400000Y-61000000D03*
G04 #@! TO.P,R7,1*
G04 #@! TO.N,Net-(D2-Pad1)*
X53200000Y-61000000D03*
G04 #@! TD*
D21*
G04 #@! TO.N,GND*
X35900000Y-33375000D03*
X34300000Y-35200000D03*
X42250000Y-16925030D03*
X44450000Y-18250000D03*
X48300000Y-22275000D03*
X27615000Y-44940000D03*
X33100000Y-27250000D03*
X44250000Y-29400000D03*
G04 #@! TO.N,+5V*
X26900000Y-51000000D03*
G04 #@! TO.N,+3V3*
X40550000Y-20250000D03*
X37150000Y-29700000D03*
X32450000Y-38700000D03*
X31649998Y-29700000D03*
X48900000Y-27749999D03*
G04 #@! TO.N,+1V8*
X47500000Y-22275000D03*
X44300000Y-19300000D03*
X40850000Y-32250000D03*
X41450000Y-35200000D03*
X33050000Y-28900000D03*
X51400000Y-27400000D03*
X53200000Y-44300000D03*
G04 #@! TO.N,JTAG_TDI*
X52750000Y-32250000D03*
G04 #@! TO.N,JTAG_TMS*
X47500000Y-27750000D03*
G04 #@! TO.N,JTAG_TDO*
X46500000Y-27750000D03*
G04 #@! TO.N,JTAG_TCK*
X45750000Y-28000000D03*
G04 #@! TO.N,UART_TX*
X41950000Y-58100000D03*
G04 #@! TO.N,UART_RX*
X42800000Y-62650000D03*
G04 #@! TO.N,AON_PSD_LFCLKSEL*
X53250000Y-27750000D03*
G04 #@! TO.N,AON_PSD_LFALTCLK*
X53250000Y-28750000D03*
G04 #@! TO.N,AON_PMU_DWAKEUP_N*
X52020000Y-34000000D03*
G04 #@! TO.N,AON_PMU_OUT_1*
X46625895Y-25861459D03*
X51495000Y-36500000D03*
G04 #@! TO.N,QSPI_IO0*
X31300000Y-34900000D03*
X40000000Y-33500000D03*
G04 #@! TO.N,QSPI_IO1*
X39000000Y-39900000D03*
X35100000Y-37400000D03*
G04 #@! TD*
D27*
G04 #@! TO.N,GND*
X33050000Y-63000000D02*
X32750000Y-62700000D01*
X36550000Y-63000000D02*
X33050000Y-63000000D01*
X27450000Y-62700000D02*
X27200000Y-62950000D01*
X32750000Y-62700000D02*
X27450000Y-62700000D01*
X27200000Y-62950000D02*
X21700000Y-62950000D01*
X27200000Y-60200000D02*
X27300000Y-60100000D01*
X27200000Y-62950000D02*
X27200000Y-60200000D01*
X21700000Y-54050000D02*
X27200000Y-54050000D01*
X39865000Y-62965002D02*
X39865000Y-61200000D01*
X39230001Y-63600001D02*
X39865000Y-62965002D01*
X36775000Y-63000000D02*
X37375001Y-63600001D01*
X36550000Y-63000000D02*
X36775000Y-63000000D01*
X34595080Y-34904920D02*
X34300000Y-35200000D01*
X37054297Y-34904920D02*
X34595080Y-34904920D01*
X28650000Y-46200000D02*
X28500000Y-46050000D01*
X30850000Y-46200000D02*
X28650000Y-46200000D01*
X28500000Y-45825000D02*
X28500000Y-46050000D01*
X27615000Y-44940000D02*
X28500000Y-45825000D01*
X22000000Y-44940000D02*
X27615000Y-44940000D01*
X42700000Y-46050000D02*
X42850000Y-46200000D01*
X40500000Y-46050000D02*
X42700000Y-46050000D01*
X33275000Y-53800000D02*
X32750000Y-53800000D01*
X33675001Y-53399999D02*
X33275000Y-53800000D01*
X37124999Y-53399999D02*
X33675001Y-53399999D01*
X37725000Y-54000000D02*
X37124999Y-53399999D01*
X37950000Y-54000000D02*
X37725000Y-54000000D01*
X41550000Y-54000000D02*
X37950000Y-54000000D01*
X31000000Y-46050000D02*
X30850000Y-46200000D01*
X40500000Y-46050000D02*
X31000000Y-46050000D01*
X49700000Y-28750000D02*
X48950000Y-28750000D01*
X49975000Y-28750000D02*
X49700000Y-28750000D01*
X51450000Y-30225000D02*
X49975000Y-28750000D01*
X51450000Y-30750000D02*
X51450000Y-30225000D01*
X30850000Y-45300000D02*
X30850000Y-46200000D01*
X30850000Y-44075000D02*
X30850000Y-45300000D01*
X31725000Y-43200000D02*
X30850000Y-44075000D01*
X31950000Y-43200000D02*
X31725000Y-43200000D01*
X59820000Y-61000000D02*
X60270000Y-61450000D01*
X60270000Y-61450000D02*
X60270000Y-62250000D01*
X56600000Y-61000000D02*
X59820000Y-61000000D01*
X60270000Y-62250000D02*
X68230000Y-62250000D01*
X56955001Y-63600001D02*
X38750000Y-63600001D01*
X57425001Y-63130001D02*
X56955001Y-63600001D01*
X55400000Y-61000000D02*
X55550000Y-61000000D01*
X38750000Y-63600001D02*
X39230001Y-63600001D01*
X37375001Y-63600001D02*
X38750000Y-63600001D01*
X58305002Y-62250000D02*
X60270000Y-62250000D01*
X56955001Y-63600001D02*
X58305002Y-62250000D01*
X62150000Y-38530000D02*
X62180000Y-38500000D01*
X62150000Y-42250000D02*
X62150000Y-38530000D01*
X42124970Y-16925030D02*
X42250000Y-16925030D01*
X41500000Y-17550000D02*
X42124970Y-16925030D01*
X41500000Y-18300000D02*
X41500000Y-17550000D01*
X43050000Y-18250000D02*
X43000000Y-18300000D01*
X44450000Y-18250000D02*
X43050000Y-18250000D01*
X48300000Y-22600000D02*
X48950000Y-23250000D01*
X48300000Y-22275000D02*
X48300000Y-22600000D01*
X36050000Y-27975000D02*
X36050000Y-27000000D01*
X36050000Y-28500000D02*
X36050000Y-27975000D01*
X35850000Y-27200000D02*
X36050000Y-27000000D01*
X34400000Y-27200000D02*
X35850000Y-27200000D01*
X21700000Y-45240000D02*
X22000000Y-44940000D01*
X21700000Y-54050000D02*
X21700000Y-45240000D01*
X21700000Y-62950000D02*
X21700000Y-54050000D01*
X36079297Y-32159920D02*
X36529297Y-32159920D01*
X35900000Y-32339217D02*
X36079297Y-32159920D01*
X35900000Y-33375000D02*
X35900000Y-32339217D01*
X34350000Y-27250000D02*
X34400000Y-27200000D01*
X33100000Y-27250000D02*
X34350000Y-27250000D01*
X51450000Y-31275000D02*
X51450000Y-30750000D01*
X51450000Y-33455002D02*
X51450000Y-31275000D01*
X51180001Y-33725001D02*
X51450000Y-33455002D01*
X48719999Y-33725001D02*
X51180001Y-33725001D01*
X48450000Y-33455002D02*
X48719999Y-33725001D01*
X48450000Y-31275000D02*
X48450000Y-33455002D01*
X47925000Y-30750000D02*
X48450000Y-31275000D01*
X47700000Y-30750000D02*
X47925000Y-30750000D01*
X44649278Y-29400000D02*
X44250000Y-29400000D01*
X45399277Y-30149999D02*
X44649278Y-29400000D01*
X46874999Y-30149999D02*
X45399277Y-30149999D01*
X47475000Y-30750000D02*
X46874999Y-30149999D01*
X47700000Y-30750000D02*
X47475000Y-30750000D01*
X22849999Y-45789999D02*
X22000000Y-44940000D01*
X26535001Y-49475001D02*
X22849999Y-45789999D01*
X31680003Y-49475001D02*
X26535001Y-49475001D01*
X32750000Y-50544998D02*
X31680003Y-49475001D01*
X32750000Y-53800000D02*
X32750000Y-50544998D01*
X56600000Y-61000000D02*
X55400000Y-61000000D01*
G04 #@! TO.N,+5V*
X30850000Y-54650000D02*
X30850000Y-51700000D01*
X28600000Y-56900000D02*
X30850000Y-54650000D01*
X27300000Y-56900000D02*
X28600000Y-56900000D01*
X36055000Y-54005000D02*
X36050000Y-54000000D01*
X36055000Y-55800000D02*
X36055000Y-54005000D01*
X30850000Y-51700000D02*
X30850000Y-50800000D01*
X30850000Y-53280002D02*
X30850000Y-51700000D01*
X32194999Y-54625001D02*
X30850000Y-53280002D01*
X34430001Y-54625001D02*
X32194999Y-54625001D01*
X35605000Y-55800000D02*
X34430001Y-54625001D01*
X36055000Y-55800000D02*
X35605000Y-55800000D01*
X30650000Y-51000000D02*
X30850000Y-50800000D01*
X26900000Y-51000000D02*
X30650000Y-51000000D01*
G04 #@! TO.N,+3V3*
X31449297Y-41459920D02*
X30179297Y-41459920D01*
X30254297Y-38714920D02*
X29654297Y-38714920D01*
X31449297Y-39909920D02*
X30254297Y-38714920D01*
X31449297Y-41459920D02*
X31449297Y-39909920D01*
X30300000Y-47950000D02*
X30850000Y-48500000D01*
X28500000Y-47950000D02*
X30300000Y-47950000D01*
X30850000Y-48500000D02*
X37150000Y-48500000D01*
X41700000Y-50800000D02*
X42850000Y-50800000D01*
X40600000Y-50800000D02*
X41700000Y-50800000D01*
X38300000Y-48500000D02*
X40600000Y-50800000D01*
X43675000Y-54225000D02*
X43450000Y-54000000D01*
X43675000Y-55800000D02*
X43675000Y-54225000D01*
X43450000Y-51400000D02*
X42850000Y-50800000D01*
X43450000Y-54000000D02*
X43450000Y-51400000D01*
X44700000Y-28400000D02*
X44700000Y-28175000D01*
X45050000Y-28750000D02*
X44700000Y-28400000D01*
X47050000Y-28750000D02*
X45050000Y-28750000D01*
X44700000Y-28175000D02*
X44300000Y-28175000D01*
X30050000Y-41589217D02*
X30179297Y-41459920D01*
X30050000Y-43200000D02*
X30050000Y-41589217D01*
X41900000Y-20600000D02*
X41500000Y-20200000D01*
X41900000Y-22325000D02*
X41900000Y-20600000D01*
X38300000Y-48500000D02*
X37150000Y-48500000D01*
X39675001Y-47124999D02*
X38300000Y-48500000D01*
X41055001Y-47124999D02*
X39675001Y-47124999D01*
X41180002Y-47250000D02*
X41055001Y-47124999D01*
X45450000Y-47250000D02*
X41180002Y-47250000D01*
X49450000Y-43250000D02*
X45450000Y-47250000D01*
X49450000Y-42250000D02*
X49450000Y-43250000D01*
X40600000Y-20200000D02*
X40550000Y-20250000D01*
X41500000Y-20200000D02*
X40600000Y-20200000D01*
X37950000Y-28900000D02*
X37950000Y-28500000D01*
X37150000Y-29700000D02*
X37950000Y-28900000D01*
X38175000Y-28500000D02*
X37950000Y-28500000D01*
X38775001Y-27899999D02*
X38175000Y-28500000D01*
X38775001Y-27374999D02*
X38775001Y-27899999D01*
X39100000Y-27050000D02*
X38775001Y-27374999D01*
X39575000Y-27050000D02*
X39100000Y-27050000D01*
X31449297Y-41909920D02*
X31449297Y-41459920D01*
X31974298Y-42434921D02*
X31449297Y-41909920D01*
X48450000Y-42250000D02*
X48265079Y-42434921D01*
X48265079Y-42434921D02*
X31974298Y-42434921D01*
X49450000Y-42250000D02*
X48450000Y-42250000D01*
X29669217Y-38700000D02*
X29654297Y-38714920D01*
X32450000Y-38700000D02*
X29669217Y-38700000D01*
X31949997Y-29999999D02*
X31649998Y-29700000D01*
X36850001Y-29999999D02*
X31949997Y-29999999D01*
X37150000Y-29700000D02*
X36850001Y-29999999D01*
X48275001Y-27749999D02*
X48900000Y-27749999D01*
X47275000Y-28750000D02*
X48275001Y-27749999D01*
X47050000Y-28750000D02*
X47275000Y-28750000D01*
X43675000Y-56250000D02*
X43675000Y-55800000D01*
X48425000Y-61000000D02*
X43675000Y-56250000D01*
X49200000Y-61000000D02*
X48425000Y-61000000D01*
X54650000Y-62500000D02*
X55400000Y-62500000D01*
X53974999Y-61824999D02*
X54650000Y-62500000D01*
X50174999Y-61824999D02*
X53974999Y-61824999D01*
X49350000Y-61000000D02*
X50174999Y-61824999D01*
X49200000Y-61000000D02*
X49350000Y-61000000D01*
G04 #@! TO.N,Net-(C5-Pad2)*
X38450000Y-61345000D02*
X38595000Y-61200000D01*
X38450000Y-63000000D02*
X38450000Y-61345000D01*
G04 #@! TO.N,+1V8*
X41050000Y-48500000D02*
X40500000Y-47950000D01*
X42850000Y-48500000D02*
X41050000Y-48500000D01*
X42850000Y-48500000D02*
X49150000Y-48500000D01*
X46850000Y-23450000D02*
X47050000Y-23250000D01*
X45425000Y-23450000D02*
X46850000Y-23450000D01*
X49350000Y-26000000D02*
X50100000Y-26000000D01*
X48386449Y-25036449D02*
X49350000Y-26000000D01*
X45913551Y-25036449D02*
X48386449Y-25036449D01*
X45900000Y-25050000D02*
X45913551Y-25036449D01*
X45425000Y-25050000D02*
X45900000Y-25050000D01*
X47050000Y-22725000D02*
X47500000Y-22275000D01*
X47050000Y-23250000D02*
X47050000Y-22725000D01*
X42700000Y-20500000D02*
X43000000Y-20200000D01*
X42700000Y-22325000D02*
X42700000Y-20500000D01*
X49150000Y-49400000D02*
X49150000Y-48500000D01*
X55250000Y-55500000D02*
X49150000Y-49400000D01*
X57900000Y-55500000D02*
X55250000Y-55500000D01*
X44400000Y-34300000D02*
X43850000Y-33750000D01*
X44400000Y-38500000D02*
X44400000Y-34300000D01*
X43675000Y-19300000D02*
X44300000Y-19300000D01*
X43000000Y-19975000D02*
X43675000Y-19300000D01*
X43000000Y-20200000D02*
X43000000Y-19975000D01*
X38300000Y-26650000D02*
X37950000Y-27000000D01*
X39575000Y-26650000D02*
X38300000Y-26650000D01*
X37725000Y-27000000D02*
X37950000Y-27000000D01*
X37124999Y-27600001D02*
X37725000Y-27000000D01*
X37124999Y-28805003D02*
X37124999Y-27600001D01*
X36830002Y-29100000D02*
X37124999Y-28805003D01*
X34400000Y-29100000D02*
X36830002Y-29100000D01*
X42300000Y-29119998D02*
X40850000Y-30569998D01*
X40850000Y-30569998D02*
X40850000Y-32250000D01*
X42300000Y-28175000D02*
X42300000Y-29119998D01*
X43850000Y-34350000D02*
X43850000Y-33750000D01*
X43000000Y-35200000D02*
X43850000Y-34350000D01*
X41450000Y-35200000D02*
X43000000Y-35200000D01*
X45400000Y-38500000D02*
X44400000Y-38500000D01*
X46475001Y-39575001D02*
X45400000Y-38500000D01*
X48880003Y-39575001D02*
X46475001Y-39575001D01*
X50525001Y-41219999D02*
X48880003Y-39575001D01*
X50525001Y-43280001D02*
X50525001Y-41219999D01*
X45305002Y-48500000D02*
X50525001Y-43280001D01*
X42850000Y-48500000D02*
X45305002Y-48500000D01*
X33250000Y-29100000D02*
X33050000Y-28900000D01*
X34400000Y-29100000D02*
X33250000Y-29100000D01*
X51400000Y-27150000D02*
X51400000Y-27400000D01*
X50250000Y-26000000D02*
X51400000Y-27150000D01*
X50100000Y-26000000D02*
X50250000Y-26000000D01*
X49150000Y-48350000D02*
X49150000Y-48500000D01*
X53200000Y-44300000D02*
X49150000Y-48350000D01*
G04 #@! TO.N,Net-(C13-Pad1)*
X42050000Y-32250000D02*
X42050000Y-30750000D01*
X42050000Y-33350000D02*
X41650000Y-33750000D01*
X42050000Y-32250000D02*
X42050000Y-33350000D01*
X42700000Y-28650000D02*
X42700000Y-28175000D01*
X42700000Y-30325000D02*
X42700000Y-28650000D01*
X42275000Y-30750000D02*
X42700000Y-30325000D01*
X42050000Y-30750000D02*
X42275000Y-30750000D01*
G04 #@! TO.N,Net-(C13-Pad2)*
X43950000Y-32250000D02*
X43950000Y-30750000D01*
X43100000Y-28650000D02*
X43100000Y-28175000D01*
X43100000Y-30650000D02*
X43100000Y-28650000D01*
X43200000Y-30750000D02*
X43100000Y-30650000D01*
X43950000Y-30750000D02*
X43200000Y-30750000D01*
G04 #@! TO.N,Net-(C18-Pad1)*
X49950000Y-31150000D02*
X49550000Y-30750000D01*
X49950000Y-32600000D02*
X49950000Y-31150000D01*
X48175000Y-29600000D02*
X49325000Y-30750000D01*
X45475722Y-29600000D02*
X48175000Y-29600000D01*
X44600723Y-28725001D02*
X45475722Y-29600000D01*
X49325000Y-30750000D02*
X49550000Y-30750000D01*
X43975001Y-28725001D02*
X44600723Y-28725001D01*
X43900000Y-28650000D02*
X43975001Y-28725001D01*
X43900000Y-28175000D02*
X43900000Y-28650000D01*
G04 #@! TO.N,Net-(C19-Pad1)*
X43500000Y-28175000D02*
X43500000Y-29700000D01*
X43500000Y-29700000D02*
X43800000Y-30000000D01*
X45575000Y-30750000D02*
X45800000Y-30750000D01*
X44825000Y-30000000D02*
X45575000Y-30750000D01*
X43800000Y-30000000D02*
X44825000Y-30000000D01*
X46900000Y-34900000D02*
X47050000Y-34900000D01*
X45774999Y-33774999D02*
X46900000Y-34900000D01*
X45800000Y-31275000D02*
X45774999Y-31300001D01*
X45774999Y-31300001D02*
X45774999Y-33774999D01*
X45800000Y-30750000D02*
X45800000Y-31275000D01*
G04 #@! TO.N,Net-(D1-Pad2)*
X51400000Y-62500000D02*
X53200000Y-62500000D01*
G04 #@! TO.N,Net-(D1-Pad1)*
X44945000Y-61650000D02*
X44945000Y-61200000D01*
X45795000Y-62500000D02*
X44945000Y-61650000D01*
X45795000Y-62500000D02*
X49200000Y-62500000D01*
G04 #@! TO.N,Net-(J1-Pad3)*
X29900000Y-58500000D02*
X30400000Y-59000000D01*
X27300000Y-58500000D02*
X29900000Y-58500000D01*
G04 #@! TO.N,Net-(J1-Pad2)*
X30200000Y-57700000D02*
X30400000Y-57500000D01*
X27300000Y-57700000D02*
X30200000Y-57700000D01*
G04 #@! TO.N,JTAG_TDI*
X52750000Y-30669998D02*
X52750000Y-32250000D01*
X47247819Y-27224999D02*
X49305001Y-27224999D01*
X46272820Y-26250000D02*
X47247819Y-27224999D01*
X49305001Y-27224999D02*
X52750000Y-30669998D01*
X45425000Y-26250000D02*
X46272820Y-26250000D01*
G04 #@! TO.N,JTAG_TMS*
X47348542Y-27750000D02*
X47500000Y-27750000D01*
X46248542Y-26650000D02*
X47348542Y-27750000D01*
X45425000Y-26650000D02*
X46248542Y-26650000D01*
G04 #@! TO.N,JTAG_TDO*
X45900000Y-27050000D02*
X45425000Y-27050000D01*
X46224264Y-27050000D02*
X45900000Y-27050000D01*
X46500000Y-27325736D02*
X46224264Y-27050000D01*
X46500000Y-27750000D02*
X46500000Y-27325736D01*
G04 #@! TO.N,JTAG_TCK*
X45425000Y-27675000D02*
X45750000Y-28000000D01*
X45425000Y-27450000D02*
X45425000Y-27675000D01*
G04 #@! TO.N,GPIO_0/PWM0_0*
X66250000Y-40710000D02*
X68000000Y-42460000D01*
X54860010Y-27355730D02*
X54860010Y-27360010D01*
X54860010Y-27360010D02*
X66250000Y-38750000D01*
X66250000Y-38750000D02*
X66250000Y-40710000D01*
X44700000Y-22100000D02*
X45399970Y-21400030D01*
X44700000Y-22325000D02*
X44700000Y-22100000D01*
X48904310Y-21400030D02*
X49354301Y-21850021D01*
X45399970Y-21400030D02*
X48904310Y-21400030D01*
X49354301Y-21850021D02*
X49504280Y-22000000D01*
X49504280Y-22000000D02*
X54860010Y-27355730D01*
X49354300Y-21850020D02*
X49504280Y-22000000D01*
G04 #@! TO.N,GPIO_1/PWM0_1*
X50250000Y-22170000D02*
X68000000Y-39920000D01*
X49180020Y-21100020D02*
X50250000Y-22170000D01*
X45049980Y-21100020D02*
X49180020Y-21100020D01*
X44300000Y-21850000D02*
X45049980Y-21100020D01*
X44300000Y-22325000D02*
X44300000Y-21850000D01*
G04 #@! TO.N,GPIO_2/SPI1_SS0/PWM0_2*
X43900000Y-22325000D02*
X43900000Y-21825722D01*
X51870000Y-21250000D02*
X68000000Y-37380000D01*
X43900000Y-21825722D02*
X44925712Y-20800010D01*
X51420010Y-20800010D02*
X51870000Y-21250000D01*
X44925712Y-20800010D02*
X51420010Y-20800010D01*
G04 #@! TO.N,GPIO_3/SPI1_MOSI/PWM0_3*
X67150001Y-33990001D02*
X68000000Y-34840000D01*
X53660000Y-20500000D02*
X67150001Y-33990001D01*
X44750000Y-20500000D02*
X53660000Y-20500000D01*
X43500000Y-21754280D02*
X44304290Y-20949990D01*
X44304290Y-20945710D02*
X44750000Y-20500000D01*
X44304290Y-20949990D02*
X44304290Y-20945710D01*
X43500000Y-22325000D02*
X43500000Y-21754280D01*
G04 #@! TO.N,GPIO_4/SPI1_MISO*
X54449990Y-18750000D02*
X55800000Y-20100010D01*
X55800010Y-20100010D02*
X68000000Y-32300000D01*
X55800000Y-20100010D02*
X55800010Y-20100010D01*
X46000000Y-18750000D02*
X43100000Y-21650000D01*
X43100000Y-21650000D02*
X43100000Y-22325000D01*
X46000000Y-18750000D02*
X54449990Y-18750000D01*
G04 #@! TO.N,GPIO_5/SPI1_SCK*
X56000000Y-17760000D02*
X68000000Y-29760000D01*
X55990000Y-17750000D02*
X56000000Y-17760000D01*
X55690000Y-17450000D02*
X56000000Y-17760000D01*
X42469998Y-17450000D02*
X55690000Y-17450000D01*
X42300000Y-17619998D02*
X42469998Y-17450000D01*
X42300000Y-22325000D02*
X42300000Y-17619998D01*
G04 #@! TO.N,GPIO_9/SPI1_SS2*
X67150001Y-26370001D02*
X68000000Y-27220000D01*
X58280000Y-17500000D02*
X67150001Y-26370001D01*
X58229990Y-17449990D02*
X58280000Y-17500000D01*
X57180030Y-16400030D02*
X58280000Y-17500000D01*
X41948526Y-16400030D02*
X57180030Y-16400030D01*
X41500000Y-21825722D02*
X40824268Y-21149990D01*
X39950030Y-20875752D02*
X39950030Y-18398526D01*
X39950030Y-18398526D02*
X41948526Y-16400030D01*
X40224268Y-21149990D02*
X39950030Y-20875752D01*
X40824268Y-21149990D02*
X40224268Y-21149990D01*
X41500000Y-22325000D02*
X41500000Y-21825722D01*
G04 #@! TO.N,GPIO_10/SPI1_SS3/PWM2_0*
X41100000Y-22325000D02*
X41100000Y-22100000D01*
X59870000Y-16550000D02*
X68000000Y-24680000D01*
X59420020Y-16100020D02*
X59870000Y-16550000D01*
X41824258Y-16100020D02*
X59420020Y-16100020D01*
X39650020Y-21000020D02*
X39650020Y-18274258D01*
X40100000Y-21450000D02*
X39650020Y-21000020D01*
X40700000Y-21450000D02*
X40100000Y-21450000D01*
X41100000Y-21850000D02*
X40700000Y-21450000D01*
X39650020Y-18274258D02*
X41824258Y-16100020D01*
X41100000Y-22325000D02*
X41100000Y-21850000D01*
G04 #@! TO.N,GPIO_11/PWM2_1*
X61660010Y-15800010D02*
X68000000Y-22140000D01*
X41699990Y-15800010D02*
X61660010Y-15800010D01*
X40580001Y-21774999D02*
X39924999Y-21774999D01*
X40700000Y-21894998D02*
X40580001Y-21774999D01*
X40700000Y-22325000D02*
X40700000Y-21894998D01*
X39924999Y-21724999D02*
X39350010Y-21150010D01*
X39924999Y-21774999D02*
X39924999Y-21724999D01*
X39350010Y-18149990D02*
X41699990Y-15800010D01*
X39350010Y-21150010D02*
X39350010Y-18149990D01*
G04 #@! TO.N,GPIO_12/PWM2_2*
X63900000Y-15500000D02*
X68000000Y-19600000D01*
X40050000Y-22325000D02*
X39050000Y-21325000D01*
X39050000Y-17950000D02*
X41500000Y-15500000D01*
X39050000Y-21325000D02*
X39050000Y-17950000D01*
X41500000Y-15500000D02*
X63900000Y-15500000D01*
X40300000Y-22325000D02*
X40050000Y-22325000D01*
G04 #@! TO.N,GPIO_23*
X24850000Y-42400000D02*
X22000000Y-42400000D01*
X25350000Y-42400000D02*
X24850000Y-42400000D01*
X27750000Y-31525722D02*
X27750000Y-40000000D01*
X27750000Y-40000000D02*
X25350000Y-42400000D01*
X33025722Y-26250000D02*
X32800000Y-26475722D01*
X39575000Y-26250000D02*
X33025722Y-26250000D01*
X32800000Y-26475722D02*
X27750000Y-31525722D01*
X32905724Y-26369998D02*
X32800000Y-26475722D01*
G04 #@! TO.N,GPIO_22/PWM1_3*
X27450000Y-31401444D02*
X27450000Y-38500000D01*
X33001444Y-25850000D02*
X27450000Y-31401444D01*
X26090000Y-39860000D02*
X22000000Y-39860000D01*
X27450000Y-38500000D02*
X26090000Y-39860000D01*
X39575000Y-25850000D02*
X33001444Y-25850000D01*
G04 #@! TO.N,GPIO_21/PWM1_2*
X26880000Y-37320000D02*
X22000000Y-37320000D01*
X27150000Y-37050000D02*
X26880000Y-37320000D01*
X27150000Y-31277166D02*
X27150000Y-37050000D01*
X32977166Y-25450000D02*
X27150000Y-31277166D01*
X39575000Y-25450000D02*
X32977166Y-25450000D01*
G04 #@! TO.N,GPIO_20/PWM1_0*
X32952888Y-25050000D02*
X26850000Y-31152888D01*
X39575000Y-25050000D02*
X32952888Y-25050000D01*
X26850000Y-31152888D02*
X26850000Y-34300000D01*
X26370000Y-34780000D02*
X22000000Y-34780000D01*
X26850000Y-34300000D02*
X26370000Y-34780000D01*
G04 #@! TO.N,GPIO_19/PWM1_1*
X25338610Y-32240000D02*
X22000000Y-32240000D01*
X32928610Y-24650000D02*
X25338610Y-32240000D01*
X39575000Y-24650000D02*
X32928610Y-24650000D01*
G04 #@! TO.N,GPIO_18*
X27454332Y-29700000D02*
X22000000Y-29700000D01*
X32904332Y-24250000D02*
X27454332Y-29700000D01*
X39575000Y-24250000D02*
X32904332Y-24250000D01*
G04 #@! TO.N,UART_TX*
X32850000Y-23850000D02*
X39575000Y-23850000D01*
X29540000Y-27160000D02*
X32850000Y-23850000D01*
X22000000Y-27160000D02*
X29540000Y-27160000D01*
X42405000Y-57645000D02*
X41950000Y-58100000D01*
X42405000Y-55800000D02*
X42405000Y-57645000D01*
G04 #@! TO.N,UART_RX*
X23170000Y-23450000D02*
X22000000Y-24620000D01*
X39575000Y-23450000D02*
X23170000Y-23450000D01*
X42405000Y-62255000D02*
X42800000Y-62650000D01*
X42405000Y-61200000D02*
X42405000Y-62255000D01*
G04 #@! TO.N,GPIO_13/PWM2_3*
X22970000Y-23050000D02*
X22000000Y-22080000D01*
X39575000Y-23050000D02*
X22970000Y-23050000D01*
G04 #@! TO.N,AON_PSD_LFCLKSEL*
X53250000Y-27250000D02*
X53250000Y-27750000D01*
X50250000Y-24250000D02*
X53250000Y-27250000D01*
X45425000Y-24250000D02*
X50250000Y-24250000D01*
G04 #@! TO.N,AON_PSD_LFALTCLK*
X52950001Y-28450001D02*
X53250000Y-28750000D01*
X52724999Y-28224999D02*
X52950001Y-28450001D01*
X52724999Y-27224999D02*
X52724999Y-28224999D01*
X50150000Y-24650000D02*
X52724999Y-27224999D01*
X45425000Y-24650000D02*
X50150000Y-24650000D01*
G04 #@! TO.N,AON_ERST_N*
X46000000Y-21750000D02*
X48830002Y-21750000D01*
X45425000Y-22325000D02*
X46000000Y-21750000D01*
X54560000Y-27479998D02*
X54560000Y-38500000D01*
X48830002Y-21750000D02*
X54560000Y-27479998D01*
X45425000Y-23050000D02*
X45425000Y-22325000D01*
X60270000Y-55670000D02*
X60100000Y-55500000D01*
X60270000Y-57750000D02*
X60270000Y-55670000D01*
X68230000Y-57750000D02*
X60270000Y-57750000D01*
X60100000Y-54900000D02*
X60100000Y-55500000D01*
X55605001Y-50405001D02*
X60100000Y-54900000D01*
X55605001Y-39545001D02*
X55605001Y-50405001D01*
X54560000Y-38500000D02*
X55605001Y-39545001D01*
G04 #@! TO.N,AON_PMU_DWAKEUP_N*
X47750000Y-26000000D02*
X47900000Y-26000000D01*
X47086458Y-25336458D02*
X47750000Y-26000000D01*
X46373894Y-25336458D02*
X47086458Y-25336458D01*
X46260352Y-25450000D02*
X46373894Y-25336458D01*
X45425000Y-25450000D02*
X46260352Y-25450000D01*
X53275001Y-30625001D02*
X53275001Y-32744999D01*
X53275001Y-32744999D02*
X52020000Y-34000000D01*
X48650000Y-26000000D02*
X53275001Y-30625001D01*
X47900000Y-26000000D02*
X48650000Y-26000000D01*
G04 #@! TO.N,AON_PMU_OUT_1*
X46614436Y-25850000D02*
X46625895Y-25861459D01*
X45425000Y-25850000D02*
X46614436Y-25850000D01*
X49495000Y-38500000D02*
X49480000Y-38500000D01*
X51495000Y-36500000D02*
X49495000Y-38500000D01*
G04 #@! TO.N,AON_PMU_OUT_0*
X48015001Y-37424999D02*
X47789999Y-37650001D01*
X47789999Y-37650001D02*
X46940000Y-38500000D01*
X49780003Y-37424999D02*
X48015001Y-37424999D01*
X54000000Y-33205002D02*
X49780003Y-37424999D01*
X54000000Y-27500000D02*
X54000000Y-33205002D01*
X50350000Y-23850000D02*
X54000000Y-27500000D01*
X45425000Y-23850000D02*
X50350000Y-23850000D01*
G04 #@! TO.N,QSPI_SCK*
X38699999Y-29100001D02*
X39575000Y-28225000D01*
X29054297Y-36174920D02*
X28300000Y-35420623D01*
X39575000Y-28225000D02*
X39575000Y-27450000D01*
X28700000Y-31000000D02*
X28900000Y-30800000D01*
X29654297Y-36174920D02*
X29054297Y-36174920D01*
X29054297Y-36174920D02*
X28200000Y-35320623D01*
X28200000Y-31900623D02*
X28200000Y-31500000D01*
X38100000Y-29700000D02*
X39575000Y-28225000D01*
X37300000Y-30500000D02*
X38100000Y-29700000D01*
X28450000Y-31250000D02*
X28900000Y-30800000D01*
X28200000Y-31500000D02*
X28450000Y-31250000D01*
X28450000Y-31250000D02*
X29200000Y-30500000D01*
X29200000Y-30500000D02*
X37300000Y-30500000D01*
X28459297Y-32159920D02*
X28200000Y-32419217D01*
X28200000Y-32419217D02*
X28200000Y-33400000D01*
X28909297Y-32159920D02*
X28459297Y-32159920D01*
X28200000Y-33400000D02*
X28200000Y-31500000D01*
X28200000Y-35320623D02*
X28200000Y-33400000D01*
G04 #@! TO.N,QSPI_CS*
X36529297Y-39239920D02*
X37054297Y-38714920D01*
X36529297Y-41459920D02*
X36529297Y-39239920D01*
X40525001Y-37450000D02*
X40525001Y-38174999D01*
X40518732Y-37394369D02*
X40525001Y-37450000D01*
X40430873Y-37254542D02*
X40470458Y-37294127D01*
X40330631Y-37206268D02*
X40383471Y-37224757D01*
X39788934Y-37200000D02*
X40275001Y-37200000D01*
X39733303Y-36706268D02*
X39680463Y-36724757D01*
X39563691Y-37058470D02*
X39593476Y-37105872D01*
X39593476Y-36794127D02*
X39563691Y-36841529D01*
X39985080Y-38714920D02*
X37054297Y-38714920D01*
X40579544Y-36105872D02*
X40619129Y-36145457D01*
X39680463Y-36724757D02*
X39633061Y-36754542D01*
X39545202Y-36894369D02*
X39538934Y-36950000D01*
X41316699Y-36693731D02*
X41261068Y-36700000D01*
X40383471Y-37224757D02*
X40430873Y-37254542D01*
X41416941Y-36645457D02*
X41369539Y-36675242D01*
X41511068Y-36450000D02*
X41504800Y-36505630D01*
X41504800Y-36394369D02*
X41511068Y-36450000D01*
X40719371Y-36193731D02*
X40775001Y-36200000D01*
X41456526Y-36294127D02*
X41486311Y-36341529D01*
X40300000Y-33022998D02*
X40525001Y-33247999D01*
X41261068Y-36200000D02*
X41316699Y-36206268D01*
X41486311Y-36341529D02*
X41504800Y-36394369D01*
X39733303Y-37193731D02*
X39788934Y-37200000D01*
X41900000Y-28175000D02*
X41900000Y-28924278D01*
X41369539Y-36224757D02*
X41416941Y-36254542D01*
X40619129Y-36145457D02*
X40666531Y-36175242D01*
X40775001Y-36200000D02*
X41261068Y-36200000D01*
X39680463Y-37175242D02*
X39733303Y-37193731D01*
X41261068Y-36700000D02*
X39788934Y-36700000D01*
X41369539Y-36675242D02*
X41316699Y-36693731D01*
X40666531Y-36175242D02*
X40719371Y-36193731D01*
X40525001Y-38174999D02*
X39985080Y-38714920D01*
X41504800Y-36505630D02*
X41486311Y-36558470D01*
X40500243Y-37341529D02*
X40518732Y-37394369D01*
X40531270Y-36005630D02*
X40549759Y-36058470D01*
X39593476Y-37105872D02*
X39633061Y-37145457D01*
X41316699Y-36206268D02*
X41369539Y-36224757D01*
X40525001Y-35950000D02*
X40531270Y-36005630D01*
X39633061Y-36754542D02*
X39593476Y-36794127D01*
X41486311Y-36558470D02*
X41456526Y-36605872D01*
X41456526Y-36605872D02*
X41416941Y-36645457D01*
X40300000Y-30500000D02*
X40300000Y-33022998D01*
X39563691Y-36841529D02*
X39545202Y-36894369D01*
X39788934Y-36700000D02*
X39733303Y-36706268D01*
X41416941Y-36254542D02*
X41456526Y-36294127D01*
X39538934Y-36950000D02*
X39545202Y-37005630D01*
X40600000Y-30224278D02*
X40575722Y-30224278D01*
X40525001Y-33247999D02*
X40525001Y-35950000D01*
X40470458Y-37294127D02*
X40500243Y-37341529D01*
X40275001Y-37200000D02*
X40330631Y-37206268D01*
X40549759Y-36058470D02*
X40579544Y-36105872D01*
X40575722Y-30224278D02*
X40300000Y-30500000D01*
X39633061Y-37145457D02*
X39680463Y-37175242D01*
X39545202Y-37005630D02*
X39563691Y-37058470D01*
X41900000Y-28924278D02*
X40600000Y-30224278D01*
G04 #@! TO.N,QSPI_IO0*
X29559217Y-35000000D02*
X29654297Y-34904920D01*
X30295080Y-34904920D02*
X29654297Y-34904920D01*
X29659217Y-34900000D02*
X29654297Y-34904920D01*
X31300000Y-34900000D02*
X29659217Y-34900000D01*
X41500000Y-28900000D02*
X41500000Y-28175000D01*
X41500000Y-28872834D02*
X41500000Y-28650000D01*
X40000000Y-30372834D02*
X41500000Y-28872834D01*
X41500000Y-28650000D02*
X41500000Y-28175000D01*
X40000000Y-33500000D02*
X40000000Y-30372834D01*
X30179297Y-34379920D02*
X29654297Y-34904920D01*
X30179297Y-32159920D02*
X30179297Y-34379920D01*
G04 #@! TO.N,QSPI_IO1*
X39300000Y-30648556D02*
X41100000Y-28848556D01*
X39300000Y-33600000D02*
X39300000Y-30648556D01*
X39292479Y-33666756D02*
X39300000Y-33600000D01*
X39270291Y-33730165D02*
X39292479Y-33666756D01*
X39234550Y-33787046D02*
X39270291Y-33730165D01*
X39187047Y-33834549D02*
X39234550Y-33787046D01*
X39130166Y-33870290D02*
X39187047Y-33834549D01*
X39066757Y-33892478D02*
X39130166Y-33870290D01*
X39000000Y-33900000D02*
X39066757Y-33892478D01*
X41100000Y-28848556D02*
X41100000Y-28175000D01*
X38688590Y-33900000D02*
X39000000Y-33900000D01*
X38621834Y-33907521D02*
X38688590Y-33900000D01*
X38558425Y-33929709D02*
X38621834Y-33907521D01*
X38396112Y-34133243D02*
X38418300Y-34069834D01*
X38396112Y-34266756D02*
X38388590Y-34200000D01*
X38418300Y-34330165D02*
X38396112Y-34266756D01*
X38454041Y-34387046D02*
X38418300Y-34330165D01*
X38688590Y-34500000D02*
X38621834Y-34492478D01*
X39911410Y-34500000D02*
X38688590Y-34500000D01*
X39978166Y-34507521D02*
X39911410Y-34500000D01*
X40041575Y-34529709D02*
X39978166Y-34507521D01*
X40145959Y-34612953D02*
X40098456Y-34565450D01*
X40181700Y-34669834D02*
X40145959Y-34612953D01*
X37054297Y-37444920D02*
X38455080Y-37444920D01*
X38418300Y-35269834D02*
X38454041Y-35212953D01*
X40181700Y-34930165D02*
X40203888Y-34866756D01*
X39978166Y-35092478D02*
X40041575Y-35070290D01*
X38454041Y-34012953D02*
X38501544Y-33965450D01*
X39533243Y-36307521D02*
X39600000Y-36300000D01*
X40145959Y-36187046D02*
X40181700Y-36130165D01*
X40041575Y-35070290D02*
X40098456Y-35034549D01*
X38688590Y-35100000D02*
X39911410Y-35100000D01*
X38558425Y-34470290D02*
X38501544Y-34434549D01*
X39911410Y-36300000D02*
X39978166Y-36292478D01*
X38388590Y-35400000D02*
X38396112Y-35333243D01*
X39911410Y-35100000D02*
X39978166Y-35092478D01*
X38558425Y-35129709D02*
X38621834Y-35107521D01*
X40203888Y-34866756D02*
X40211410Y-34800000D01*
X38396112Y-35333243D02*
X38418300Y-35269834D01*
X40181700Y-36130165D02*
X40203888Y-36066756D01*
X38396112Y-35466756D02*
X38388590Y-35400000D01*
X38454041Y-35212953D02*
X38501544Y-35165450D01*
X38418300Y-35530165D02*
X38396112Y-35466756D01*
X38388590Y-34200000D02*
X38396112Y-34133243D01*
X40098456Y-34565450D02*
X40041575Y-34529709D01*
X38454041Y-35587046D02*
X38418300Y-35530165D01*
X38621834Y-35107521D02*
X38688590Y-35100000D01*
X38621834Y-35692478D02*
X38558425Y-35670290D01*
X38501544Y-34434549D02*
X38454041Y-34387046D01*
X39911410Y-35700000D02*
X38688590Y-35700000D01*
X38418300Y-34069834D02*
X38454041Y-34012953D01*
X38688590Y-35700000D02*
X38621834Y-35692478D01*
X39978166Y-35707521D02*
X39911410Y-35700000D01*
X38501544Y-35634549D02*
X38454041Y-35587046D01*
X40098456Y-35765450D02*
X40041575Y-35729709D01*
X40211410Y-36000000D02*
X40203888Y-35933243D01*
X40203888Y-36066756D02*
X40211410Y-36000000D01*
X39307521Y-36533243D02*
X39329709Y-36469834D01*
X40203888Y-35933243D02*
X40181700Y-35869834D01*
X39365450Y-36412953D02*
X39412953Y-36365450D01*
X40145959Y-34987046D02*
X40181700Y-34930165D01*
X39600000Y-36300000D02*
X39911410Y-36300000D01*
X40181700Y-35869834D02*
X40145959Y-35812953D01*
X40145959Y-35812953D02*
X40098456Y-35765450D01*
X40098456Y-35034549D02*
X40145959Y-34987046D01*
X38621834Y-34492478D02*
X38558425Y-34470290D01*
X40211410Y-34800000D02*
X40203888Y-34733243D01*
X38558425Y-35670290D02*
X38501544Y-35634549D01*
X40098456Y-36234549D02*
X40145959Y-36187046D01*
X39978166Y-36292478D02*
X40041575Y-36270290D01*
X38501544Y-35165450D02*
X38558425Y-35129709D01*
X39412953Y-36365450D02*
X39469834Y-36329709D01*
X39469834Y-36329709D02*
X39533243Y-36307521D01*
X40041575Y-35729709D02*
X39978166Y-35707521D01*
X38501544Y-33965450D02*
X38558425Y-33929709D01*
X40203888Y-34733243D02*
X40181700Y-34669834D01*
X39300000Y-36600000D02*
X39307521Y-36533243D01*
X40041575Y-36270290D02*
X40098456Y-36234549D01*
X39329709Y-36469834D02*
X39365450Y-36412953D01*
X38455080Y-37444920D02*
X39300000Y-36600000D01*
X38909217Y-39900000D02*
X39000000Y-39900000D01*
X37799297Y-41009920D02*
X38909217Y-39900000D01*
X37799297Y-41459920D02*
X37799297Y-41009920D01*
X37009377Y-37400000D02*
X37054297Y-37444920D01*
X35100000Y-37400000D02*
X37009377Y-37400000D01*
G04 #@! TO.N,QSPI_IO2*
X38112139Y-33700000D02*
X38612139Y-33200000D01*
X37900000Y-33900000D02*
X38100000Y-33700000D01*
X33600000Y-36000000D02*
X33600000Y-34200000D01*
X33774920Y-36174920D02*
X33600000Y-36000000D01*
X34600000Y-36174920D02*
X33774920Y-36174920D01*
X38612139Y-30912139D02*
X40700000Y-28824278D01*
X34655630Y-36168651D02*
X34600000Y-36174920D01*
X34825242Y-36033390D02*
X34795457Y-36080792D01*
X34850000Y-35924920D02*
X34843731Y-35980550D01*
X34850000Y-35650124D02*
X34850000Y-35924920D01*
X35044369Y-35406392D02*
X34991529Y-35424881D01*
X40700000Y-28824278D02*
X40700000Y-28175000D01*
X33600000Y-34200000D02*
X33900000Y-33900000D01*
X35255872Y-35454666D02*
X35208470Y-35424881D01*
X34991529Y-35424881D02*
X34944127Y-35454666D01*
X35208470Y-35424881D02*
X35155630Y-35406392D01*
X35343731Y-35594493D02*
X35325242Y-35541653D01*
X35295457Y-35494251D02*
X35255872Y-35454666D01*
X38100000Y-33700000D02*
X38112139Y-33700000D01*
X34795457Y-36080792D02*
X34755872Y-36120377D01*
X35325242Y-35541653D02*
X35295457Y-35494251D01*
X34708470Y-36150162D02*
X34655630Y-36168651D01*
X35350000Y-35650124D02*
X35343731Y-35594493D01*
X35100000Y-35400124D02*
X35044369Y-35406392D01*
X35350000Y-35924920D02*
X35350000Y-35650124D01*
X38612139Y-33200000D02*
X38612139Y-30912139D01*
X35356268Y-35980550D02*
X35350000Y-35924920D01*
X34856268Y-35594493D02*
X34850000Y-35650124D01*
X35155630Y-35406392D02*
X35100000Y-35400124D01*
X37054297Y-36174920D02*
X35600000Y-36174920D01*
X35444127Y-36120377D02*
X35404542Y-36080792D01*
X34904542Y-35494251D02*
X34874757Y-35541653D01*
X35404542Y-36080792D02*
X35374757Y-36033390D01*
X35600000Y-36174920D02*
X35544369Y-36168651D01*
X35544369Y-36168651D02*
X35491529Y-36150162D01*
X34755872Y-36120377D02*
X34708470Y-36150162D01*
X34874757Y-35541653D02*
X34856268Y-35594493D01*
X34944127Y-35454666D02*
X34904542Y-35494251D01*
X34843731Y-35980550D02*
X34825242Y-36033390D01*
X35374757Y-36033390D02*
X35356268Y-35980550D01*
X35491529Y-36150162D02*
X35444127Y-36120377D01*
X37799297Y-33500703D02*
X37400000Y-33900000D01*
X37799297Y-32159920D02*
X37799297Y-33500703D01*
X37400000Y-33900000D02*
X37900000Y-33900000D01*
X33900000Y-33900000D02*
X37400000Y-33900000D01*
G04 #@! TO.N,QSPI_IO3*
X40300000Y-28175000D02*
X40300000Y-28400000D01*
X40300000Y-28800000D02*
X40300000Y-28175000D01*
X37915081Y-31184919D02*
X40300000Y-28800000D01*
X33244298Y-31455702D02*
X33515081Y-31184919D01*
X33244298Y-35755702D02*
X33244298Y-31455702D01*
X32507106Y-36492893D02*
X33244298Y-35755702D01*
X32444199Y-36555797D02*
X32507106Y-36492893D01*
X32385296Y-36678110D02*
X32395537Y-36633242D01*
X32385296Y-36724132D02*
X32385296Y-36678110D01*
X32415505Y-36810464D02*
X32395537Y-36769000D01*
X32415505Y-36591778D02*
X32444199Y-36555797D01*
X32503103Y-36968759D02*
X32492862Y-36923891D01*
X32503103Y-37014781D02*
X32503103Y-36968759D01*
X32492862Y-36923891D02*
X32472894Y-36882427D01*
X32472894Y-37101113D02*
X32492862Y-37059649D01*
X32381295Y-37200000D02*
X32444200Y-37137094D01*
X32444200Y-37137094D02*
X32472894Y-37101113D01*
X32258982Y-37258903D02*
X32303850Y-37248662D01*
X32345314Y-37228694D02*
X32381295Y-37200000D01*
X31835981Y-37171305D02*
X31877445Y-37151337D01*
X32168092Y-37248662D02*
X32212960Y-37258903D01*
X32395537Y-36633242D02*
X32415505Y-36591778D01*
X32395537Y-36769000D02*
X32385296Y-36724132D01*
X32492862Y-37059649D02*
X32503103Y-37014781D01*
X32126628Y-37228694D02*
X32168092Y-37248662D01*
X32472894Y-36882427D02*
X32415505Y-36810464D01*
X32054666Y-37171305D02*
X32126628Y-37228694D01*
X32013202Y-37151337D02*
X32054666Y-37171305D01*
X31555080Y-37444920D02*
X31800000Y-37200000D01*
X33515081Y-31184919D02*
X37915081Y-31184919D01*
X31968334Y-37141097D02*
X32013202Y-37151337D01*
X31922313Y-37141097D02*
X31968334Y-37141097D01*
X31877445Y-37151337D02*
X31922313Y-37141097D01*
X31800000Y-37200000D02*
X31835981Y-37171305D01*
X32303850Y-37248662D02*
X32345314Y-37228694D01*
X32212960Y-37258903D02*
X32258982Y-37258903D01*
X29654297Y-37444920D02*
X31555080Y-37444920D01*
X29054297Y-37444920D02*
X29654297Y-37444920D01*
X28554296Y-37944921D02*
X29054297Y-37444920D01*
X28554296Y-40654919D02*
X28554296Y-37944921D01*
X28909297Y-41009920D02*
X28554296Y-40654919D01*
X28909297Y-41459920D02*
X28909297Y-41009920D01*
G04 #@! TO.N,Net-(D2-Pad1)*
X51400000Y-61000000D02*
X53200000Y-61000000D01*
D28*
G04 #@! TO.N,/D-*
X36915000Y-59664999D02*
X36915000Y-58796800D01*
X37325000Y-60074999D02*
X36915000Y-59664999D01*
X37325000Y-61200000D02*
X37325000Y-60074999D01*
X33500001Y-57500000D02*
X32600000Y-57500000D01*
X34025001Y-58025000D02*
X33500001Y-57500000D01*
X36915000Y-58796800D02*
X36143200Y-58025000D01*
D27*
X32600000Y-55850000D02*
X32750000Y-55700000D01*
X32600000Y-57500000D02*
X32600000Y-55850000D01*
D28*
X36143200Y-58025000D02*
X34025001Y-58025000D01*
D27*
X37325000Y-60750000D02*
X37325000Y-61200000D01*
X37850001Y-60224999D02*
X37325000Y-60750000D01*
X43149999Y-60224999D02*
X37850001Y-60224999D01*
X43675000Y-60750000D02*
X43149999Y-60224999D01*
X43675000Y-61200000D02*
X43675000Y-60750000D01*
D28*
G04 #@! TO.N,/D+*
X36465000Y-59664999D02*
X36465000Y-58983200D01*
X36055000Y-61200000D02*
X36055000Y-60074999D01*
X36055000Y-60074999D02*
X36465000Y-59664999D01*
X34025001Y-58475000D02*
X33500001Y-59000000D01*
X33500001Y-59000000D02*
X32600000Y-59000000D01*
X35956800Y-58475000D02*
X34025001Y-58475000D01*
X36465000Y-58983200D02*
X35956800Y-58475000D01*
D27*
X32750000Y-59150000D02*
X32600000Y-59000000D01*
X32750000Y-60800000D02*
X32750000Y-59150000D01*
G04 #@! TD*
M02*
