G04 #@! TF.GenerationSoftware,KiCad,Pcbnew,(5.0.1-3-g963ef8bb5)*
G04 #@! TF.CreationDate,2018-11-25T15:30:40-05:00*
G04 #@! TF.ProjectId,fe310-dev,66653331302D6465762E6B696361645F,rev?*
G04 #@! TF.SameCoordinates,Original*
G04 #@! TF.FileFunction,Soldermask,Top*
G04 #@! TF.FilePolarity,Negative*
%FSLAX46Y46*%
G04 Gerber Fmt 4.6, Leading zero omitted, Abs format (unit mm)*
G04 Created by KiCad (PCBNEW (5.0.1-3-g963ef8bb5)) date Sunday, November 25, 2018 at 03:30:40 PM*
%MOMM*%
%LPD*%
G01*
G04 APERTURE LIST*
%ADD10C,0.100000*%
G04 APERTURE END LIST*
D10*
G36*
X28501000Y-64001000D02*
X25899000Y-64001000D01*
X25899000Y-61899000D01*
X28501000Y-61899000D01*
X28501000Y-64001000D01*
X28501000Y-64001000D01*
G37*
G36*
X23001000Y-64001000D02*
X20399000Y-64001000D01*
X20399000Y-61899000D01*
X23001000Y-61899000D01*
X23001000Y-64001000D01*
X23001000Y-64001000D01*
G37*
G36*
X37201000Y-63426000D02*
X35899000Y-63426000D01*
X35899000Y-62574000D01*
X37201000Y-62574000D01*
X37201000Y-63426000D01*
X37201000Y-63426000D01*
G37*
G36*
X39101000Y-63426000D02*
X37799000Y-63426000D01*
X37799000Y-62574000D01*
X39101000Y-62574000D01*
X39101000Y-63426000D01*
X39101000Y-63426000D01*
G37*
G36*
X33176000Y-63351000D02*
X32324000Y-63351000D01*
X32324000Y-62049000D01*
X33176000Y-62049000D01*
X33176000Y-63351000D01*
X33176000Y-63351000D01*
G37*
G36*
X56051000Y-63001000D02*
X54749000Y-63001000D01*
X54749000Y-61999000D01*
X56051000Y-61999000D01*
X56051000Y-63001000D01*
X56051000Y-63001000D01*
G37*
G36*
X53851000Y-63001000D02*
X52549000Y-63001000D01*
X52549000Y-61999000D01*
X53851000Y-61999000D01*
X53851000Y-63001000D01*
X53851000Y-63001000D01*
G37*
G36*
X49851000Y-63001000D02*
X48549000Y-63001000D01*
X48549000Y-61999000D01*
X49851000Y-61999000D01*
X49851000Y-63001000D01*
X49851000Y-63001000D01*
G37*
G36*
X52051000Y-63001000D02*
X50749000Y-63001000D01*
X50749000Y-61999000D01*
X52051000Y-61999000D01*
X52051000Y-63001000D01*
X52051000Y-63001000D01*
G37*
G36*
X61096000Y-62951000D02*
X59444000Y-62951000D01*
X59444000Y-61549000D01*
X61096000Y-61549000D01*
X61096000Y-62951000D01*
X61096000Y-62951000D01*
G37*
G36*
X69056000Y-62951000D02*
X67404000Y-62951000D01*
X67404000Y-61549000D01*
X69056000Y-61549000D01*
X69056000Y-62951000D01*
X69056000Y-62951000D01*
G37*
G36*
X45296000Y-62001000D02*
X44594000Y-62001000D01*
X44594000Y-60399000D01*
X45296000Y-60399000D01*
X45296000Y-62001000D01*
X45296000Y-62001000D01*
G37*
G36*
X44026000Y-62001000D02*
X43324000Y-62001000D01*
X43324000Y-60399000D01*
X44026000Y-60399000D01*
X44026000Y-62001000D01*
X44026000Y-62001000D01*
G37*
G36*
X42756000Y-62001000D02*
X42054000Y-62001000D01*
X42054000Y-60399000D01*
X42756000Y-60399000D01*
X42756000Y-62001000D01*
X42756000Y-62001000D01*
G37*
G36*
X41486000Y-62001000D02*
X40784000Y-62001000D01*
X40784000Y-60399000D01*
X41486000Y-60399000D01*
X41486000Y-62001000D01*
X41486000Y-62001000D01*
G37*
G36*
X40216000Y-62001000D02*
X39514000Y-62001000D01*
X39514000Y-60399000D01*
X40216000Y-60399000D01*
X40216000Y-62001000D01*
X40216000Y-62001000D01*
G37*
G36*
X38946000Y-62001000D02*
X38244000Y-62001000D01*
X38244000Y-60399000D01*
X38946000Y-60399000D01*
X38946000Y-62001000D01*
X38946000Y-62001000D01*
G37*
G36*
X37676000Y-62001000D02*
X36974000Y-62001000D01*
X36974000Y-60399000D01*
X37676000Y-60399000D01*
X37676000Y-62001000D01*
X37676000Y-62001000D01*
G37*
G36*
X36406000Y-62001000D02*
X35704000Y-62001000D01*
X35704000Y-60399000D01*
X36406000Y-60399000D01*
X36406000Y-62001000D01*
X36406000Y-62001000D01*
G37*
G36*
X53851000Y-61501000D02*
X52549000Y-61501000D01*
X52549000Y-60499000D01*
X53851000Y-60499000D01*
X53851000Y-61501000D01*
X53851000Y-61501000D01*
G37*
G36*
X56051000Y-61501000D02*
X54749000Y-61501000D01*
X54749000Y-60499000D01*
X56051000Y-60499000D01*
X56051000Y-61501000D01*
X56051000Y-61501000D01*
G37*
G36*
X52051000Y-61501000D02*
X50749000Y-61501000D01*
X50749000Y-60499000D01*
X52051000Y-60499000D01*
X52051000Y-61501000D01*
X52051000Y-61501000D01*
G37*
G36*
X49851000Y-61501000D02*
X48549000Y-61501000D01*
X48549000Y-60499000D01*
X49851000Y-60499000D01*
X49851000Y-61501000D01*
X49851000Y-61501000D01*
G37*
G36*
X33176000Y-61451000D02*
X32324000Y-61451000D01*
X32324000Y-60149000D01*
X33176000Y-60149000D01*
X33176000Y-61451000D01*
X33176000Y-61451000D01*
G37*
G36*
X24846136Y-60218253D02*
X24937312Y-60256019D01*
X25019372Y-60310850D01*
X25089150Y-60380628D01*
X25143981Y-60462688D01*
X25181747Y-60553864D01*
X25201000Y-60650656D01*
X25201000Y-60749344D01*
X25181747Y-60846136D01*
X25143981Y-60937312D01*
X25089150Y-61019372D01*
X25019372Y-61089150D01*
X24937312Y-61143981D01*
X24846136Y-61181747D01*
X24749344Y-61201000D01*
X24650656Y-61201000D01*
X24553864Y-61181747D01*
X24462688Y-61143981D01*
X24380628Y-61089150D01*
X24310850Y-61019372D01*
X24256019Y-60937312D01*
X24218253Y-60846136D01*
X24199000Y-60749344D01*
X24199000Y-60650656D01*
X24218253Y-60553864D01*
X24256019Y-60462688D01*
X24310850Y-60380628D01*
X24380628Y-60310850D01*
X24462688Y-60256019D01*
X24553864Y-60218253D01*
X24650656Y-60199000D01*
X24749344Y-60199000D01*
X24846136Y-60218253D01*
X24846136Y-60218253D01*
G37*
G36*
X28501000Y-60401000D02*
X26099000Y-60401000D01*
X26099000Y-56599000D01*
X28501000Y-56599000D01*
X28501000Y-60401000D01*
X28501000Y-60401000D01*
G37*
G36*
X33251000Y-59501000D02*
X31949000Y-59501000D01*
X31949000Y-58499000D01*
X33251000Y-58499000D01*
X33251000Y-59501000D01*
X33251000Y-59501000D01*
G37*
G36*
X31051000Y-59501000D02*
X29749000Y-59501000D01*
X29749000Y-58499000D01*
X31051000Y-58499000D01*
X31051000Y-59501000D01*
X31051000Y-59501000D01*
G37*
G36*
X69056000Y-58451000D02*
X67404000Y-58451000D01*
X67404000Y-57049000D01*
X69056000Y-57049000D01*
X69056000Y-58451000D01*
X69056000Y-58451000D01*
G37*
G36*
X61096000Y-58451000D02*
X59444000Y-58451000D01*
X59444000Y-57049000D01*
X61096000Y-57049000D01*
X61096000Y-58451000D01*
X61096000Y-58451000D01*
G37*
G36*
X33251000Y-58001000D02*
X31949000Y-58001000D01*
X31949000Y-56999000D01*
X33251000Y-56999000D01*
X33251000Y-58001000D01*
X33251000Y-58001000D01*
G37*
G36*
X31051000Y-58001000D02*
X29749000Y-58001000D01*
X29749000Y-56999000D01*
X31051000Y-56999000D01*
X31051000Y-58001000D01*
X31051000Y-58001000D01*
G37*
G36*
X24846136Y-55818253D02*
X24937312Y-55856019D01*
X25019372Y-55910850D01*
X25089150Y-55980628D01*
X25143981Y-56062688D01*
X25181747Y-56153864D01*
X25201000Y-56250656D01*
X25201000Y-56349344D01*
X25181747Y-56446136D01*
X25143981Y-56537312D01*
X25089150Y-56619372D01*
X25019372Y-56689150D01*
X24937312Y-56743981D01*
X24846136Y-56781747D01*
X24749344Y-56801000D01*
X24650656Y-56801000D01*
X24553864Y-56781747D01*
X24462688Y-56743981D01*
X24380628Y-56689150D01*
X24310850Y-56619372D01*
X24256019Y-56537312D01*
X24218253Y-56446136D01*
X24199000Y-56349344D01*
X24199000Y-56250656D01*
X24218253Y-56153864D01*
X24256019Y-56062688D01*
X24310850Y-55980628D01*
X24380628Y-55910850D01*
X24462688Y-55856019D01*
X24553864Y-55818253D01*
X24650656Y-55799000D01*
X24749344Y-55799000D01*
X24846136Y-55818253D01*
X24846136Y-55818253D01*
G37*
G36*
X37676000Y-56601000D02*
X36974000Y-56601000D01*
X36974000Y-54999000D01*
X37676000Y-54999000D01*
X37676000Y-56601000D01*
X37676000Y-56601000D01*
G37*
G36*
X36406000Y-56601000D02*
X35704000Y-56601000D01*
X35704000Y-54999000D01*
X36406000Y-54999000D01*
X36406000Y-56601000D01*
X36406000Y-56601000D01*
G37*
G36*
X45296000Y-56601000D02*
X44594000Y-56601000D01*
X44594000Y-54999000D01*
X45296000Y-54999000D01*
X45296000Y-56601000D01*
X45296000Y-56601000D01*
G37*
G36*
X44026000Y-56601000D02*
X43324000Y-56601000D01*
X43324000Y-54999000D01*
X44026000Y-54999000D01*
X44026000Y-56601000D01*
X44026000Y-56601000D01*
G37*
G36*
X42756000Y-56601000D02*
X42054000Y-56601000D01*
X42054000Y-54999000D01*
X42756000Y-54999000D01*
X42756000Y-56601000D01*
X42756000Y-56601000D01*
G37*
G36*
X41486000Y-56601000D02*
X40784000Y-56601000D01*
X40784000Y-54999000D01*
X41486000Y-54999000D01*
X41486000Y-56601000D01*
X41486000Y-56601000D01*
G37*
G36*
X40216000Y-56601000D02*
X39514000Y-56601000D01*
X39514000Y-54999000D01*
X40216000Y-54999000D01*
X40216000Y-56601000D01*
X40216000Y-56601000D01*
G37*
G36*
X38946000Y-56601000D02*
X38244000Y-56601000D01*
X38244000Y-54999000D01*
X38946000Y-54999000D01*
X38946000Y-56601000D01*
X38946000Y-56601000D01*
G37*
G36*
X33176000Y-56351000D02*
X32324000Y-56351000D01*
X32324000Y-55049000D01*
X33176000Y-55049000D01*
X33176000Y-56351000D01*
X33176000Y-56351000D01*
G37*
G36*
X60751000Y-56001000D02*
X59449000Y-56001000D01*
X59449000Y-54999000D01*
X60751000Y-54999000D01*
X60751000Y-56001000D01*
X60751000Y-56001000D01*
G37*
G36*
X58551000Y-56001000D02*
X57249000Y-56001000D01*
X57249000Y-54999000D01*
X58551000Y-54999000D01*
X58551000Y-56001000D01*
X58551000Y-56001000D01*
G37*
G36*
X28501000Y-55101000D02*
X25899000Y-55101000D01*
X25899000Y-52999000D01*
X28501000Y-52999000D01*
X28501000Y-55101000D01*
X28501000Y-55101000D01*
G37*
G36*
X23001000Y-55101000D02*
X20399000Y-55101000D01*
X20399000Y-52999000D01*
X23001000Y-52999000D01*
X23001000Y-55101000D01*
X23001000Y-55101000D01*
G37*
G36*
X33176000Y-54451000D02*
X32324000Y-54451000D01*
X32324000Y-53149000D01*
X33176000Y-53149000D01*
X33176000Y-54451000D01*
X33176000Y-54451000D01*
G37*
G36*
X38601000Y-54426000D02*
X37299000Y-54426000D01*
X37299000Y-53574000D01*
X38601000Y-53574000D01*
X38601000Y-54426000D01*
X38601000Y-54426000D01*
G37*
G36*
X44101000Y-54426000D02*
X42799000Y-54426000D01*
X42799000Y-53574000D01*
X44101000Y-53574000D01*
X44101000Y-54426000D01*
X44101000Y-54426000D01*
G37*
G36*
X42201000Y-54426000D02*
X40899000Y-54426000D01*
X40899000Y-53574000D01*
X42201000Y-53574000D01*
X42201000Y-54426000D01*
X42201000Y-54426000D01*
G37*
G36*
X36701000Y-54426000D02*
X35399000Y-54426000D01*
X35399000Y-53574000D01*
X36701000Y-53574000D01*
X36701000Y-54426000D01*
X36701000Y-54426000D01*
G37*
G36*
X43901000Y-51601000D02*
X41799000Y-51601000D01*
X41799000Y-49999000D01*
X43901000Y-49999000D01*
X43901000Y-51601000D01*
X43901000Y-51601000D01*
G37*
G36*
X31901000Y-51601000D02*
X29799000Y-51601000D01*
X29799000Y-49999000D01*
X31901000Y-49999000D01*
X31901000Y-51601000D01*
X31901000Y-51601000D01*
G37*
G36*
X50201000Y-50451000D02*
X48099000Y-50451000D01*
X48099000Y-46549000D01*
X50201000Y-46549000D01*
X50201000Y-50451000D01*
X50201000Y-50451000D01*
G37*
G36*
X38201000Y-50451000D02*
X36099000Y-50451000D01*
X36099000Y-46549000D01*
X38201000Y-46549000D01*
X38201000Y-50451000D01*
X38201000Y-50451000D01*
G37*
G36*
X31901000Y-49301000D02*
X29799000Y-49301000D01*
X29799000Y-47699000D01*
X31901000Y-47699000D01*
X31901000Y-49301000D01*
X31901000Y-49301000D01*
G37*
G36*
X43901000Y-49301000D02*
X41799000Y-49301000D01*
X41799000Y-47699000D01*
X43901000Y-47699000D01*
X43901000Y-49301000D01*
X43901000Y-49301000D01*
G37*
G36*
X40926000Y-48601000D02*
X40074000Y-48601000D01*
X40074000Y-47299000D01*
X40926000Y-47299000D01*
X40926000Y-48601000D01*
X40926000Y-48601000D01*
G37*
G36*
X28926000Y-48601000D02*
X28074000Y-48601000D01*
X28074000Y-47299000D01*
X28926000Y-47299000D01*
X28926000Y-48601000D01*
X28926000Y-48601000D01*
G37*
G36*
X31901000Y-47001000D02*
X29799000Y-47001000D01*
X29799000Y-45399000D01*
X31901000Y-45399000D01*
X31901000Y-47001000D01*
X31901000Y-47001000D01*
G37*
G36*
X43901000Y-47001000D02*
X41799000Y-47001000D01*
X41799000Y-45399000D01*
X43901000Y-45399000D01*
X43901000Y-47001000D01*
X43901000Y-47001000D01*
G37*
G36*
X40926000Y-46701000D02*
X40074000Y-46701000D01*
X40074000Y-45399000D01*
X40926000Y-45399000D01*
X40926000Y-46701000D01*
X40926000Y-46701000D01*
G37*
G36*
X28926000Y-46701000D02*
X28074000Y-46701000D01*
X28074000Y-45399000D01*
X28926000Y-45399000D01*
X28926000Y-46701000D01*
X28926000Y-46701000D01*
G37*
G36*
X68901000Y-45901000D02*
X67099000Y-45901000D01*
X67099000Y-44099000D01*
X68901000Y-44099000D01*
X68901000Y-45901000D01*
X68901000Y-45901000D01*
G37*
G36*
X22110443Y-44045519D02*
X22176627Y-44052037D01*
X22289853Y-44086384D01*
X22346467Y-44103557D01*
X22485087Y-44177652D01*
X22502991Y-44187222D01*
X22538729Y-44216552D01*
X22640186Y-44299814D01*
X22723448Y-44401271D01*
X22752778Y-44437009D01*
X22752779Y-44437011D01*
X22836443Y-44593533D01*
X22836443Y-44593534D01*
X22887963Y-44763373D01*
X22905359Y-44940000D01*
X22887963Y-45116627D01*
X22853616Y-45229853D01*
X22836443Y-45286467D01*
X22776292Y-45399000D01*
X22752778Y-45442991D01*
X22723448Y-45478729D01*
X22640186Y-45580186D01*
X22538729Y-45663448D01*
X22502991Y-45692778D01*
X22502989Y-45692779D01*
X22346467Y-45776443D01*
X22289853Y-45793616D01*
X22176627Y-45827963D01*
X22110442Y-45834482D01*
X22044260Y-45841000D01*
X21955740Y-45841000D01*
X21889558Y-45834482D01*
X21823373Y-45827963D01*
X21710147Y-45793616D01*
X21653533Y-45776443D01*
X21497011Y-45692779D01*
X21497009Y-45692778D01*
X21461271Y-45663448D01*
X21359814Y-45580186D01*
X21276552Y-45478729D01*
X21247222Y-45442991D01*
X21223708Y-45399000D01*
X21163557Y-45286467D01*
X21146384Y-45229853D01*
X21112037Y-45116627D01*
X21094641Y-44940000D01*
X21112037Y-44763373D01*
X21163557Y-44593534D01*
X21163557Y-44593533D01*
X21247221Y-44437011D01*
X21247222Y-44437009D01*
X21276552Y-44401271D01*
X21359814Y-44299814D01*
X21461271Y-44216552D01*
X21497009Y-44187222D01*
X21514913Y-44177652D01*
X21653533Y-44103557D01*
X21710147Y-44086384D01*
X21823373Y-44052037D01*
X21889557Y-44045519D01*
X21955740Y-44039000D01*
X22044260Y-44039000D01*
X22110443Y-44045519D01*
X22110443Y-44045519D01*
G37*
G36*
X32601000Y-43626000D02*
X31299000Y-43626000D01*
X31299000Y-42774000D01*
X32601000Y-42774000D01*
X32601000Y-43626000D01*
X32601000Y-43626000D01*
G37*
G36*
X30701000Y-43626000D02*
X29399000Y-43626000D01*
X29399000Y-42774000D01*
X30701000Y-42774000D01*
X30701000Y-43626000D01*
X30701000Y-43626000D01*
G37*
G36*
X68090527Y-41563557D02*
X68176627Y-41572037D01*
X68289853Y-41606384D01*
X68346467Y-41623557D01*
X68390740Y-41647222D01*
X68502991Y-41707222D01*
X68538729Y-41736552D01*
X68640186Y-41819814D01*
X68703537Y-41897009D01*
X68752778Y-41957009D01*
X68752779Y-41957011D01*
X68836443Y-42113533D01*
X68836443Y-42113534D01*
X68887963Y-42283373D01*
X68905359Y-42460000D01*
X68887963Y-42636627D01*
X68854644Y-42746466D01*
X68836443Y-42806467D01*
X68784850Y-42902989D01*
X68752778Y-42962991D01*
X68723448Y-42998729D01*
X68640186Y-43100186D01*
X68538729Y-43183448D01*
X68502991Y-43212778D01*
X68502989Y-43212779D01*
X68346467Y-43296443D01*
X68331444Y-43301000D01*
X68176627Y-43347963D01*
X68110443Y-43354481D01*
X68044260Y-43361000D01*
X67955740Y-43361000D01*
X67889557Y-43354481D01*
X67823373Y-43347963D01*
X67668556Y-43301000D01*
X67653533Y-43296443D01*
X67497011Y-43212779D01*
X67497009Y-43212778D01*
X67461271Y-43183448D01*
X67359814Y-43100186D01*
X67276552Y-42998729D01*
X67247222Y-42962991D01*
X67215150Y-42902989D01*
X67163557Y-42806467D01*
X67145356Y-42746466D01*
X67112037Y-42636627D01*
X67094641Y-42460000D01*
X67112037Y-42283373D01*
X67163557Y-42113534D01*
X67163557Y-42113533D01*
X67247221Y-41957011D01*
X67247222Y-41957009D01*
X67296463Y-41897009D01*
X67359814Y-41819814D01*
X67461271Y-41736552D01*
X67497009Y-41707222D01*
X67609260Y-41647222D01*
X67653533Y-41623557D01*
X67710147Y-41606384D01*
X67823373Y-41572037D01*
X67909473Y-41563557D01*
X67955740Y-41559000D01*
X68044260Y-41559000D01*
X68090527Y-41563557D01*
X68090527Y-41563557D01*
G37*
G36*
X22110443Y-41505519D02*
X22176627Y-41512037D01*
X22289853Y-41546384D01*
X22346467Y-41563557D01*
X22433006Y-41609814D01*
X22502991Y-41647222D01*
X22538729Y-41676552D01*
X22640186Y-41759814D01*
X22723448Y-41861271D01*
X22752778Y-41897009D01*
X22752779Y-41897011D01*
X22836443Y-42053533D01*
X22836443Y-42053534D01*
X22887963Y-42223373D01*
X22905359Y-42400000D01*
X22887963Y-42576627D01*
X22869763Y-42636625D01*
X22836443Y-42746467D01*
X22821726Y-42774000D01*
X22752778Y-42902991D01*
X22723448Y-42938729D01*
X22640186Y-43040186D01*
X22538729Y-43123448D01*
X22502991Y-43152778D01*
X22502989Y-43152779D01*
X22346467Y-43236443D01*
X22289853Y-43253616D01*
X22176627Y-43287963D01*
X22110443Y-43294481D01*
X22044260Y-43301000D01*
X21955740Y-43301000D01*
X21889557Y-43294481D01*
X21823373Y-43287963D01*
X21710147Y-43253616D01*
X21653533Y-43236443D01*
X21497011Y-43152779D01*
X21497009Y-43152778D01*
X21461271Y-43123448D01*
X21359814Y-43040186D01*
X21276552Y-42938729D01*
X21247222Y-42902991D01*
X21178274Y-42774000D01*
X21163557Y-42746467D01*
X21130237Y-42636625D01*
X21112037Y-42576627D01*
X21094641Y-42400000D01*
X21112037Y-42223373D01*
X21163557Y-42053534D01*
X21163557Y-42053533D01*
X21247221Y-41897011D01*
X21247222Y-41897009D01*
X21276552Y-41861271D01*
X21359814Y-41759814D01*
X21461271Y-41676552D01*
X21497009Y-41647222D01*
X21566994Y-41609814D01*
X21653533Y-41563557D01*
X21710147Y-41546384D01*
X21823373Y-41512037D01*
X21889557Y-41505519D01*
X21955740Y-41499000D01*
X22044260Y-41499000D01*
X22110443Y-41505519D01*
X22110443Y-41505519D01*
G37*
G36*
X57180442Y-41355518D02*
X57246627Y-41362037D01*
X57359853Y-41396384D01*
X57416467Y-41413557D01*
X57555087Y-41487652D01*
X57572991Y-41497222D01*
X57575157Y-41499000D01*
X57710186Y-41609814D01*
X57790125Y-41707221D01*
X57822778Y-41747009D01*
X57822779Y-41747011D01*
X57906443Y-41903533D01*
X57906443Y-41903534D01*
X57957963Y-42073373D01*
X57975359Y-42250000D01*
X57957963Y-42426627D01*
X57947839Y-42460000D01*
X57906443Y-42596467D01*
X57832348Y-42735087D01*
X57822778Y-42752991D01*
X57805536Y-42774000D01*
X57710186Y-42890186D01*
X57608729Y-42973448D01*
X57572991Y-43002778D01*
X57572989Y-43002779D01*
X57416467Y-43086443D01*
X57359853Y-43103616D01*
X57246627Y-43137963D01*
X57180442Y-43144482D01*
X57114260Y-43151000D01*
X57025740Y-43151000D01*
X56959558Y-43144482D01*
X56893373Y-43137963D01*
X56780147Y-43103616D01*
X56723533Y-43086443D01*
X56567011Y-43002779D01*
X56567009Y-43002778D01*
X56531271Y-42973448D01*
X56429814Y-42890186D01*
X56334464Y-42774000D01*
X56317222Y-42752991D01*
X56307652Y-42735087D01*
X56233557Y-42596467D01*
X56192161Y-42460000D01*
X56182037Y-42426627D01*
X56164641Y-42250000D01*
X56182037Y-42073373D01*
X56233557Y-41903534D01*
X56233557Y-41903533D01*
X56317221Y-41747011D01*
X56317222Y-41747009D01*
X56349875Y-41707221D01*
X56429814Y-41609814D01*
X56564843Y-41499000D01*
X56567009Y-41497222D01*
X56584913Y-41487652D01*
X56723533Y-41413557D01*
X56780147Y-41396384D01*
X56893373Y-41362037D01*
X56959558Y-41355518D01*
X57025740Y-41349000D01*
X57114260Y-41349000D01*
X57180442Y-41355518D01*
X57180442Y-41355518D01*
G37*
G36*
X54640442Y-41355518D02*
X54706627Y-41362037D01*
X54819853Y-41396384D01*
X54876467Y-41413557D01*
X55015087Y-41487652D01*
X55032991Y-41497222D01*
X55035157Y-41499000D01*
X55170186Y-41609814D01*
X55250125Y-41707221D01*
X55282778Y-41747009D01*
X55282779Y-41747011D01*
X55366443Y-41903533D01*
X55366443Y-41903534D01*
X55417963Y-42073373D01*
X55435359Y-42250000D01*
X55417963Y-42426627D01*
X55407839Y-42460000D01*
X55366443Y-42596467D01*
X55292348Y-42735087D01*
X55282778Y-42752991D01*
X55265536Y-42774000D01*
X55170186Y-42890186D01*
X55068729Y-42973448D01*
X55032991Y-43002778D01*
X55032989Y-43002779D01*
X54876467Y-43086443D01*
X54819853Y-43103616D01*
X54706627Y-43137963D01*
X54640442Y-43144482D01*
X54574260Y-43151000D01*
X54485740Y-43151000D01*
X54419558Y-43144482D01*
X54353373Y-43137963D01*
X54240147Y-43103616D01*
X54183533Y-43086443D01*
X54027011Y-43002779D01*
X54027009Y-43002778D01*
X53991271Y-42973448D01*
X53889814Y-42890186D01*
X53794464Y-42774000D01*
X53777222Y-42752991D01*
X53767652Y-42735087D01*
X53693557Y-42596467D01*
X53652161Y-42460000D01*
X53642037Y-42426627D01*
X53624641Y-42250000D01*
X53642037Y-42073373D01*
X53693557Y-41903534D01*
X53693557Y-41903533D01*
X53777221Y-41747011D01*
X53777222Y-41747009D01*
X53809875Y-41707221D01*
X53889814Y-41609814D01*
X54024843Y-41499000D01*
X54027009Y-41497222D01*
X54044913Y-41487652D01*
X54183533Y-41413557D01*
X54240147Y-41396384D01*
X54353373Y-41362037D01*
X54419558Y-41355518D01*
X54485740Y-41349000D01*
X54574260Y-41349000D01*
X54640442Y-41355518D01*
X54640442Y-41355518D01*
G37*
G36*
X52100442Y-41355518D02*
X52166627Y-41362037D01*
X52279853Y-41396384D01*
X52336467Y-41413557D01*
X52475087Y-41487652D01*
X52492991Y-41497222D01*
X52495157Y-41499000D01*
X52630186Y-41609814D01*
X52710125Y-41707221D01*
X52742778Y-41747009D01*
X52742779Y-41747011D01*
X52826443Y-41903533D01*
X52826443Y-41903534D01*
X52877963Y-42073373D01*
X52895359Y-42250000D01*
X52877963Y-42426627D01*
X52867839Y-42460000D01*
X52826443Y-42596467D01*
X52752348Y-42735087D01*
X52742778Y-42752991D01*
X52725536Y-42774000D01*
X52630186Y-42890186D01*
X52528729Y-42973448D01*
X52492991Y-43002778D01*
X52492989Y-43002779D01*
X52336467Y-43086443D01*
X52279853Y-43103616D01*
X52166627Y-43137963D01*
X52100442Y-43144482D01*
X52034260Y-43151000D01*
X51945740Y-43151000D01*
X51879558Y-43144482D01*
X51813373Y-43137963D01*
X51700147Y-43103616D01*
X51643533Y-43086443D01*
X51487011Y-43002779D01*
X51487009Y-43002778D01*
X51451271Y-42973448D01*
X51349814Y-42890186D01*
X51254464Y-42774000D01*
X51237222Y-42752991D01*
X51227652Y-42735087D01*
X51153557Y-42596467D01*
X51112161Y-42460000D01*
X51102037Y-42426627D01*
X51084641Y-42250000D01*
X51102037Y-42073373D01*
X51153557Y-41903534D01*
X51153557Y-41903533D01*
X51237221Y-41747011D01*
X51237222Y-41747009D01*
X51269875Y-41707221D01*
X51349814Y-41609814D01*
X51484843Y-41499000D01*
X51487009Y-41497222D01*
X51504913Y-41487652D01*
X51643533Y-41413557D01*
X51700147Y-41396384D01*
X51813373Y-41362037D01*
X51879558Y-41355518D01*
X51945740Y-41349000D01*
X52034260Y-41349000D01*
X52100442Y-41355518D01*
X52100442Y-41355518D01*
G37*
G36*
X50351000Y-43151000D02*
X48549000Y-43151000D01*
X48549000Y-41349000D01*
X50351000Y-41349000D01*
X50351000Y-43151000D01*
X50351000Y-43151000D01*
G37*
G36*
X59720442Y-41355518D02*
X59786627Y-41362037D01*
X59899853Y-41396384D01*
X59956467Y-41413557D01*
X60095087Y-41487652D01*
X60112991Y-41497222D01*
X60115157Y-41499000D01*
X60250186Y-41609814D01*
X60330125Y-41707221D01*
X60362778Y-41747009D01*
X60362779Y-41747011D01*
X60446443Y-41903533D01*
X60446443Y-41903534D01*
X60497963Y-42073373D01*
X60515359Y-42250000D01*
X60497963Y-42426627D01*
X60487839Y-42460000D01*
X60446443Y-42596467D01*
X60372348Y-42735087D01*
X60362778Y-42752991D01*
X60345536Y-42774000D01*
X60250186Y-42890186D01*
X60148729Y-42973448D01*
X60112991Y-43002778D01*
X60112989Y-43002779D01*
X59956467Y-43086443D01*
X59899853Y-43103616D01*
X59786627Y-43137963D01*
X59720442Y-43144482D01*
X59654260Y-43151000D01*
X59565740Y-43151000D01*
X59499558Y-43144482D01*
X59433373Y-43137963D01*
X59320147Y-43103616D01*
X59263533Y-43086443D01*
X59107011Y-43002779D01*
X59107009Y-43002778D01*
X59071271Y-42973448D01*
X58969814Y-42890186D01*
X58874464Y-42774000D01*
X58857222Y-42752991D01*
X58847652Y-42735087D01*
X58773557Y-42596467D01*
X58732161Y-42460000D01*
X58722037Y-42426627D01*
X58704641Y-42250000D01*
X58722037Y-42073373D01*
X58773557Y-41903534D01*
X58773557Y-41903533D01*
X58857221Y-41747011D01*
X58857222Y-41747009D01*
X58889875Y-41707221D01*
X58969814Y-41609814D01*
X59104843Y-41499000D01*
X59107009Y-41497222D01*
X59124913Y-41487652D01*
X59263533Y-41413557D01*
X59320147Y-41396384D01*
X59433373Y-41362037D01*
X59499558Y-41355518D01*
X59565740Y-41349000D01*
X59654260Y-41349000D01*
X59720442Y-41355518D01*
X59720442Y-41355518D01*
G37*
G36*
X62260442Y-41355518D02*
X62326627Y-41362037D01*
X62439853Y-41396384D01*
X62496467Y-41413557D01*
X62635087Y-41487652D01*
X62652991Y-41497222D01*
X62655157Y-41499000D01*
X62790186Y-41609814D01*
X62870125Y-41707221D01*
X62902778Y-41747009D01*
X62902779Y-41747011D01*
X62986443Y-41903533D01*
X62986443Y-41903534D01*
X63037963Y-42073373D01*
X63055359Y-42250000D01*
X63037963Y-42426627D01*
X63027839Y-42460000D01*
X62986443Y-42596467D01*
X62912348Y-42735087D01*
X62902778Y-42752991D01*
X62885536Y-42774000D01*
X62790186Y-42890186D01*
X62688729Y-42973448D01*
X62652991Y-43002778D01*
X62652989Y-43002779D01*
X62496467Y-43086443D01*
X62439853Y-43103616D01*
X62326627Y-43137963D01*
X62260442Y-43144482D01*
X62194260Y-43151000D01*
X62105740Y-43151000D01*
X62039558Y-43144482D01*
X61973373Y-43137963D01*
X61860147Y-43103616D01*
X61803533Y-43086443D01*
X61647011Y-43002779D01*
X61647009Y-43002778D01*
X61611271Y-42973448D01*
X61509814Y-42890186D01*
X61414464Y-42774000D01*
X61397222Y-42752991D01*
X61387652Y-42735087D01*
X61313557Y-42596467D01*
X61272161Y-42460000D01*
X61262037Y-42426627D01*
X61244641Y-42250000D01*
X61262037Y-42073373D01*
X61313557Y-41903534D01*
X61313557Y-41903533D01*
X61397221Y-41747011D01*
X61397222Y-41747009D01*
X61429875Y-41707221D01*
X61509814Y-41609814D01*
X61644843Y-41499000D01*
X61647009Y-41497222D01*
X61664913Y-41487652D01*
X61803533Y-41413557D01*
X61860147Y-41396384D01*
X61973373Y-41362037D01*
X62039558Y-41355518D01*
X62105740Y-41349000D01*
X62194260Y-41349000D01*
X62260442Y-41355518D01*
X62260442Y-41355518D01*
G37*
G36*
X30530297Y-42260920D02*
X29828297Y-42260920D01*
X29828297Y-40658920D01*
X30530297Y-40658920D01*
X30530297Y-42260920D01*
X30530297Y-42260920D01*
G37*
G36*
X29260297Y-42260920D02*
X28558297Y-42260920D01*
X28558297Y-40658920D01*
X29260297Y-40658920D01*
X29260297Y-42260920D01*
X29260297Y-42260920D01*
G37*
G36*
X31800297Y-42260920D02*
X31098297Y-42260920D01*
X31098297Y-40658920D01*
X31800297Y-40658920D01*
X31800297Y-42260920D01*
X31800297Y-42260920D01*
G37*
G36*
X33070297Y-42260920D02*
X32368297Y-42260920D01*
X32368297Y-40658920D01*
X33070297Y-40658920D01*
X33070297Y-42260920D01*
X33070297Y-42260920D01*
G37*
G36*
X34340297Y-42260920D02*
X33638297Y-42260920D01*
X33638297Y-40658920D01*
X34340297Y-40658920D01*
X34340297Y-42260920D01*
X34340297Y-42260920D01*
G37*
G36*
X35610297Y-42260920D02*
X34908297Y-42260920D01*
X34908297Y-40658920D01*
X35610297Y-40658920D01*
X35610297Y-42260920D01*
X35610297Y-42260920D01*
G37*
G36*
X36880297Y-42260920D02*
X36178297Y-42260920D01*
X36178297Y-40658920D01*
X36880297Y-40658920D01*
X36880297Y-42260920D01*
X36880297Y-42260920D01*
G37*
G36*
X38150297Y-42260920D02*
X37448297Y-42260920D01*
X37448297Y-40658920D01*
X38150297Y-40658920D01*
X38150297Y-42260920D01*
X38150297Y-42260920D01*
G37*
G36*
X68090527Y-39023557D02*
X68176627Y-39032037D01*
X68289853Y-39066384D01*
X68346467Y-39083557D01*
X68390740Y-39107222D01*
X68502991Y-39167222D01*
X68538729Y-39196552D01*
X68640186Y-39279814D01*
X68703537Y-39357009D01*
X68752778Y-39417009D01*
X68752779Y-39417011D01*
X68836443Y-39573533D01*
X68836443Y-39573534D01*
X68887963Y-39743373D01*
X68905359Y-39920000D01*
X68887963Y-40096627D01*
X68854644Y-40206466D01*
X68836443Y-40266467D01*
X68784850Y-40362989D01*
X68752778Y-40422991D01*
X68723448Y-40458729D01*
X68640186Y-40560186D01*
X68538729Y-40643448D01*
X68502991Y-40672778D01*
X68502989Y-40672779D01*
X68346467Y-40756443D01*
X68331444Y-40761000D01*
X68176627Y-40807963D01*
X68110443Y-40814481D01*
X68044260Y-40821000D01*
X67955740Y-40821000D01*
X67889557Y-40814481D01*
X67823373Y-40807963D01*
X67668556Y-40761000D01*
X67653533Y-40756443D01*
X67497011Y-40672779D01*
X67497009Y-40672778D01*
X67461271Y-40643448D01*
X67359814Y-40560186D01*
X67276552Y-40458729D01*
X67247222Y-40422991D01*
X67215150Y-40362989D01*
X67163557Y-40266467D01*
X67145356Y-40206466D01*
X67112037Y-40096627D01*
X67094641Y-39920000D01*
X67112037Y-39743373D01*
X67163557Y-39573534D01*
X67163557Y-39573533D01*
X67247221Y-39417011D01*
X67247222Y-39417009D01*
X67296463Y-39357009D01*
X67359814Y-39279814D01*
X67461271Y-39196552D01*
X67497009Y-39167222D01*
X67609260Y-39107222D01*
X67653533Y-39083557D01*
X67710147Y-39066384D01*
X67823373Y-39032037D01*
X67909473Y-39023557D01*
X67955740Y-39019000D01*
X68044260Y-39019000D01*
X68090527Y-39023557D01*
X68090527Y-39023557D01*
G37*
G36*
X22110443Y-38965519D02*
X22176627Y-38972037D01*
X22278662Y-39002989D01*
X22346467Y-39023557D01*
X22378950Y-39040920D01*
X22502991Y-39107222D01*
X22538729Y-39136552D01*
X22640186Y-39219814D01*
X22723448Y-39321271D01*
X22752778Y-39357009D01*
X22752779Y-39357011D01*
X22836443Y-39513533D01*
X22836443Y-39513534D01*
X22887963Y-39683373D01*
X22905359Y-39860000D01*
X22887963Y-40036627D01*
X22869763Y-40096625D01*
X22836443Y-40206467D01*
X22804372Y-40266466D01*
X22752778Y-40362991D01*
X22723448Y-40398729D01*
X22640186Y-40500186D01*
X22538729Y-40583448D01*
X22502991Y-40612778D01*
X22502989Y-40612779D01*
X22346467Y-40696443D01*
X22289853Y-40713616D01*
X22176627Y-40747963D01*
X22110443Y-40754481D01*
X22044260Y-40761000D01*
X21955740Y-40761000D01*
X21889557Y-40754481D01*
X21823373Y-40747963D01*
X21710147Y-40713616D01*
X21653533Y-40696443D01*
X21497011Y-40612779D01*
X21497009Y-40612778D01*
X21461271Y-40583448D01*
X21359814Y-40500186D01*
X21276552Y-40398729D01*
X21247222Y-40362991D01*
X21195628Y-40266466D01*
X21163557Y-40206467D01*
X21130237Y-40096625D01*
X21112037Y-40036627D01*
X21094641Y-39860000D01*
X21112037Y-39683373D01*
X21163557Y-39513534D01*
X21163557Y-39513533D01*
X21247221Y-39357011D01*
X21247222Y-39357009D01*
X21276552Y-39321271D01*
X21359814Y-39219814D01*
X21461271Y-39136552D01*
X21497009Y-39107222D01*
X21621050Y-39040920D01*
X21653533Y-39023557D01*
X21721338Y-39002989D01*
X21823373Y-38972037D01*
X21889557Y-38965519D01*
X21955740Y-38959000D01*
X22044260Y-38959000D01*
X22110443Y-38965519D01*
X22110443Y-38965519D01*
G37*
G36*
X59750443Y-37605519D02*
X59816627Y-37612037D01*
X59929853Y-37646384D01*
X59986467Y-37663557D01*
X60125087Y-37737652D01*
X60142991Y-37747222D01*
X60171867Y-37770920D01*
X60280186Y-37859814D01*
X60362557Y-37960185D01*
X60392778Y-37997009D01*
X60392779Y-37997011D01*
X60476443Y-38153533D01*
X60492954Y-38207963D01*
X60527963Y-38323373D01*
X60545359Y-38500000D01*
X60527963Y-38676627D01*
X60493616Y-38789853D01*
X60476443Y-38846467D01*
X60416292Y-38959000D01*
X60392778Y-39002991D01*
X60375900Y-39023557D01*
X60280186Y-39140186D01*
X60183156Y-39219815D01*
X60142991Y-39252778D01*
X60142989Y-39252779D01*
X59986467Y-39336443D01*
X59929853Y-39353616D01*
X59816627Y-39387963D01*
X59750443Y-39394481D01*
X59684260Y-39401000D01*
X59595740Y-39401000D01*
X59529557Y-39394481D01*
X59463373Y-39387963D01*
X59350147Y-39353616D01*
X59293533Y-39336443D01*
X59137011Y-39252779D01*
X59137009Y-39252778D01*
X59096844Y-39219815D01*
X58999814Y-39140186D01*
X58904100Y-39023557D01*
X58887222Y-39002991D01*
X58863708Y-38959000D01*
X58803557Y-38846467D01*
X58786384Y-38789853D01*
X58752037Y-38676627D01*
X58734641Y-38500000D01*
X58752037Y-38323373D01*
X58787046Y-38207963D01*
X58803557Y-38153533D01*
X58887221Y-37997011D01*
X58887222Y-37997009D01*
X58917443Y-37960185D01*
X58999814Y-37859814D01*
X59108133Y-37770920D01*
X59137009Y-37747222D01*
X59154913Y-37737652D01*
X59293533Y-37663557D01*
X59350147Y-37646384D01*
X59463373Y-37612037D01*
X59529557Y-37605519D01*
X59595740Y-37599000D01*
X59684260Y-37599000D01*
X59750443Y-37605519D01*
X59750443Y-37605519D01*
G37*
G36*
X57210443Y-37605519D02*
X57276627Y-37612037D01*
X57389853Y-37646384D01*
X57446467Y-37663557D01*
X57585087Y-37737652D01*
X57602991Y-37747222D01*
X57631867Y-37770920D01*
X57740186Y-37859814D01*
X57822557Y-37960185D01*
X57852778Y-37997009D01*
X57852779Y-37997011D01*
X57936443Y-38153533D01*
X57952954Y-38207963D01*
X57987963Y-38323373D01*
X58005359Y-38500000D01*
X57987963Y-38676627D01*
X57953616Y-38789853D01*
X57936443Y-38846467D01*
X57876292Y-38959000D01*
X57852778Y-39002991D01*
X57835900Y-39023557D01*
X57740186Y-39140186D01*
X57643156Y-39219815D01*
X57602991Y-39252778D01*
X57602989Y-39252779D01*
X57446467Y-39336443D01*
X57389853Y-39353616D01*
X57276627Y-39387963D01*
X57210443Y-39394481D01*
X57144260Y-39401000D01*
X57055740Y-39401000D01*
X56989557Y-39394481D01*
X56923373Y-39387963D01*
X56810147Y-39353616D01*
X56753533Y-39336443D01*
X56597011Y-39252779D01*
X56597009Y-39252778D01*
X56556844Y-39219815D01*
X56459814Y-39140186D01*
X56364100Y-39023557D01*
X56347222Y-39002991D01*
X56323708Y-38959000D01*
X56263557Y-38846467D01*
X56246384Y-38789853D01*
X56212037Y-38676627D01*
X56194641Y-38500000D01*
X56212037Y-38323373D01*
X56247046Y-38207963D01*
X56263557Y-38153533D01*
X56347221Y-37997011D01*
X56347222Y-37997009D01*
X56377443Y-37960185D01*
X56459814Y-37859814D01*
X56568133Y-37770920D01*
X56597009Y-37747222D01*
X56614913Y-37737652D01*
X56753533Y-37663557D01*
X56810147Y-37646384D01*
X56923373Y-37612037D01*
X56989557Y-37605519D01*
X57055740Y-37599000D01*
X57144260Y-37599000D01*
X57210443Y-37605519D01*
X57210443Y-37605519D01*
G37*
G36*
X54670443Y-37605519D02*
X54736627Y-37612037D01*
X54849853Y-37646384D01*
X54906467Y-37663557D01*
X55045087Y-37737652D01*
X55062991Y-37747222D01*
X55091867Y-37770920D01*
X55200186Y-37859814D01*
X55282557Y-37960185D01*
X55312778Y-37997009D01*
X55312779Y-37997011D01*
X55396443Y-38153533D01*
X55412954Y-38207963D01*
X55447963Y-38323373D01*
X55465359Y-38500000D01*
X55447963Y-38676627D01*
X55413616Y-38789853D01*
X55396443Y-38846467D01*
X55336292Y-38959000D01*
X55312778Y-39002991D01*
X55295900Y-39023557D01*
X55200186Y-39140186D01*
X55103156Y-39219815D01*
X55062991Y-39252778D01*
X55062989Y-39252779D01*
X54906467Y-39336443D01*
X54849853Y-39353616D01*
X54736627Y-39387963D01*
X54670443Y-39394481D01*
X54604260Y-39401000D01*
X54515740Y-39401000D01*
X54449557Y-39394481D01*
X54383373Y-39387963D01*
X54270147Y-39353616D01*
X54213533Y-39336443D01*
X54057011Y-39252779D01*
X54057009Y-39252778D01*
X54016844Y-39219815D01*
X53919814Y-39140186D01*
X53824100Y-39023557D01*
X53807222Y-39002991D01*
X53783708Y-38959000D01*
X53723557Y-38846467D01*
X53706384Y-38789853D01*
X53672037Y-38676627D01*
X53654641Y-38500000D01*
X53672037Y-38323373D01*
X53707046Y-38207963D01*
X53723557Y-38153533D01*
X53807221Y-37997011D01*
X53807222Y-37997009D01*
X53837443Y-37960185D01*
X53919814Y-37859814D01*
X54028133Y-37770920D01*
X54057009Y-37747222D01*
X54074913Y-37737652D01*
X54213533Y-37663557D01*
X54270147Y-37646384D01*
X54383373Y-37612037D01*
X54449557Y-37605519D01*
X54515740Y-37599000D01*
X54604260Y-37599000D01*
X54670443Y-37605519D01*
X54670443Y-37605519D01*
G37*
G36*
X52130443Y-37605519D02*
X52196627Y-37612037D01*
X52309853Y-37646384D01*
X52366467Y-37663557D01*
X52505087Y-37737652D01*
X52522991Y-37747222D01*
X52551867Y-37770920D01*
X52660186Y-37859814D01*
X52742557Y-37960185D01*
X52772778Y-37997009D01*
X52772779Y-37997011D01*
X52856443Y-38153533D01*
X52872954Y-38207963D01*
X52907963Y-38323373D01*
X52925359Y-38500000D01*
X52907963Y-38676627D01*
X52873616Y-38789853D01*
X52856443Y-38846467D01*
X52796292Y-38959000D01*
X52772778Y-39002991D01*
X52755900Y-39023557D01*
X52660186Y-39140186D01*
X52563156Y-39219815D01*
X52522991Y-39252778D01*
X52522989Y-39252779D01*
X52366467Y-39336443D01*
X52309853Y-39353616D01*
X52196627Y-39387963D01*
X52130443Y-39394481D01*
X52064260Y-39401000D01*
X51975740Y-39401000D01*
X51909557Y-39394481D01*
X51843373Y-39387963D01*
X51730147Y-39353616D01*
X51673533Y-39336443D01*
X51517011Y-39252779D01*
X51517009Y-39252778D01*
X51476844Y-39219815D01*
X51379814Y-39140186D01*
X51284100Y-39023557D01*
X51267222Y-39002991D01*
X51243708Y-38959000D01*
X51183557Y-38846467D01*
X51166384Y-38789853D01*
X51132037Y-38676627D01*
X51114641Y-38500000D01*
X51132037Y-38323373D01*
X51167046Y-38207963D01*
X51183557Y-38153533D01*
X51267221Y-37997011D01*
X51267222Y-37997009D01*
X51297443Y-37960185D01*
X51379814Y-37859814D01*
X51488133Y-37770920D01*
X51517009Y-37747222D01*
X51534913Y-37737652D01*
X51673533Y-37663557D01*
X51730147Y-37646384D01*
X51843373Y-37612037D01*
X51909557Y-37605519D01*
X51975740Y-37599000D01*
X52064260Y-37599000D01*
X52130443Y-37605519D01*
X52130443Y-37605519D01*
G37*
G36*
X49590443Y-37605519D02*
X49656627Y-37612037D01*
X49769853Y-37646384D01*
X49826467Y-37663557D01*
X49965087Y-37737652D01*
X49982991Y-37747222D01*
X50011867Y-37770920D01*
X50120186Y-37859814D01*
X50202557Y-37960185D01*
X50232778Y-37997009D01*
X50232779Y-37997011D01*
X50316443Y-38153533D01*
X50332954Y-38207963D01*
X50367963Y-38323373D01*
X50385359Y-38500000D01*
X50367963Y-38676627D01*
X50333616Y-38789853D01*
X50316443Y-38846467D01*
X50256292Y-38959000D01*
X50232778Y-39002991D01*
X50215900Y-39023557D01*
X50120186Y-39140186D01*
X50023156Y-39219815D01*
X49982991Y-39252778D01*
X49982989Y-39252779D01*
X49826467Y-39336443D01*
X49769853Y-39353616D01*
X49656627Y-39387963D01*
X49590443Y-39394481D01*
X49524260Y-39401000D01*
X49435740Y-39401000D01*
X49369557Y-39394481D01*
X49303373Y-39387963D01*
X49190147Y-39353616D01*
X49133533Y-39336443D01*
X48977011Y-39252779D01*
X48977009Y-39252778D01*
X48936844Y-39219815D01*
X48839814Y-39140186D01*
X48744100Y-39023557D01*
X48727222Y-39002991D01*
X48703708Y-38959000D01*
X48643557Y-38846467D01*
X48626384Y-38789853D01*
X48592037Y-38676627D01*
X48574641Y-38500000D01*
X48592037Y-38323373D01*
X48627046Y-38207963D01*
X48643557Y-38153533D01*
X48727221Y-37997011D01*
X48727222Y-37997009D01*
X48757443Y-37960185D01*
X48839814Y-37859814D01*
X48948133Y-37770920D01*
X48977009Y-37747222D01*
X48994913Y-37737652D01*
X49133533Y-37663557D01*
X49190147Y-37646384D01*
X49303373Y-37612037D01*
X49369557Y-37605519D01*
X49435740Y-37599000D01*
X49524260Y-37599000D01*
X49590443Y-37605519D01*
X49590443Y-37605519D01*
G37*
G36*
X47050443Y-37605519D02*
X47116627Y-37612037D01*
X47229853Y-37646384D01*
X47286467Y-37663557D01*
X47425087Y-37737652D01*
X47442991Y-37747222D01*
X47471867Y-37770920D01*
X47580186Y-37859814D01*
X47662557Y-37960185D01*
X47692778Y-37997009D01*
X47692779Y-37997011D01*
X47776443Y-38153533D01*
X47792954Y-38207963D01*
X47827963Y-38323373D01*
X47845359Y-38500000D01*
X47827963Y-38676627D01*
X47793616Y-38789853D01*
X47776443Y-38846467D01*
X47716292Y-38959000D01*
X47692778Y-39002991D01*
X47675900Y-39023557D01*
X47580186Y-39140186D01*
X47483156Y-39219815D01*
X47442991Y-39252778D01*
X47442989Y-39252779D01*
X47286467Y-39336443D01*
X47229853Y-39353616D01*
X47116627Y-39387963D01*
X47050443Y-39394481D01*
X46984260Y-39401000D01*
X46895740Y-39401000D01*
X46829557Y-39394481D01*
X46763373Y-39387963D01*
X46650147Y-39353616D01*
X46593533Y-39336443D01*
X46437011Y-39252779D01*
X46437009Y-39252778D01*
X46396844Y-39219815D01*
X46299814Y-39140186D01*
X46204100Y-39023557D01*
X46187222Y-39002991D01*
X46163708Y-38959000D01*
X46103557Y-38846467D01*
X46086384Y-38789853D01*
X46052037Y-38676627D01*
X46034641Y-38500000D01*
X46052037Y-38323373D01*
X46087046Y-38207963D01*
X46103557Y-38153533D01*
X46187221Y-37997011D01*
X46187222Y-37997009D01*
X46217443Y-37960185D01*
X46299814Y-37859814D01*
X46408133Y-37770920D01*
X46437009Y-37747222D01*
X46454913Y-37737652D01*
X46593533Y-37663557D01*
X46650147Y-37646384D01*
X46763373Y-37612037D01*
X46829557Y-37605519D01*
X46895740Y-37599000D01*
X46984260Y-37599000D01*
X47050443Y-37605519D01*
X47050443Y-37605519D01*
G37*
G36*
X45301000Y-39401000D02*
X43499000Y-39401000D01*
X43499000Y-37599000D01*
X45301000Y-37599000D01*
X45301000Y-39401000D01*
X45301000Y-39401000D01*
G37*
G36*
X62290443Y-37605519D02*
X62356627Y-37612037D01*
X62469853Y-37646384D01*
X62526467Y-37663557D01*
X62665087Y-37737652D01*
X62682991Y-37747222D01*
X62711867Y-37770920D01*
X62820186Y-37859814D01*
X62902557Y-37960185D01*
X62932778Y-37997009D01*
X62932779Y-37997011D01*
X63016443Y-38153533D01*
X63032954Y-38207963D01*
X63067963Y-38323373D01*
X63085359Y-38500000D01*
X63067963Y-38676627D01*
X63033616Y-38789853D01*
X63016443Y-38846467D01*
X62956292Y-38959000D01*
X62932778Y-39002991D01*
X62915900Y-39023557D01*
X62820186Y-39140186D01*
X62723156Y-39219815D01*
X62682991Y-39252778D01*
X62682989Y-39252779D01*
X62526467Y-39336443D01*
X62469853Y-39353616D01*
X62356627Y-39387963D01*
X62290443Y-39394481D01*
X62224260Y-39401000D01*
X62135740Y-39401000D01*
X62069557Y-39394481D01*
X62003373Y-39387963D01*
X61890147Y-39353616D01*
X61833533Y-39336443D01*
X61677011Y-39252779D01*
X61677009Y-39252778D01*
X61636844Y-39219815D01*
X61539814Y-39140186D01*
X61444100Y-39023557D01*
X61427222Y-39002991D01*
X61403708Y-38959000D01*
X61343557Y-38846467D01*
X61326384Y-38789853D01*
X61292037Y-38676627D01*
X61274641Y-38500000D01*
X61292037Y-38323373D01*
X61327046Y-38207963D01*
X61343557Y-38153533D01*
X61427221Y-37997011D01*
X61427222Y-37997009D01*
X61457443Y-37960185D01*
X61539814Y-37859814D01*
X61648133Y-37770920D01*
X61677009Y-37747222D01*
X61694913Y-37737652D01*
X61833533Y-37663557D01*
X61890147Y-37646384D01*
X62003373Y-37612037D01*
X62069557Y-37605519D01*
X62135740Y-37599000D01*
X62224260Y-37599000D01*
X62290443Y-37605519D01*
X62290443Y-37605519D01*
G37*
G36*
X37980297Y-39040920D02*
X36128297Y-39040920D01*
X36128297Y-38388920D01*
X37980297Y-38388920D01*
X37980297Y-39040920D01*
X37980297Y-39040920D01*
G37*
G36*
X30580297Y-39040920D02*
X28728297Y-39040920D01*
X28728297Y-38388920D01*
X30580297Y-38388920D01*
X30580297Y-39040920D01*
X30580297Y-39040920D01*
G37*
G36*
X68090527Y-36483557D02*
X68176627Y-36492037D01*
X68289853Y-36526384D01*
X68346467Y-36543557D01*
X68390740Y-36567222D01*
X68502991Y-36627222D01*
X68538729Y-36656552D01*
X68640186Y-36739814D01*
X68703537Y-36817009D01*
X68752778Y-36877009D01*
X68752779Y-36877011D01*
X68836443Y-37033533D01*
X68836443Y-37033534D01*
X68887963Y-37203373D01*
X68905359Y-37380000D01*
X68887963Y-37556627D01*
X68855526Y-37663557D01*
X68836443Y-37726467D01*
X68825349Y-37747222D01*
X68752778Y-37882991D01*
X68723448Y-37918729D01*
X68640186Y-38020186D01*
X68538729Y-38103448D01*
X68502991Y-38132778D01*
X68502989Y-38132779D01*
X68346467Y-38216443D01*
X68331444Y-38221000D01*
X68176627Y-38267963D01*
X68110443Y-38274481D01*
X68044260Y-38281000D01*
X67955740Y-38281000D01*
X67889557Y-38274481D01*
X67823373Y-38267963D01*
X67668556Y-38221000D01*
X67653533Y-38216443D01*
X67497011Y-38132779D01*
X67497009Y-38132778D01*
X67461271Y-38103448D01*
X67359814Y-38020186D01*
X67276552Y-37918729D01*
X67247222Y-37882991D01*
X67174651Y-37747222D01*
X67163557Y-37726467D01*
X67144474Y-37663557D01*
X67112037Y-37556627D01*
X67094641Y-37380000D01*
X67112037Y-37203373D01*
X67163557Y-37033534D01*
X67163557Y-37033533D01*
X67247221Y-36877011D01*
X67247222Y-36877009D01*
X67296463Y-36817009D01*
X67359814Y-36739814D01*
X67461271Y-36656552D01*
X67497009Y-36627222D01*
X67609260Y-36567222D01*
X67653533Y-36543557D01*
X67710147Y-36526384D01*
X67823373Y-36492037D01*
X67909473Y-36483557D01*
X67955740Y-36479000D01*
X68044260Y-36479000D01*
X68090527Y-36483557D01*
X68090527Y-36483557D01*
G37*
G36*
X22110443Y-36425519D02*
X22176627Y-36432037D01*
X22289853Y-36466384D01*
X22346467Y-36483557D01*
X22378950Y-36500920D01*
X22502991Y-36567222D01*
X22538729Y-36596552D01*
X22640186Y-36679814D01*
X22723448Y-36781271D01*
X22752778Y-36817009D01*
X22752779Y-36817011D01*
X22836443Y-36973533D01*
X22836443Y-36973534D01*
X22887963Y-37143373D01*
X22905359Y-37320000D01*
X22887963Y-37496627D01*
X22853616Y-37609853D01*
X22836443Y-37666467D01*
X22804372Y-37726466D01*
X22752778Y-37822991D01*
X22723448Y-37858729D01*
X22640186Y-37960186D01*
X22538729Y-38043448D01*
X22502991Y-38072778D01*
X22502989Y-38072779D01*
X22346467Y-38156443D01*
X22289853Y-38173616D01*
X22176627Y-38207963D01*
X22110443Y-38214481D01*
X22044260Y-38221000D01*
X21955740Y-38221000D01*
X21889557Y-38214481D01*
X21823373Y-38207963D01*
X21710147Y-38173616D01*
X21653533Y-38156443D01*
X21497011Y-38072779D01*
X21497009Y-38072778D01*
X21461271Y-38043448D01*
X21359814Y-37960186D01*
X21276552Y-37858729D01*
X21247222Y-37822991D01*
X21195628Y-37726466D01*
X21163557Y-37666467D01*
X21146384Y-37609853D01*
X21112037Y-37496627D01*
X21094641Y-37320000D01*
X21112037Y-37143373D01*
X21163557Y-36973534D01*
X21163557Y-36973533D01*
X21247221Y-36817011D01*
X21247222Y-36817009D01*
X21276552Y-36781271D01*
X21359814Y-36679814D01*
X21461271Y-36596552D01*
X21497009Y-36567222D01*
X21621050Y-36500920D01*
X21653533Y-36483557D01*
X21710147Y-36466384D01*
X21823373Y-36432037D01*
X21889557Y-36425519D01*
X21955740Y-36419000D01*
X22044260Y-36419000D01*
X22110443Y-36425519D01*
X22110443Y-36425519D01*
G37*
G36*
X37980297Y-37770920D02*
X36128297Y-37770920D01*
X36128297Y-37118920D01*
X37980297Y-37118920D01*
X37980297Y-37770920D01*
X37980297Y-37770920D01*
G37*
G36*
X30580297Y-37770920D02*
X28728297Y-37770920D01*
X28728297Y-37118920D01*
X30580297Y-37118920D01*
X30580297Y-37770920D01*
X30580297Y-37770920D01*
G37*
G36*
X37980297Y-36500920D02*
X36128297Y-36500920D01*
X36128297Y-35848920D01*
X37980297Y-35848920D01*
X37980297Y-36500920D01*
X37980297Y-36500920D01*
G37*
G36*
X30580297Y-36500920D02*
X28728297Y-36500920D01*
X28728297Y-35848920D01*
X30580297Y-35848920D01*
X30580297Y-36500920D01*
X30580297Y-36500920D01*
G37*
G36*
X48151000Y-35851000D02*
X45949000Y-35851000D01*
X45949000Y-33949000D01*
X48151000Y-33949000D01*
X48151000Y-35851000D01*
X48151000Y-35851000D01*
G37*
G36*
X51051000Y-35851000D02*
X48849000Y-35851000D01*
X48849000Y-33949000D01*
X51051000Y-33949000D01*
X51051000Y-35851000D01*
X51051000Y-35851000D01*
G37*
G36*
X68090527Y-33943557D02*
X68176627Y-33952037D01*
X68289853Y-33986384D01*
X68346467Y-34003557D01*
X68390740Y-34027222D01*
X68502991Y-34087222D01*
X68538729Y-34116552D01*
X68640186Y-34199814D01*
X68703537Y-34277009D01*
X68752778Y-34337009D01*
X68752779Y-34337011D01*
X68836443Y-34493533D01*
X68836443Y-34493534D01*
X68887963Y-34663373D01*
X68905359Y-34840000D01*
X68887963Y-35016627D01*
X68854644Y-35126466D01*
X68836443Y-35186467D01*
X68812682Y-35230920D01*
X68752778Y-35342991D01*
X68723448Y-35378729D01*
X68640186Y-35480186D01*
X68538729Y-35563448D01*
X68502991Y-35592778D01*
X68502989Y-35592779D01*
X68346467Y-35676443D01*
X68331444Y-35681000D01*
X68176627Y-35727963D01*
X68110443Y-35734481D01*
X68044260Y-35741000D01*
X67955740Y-35741000D01*
X67889557Y-35734481D01*
X67823373Y-35727963D01*
X67668556Y-35681000D01*
X67653533Y-35676443D01*
X67497011Y-35592779D01*
X67497009Y-35592778D01*
X67461271Y-35563448D01*
X67359814Y-35480186D01*
X67276552Y-35378729D01*
X67247222Y-35342991D01*
X67187318Y-35230920D01*
X67163557Y-35186467D01*
X67145356Y-35126466D01*
X67112037Y-35016627D01*
X67094641Y-34840000D01*
X67112037Y-34663373D01*
X67163557Y-34493534D01*
X67163557Y-34493533D01*
X67247221Y-34337011D01*
X67247222Y-34337009D01*
X67296463Y-34277009D01*
X67359814Y-34199814D01*
X67461271Y-34116552D01*
X67497009Y-34087222D01*
X67609260Y-34027222D01*
X67653533Y-34003557D01*
X67710147Y-33986384D01*
X67823373Y-33952037D01*
X67909473Y-33943557D01*
X67955740Y-33939000D01*
X68044260Y-33939000D01*
X68090527Y-33943557D01*
X68090527Y-33943557D01*
G37*
G36*
X22110442Y-33885518D02*
X22176627Y-33892037D01*
X22289853Y-33926384D01*
X22346467Y-33943557D01*
X22458717Y-34003557D01*
X22502991Y-34027222D01*
X22538729Y-34056552D01*
X22640186Y-34139814D01*
X22723448Y-34241271D01*
X22752778Y-34277009D01*
X22752779Y-34277011D01*
X22836443Y-34433533D01*
X22836443Y-34433534D01*
X22887963Y-34603373D01*
X22905359Y-34780000D01*
X22887963Y-34956627D01*
X22869763Y-35016625D01*
X22836443Y-35126467D01*
X22804372Y-35186466D01*
X22752778Y-35282991D01*
X22723448Y-35318729D01*
X22640186Y-35420186D01*
X22538729Y-35503448D01*
X22502991Y-35532778D01*
X22502989Y-35532779D01*
X22346467Y-35616443D01*
X22289853Y-35633616D01*
X22176627Y-35667963D01*
X22110443Y-35674481D01*
X22044260Y-35681000D01*
X21955740Y-35681000D01*
X21889557Y-35674481D01*
X21823373Y-35667963D01*
X21710147Y-35633616D01*
X21653533Y-35616443D01*
X21497011Y-35532779D01*
X21497009Y-35532778D01*
X21461271Y-35503448D01*
X21359814Y-35420186D01*
X21276552Y-35318729D01*
X21247222Y-35282991D01*
X21195628Y-35186466D01*
X21163557Y-35126467D01*
X21130237Y-35016625D01*
X21112037Y-34956627D01*
X21094641Y-34780000D01*
X21112037Y-34603373D01*
X21163557Y-34433534D01*
X21163557Y-34433533D01*
X21247221Y-34277011D01*
X21247222Y-34277009D01*
X21276552Y-34241271D01*
X21359814Y-34139814D01*
X21461271Y-34056552D01*
X21497009Y-34027222D01*
X21541283Y-34003557D01*
X21653533Y-33943557D01*
X21710147Y-33926384D01*
X21823373Y-33892037D01*
X21889558Y-33885518D01*
X21955740Y-33879000D01*
X22044260Y-33879000D01*
X22110442Y-33885518D01*
X22110442Y-33885518D01*
G37*
G36*
X30580297Y-35230920D02*
X28728297Y-35230920D01*
X28728297Y-34578920D01*
X30580297Y-34578920D01*
X30580297Y-35230920D01*
X30580297Y-35230920D01*
G37*
G36*
X37980297Y-35230920D02*
X36128297Y-35230920D01*
X36128297Y-34578920D01*
X37980297Y-34578920D01*
X37980297Y-35230920D01*
X37980297Y-35230920D01*
G37*
G36*
X42301000Y-34251000D02*
X40999000Y-34251000D01*
X40999000Y-33249000D01*
X42301000Y-33249000D01*
X42301000Y-34251000D01*
X42301000Y-34251000D01*
G37*
G36*
X44501000Y-34251000D02*
X43199000Y-34251000D01*
X43199000Y-33249000D01*
X44501000Y-33249000D01*
X44501000Y-34251000D01*
X44501000Y-34251000D01*
G37*
G36*
X48151000Y-33551000D02*
X45949000Y-33551000D01*
X45949000Y-31649000D01*
X48151000Y-31649000D01*
X48151000Y-33551000D01*
X48151000Y-33551000D01*
G37*
G36*
X51051000Y-33551000D02*
X48849000Y-33551000D01*
X48849000Y-31649000D01*
X51051000Y-31649000D01*
X51051000Y-33551000D01*
X51051000Y-33551000D01*
G37*
G36*
X68090527Y-31403557D02*
X68176627Y-31412037D01*
X68289853Y-31446384D01*
X68346467Y-31463557D01*
X68390740Y-31487222D01*
X68502991Y-31547222D01*
X68538729Y-31576552D01*
X68640186Y-31659814D01*
X68703537Y-31737009D01*
X68752778Y-31797009D01*
X68752779Y-31797011D01*
X68836443Y-31953533D01*
X68836443Y-31953534D01*
X68887963Y-32123373D01*
X68905359Y-32300000D01*
X68887963Y-32476627D01*
X68854644Y-32586466D01*
X68836443Y-32646467D01*
X68820657Y-32676000D01*
X68752778Y-32802991D01*
X68723448Y-32838729D01*
X68640186Y-32940186D01*
X68538729Y-33023448D01*
X68502991Y-33052778D01*
X68502989Y-33052779D01*
X68346467Y-33136443D01*
X68331444Y-33141000D01*
X68176627Y-33187963D01*
X68110443Y-33194481D01*
X68044260Y-33201000D01*
X67955740Y-33201000D01*
X67889557Y-33194481D01*
X67823373Y-33187963D01*
X67668556Y-33141000D01*
X67653533Y-33136443D01*
X67497011Y-33052779D01*
X67497009Y-33052778D01*
X67461271Y-33023448D01*
X67359814Y-32940186D01*
X67276552Y-32838729D01*
X67247222Y-32802991D01*
X67179343Y-32676000D01*
X67163557Y-32646467D01*
X67145356Y-32586466D01*
X67112037Y-32476627D01*
X67094641Y-32300000D01*
X67112037Y-32123373D01*
X67163557Y-31953534D01*
X67163557Y-31953533D01*
X67247221Y-31797011D01*
X67247222Y-31797009D01*
X67296463Y-31737009D01*
X67359814Y-31659814D01*
X67461271Y-31576552D01*
X67497009Y-31547222D01*
X67609260Y-31487222D01*
X67653533Y-31463557D01*
X67710147Y-31446384D01*
X67823373Y-31412037D01*
X67909473Y-31403557D01*
X67955740Y-31399000D01*
X68044260Y-31399000D01*
X68090527Y-31403557D01*
X68090527Y-31403557D01*
G37*
G36*
X22110443Y-31345519D02*
X22176627Y-31352037D01*
X22289853Y-31386384D01*
X22346467Y-31403557D01*
X22458717Y-31463557D01*
X22502991Y-31487222D01*
X22538729Y-31516552D01*
X22640186Y-31599814D01*
X22723448Y-31701271D01*
X22752778Y-31737009D01*
X22752779Y-31737011D01*
X22836443Y-31893533D01*
X22836443Y-31893534D01*
X22887963Y-32063373D01*
X22905359Y-32240000D01*
X22887963Y-32416627D01*
X22869763Y-32476625D01*
X22836443Y-32586467D01*
X22804372Y-32646466D01*
X22752778Y-32742991D01*
X22723448Y-32778729D01*
X22640186Y-32880186D01*
X22541810Y-32960920D01*
X22502991Y-32992778D01*
X22502989Y-32992779D01*
X22346467Y-33076443D01*
X22289853Y-33093616D01*
X22176627Y-33127963D01*
X22110443Y-33134481D01*
X22044260Y-33141000D01*
X21955740Y-33141000D01*
X21889557Y-33134481D01*
X21823373Y-33127963D01*
X21710147Y-33093616D01*
X21653533Y-33076443D01*
X21497011Y-32992779D01*
X21497009Y-32992778D01*
X21458190Y-32960920D01*
X21359814Y-32880186D01*
X21276552Y-32778729D01*
X21247222Y-32742991D01*
X21195628Y-32646466D01*
X21163557Y-32586467D01*
X21130237Y-32476625D01*
X21112037Y-32416627D01*
X21094641Y-32240000D01*
X21112037Y-32063373D01*
X21163557Y-31893534D01*
X21163557Y-31893533D01*
X21247221Y-31737011D01*
X21247222Y-31737009D01*
X21276552Y-31701271D01*
X21359814Y-31599814D01*
X21461271Y-31516552D01*
X21497009Y-31487222D01*
X21541283Y-31463557D01*
X21653533Y-31403557D01*
X21710147Y-31386384D01*
X21823373Y-31352037D01*
X21889557Y-31345519D01*
X21955740Y-31339000D01*
X22044260Y-31339000D01*
X22110443Y-31345519D01*
X22110443Y-31345519D01*
G37*
G36*
X35610297Y-32960920D02*
X34908297Y-32960920D01*
X34908297Y-31358920D01*
X35610297Y-31358920D01*
X35610297Y-32960920D01*
X35610297Y-32960920D01*
G37*
G36*
X34340297Y-32960920D02*
X33638297Y-32960920D01*
X33638297Y-31358920D01*
X34340297Y-31358920D01*
X34340297Y-32960920D01*
X34340297Y-32960920D01*
G37*
G36*
X33070297Y-32960920D02*
X32368297Y-32960920D01*
X32368297Y-31358920D01*
X33070297Y-31358920D01*
X33070297Y-32960920D01*
X33070297Y-32960920D01*
G37*
G36*
X31800297Y-32960920D02*
X31098297Y-32960920D01*
X31098297Y-31358920D01*
X31800297Y-31358920D01*
X31800297Y-32960920D01*
X31800297Y-32960920D01*
G37*
G36*
X30530297Y-32960920D02*
X29828297Y-32960920D01*
X29828297Y-31358920D01*
X30530297Y-31358920D01*
X30530297Y-32960920D01*
X30530297Y-32960920D01*
G37*
G36*
X36880297Y-32960920D02*
X36178297Y-32960920D01*
X36178297Y-31358920D01*
X36880297Y-31358920D01*
X36880297Y-32960920D01*
X36880297Y-32960920D01*
G37*
G36*
X38150297Y-32960920D02*
X37448297Y-32960920D01*
X37448297Y-31358920D01*
X38150297Y-31358920D01*
X38150297Y-32960920D01*
X38150297Y-32960920D01*
G37*
G36*
X29260297Y-32960920D02*
X28558297Y-32960920D01*
X28558297Y-31358920D01*
X29260297Y-31358920D01*
X29260297Y-32960920D01*
X29260297Y-32960920D01*
G37*
G36*
X44601000Y-32676000D02*
X43299000Y-32676000D01*
X43299000Y-31824000D01*
X44601000Y-31824000D01*
X44601000Y-32676000D01*
X44601000Y-32676000D01*
G37*
G36*
X42701000Y-32676000D02*
X41399000Y-32676000D01*
X41399000Y-31824000D01*
X42701000Y-31824000D01*
X42701000Y-32676000D01*
X42701000Y-32676000D01*
G37*
G36*
X52101000Y-31176000D02*
X50799000Y-31176000D01*
X50799000Y-30324000D01*
X52101000Y-30324000D01*
X52101000Y-31176000D01*
X52101000Y-31176000D01*
G37*
G36*
X50201000Y-31176000D02*
X48899000Y-31176000D01*
X48899000Y-30324000D01*
X50201000Y-30324000D01*
X50201000Y-31176000D01*
X50201000Y-31176000D01*
G37*
G36*
X48351000Y-31176000D02*
X47049000Y-31176000D01*
X47049000Y-30324000D01*
X48351000Y-30324000D01*
X48351000Y-31176000D01*
X48351000Y-31176000D01*
G37*
G36*
X46451000Y-31176000D02*
X45149000Y-31176000D01*
X45149000Y-30324000D01*
X46451000Y-30324000D01*
X46451000Y-31176000D01*
X46451000Y-31176000D01*
G37*
G36*
X42701000Y-31176000D02*
X41399000Y-31176000D01*
X41399000Y-30324000D01*
X42701000Y-30324000D01*
X42701000Y-31176000D01*
X42701000Y-31176000D01*
G37*
G36*
X44601000Y-31176000D02*
X43299000Y-31176000D01*
X43299000Y-30324000D01*
X44601000Y-30324000D01*
X44601000Y-31176000D01*
X44601000Y-31176000D01*
G37*
G36*
X68090527Y-28863557D02*
X68176627Y-28872037D01*
X68289853Y-28906384D01*
X68346467Y-28923557D01*
X68390740Y-28947222D01*
X68502991Y-29007222D01*
X68538729Y-29036552D01*
X68640186Y-29119814D01*
X68703537Y-29197009D01*
X68752778Y-29257009D01*
X68752779Y-29257011D01*
X68836443Y-29413533D01*
X68836443Y-29413534D01*
X68887963Y-29583373D01*
X68905359Y-29760000D01*
X68887963Y-29936627D01*
X68854644Y-30046466D01*
X68836443Y-30106467D01*
X68784850Y-30202989D01*
X68752778Y-30262991D01*
X68723448Y-30298729D01*
X68640186Y-30400186D01*
X68538729Y-30483448D01*
X68502991Y-30512778D01*
X68502989Y-30512779D01*
X68346467Y-30596443D01*
X68331444Y-30601000D01*
X68176627Y-30647963D01*
X68110442Y-30654482D01*
X68044260Y-30661000D01*
X67955740Y-30661000D01*
X67889558Y-30654482D01*
X67823373Y-30647963D01*
X67668556Y-30601000D01*
X67653533Y-30596443D01*
X67497011Y-30512779D01*
X67497009Y-30512778D01*
X67461271Y-30483448D01*
X67359814Y-30400186D01*
X67276552Y-30298729D01*
X67247222Y-30262991D01*
X67215150Y-30202989D01*
X67163557Y-30106467D01*
X67145356Y-30046466D01*
X67112037Y-29936627D01*
X67094641Y-29760000D01*
X67112037Y-29583373D01*
X67163557Y-29413534D01*
X67163557Y-29413533D01*
X67247221Y-29257011D01*
X67247222Y-29257009D01*
X67296463Y-29197009D01*
X67359814Y-29119814D01*
X67461271Y-29036552D01*
X67497009Y-29007222D01*
X67609260Y-28947222D01*
X67653533Y-28923557D01*
X67710147Y-28906384D01*
X67823373Y-28872037D01*
X67909473Y-28863557D01*
X67955740Y-28859000D01*
X68044260Y-28859000D01*
X68090527Y-28863557D01*
X68090527Y-28863557D01*
G37*
G36*
X22110442Y-28805518D02*
X22176627Y-28812037D01*
X22289853Y-28846384D01*
X22346467Y-28863557D01*
X22458717Y-28923557D01*
X22502991Y-28947222D01*
X22538729Y-28976552D01*
X22640186Y-29059814D01*
X22723448Y-29161271D01*
X22752778Y-29197009D01*
X22752779Y-29197011D01*
X22836443Y-29353533D01*
X22836443Y-29353534D01*
X22887963Y-29523373D01*
X22905359Y-29700000D01*
X22887963Y-29876627D01*
X22869763Y-29936625D01*
X22836443Y-30046467D01*
X22804372Y-30106466D01*
X22752778Y-30202991D01*
X22723448Y-30238729D01*
X22640186Y-30340186D01*
X22538729Y-30423448D01*
X22502991Y-30452778D01*
X22502989Y-30452779D01*
X22346467Y-30536443D01*
X22289853Y-30553616D01*
X22176627Y-30587963D01*
X22110443Y-30594481D01*
X22044260Y-30601000D01*
X21955740Y-30601000D01*
X21889557Y-30594481D01*
X21823373Y-30587963D01*
X21710147Y-30553616D01*
X21653533Y-30536443D01*
X21497011Y-30452779D01*
X21497009Y-30452778D01*
X21461271Y-30423448D01*
X21359814Y-30340186D01*
X21276552Y-30238729D01*
X21247222Y-30202991D01*
X21195628Y-30106466D01*
X21163557Y-30046467D01*
X21130237Y-29936625D01*
X21112037Y-29876627D01*
X21094641Y-29700000D01*
X21112037Y-29523373D01*
X21163557Y-29353534D01*
X21163557Y-29353533D01*
X21247221Y-29197011D01*
X21247222Y-29197009D01*
X21276552Y-29161271D01*
X21359814Y-29059814D01*
X21461271Y-28976552D01*
X21497009Y-28947222D01*
X21541283Y-28923557D01*
X21653533Y-28863557D01*
X21710147Y-28846384D01*
X21823373Y-28812037D01*
X21889558Y-28805518D01*
X21955740Y-28799000D01*
X22044260Y-28799000D01*
X22110442Y-28805518D01*
X22110442Y-28805518D01*
G37*
G36*
X34826000Y-29751000D02*
X33974000Y-29751000D01*
X33974000Y-28449000D01*
X34826000Y-28449000D01*
X34826000Y-29751000D01*
X34826000Y-29751000D01*
G37*
G36*
X47701000Y-29176000D02*
X46399000Y-29176000D01*
X46399000Y-28324000D01*
X47701000Y-28324000D01*
X47701000Y-29176000D01*
X47701000Y-29176000D01*
G37*
G36*
X49601000Y-29176000D02*
X48299000Y-29176000D01*
X48299000Y-28324000D01*
X49601000Y-28324000D01*
X49601000Y-29176000D01*
X49601000Y-29176000D01*
G37*
G36*
X38601000Y-28926000D02*
X37299000Y-28926000D01*
X37299000Y-28074000D01*
X38601000Y-28074000D01*
X38601000Y-28926000D01*
X38601000Y-28926000D01*
G37*
G36*
X36701000Y-28926000D02*
X35399000Y-28926000D01*
X35399000Y-28074000D01*
X36701000Y-28074000D01*
X36701000Y-28926000D01*
X36701000Y-28926000D01*
G37*
G36*
X44851000Y-28551000D02*
X40149000Y-28551000D01*
X40149000Y-27799000D01*
X44851000Y-27799000D01*
X44851000Y-28551000D01*
X44851000Y-28551000D01*
G37*
G36*
X68090527Y-26323557D02*
X68176627Y-26332037D01*
X68289853Y-26366384D01*
X68346467Y-26383557D01*
X68390740Y-26407222D01*
X68502991Y-26467222D01*
X68538729Y-26496552D01*
X68640186Y-26579814D01*
X68703537Y-26657009D01*
X68752778Y-26717009D01*
X68752779Y-26717011D01*
X68836443Y-26873533D01*
X68836443Y-26873534D01*
X68887963Y-27043373D01*
X68905359Y-27220000D01*
X68887963Y-27396627D01*
X68856302Y-27501000D01*
X68836443Y-27566467D01*
X68817984Y-27601000D01*
X68752778Y-27722991D01*
X68723448Y-27758729D01*
X68640186Y-27860186D01*
X68538729Y-27943448D01*
X68502991Y-27972778D01*
X68502989Y-27972779D01*
X68346467Y-28056443D01*
X68331444Y-28061000D01*
X68176627Y-28107963D01*
X68110443Y-28114481D01*
X68044260Y-28121000D01*
X67955740Y-28121000D01*
X67889557Y-28114481D01*
X67823373Y-28107963D01*
X67668556Y-28061000D01*
X67653533Y-28056443D01*
X67497011Y-27972779D01*
X67497009Y-27972778D01*
X67461271Y-27943448D01*
X67359814Y-27860186D01*
X67276552Y-27758729D01*
X67247222Y-27722991D01*
X67182016Y-27601000D01*
X67163557Y-27566467D01*
X67143698Y-27501000D01*
X67112037Y-27396627D01*
X67094641Y-27220000D01*
X67112037Y-27043373D01*
X67163557Y-26873534D01*
X67163557Y-26873533D01*
X67247221Y-26717011D01*
X67247222Y-26717009D01*
X67296463Y-26657009D01*
X67359814Y-26579814D01*
X67461271Y-26496552D01*
X67497009Y-26467222D01*
X67609260Y-26407222D01*
X67653533Y-26383557D01*
X67710147Y-26366384D01*
X67823373Y-26332037D01*
X67909473Y-26323557D01*
X67955740Y-26319000D01*
X68044260Y-26319000D01*
X68090527Y-26323557D01*
X68090527Y-26323557D01*
G37*
G36*
X22110443Y-26265519D02*
X22176627Y-26272037D01*
X22289853Y-26306384D01*
X22346467Y-26323557D01*
X22458717Y-26383557D01*
X22502991Y-26407222D01*
X22538729Y-26436552D01*
X22640186Y-26519814D01*
X22723448Y-26621271D01*
X22752778Y-26657009D01*
X22752779Y-26657011D01*
X22836443Y-26813533D01*
X22836443Y-26813534D01*
X22887963Y-26983373D01*
X22905359Y-27160000D01*
X22887963Y-27336627D01*
X22869763Y-27396625D01*
X22836443Y-27506467D01*
X22804372Y-27566466D01*
X22752778Y-27662991D01*
X22723448Y-27698729D01*
X22640186Y-27800186D01*
X22538729Y-27883448D01*
X22502991Y-27912778D01*
X22502989Y-27912779D01*
X22346467Y-27996443D01*
X22289853Y-28013616D01*
X22176627Y-28047963D01*
X22110442Y-28054482D01*
X22044260Y-28061000D01*
X21955740Y-28061000D01*
X21889558Y-28054482D01*
X21823373Y-28047963D01*
X21710147Y-28013616D01*
X21653533Y-27996443D01*
X21497011Y-27912779D01*
X21497009Y-27912778D01*
X21461271Y-27883448D01*
X21359814Y-27800186D01*
X21276552Y-27698729D01*
X21247222Y-27662991D01*
X21195628Y-27566466D01*
X21163557Y-27506467D01*
X21130237Y-27396625D01*
X21112037Y-27336627D01*
X21094641Y-27160000D01*
X21112037Y-26983373D01*
X21163557Y-26813534D01*
X21163557Y-26813533D01*
X21247221Y-26657011D01*
X21247222Y-26657009D01*
X21276552Y-26621271D01*
X21359814Y-26519814D01*
X21461271Y-26436552D01*
X21497009Y-26407222D01*
X21541283Y-26383557D01*
X21653533Y-26323557D01*
X21710147Y-26306384D01*
X21823373Y-26272037D01*
X21889557Y-26265519D01*
X21955740Y-26259000D01*
X22044260Y-26259000D01*
X22110443Y-26265519D01*
X22110443Y-26265519D01*
G37*
G36*
X34826000Y-27851000D02*
X33974000Y-27851000D01*
X33974000Y-26549000D01*
X34826000Y-26549000D01*
X34826000Y-27851000D01*
X34826000Y-27851000D01*
G37*
G36*
X45801000Y-27601000D02*
X45049000Y-27601000D01*
X45049000Y-22899000D01*
X45801000Y-22899000D01*
X45801000Y-27601000D01*
X45801000Y-27601000D01*
G37*
G36*
X39951000Y-27601000D02*
X39199000Y-27601000D01*
X39199000Y-22899000D01*
X39951000Y-22899000D01*
X39951000Y-27601000D01*
X39951000Y-27601000D01*
G37*
G36*
X44751000Y-27501000D02*
X40249000Y-27501000D01*
X40249000Y-22999000D01*
X44751000Y-22999000D01*
X44751000Y-27501000D01*
X44751000Y-27501000D01*
G37*
G36*
X38601000Y-27426000D02*
X37299000Y-27426000D01*
X37299000Y-26574000D01*
X38601000Y-26574000D01*
X38601000Y-27426000D01*
X38601000Y-27426000D01*
G37*
G36*
X36701000Y-27426000D02*
X35399000Y-27426000D01*
X35399000Y-26574000D01*
X36701000Y-26574000D01*
X36701000Y-27426000D01*
X36701000Y-27426000D01*
G37*
G36*
X50751000Y-26501000D02*
X49449000Y-26501000D01*
X49449000Y-25499000D01*
X50751000Y-25499000D01*
X50751000Y-26501000D01*
X50751000Y-26501000D01*
G37*
G36*
X48551000Y-26501000D02*
X47249000Y-26501000D01*
X47249000Y-25499000D01*
X48551000Y-25499000D01*
X48551000Y-26501000D01*
X48551000Y-26501000D01*
G37*
G36*
X68090527Y-23783557D02*
X68176627Y-23792037D01*
X68289853Y-23826384D01*
X68346467Y-23843557D01*
X68390740Y-23867222D01*
X68502991Y-23927222D01*
X68538729Y-23956552D01*
X68640186Y-24039814D01*
X68703537Y-24117009D01*
X68752778Y-24177009D01*
X68752779Y-24177011D01*
X68836443Y-24333533D01*
X68836443Y-24333534D01*
X68887963Y-24503373D01*
X68905359Y-24680000D01*
X68887963Y-24856627D01*
X68875109Y-24899000D01*
X68836443Y-25026467D01*
X68784850Y-25122989D01*
X68752778Y-25182991D01*
X68737998Y-25201000D01*
X68640186Y-25320186D01*
X68538729Y-25403448D01*
X68502991Y-25432778D01*
X68502989Y-25432779D01*
X68346467Y-25516443D01*
X68331444Y-25521000D01*
X68176627Y-25567963D01*
X68110443Y-25574481D01*
X68044260Y-25581000D01*
X67955740Y-25581000D01*
X67889557Y-25574481D01*
X67823373Y-25567963D01*
X67668556Y-25521000D01*
X67653533Y-25516443D01*
X67497011Y-25432779D01*
X67497009Y-25432778D01*
X67461271Y-25403448D01*
X67359814Y-25320186D01*
X67262002Y-25201000D01*
X67247222Y-25182991D01*
X67215150Y-25122989D01*
X67163557Y-25026467D01*
X67124891Y-24899000D01*
X67112037Y-24856627D01*
X67094641Y-24680000D01*
X67112037Y-24503373D01*
X67163557Y-24333534D01*
X67163557Y-24333533D01*
X67247221Y-24177011D01*
X67247222Y-24177009D01*
X67296463Y-24117009D01*
X67359814Y-24039814D01*
X67461271Y-23956552D01*
X67497009Y-23927222D01*
X67609260Y-23867222D01*
X67653533Y-23843557D01*
X67710147Y-23826384D01*
X67823373Y-23792037D01*
X67909473Y-23783557D01*
X67955740Y-23779000D01*
X68044260Y-23779000D01*
X68090527Y-23783557D01*
X68090527Y-23783557D01*
G37*
G36*
X22110443Y-23725519D02*
X22176627Y-23732037D01*
X22289853Y-23766384D01*
X22346467Y-23783557D01*
X22458717Y-23843557D01*
X22502991Y-23867222D01*
X22538729Y-23896552D01*
X22640186Y-23979814D01*
X22723448Y-24081271D01*
X22752778Y-24117009D01*
X22752779Y-24117011D01*
X22836443Y-24273533D01*
X22836443Y-24273534D01*
X22887963Y-24443373D01*
X22905359Y-24620000D01*
X22887963Y-24796627D01*
X22853616Y-24909853D01*
X22836443Y-24966467D01*
X22804372Y-25026466D01*
X22752778Y-25122991D01*
X22723448Y-25158729D01*
X22640186Y-25260186D01*
X22538729Y-25343448D01*
X22502991Y-25372778D01*
X22502989Y-25372779D01*
X22346467Y-25456443D01*
X22289853Y-25473616D01*
X22176627Y-25507963D01*
X22110442Y-25514482D01*
X22044260Y-25521000D01*
X21955740Y-25521000D01*
X21889557Y-25514481D01*
X21823373Y-25507963D01*
X21710147Y-25473616D01*
X21653533Y-25456443D01*
X21497011Y-25372779D01*
X21497009Y-25372778D01*
X21461271Y-25343448D01*
X21359814Y-25260186D01*
X21276552Y-25158729D01*
X21247222Y-25122991D01*
X21195628Y-25026466D01*
X21163557Y-24966467D01*
X21146384Y-24909853D01*
X21112037Y-24796627D01*
X21094641Y-24620000D01*
X21112037Y-24443373D01*
X21163557Y-24273534D01*
X21163557Y-24273533D01*
X21247221Y-24117011D01*
X21247222Y-24117009D01*
X21276552Y-24081271D01*
X21359814Y-23979814D01*
X21461271Y-23896552D01*
X21497009Y-23867222D01*
X21541283Y-23843557D01*
X21653533Y-23783557D01*
X21710147Y-23766384D01*
X21823373Y-23732037D01*
X21889557Y-23725519D01*
X21955740Y-23719000D01*
X22044260Y-23719000D01*
X22110443Y-23725519D01*
X22110443Y-23725519D01*
G37*
G36*
X47701000Y-23676000D02*
X46399000Y-23676000D01*
X46399000Y-22824000D01*
X47701000Y-22824000D01*
X47701000Y-23676000D01*
X47701000Y-23676000D01*
G37*
G36*
X49601000Y-23676000D02*
X48299000Y-23676000D01*
X48299000Y-22824000D01*
X49601000Y-22824000D01*
X49601000Y-23676000D01*
X49601000Y-23676000D01*
G37*
G36*
X68090527Y-21243557D02*
X68176627Y-21252037D01*
X68289853Y-21286384D01*
X68346467Y-21303557D01*
X68390740Y-21327222D01*
X68502991Y-21387222D01*
X68538729Y-21416552D01*
X68640186Y-21499814D01*
X68703537Y-21577009D01*
X68752778Y-21637009D01*
X68752779Y-21637011D01*
X68836443Y-21793533D01*
X68836443Y-21793534D01*
X68887963Y-21963373D01*
X68905359Y-22140000D01*
X68887963Y-22316627D01*
X68854644Y-22426466D01*
X68836443Y-22486467D01*
X68784850Y-22582989D01*
X68752778Y-22642991D01*
X68723448Y-22678729D01*
X68640186Y-22780186D01*
X68538729Y-22863448D01*
X68502991Y-22892778D01*
X68502989Y-22892779D01*
X68346467Y-22976443D01*
X68331444Y-22981000D01*
X68176627Y-23027963D01*
X68110443Y-23034481D01*
X68044260Y-23041000D01*
X67955740Y-23041000D01*
X67889557Y-23034481D01*
X67823373Y-23027963D01*
X67668556Y-22981000D01*
X67653533Y-22976443D01*
X67497011Y-22892779D01*
X67497009Y-22892778D01*
X67461271Y-22863448D01*
X67359814Y-22780186D01*
X67276552Y-22678729D01*
X67247222Y-22642991D01*
X67215150Y-22582989D01*
X67163557Y-22486467D01*
X67145356Y-22426466D01*
X67112037Y-22316627D01*
X67094641Y-22140000D01*
X67112037Y-21963373D01*
X67163557Y-21793534D01*
X67163557Y-21793533D01*
X67247221Y-21637011D01*
X67247222Y-21637009D01*
X67296463Y-21577009D01*
X67359814Y-21499814D01*
X67461271Y-21416552D01*
X67497009Y-21387222D01*
X67609260Y-21327222D01*
X67653533Y-21303557D01*
X67710147Y-21286384D01*
X67823373Y-21252037D01*
X67909473Y-21243557D01*
X67955740Y-21239000D01*
X68044260Y-21239000D01*
X68090527Y-21243557D01*
X68090527Y-21243557D01*
G37*
G36*
X22110442Y-21185518D02*
X22176627Y-21192037D01*
X22289853Y-21226384D01*
X22346467Y-21243557D01*
X22458717Y-21303557D01*
X22502991Y-21327222D01*
X22538729Y-21356552D01*
X22640186Y-21439814D01*
X22723448Y-21541271D01*
X22752778Y-21577009D01*
X22752779Y-21577011D01*
X22836443Y-21733533D01*
X22836443Y-21733534D01*
X22887963Y-21903373D01*
X22905359Y-22080000D01*
X22887963Y-22256627D01*
X22869763Y-22316625D01*
X22836443Y-22426467D01*
X22804372Y-22486466D01*
X22752778Y-22582991D01*
X22723448Y-22618729D01*
X22640186Y-22720186D01*
X22538729Y-22803448D01*
X22502991Y-22832778D01*
X22502989Y-22832779D01*
X22346467Y-22916443D01*
X22289853Y-22933616D01*
X22176627Y-22967963D01*
X22110443Y-22974481D01*
X22044260Y-22981000D01*
X21955740Y-22981000D01*
X21889557Y-22974481D01*
X21823373Y-22967963D01*
X21710147Y-22933616D01*
X21653533Y-22916443D01*
X21497011Y-22832779D01*
X21497009Y-22832778D01*
X21461271Y-22803448D01*
X21359814Y-22720186D01*
X21276552Y-22618729D01*
X21247222Y-22582991D01*
X21195628Y-22486466D01*
X21163557Y-22426467D01*
X21130237Y-22316625D01*
X21112037Y-22256627D01*
X21094641Y-22080000D01*
X21112037Y-21903373D01*
X21163557Y-21733534D01*
X21163557Y-21733533D01*
X21247221Y-21577011D01*
X21247222Y-21577009D01*
X21276552Y-21541271D01*
X21359814Y-21439814D01*
X21461271Y-21356552D01*
X21497009Y-21327222D01*
X21541283Y-21303557D01*
X21653533Y-21243557D01*
X21710147Y-21226384D01*
X21823373Y-21192037D01*
X21889558Y-21185518D01*
X21955740Y-21179000D01*
X22044260Y-21179000D01*
X22110442Y-21185518D01*
X22110442Y-21185518D01*
G37*
G36*
X44851000Y-22701000D02*
X40149000Y-22701000D01*
X40149000Y-21949000D01*
X44851000Y-21949000D01*
X44851000Y-22701000D01*
X44851000Y-22701000D01*
G37*
G36*
X41926000Y-20851000D02*
X41074000Y-20851000D01*
X41074000Y-19549000D01*
X41926000Y-19549000D01*
X41926000Y-20851000D01*
X41926000Y-20851000D01*
G37*
G36*
X43426000Y-20851000D02*
X42574000Y-20851000D01*
X42574000Y-19549000D01*
X43426000Y-19549000D01*
X43426000Y-20851000D01*
X43426000Y-20851000D01*
G37*
G36*
X68090527Y-18703557D02*
X68176627Y-18712037D01*
X68289853Y-18746384D01*
X68346467Y-18763557D01*
X68390740Y-18787222D01*
X68502991Y-18847222D01*
X68538729Y-18876552D01*
X68640186Y-18959814D01*
X68703537Y-19037009D01*
X68752778Y-19097009D01*
X68752779Y-19097011D01*
X68836443Y-19253533D01*
X68836443Y-19253534D01*
X68887963Y-19423373D01*
X68905359Y-19600000D01*
X68887963Y-19776627D01*
X68854644Y-19886466D01*
X68836443Y-19946467D01*
X68784850Y-20042989D01*
X68752778Y-20102991D01*
X68723448Y-20138729D01*
X68640186Y-20240186D01*
X68538729Y-20323448D01*
X68502991Y-20352778D01*
X68502989Y-20352779D01*
X68346467Y-20436443D01*
X68331444Y-20441000D01*
X68176627Y-20487963D01*
X68110442Y-20494482D01*
X68044260Y-20501000D01*
X67955740Y-20501000D01*
X67889558Y-20494482D01*
X67823373Y-20487963D01*
X67668556Y-20441000D01*
X67653533Y-20436443D01*
X67497011Y-20352779D01*
X67497009Y-20352778D01*
X67461271Y-20323448D01*
X67359814Y-20240186D01*
X67276552Y-20138729D01*
X67247222Y-20102991D01*
X67215150Y-20042989D01*
X67163557Y-19946467D01*
X67145356Y-19886466D01*
X67112037Y-19776627D01*
X67094641Y-19600000D01*
X67112037Y-19423373D01*
X67163557Y-19253534D01*
X67163557Y-19253533D01*
X67247221Y-19097011D01*
X67247222Y-19097009D01*
X67296463Y-19037009D01*
X67359814Y-18959814D01*
X67461271Y-18876552D01*
X67497009Y-18847222D01*
X67609260Y-18787222D01*
X67653533Y-18763557D01*
X67710147Y-18746384D01*
X67823373Y-18712037D01*
X67909473Y-18703557D01*
X67955740Y-18699000D01*
X68044260Y-18699000D01*
X68090527Y-18703557D01*
X68090527Y-18703557D01*
G37*
G36*
X22110442Y-18645518D02*
X22176627Y-18652037D01*
X22289853Y-18686384D01*
X22346467Y-18703557D01*
X22458717Y-18763557D01*
X22502991Y-18787222D01*
X22538729Y-18816552D01*
X22640186Y-18899814D01*
X22723448Y-19001271D01*
X22752778Y-19037009D01*
X22752779Y-19037011D01*
X22836443Y-19193533D01*
X22836443Y-19193534D01*
X22887963Y-19363373D01*
X22905359Y-19540000D01*
X22887963Y-19716627D01*
X22869763Y-19776625D01*
X22836443Y-19886467D01*
X22804372Y-19946466D01*
X22752778Y-20042991D01*
X22723448Y-20078729D01*
X22640186Y-20180186D01*
X22538729Y-20263448D01*
X22502991Y-20292778D01*
X22502989Y-20292779D01*
X22346467Y-20376443D01*
X22289853Y-20393616D01*
X22176627Y-20427963D01*
X22110443Y-20434481D01*
X22044260Y-20441000D01*
X21955740Y-20441000D01*
X21889557Y-20434481D01*
X21823373Y-20427963D01*
X21710147Y-20393616D01*
X21653533Y-20376443D01*
X21497011Y-20292779D01*
X21497009Y-20292778D01*
X21461271Y-20263448D01*
X21359814Y-20180186D01*
X21276552Y-20078729D01*
X21247222Y-20042991D01*
X21195628Y-19946466D01*
X21163557Y-19886467D01*
X21130237Y-19776625D01*
X21112037Y-19716627D01*
X21094641Y-19540000D01*
X21112037Y-19363373D01*
X21163557Y-19193534D01*
X21163557Y-19193533D01*
X21247221Y-19037011D01*
X21247222Y-19037009D01*
X21276552Y-19001271D01*
X21359814Y-18899814D01*
X21461271Y-18816552D01*
X21497009Y-18787222D01*
X21541283Y-18763557D01*
X21653533Y-18703557D01*
X21710147Y-18686384D01*
X21823373Y-18652037D01*
X21889558Y-18645518D01*
X21955740Y-18639000D01*
X22044260Y-18639000D01*
X22110442Y-18645518D01*
X22110442Y-18645518D01*
G37*
G36*
X43426000Y-18951000D02*
X42574000Y-18951000D01*
X42574000Y-17649000D01*
X43426000Y-17649000D01*
X43426000Y-18951000D01*
X43426000Y-18951000D01*
G37*
G36*
X41926000Y-18951000D02*
X41074000Y-18951000D01*
X41074000Y-17649000D01*
X41926000Y-17649000D01*
X41926000Y-18951000D01*
X41926000Y-18951000D01*
G37*
G36*
X68110443Y-16165519D02*
X68176627Y-16172037D01*
X68289853Y-16206384D01*
X68346467Y-16223557D01*
X68485087Y-16297652D01*
X68502991Y-16307222D01*
X68538729Y-16336552D01*
X68640186Y-16419814D01*
X68723448Y-16521271D01*
X68752778Y-16557009D01*
X68752779Y-16557011D01*
X68836443Y-16713533D01*
X68836443Y-16713534D01*
X68887963Y-16883373D01*
X68905359Y-17060000D01*
X68887963Y-17236627D01*
X68853616Y-17349853D01*
X68836443Y-17406467D01*
X68762348Y-17545087D01*
X68752778Y-17562991D01*
X68723448Y-17598729D01*
X68640186Y-17700186D01*
X68538729Y-17783448D01*
X68502991Y-17812778D01*
X68502989Y-17812779D01*
X68346467Y-17896443D01*
X68331444Y-17901000D01*
X68176627Y-17947963D01*
X68110442Y-17954482D01*
X68044260Y-17961000D01*
X67955740Y-17961000D01*
X67889558Y-17954482D01*
X67823373Y-17947963D01*
X67668556Y-17901000D01*
X67653533Y-17896443D01*
X67497011Y-17812779D01*
X67497009Y-17812778D01*
X67461271Y-17783448D01*
X67359814Y-17700186D01*
X67276552Y-17598729D01*
X67247222Y-17562991D01*
X67237652Y-17545087D01*
X67163557Y-17406467D01*
X67146384Y-17349853D01*
X67112037Y-17236627D01*
X67094641Y-17060000D01*
X67112037Y-16883373D01*
X67163557Y-16713534D01*
X67163557Y-16713533D01*
X67247221Y-16557011D01*
X67247222Y-16557009D01*
X67276552Y-16521271D01*
X67359814Y-16419814D01*
X67461271Y-16336552D01*
X67497009Y-16307222D01*
X67514913Y-16297652D01*
X67653533Y-16223557D01*
X67710147Y-16206384D01*
X67823373Y-16172037D01*
X67889557Y-16165519D01*
X67955740Y-16159000D01*
X68044260Y-16159000D01*
X68110443Y-16165519D01*
X68110443Y-16165519D01*
G37*
G36*
X22901000Y-17901000D02*
X21099000Y-17901000D01*
X21099000Y-16099000D01*
X22901000Y-16099000D01*
X22901000Y-17901000D01*
X22901000Y-17901000D01*
G37*
M02*
